<?xml version="1.0" standalone="no"?>
 <!DOCTYPE svg PUBLIC "-//W3C//DTD SVG 1.1//EN" 
 "http://www.w3.org/Graphics/SVG/1.1/DTD/svg11.dtd"> 
<svg
  xmlns:svg="http://www.w3.org/2000/svg"
  xmlns="http://www.w3.org/2000/svg"
  xmlns:xlink="http://www.w3.org/1999/xlink"
  version="1.1"
  width="29.700220cm" height="21.000720cm" viewBox="0 0 297002200 210007200">
<title>SVG Picture created as =48-B_Silkscreen.svg date 2023/02/24 11:04:34 </title>
  <desc>Picture generated by PCBNEW </desc>
<g style="fill:#000000; fill-opacity:1.000000;stroke:#000000; stroke-opacity:1.000000;
stroke-linecap:round; stroke-linejoin:round;"
 transform="translate(0 0) scale(1 1)">
</g>
<g style="fill:#000000; fill-opacity:0.0; 
stroke:#000000; stroke-width:0.000000; stroke-opacity:1; 
stroke-linecap:round; stroke-linejoin:round;">
</g>
<g style="fill:#000000; fill-opacity:0.0; 
stroke:#000000; stroke-width:100000.000000; stroke-opacity:1; 
stroke-linecap:round; stroke-linejoin:round;">
<path d="M87622000 31496000
L73472000 31496000
" />
<path d="M201922000 88496000
L187772000 88496000
" />
<path d="M30472000 17346000
L30472000 31496000
" />
<path d="M16322000 69496000
L16322000 55346000
" />
<path d="M117470000 69494400
L111572000 69496000
" />
<path d="M182872000 50496000
L168722000 50496000
" />
<path d="M220972000 69496000
L206822000 69496000
" />
<path d="M68572000 88496000
L54422000 88496000
" />
<path d="M111572000 74346000
L144772000 74346000
" />
<path d="M163822000 17346000
L163822000 31496000
" />
<path d="M106672000 88496000
L92522000 88496000
" />
<path d="M240022000 55346000
L240022000 69496000
" />
<path d="M125722000 17346000
L125722000 31496000
" />
<path d="M35372000 36346000
L49522000 36346000
" />
<path d="M225872000 88496000
L225872000 74346000
" />
<path d="M187772000 69496000
L187772000 55346000
" />
<path d="M201922000 74346000
L201922000 88496000
" />
<path d="M220972000 36346000
L220972000 50496000
" />
<path d="M144772000 88496000
L111572000 88496000
" />
<path d="M133670000 50496000
L133670000 52222400
" />
<path d="M206822000 17346000
L220972000 17346000
" />
<path d="M92522000 17346000
L106672000 17346000
" />
<path d="M144772000 55346000
L144772000 69496000
" />
<path d="M35372000 17346000
L49522000 17346000
" />
<path d="M220972000 31496000
L206822000 31496000
" />
<path d="M54422000 55346000
L68572000 55346000
" />
<path d="M68572000 74346000
L68572000 88496000
" />
<path d="M168722000 74346000
L182872000 74346000
" />
<path d="M68572000 36346000
L68572000 50496000
" />
<path d="M30472000 36346000
L30472000 50496000
" />
<path d="M125722000 55346000
L125722000 67770000
" />
<path d="M182872000 74346000
L182872000 88496000
" />
<path d="M149672000 74346000
L163822000 74346000
" />
<path d="M106672000 17346000
L106672000 31496000
" />
<path d="M12070000.000000 87385400.000000 A5350001.000000 5350001.000000 0.0 0 0 17420000.000000 92735400.000000" />
<path d="M92522000 50496000
L92522000 36346000
" />
<path d="M54422000 74346000
L68572000 74346000
" />
<path d="M54422000 50496000
L54422000 36346000
" />
<path d="M122670000 50496000
L111572000 50496000
" />
<path d="M220972000 55346000
L220972000 69496000
" />
<path d="M187772000 36346000
L201922000 36346000
" />
<path d="M220972000 17346000
L220972000 31496000
" />
<path d="M54422000 17346000
L68572000 17346000
" />
<path d="M149672000 31496000
L149672000 17346000
" />
<path d="M35372000 74346000
L49522000 74346000
" />
<path d="M149672000 88496000
L149672000 74346000
" />
<path d="M130622000 31496000
L130622000 17346000
" />
<path d="M49522000 74346000
L49522000 88496000
" />
<path d="M187772000 55346000
L201922000 55346000
" />
<path d="M49522000 17346000
L49522000 31496000
" />
<path d="M225872000 55346000
L240022000 55346000
" />
<path d="M54422000 88496000
L54422000 74346000
" />
<path d="M87622000 88496000
L73472000 88496000
" />
<path d="M30472000 69496000
L16322000 69496000
" />
<path d="M30472000 31496000
L16322000 31496000
" />
<path d="M149672000 17346000
L163822000 17346000
" />
<path d="M128470000 71221200
L117470000 71221200
" />
<path d="M35372000 69496000
L35372000 55346000
" />
<path d="M17420000.000000 13091000.000000 A5350001.000000 5350001.000000 0.0 0 0 12070000.000000 18441000.000000" />
<path d="M163822000 69496000
L149672000 69496000
" />
<path d="M168722000 88496000
L168722000 74346000
" />
<path d="M68572000 50496000
L54422000 50496000
" />
<path d="M240022000 31496000
L225872000 31496000
" />
<path d="M130622000 55346000
L144772000 55346000
" />
<path d="M182872000 55346000
L182872000 69496000
" />
<path d="M111572000 17346000
L125722000 17346000
" />
<path d="M16322000 31496000
L16322000 17346000
" />
<path d="M87622000 17346000
L87622000 31496000
" />
<path d="M111572000 36346000
L125722000 36346000
" />
<path d="M106672000 55346000
L106672000 69496000
" />
<path d="M225872000 69496000
L225872000 55346000
" />
<path d="M87622000 36346000
L87622000 50496000
" />
<path d="M30472000 55346000
L30472000 69496000
" />
<path d="M163822000 74346000
L163822000 88496000
" />
<path d="M168722000 55346000
L182872000 55346000
" />
<path d="M54422000 69496000
L54422000 55346000
" />
<path d="M182872000 17346000
L182872000 31496000
" />
<path d="M30472000 50496000
L16322000 50496000
" />
<path d="M225872000 36346000
L240022000 36346000
" />
<path d="M16322000 88496000
L16322000 74346000
" />
<path d="M111572000 55346000
L125722000 55346000
" />
<path d="M244270000 87385400
L244270000 18441000
" />
<path d="M49522000 88496000
L35372000 88496000
" />
<path d="M168722000 17346000
L182872000 17346000
" />
<path d="M106672000 69496000
L92522000 69496000
" />
<path d="M163822000 55346000
L163822000 69496000
" />
<path d="M187772000 74346000
L201922000 74346000
" />
<path d="M54422000 31496000
L54422000 17346000
" />
<path d="M106672000 74346000
L106672000 88496000
" />
<path d="M240022000 74346000
L240022000 88496000
" />
<path d="M16322000 36346000
L30472000 36346000
" />
<path d="M220972000 74346000
L220972000 88496000
" />
<path d="M49522000 69496000
L35372000 69496000
" />
<path d="M225872000 31496000
L225872000 17346000
" />
<path d="M111572000 50496000
L111572000 36346000
" />
<path d="M12070000 18441000
L12070000 87385400
" />
<path d="M16322000 50496000
L16322000 36346000
" />
<path d="M16322000 55346000
L30472000 55346000
" />
<path d="M139470000 71221200
L139470000 69494400
" />
<path d="M111572000 31496000
L111572000 17346000
" />
<path d="M201922000 69496000
L187772000 69496000
" />
<path d="M187772000 50496000
L187772000 36346000
" />
<path d="M201922000 50496000
L187772000 50496000
" />
<path d="M206822000 36346000
L220972000 36346000
" />
<path d="M182872000 36346000
L182872000 50496000
" />
<path d="M130622000 17346000
L144772000 17346000
" />
<path d="M68572000 17346000
L68572000 31496000
" />
<path d="M220972000 50496000
L206822000 50496000
" />
<path d="M206822000 69496000
L206822000 55346000
" />
<path d="M240022000 36346000
L240022000 50496000
" />
<path d="M73472000 17346000
L87622000 17346000
" />
<path d="M73472000 50496000
L73472000 36346000
" />
<path d="M125722000 67770000
L130622000 67770000
" />
<path d="M130622000 67770000
L130622000 55346000
" />
<path d="M163822000 50496000
L149672000 50496000
" />
<path d="M168722000 50496000
L168722000 36346000
" />
<path d="M35372000 88496000
L35372000 74346000
" />
<path d="M92522000 55346000
L106672000 55346000
" />
<path d="M73472000 55346000
L87622000 55346000
" />
<path d="M35372000 31496000
L35372000 17346000
" />
<path d="M30472000 74346000
L30472000 88496000
" />
<path d="M49522000 55346000
L49522000 69496000
" />
<path d="M73472000 74346000
L87622000 74346000
" />
<path d="M106672000 50496000
L92522000 50496000
" />
<path d="M201922000 36346000
L201922000 50496000
" />
<path d="M225872000 50496000
L225872000 36346000
" />
<path d="M73472000 69496000
L73472000 55346000
" />
<path d="M49522000 31496000
L35372000 31496000
" />
<path d="M87622000 69496000
L73472000 69496000
" />
<path d="M187772000 88496000
L187772000 74346000
" />
<path d="M225872000 17346000
L240022000 17346000
" />
<path d="M106672000 31496000
L92522000 31496000
" />
<path d="M206822000 55346000
L220972000 55346000
" />
<path d="M168722000 69496000
L168722000 55346000
" />
<path d="M87622000 55346000
L87622000 69496000
" />
<path d="M206822000 88496000
L206822000 74346000
" />
<path d="M163822000 31496000
L149672000 31496000
" />
<path d="M68572000 69496000
L54422000 69496000
" />
<path d="M92522000 74346000
L106672000 74346000
" />
<path d="M92522000 69496000
L92522000 55346000
" />
<path d="M130622000 48770000
L130622000 36346000
" />
<path d="M182872000 31496000
L168722000 31496000
" />
<path d="M111572000 69496000
L111572000 55346000
" />
<path d="M73472000 31496000
L73472000 17346000
" />
<path d="M30472000 88496000
L16322000 88496000
" />
<path d="M240022000 50496000
L225872000 50496000
" />
<path d="M35372000 55346000
L49522000 55346000
" />
<path d="M206822000 50496000
L206822000 36346000
" />
<path d="M149672000 36346000
L163822000 36346000
" />
<path d="M238920000.000000 92735400.000000 A5350001.000000 5350001.000000 0.0 0 0 244270000.000000 87385400.000000" />
<path d="M133670000 52222400
L122670000 52222400
" />
<path d="M73472000 36346000
L87622000 36346000
" />
<path d="M187772000 17346000
L201922000 17346000
" />
<path d="M92522000 36346000
L106672000 36346000
" />
<path d="M149672000 55346000
L163822000 55346000
" />
<path d="M168722000 36346000
L182872000 36346000
" />
<path d="M144772000 74346000
L144772000 88496000
" />
<path d="M16322000 74346000
L30472000 74346000
" />
<path d="M49522000 50496000
L35372000 50496000
" />
<path d="M117470000 71221200
L117470000 69494400
" />
<path d="M68572000 55346000
L68572000 69496000
" />
<path d="M225872000 74346000
L240022000 74346000
" />
<path d="M201922000 31496000
L187772000 31496000
" />
<path d="M73472000 88496000
L73472000 74346000
" />
<path d="M87622000 50496000
L73472000 50496000
" />
<path d="M240022000 17346000
L240022000 31496000
" />
<path d="M206822000 74346000
L220972000 74346000
" />
<path d="M144772000 36346000
L144772000 50496000
" />
<path d="M87622000 74346000
L87622000 88496000
" />
<path d="M92522000 31496000
L92522000 17346000
" />
<path d="M240022000 69496000
L225872000 69496000
" />
<path d="M238920000 13091000
L17420000 13091000
" />
<path d="M144772000 31496000
L130622000 31496000
" />
<path d="M54422000 36346000
L68572000 36346000
" />
<path d="M201922000 17346000
L201922000 31496000
" />
<path d="M68572000 31496000
L54422000 31496000
" />
<path d="M206822000 31496000
L206822000 17346000
" />
<path d="M144772000 17346000
L144772000 31496000
" />
<path d="M182872000 88496000
L168722000 88496000
" />
<path d="M17420000 92735400
L238920000 92735400
" />
<path d="M144772000 69496000
L139470000 69494400
" />
<path d="M220972000 88496000
L206822000 88496000
" />
<path d="M163822000 36346000
L163822000 50496000
" />
<path d="M111572000 88496000
L111572000 74346000
" />
<path d="M35372000 50496000
L35372000 36346000
" />
<path d="M144772000 50496000
L133670000 50496000
" />
<path d="M125722000 48770000
L130622000 48770000
" />
<path d="M149672000 50496000
L149672000 36346000
" />
<path d="M125722000 36346000
L125722000 48770000
" />
<path d="M182872000 69496000
L168722000 69496000
" />
<path d="M16322000 17346000
L30472000 17346000
" />
<path d="M139470000 71221200
L128470000 71221200
" />
<path d="M130622000 36346000
L144772000 36346000
" />
<path d="M149672000 69496000
L149672000 55346000
" />
<path d="M106672000 36346000
L106672000 50496000
" />
<path d="M168722000 31496000
L168722000 17346000
" />
<path d="M125722000 31496000
L111572000 31496000
" />
<path d="M163822000 88496000
L149672000 88496000
" />
<path d="M122670000 52222400
L122670000 50496000
" />
<path d="M240022000 88496000
L225872000 88496000
" />
<path d="M201922000 55346000
L201922000 69496000
" />
<path d="M49522000 36346000
L49522000 50496000
" />
<path d="M92522000 88496000
L92522000 74346000
" />
<path d="M187772000 31496000
L187772000 17346000
" />
<path d="M244270000.000000 18441000.000000 A5350001.000000 5350001.000000 0.0 0 0 238920000.000000 13091000.000000" />
<g >
</g>
<g >
</g>
<g >
</g>
<g >
</g>
<g >
</g>
<g >
</g>
<g >
</g>
<g >
</g>
<g >
</g>
</g> 
</svg>
