<?xml version="1.0" standalone="no"?>
 <!DOCTYPE svg PUBLIC "-//W3C//DTD SVG 1.1//EN" 
 "http://www.w3.org/Graphics/SVG/1.1/DTD/svg11.dtd"> 
<svg
  xmlns:svg="http://www.w3.org/2000/svg"
  xmlns="http://www.w3.org/2000/svg"
  xmlns:xlink="http://www.w3.org/1999/xlink"
  version="1.1"
  width="297.002200mm" height="210.007200mm" viewBox="0.000000 0.000000 297.002200 210.007200">
<title>SVG Image created as uni_corne_plate-B_Mask.svg date 2024/02/14 07:02:28 </title>
  <desc>Image generated by PCBNEW </desc>
<g style="fill:#000000; fill-opacity:1.000000;stroke:#000000; stroke-opacity:1.000000;
stroke-linecap:round; stroke-linejoin:round;"
 transform="translate(0 0) scale(1 1)">
</g>
<g style="fill:#000000; fill-opacity:0.0; 
stroke:#000000; stroke-width:0.000000; stroke-opacity:1; 
stroke-linecap:round; stroke-linejoin:round;">
<g >
</g>
<g style="fill:#000000; fill-opacity:1.000000; 
stroke:#000000; stroke-width:0.000000; stroke-opacity:1; 
stroke-linecap:round; stroke-linejoin:round;">
<circle cx="113.512500" cy="101.555000" r="1.250000" /> 
</g>
<g style="fill:#000000; fill-opacity:1.000000; 
stroke:#000000; stroke-width:0.021200; stroke-opacity:1; 
stroke-linecap:round; stroke-linejoin:round;">
</g>
<g >
</g>
<g style="fill:#000000; fill-opacity:1.000000; 
stroke:#000000; stroke-width:0.021200; stroke-opacity:1; 
stroke-linecap:round; stroke-linejoin:round;">
</g>
<g style="fill:#000000; fill-opacity:1.000000; 
stroke:#000000; stroke-width:0.000000; stroke-opacity:1; 
stroke-linecap:round; stroke-linejoin:round;">
<circle cx="160.082500" cy="109.165000" r="1.250000" /> 
</g>
<g style="fill:#000000; fill-opacity:1.000000; 
stroke:#000000; stroke-width:0.021200; stroke-opacity:1; 
stroke-linecap:round; stroke-linejoin:round;">
</g>
<g >
</g>
<g style="fill:#000000; fill-opacity:1.000000; 
stroke:#000000; stroke-width:0.021200; stroke-opacity:1; 
stroke-linecap:round; stroke-linejoin:round;">
</g>
<g style="fill:#000000; fill-opacity:1.000000; 
stroke:#000000; stroke-width:0.000000; stroke-opacity:1; 
stroke-linecap:round; stroke-linejoin:round;">
<circle cx="70.362500" cy="84.315000" r="1.250000" /> 
</g>
<g style="fill:#000000; fill-opacity:1.000000; 
stroke:#000000; stroke-width:0.021200; stroke-opacity:1; 
stroke-linecap:round; stroke-linejoin:round;">
</g>
<g >
</g>
<g style="fill:#000000; fill-opacity:1.000000; 
stroke:#000000; stroke-width:0.021200; stroke-opacity:1; 
stroke-linecap:round; stroke-linejoin:round;">
</g>
<g style="fill:#000000; fill-opacity:1.000000; 
stroke:#000000; stroke-width:0.000000; stroke-opacity:1; 
stroke-linecap:round; stroke-linejoin:round;">
<circle cx="70.352500" cy="65.315000" r="1.250000" /> 
</g>
<g style="fill:#000000; fill-opacity:1.000000; 
stroke:#000000; stroke-width:0.021200; stroke-opacity:1; 
stroke-linecap:round; stroke-linejoin:round;">
</g>
<g >
</g>
<g style="fill:#000000; fill-opacity:1.000000; 
stroke:#000000; stroke-width:0.021200; stroke-opacity:1; 
stroke-linecap:round; stroke-linejoin:round;">
</g>
<g style="fill:#000000; fill-opacity:1.000000; 
stroke:#000000; stroke-width:0.000000; stroke-opacity:1; 
stroke-linecap:round; stroke-linejoin:round;">
<circle cx="146.322500" cy="61.795000" r="1.250000" /> 
</g>
<g style="fill:#000000; fill-opacity:1.000000; 
stroke:#000000; stroke-width:0.021200; stroke-opacity:1; 
stroke-linecap:round; stroke-linejoin:round;">
</g>
<g >
</g>
<g >
</g>
<g >
</g>
</g>
<g style="fill:#000000; fill-opacity:1.000000; 
stroke:#000000; stroke-width:0.021200; stroke-opacity:1; 
stroke-linecap:round; stroke-linejoin:round;">
</g>
<g style="fill:#000000; fill-opacity:0.0; 
stroke:#000000; stroke-width:0.100000; stroke-opacity:1; 
stroke-linecap:round; stroke-linejoin:round;">
<path d="M180.665986 46.963734 A0.499966 0.499966 0.0 0 0 180.165734 47.463736" />
<path d="M181.190000 85.990000 A0.500000 0.500000 0.0 0 0 180.690000 85.490000" />
<path d="M169.940000 88.070000
L169.940000 85.990000
" />
<path d="M179.715390 89.212411
L184.359508 89.210391
" />
<path d="M143.882192 44.036564
L143.882192 58.086564
" />
<path d="M162.882192 79.461564
L148.832192 79.461564
" />
<path d="M129.832192 58.086564
L129.832192 44.036564
" />
<path d="M86.882192 62.836564
L72.832192 62.836564
" />
<path d="M72.832192 67.786564
L86.882192 67.786564
" />
<path d="M92.763046 38.019159 A5.349941 5.349941 0.0 0 0 87.779303 41.423687" />
<path d="M91.832192 82.036564
L105.882192 82.036564
" />
<path d="M148.832192 79.461564
L148.832192 65.411564
" />
<path d="M143.882192 58.086564
L129.832192 58.086564
" />
<path d="M153.324617 120.040397
L139.753359 116.403989
" />
<path d="M146.970007 40.329366 A5.349958 5.349958 0.0 0 0 142.567472 38.019142" />
<path d="M156.961025 106.469139
L153.324617 120.040397
" />
<path d="M179.665734 52.826274
L171.415734 52.826274
" />
<path d="M110.832192 55.711564
L110.832192 41.661564
" />
<path d="M167.532448 131.626999 A5.350007 5.350007 0.0 0 0 174.839685 129.665077" />
<path d="M170.915734 52.326274
L170.915734 47.458572
" />
<path d="M156.235638 125.112421
L167.532441 131.627011
" />
<path d="M184.843988 88.830391
L184.843988 88.790391
" />
<path d="M53.832192 62.836564
L53.832192 48.786564
" />
<path d="M91.832192 63.036564
L105.882192 63.036564
" />
<circle cx="183.051192" cy="102.806564" r="2.100000" /> 
<path d="M110.832192 74.711564
L110.832192 60.661564
" />
<path d="M182.540733 42.776196
L182.540437 45.364057
" />
<path d="M124.882192 41.661564
L124.882192 55.711564
" />
<path d="M67.882192 81.836564
L53.832192 81.836564
" />
<path d="M170.915726 52.326274 A0.499974 0.499974 0.0 0 0 171.415734 52.826274" />
<path d="M134.382192 115.711564
L120.332192 115.711564
" />
<path d="M143.882192 82.036564
L143.882192 96.086564
" />
<path d="M170.915728 47.458572 A0.500028 0.500028 0.0 0 0 170.415986 46.958572" />
<path d="M148.832192 84.411564
L162.882192 84.411564
" />
<path d="M82.516096 45.019142
L55.516096 45.019142
" />
<path d="M187.616096 101.197891
L186.401897 101.197891
" />
<path d="M139.753359 116.403989
L143.389767 102.832732
" />
<path d="M124.882192 79.661564
L124.882192 93.711564
" />
<path d="M168.540733 42.769142
L151.619405 42.769142
" />
<path d="M50.166096 50.369142
L50.166096 99.619142
" />
<path d="M168.035864 105.590236
L180.203521 112.615236
" />
<path d="M105.882192 82.036564
L105.882192 96.086564
" />
<path d="M67.882192 48.786564
L67.882192 62.836564
" />
</g>
<g style="fill:#000000; fill-opacity:0.0; 
stroke:#000000; stroke-width:0.050000; stroke-opacity:1; 
stroke-linecap:round; stroke-linejoin:round;">
<path style="fill:#000000; fill-opacity:0.0; 
stroke:#000000; stroke-width:0.050000; stroke-opacity:1; 
stroke-linecap:round; stroke-linejoin:round;fill:none"
d="M 166.740000,53.690000
170.610000,53.690000
170.610000,59.970000
166.740000,59.970000
Z" /> 
</g>
<g style="fill:#000000; fill-opacity:0.0; 
stroke:#000000; stroke-width:0.100000; stroke-opacity:1; 
stroke-linecap:round; stroke-linejoin:round;">
<path d="M110.832192 93.711564
L110.832192 79.661564
" />
<path d="M110.832192 60.661564
L124.882192 60.661564
" />
<path d="M67.882192 100.836564
L53.832192 100.836564
" />
<path d="M180.689999 88.570001
L170.440000 88.570000
" />
<path d="M86.882192 67.786564
L86.882192 81.836564
" />
<path d="M148.832192 98.461564
L148.832192 84.411564
" />
<path d="M91.832192 58.086564
L91.832192 44.036564
" />
<path d="M187.616057 48.119142 A5.349957 5.349957 0.0 0 0 182.540733 42.776197" />
<path d="M179.220000 98.690000
L179.215390 89.712411
" />
<path d="M168.540667 45.358433 A1.600033 1.600033 0.0 0 0 170.139926 46.958433" />
<path d="M67.882192 67.786564
L67.882192 81.836564
" />
<path d="M129.832192 96.086564
L129.832192 82.036564
" />
<path d="M143.882192 77.086564
L129.832192 77.086564
" />
<path d="M105.882192 44.036564
L105.882192 58.086564
" />
<path d="M148.832192 60.461564
L148.832192 46.411564
" />
<path d="M179.665734 52.826334 A0.500034 0.500034 0.0 0 0 180.165734 52.326274" />
<path d="M91.832192 44.036564
L105.882192 44.036564
" />
<path d="M86.882192 86.786564
L86.882192 100.836564
" />
<path d="M91.832192 96.086564
L91.832192 82.036564
" />
<path d="M72.832192 81.836564
L72.832192 67.786564
" />
<path d="M86.882192 81.836564
L72.832192 81.836564
" />
<path d="M129.832192 82.036564
L143.882192 82.036564
" />
<path d="M170.415986 46.958572
L170.139926 46.958433
" />
<path d="M180.203521 112.615236
L173.178521 124.782893
" />
<path d="M143.882192 63.036564
L143.882192 77.086564
" />
<path d="M142.567472 38.019142
L92.763046 38.019142
" />
<path d="M129.832192 77.086564
L129.832192 63.036564
" />
<path d="M55.516096 45.019146 A5.349994 5.349994 0.0 0 0 50.166096 50.369142" />
<path d="M169.940000 88.070000 A0.500000 0.500000 0.0 0 0 170.440000 88.570000" />
<path d="M72.832192 62.836564
L72.832192 48.786564
" />
<path d="M72.832192 86.786564
L86.882192 86.786564
" />
<path d="M53.832192 67.786564
L67.882192 67.786564
" />
<path d="M124.882192 74.711564
L110.832192 74.711564
" />
<path d="M187.616096 106.077718
L187.616096 101.197891
" />
<path d="M168.540733 45.358433
L168.540733 42.769142
" />
<path d="M180.939631 46.963937 A1.600037 1.600037 0.0 0 0 182.540437 45.364057" />
<path d="M82.516096 45.019136 A5.649996 5.649996 0.0 0 0 87.779302 41.423687" />
<path d="M129.832192 63.036564
L143.882192 63.036564
" />
<path d="M134.382192 101.661564
L134.382192 115.711564
" />
<circle cx="168.619192" cy="94.285564" r="2.100000" /> 
<path d="M53.832192 48.786564
L67.882192 48.786564
" />
<path d="M170.440000 85.490000 A0.500000 0.500000 0.0 0 0 169.940000 85.990000" />
<path d="M120.332192 101.661564
L134.382192 101.661564
" />
<path d="M91.832192 77.086564
L91.832192 63.036564
" />
<path d="M184.364118 99.187980
L179.720000 99.190000
" />
<path d="M67.882192 62.836564
L53.832192 62.836564
" />
<path d="M53.832192 100.836564
L53.832192 86.786564
" />
<path d="M146.969984 40.329382 A5.650042 5.650042 0.0 0 0 151.619405 42.769142" />
<path d="M53.832192 86.786564
L67.882192 86.786564
" />
<path d="M105.882192 77.086564
L91.832192 77.086564
" />
<path d="M124.882192 60.661564
L124.882192 74.711564
" />
<path d="M116.251119 117.781624 A5.350004 5.350004 0.0 0 0 119.882875 119.935771" />
<path d="M162.882192 98.461564
L148.832192 98.461564
" />
<path d="M105.882192 96.086564
L91.832192 96.086564
" />
<path d="M53.832192 81.836564
L53.832192 67.786564
" />
<path d="M187.616096 87.201768
L187.616096 48.119142
" />
<path d="M55.516096 104.969142
L104.040255 104.969142
" />
</g>
<g style="fill:#000000; fill-opacity:0.0; 
stroke:#000000; stroke-width:0.200000; stroke-opacity:1; 
stroke-linecap:round; stroke-linejoin:round;">
<path d="M424.925367,111.394368 C424.925367,111.394368 424.925367,111.394368 424.925367,111.394368" />
</g>
<g style="fill:#000000; fill-opacity:0.0; 
stroke:#000000; stroke-width:0.100000; stroke-opacity:1; 
stroke-linecap:round; stroke-linejoin:round;">
<path d="M162.882192 84.411564
L162.882192 98.461564
" />
<path d="M186.395885 87.202480 A1.552320 1.552320 0.0 0 0 184.843988 88.790391" />
<path d="M180.939631 46.963874
L180.665986 46.963736
" />
<path d="M120.332192 115.711564
L120.332192 101.661564
" />
<path d="M187.616096 87.201768
L186.402901 87.202500
" />
<path d="M86.882192 48.786564
L86.882192 62.836564
" />
<path d="M161.010864 117.757893
L168.035864 105.590236
" />
<path d="M143.389767 102.832732
L156.961025 106.469139
" />
</g>
<g style="fill:#000000; fill-opacity:0.0; 
stroke:#000000; stroke-width:0.050000; stroke-opacity:1; 
stroke-linecap:round; stroke-linejoin:round;">
<path style="fill:#000000; fill-opacity:0.0; 
stroke:#000000; stroke-width:0.050000; stroke-opacity:1; 
stroke-linecap:round; stroke-linejoin:round;fill:none"
d="M 180.540000,53.690000
184.410000,53.690000
184.410000,59.970000
180.540000,59.970000
Z" /> 
</g>
<g style="fill:#000000; fill-opacity:0.0; 
stroke:#000000; stroke-width:0.100000; stroke-opacity:1; 
stroke-linecap:round; stroke-linejoin:round;">
<path d="M180.165734 47.463736
L180.165734 52.326274
" />
<path d="M67.882192 86.786564
L67.882192 100.836564
" />
<path d="M186.900677 108.750368 A5.349996 5.349996 0.0 0 0 187.616096 106.077718" />
<path d="M162.882192 65.411564
L162.882192 79.461564
" />
<path d="M119.882875 119.935772
L154.143842 124.404346
" />
<path d="M184.850000 99.610000
L184.850000 99.570000
" />
<path d="M156.235636 125.112425 A5.650008 5.650008 0.0 0 0 154.143842 124.404346" />
<path d="M184.849997 99.570001 A0.500020 0.500020 0.0 0 0 184.364118 99.187980" />
<path d="M124.882192 55.711564
L110.832192 55.711564
" />
<path d="M148.832192 65.411564
L162.882192 65.411564
" />
<path d="M180.689999 88.569999 A0.499999 0.499999 0.0 0 0 181.189999 88.070001" />
<path d="M179.220000 98.690000 A0.500000 0.500000 0.0 0 0 179.720000 99.190000" />
<path d="M72.832192 48.786564
L86.882192 48.786564
" />
<path d="M174.839685 129.665077
L186.900685 108.750373
" />
<path d="M108.606386 107.291537
L116.251121 117.781623
" />
<path d="M110.832192 41.661564
L124.882192 41.661564
" />
<path d="M50.166058 99.619142 A5.350042 5.350042 0.0 0 0 55.516096 104.969142" />
<path d="M162.882192 46.411564
L162.882192 60.461564
" />
<path d="M184.850017 99.610000 A1.552291 1.552291 0.0 0 0 186.401897 101.197891" />
<path d="M181.190000 85.990000
L181.189999 88.070001
" />
<path d="M124.882192 93.711564
L110.832192 93.711564
" />
</g>
<g style="fill:#000000; fill-opacity:0.0; 
stroke:#000000; stroke-width:0.200000; stroke-opacity:1; 
stroke-linecap:round; stroke-linejoin:round;">
<path d="M299.411433,111.386368 C299.411433,111.386368 299.411433,111.386368 299.411433,111.386368" />
</g>
<g style="fill:#000000; fill-opacity:0.0; 
stroke:#000000; stroke-width:0.100000; stroke-opacity:1; 
stroke-linecap:round; stroke-linejoin:round;">
<path d="M148.832192 46.411564
L162.882192 46.411564
" />
<path d="M105.882192 63.036564
L105.882192 77.086564
" />
<path d="M108.606401 107.291526 A5.649958 5.649958 0.0 0 0 104.040255 104.969142" />
<path d="M143.882192 96.086564
L129.832192 96.086564
" />
<path d="M170.440000 85.490000
L180.690000 85.490000
" />
<path d="M110.832192 79.661564
L124.882192 79.661564
" />
<path d="M105.882192 58.086564
L91.832192 58.086564
" />
<path d="M162.882192 60.461564
L148.832192 60.461564
" />
<path d="M179.715390 89.212390 A0.500010 0.500010 0.0 0 0 179.215390 89.712411" />
<path d="M173.178521 124.782893
L161.010864 117.757893
" />
<path d="M86.882192 100.836564
L72.832192 100.836564
" />
<path d="M72.832192 100.836564
L72.832192 86.786564
" />
<path d="M129.832192 44.036564
L143.882192 44.036564
" />
<path d="M184.358106 89.212409 A0.500009 0.500009 0.0 0 0 184.843988 88.830391" />
<g >
</g>
<g >
</g>
<g >
</g>
<g >
</g>
<g >
</g>
<g >
</g>
<g >
</g>
<g >
</g>
</g> 
</svg>
