<?xml version="1.0" standalone="no"?>
 <!DOCTYPE svg PUBLIC "-//W3C//DTD SVG 1.1//EN" 
 "http://www.w3.org/Graphics/SVG/1.1/DTD/svg11.dtd"> 
<svg
  xmlns:svg="http://www.w3.org/2000/svg"
  xmlns="http://www.w3.org/2000/svg"
  xmlns:xlink="http://www.w3.org/1999/xlink"
  version="1.1"
  width="297.002200mm" height="210.007200mm" viewBox="0.000000 0.000000 297.002200 210.007200">
<title>SVG Image created as uni_corne_plate-B_Cu.svg date 2024/02/14 07:02:28 </title>
  <desc>Image generated by PCBNEW </desc>
<g style="fill:#000000; fill-opacity:1.000000;stroke:#000000; stroke-opacity:1.000000;
stroke-linecap:round; stroke-linejoin:round;"
 transform="translate(0 0) scale(1 1)">
</g>
<g style="fill:#000000; fill-opacity:0.0; 
stroke:#000000; stroke-width:0.000000; stroke-opacity:1; 
stroke-linecap:round; stroke-linejoin:round;">
<g >
</g>
<g style="fill:#000000; fill-opacity:1.000000; 
stroke:#000000; stroke-width:0.000000; stroke-opacity:1; 
stroke-linecap:round; stroke-linejoin:round;">
<circle cx="113.512500" cy="101.555000" r="1.250000" /> 
</g>
<g style="fill:#000000; fill-opacity:1.000000; 
stroke:#000000; stroke-width:0.021200; stroke-opacity:1; 
stroke-linecap:round; stroke-linejoin:round;">
</g>
<g >
</g>
<g style="fill:#000000; fill-opacity:1.000000; 
stroke:#000000; stroke-width:0.021200; stroke-opacity:1; 
stroke-linecap:round; stroke-linejoin:round;">
</g>
<g style="fill:#000000; fill-opacity:1.000000; 
stroke:#000000; stroke-width:0.000000; stroke-opacity:1; 
stroke-linecap:round; stroke-linejoin:round;">
<circle cx="160.082500" cy="109.165000" r="1.250000" /> 
</g>
<g style="fill:#000000; fill-opacity:1.000000; 
stroke:#000000; stroke-width:0.021200; stroke-opacity:1; 
stroke-linecap:round; stroke-linejoin:round;">
</g>
<g >
</g>
<g style="fill:#000000; fill-opacity:1.000000; 
stroke:#000000; stroke-width:0.021200; stroke-opacity:1; 
stroke-linecap:round; stroke-linejoin:round;">
</g>
<g style="fill:#000000; fill-opacity:1.000000; 
stroke:#000000; stroke-width:0.000000; stroke-opacity:1; 
stroke-linecap:round; stroke-linejoin:round;">
<circle cx="70.362500" cy="84.315000" r="1.250000" /> 
</g>
<g style="fill:#000000; fill-opacity:1.000000; 
stroke:#000000; stroke-width:0.021200; stroke-opacity:1; 
stroke-linecap:round; stroke-linejoin:round;">
</g>
<g >
</g>
<g style="fill:#000000; fill-opacity:1.000000; 
stroke:#000000; stroke-width:0.021200; stroke-opacity:1; 
stroke-linecap:round; stroke-linejoin:round;">
</g>
<g style="fill:#000000; fill-opacity:1.000000; 
stroke:#000000; stroke-width:0.000000; stroke-opacity:1; 
stroke-linecap:round; stroke-linejoin:round;">
<circle cx="70.352500" cy="65.315000" r="1.250000" /> 
</g>
<g style="fill:#000000; fill-opacity:1.000000; 
stroke:#000000; stroke-width:0.021200; stroke-opacity:1; 
stroke-linecap:round; stroke-linejoin:round;">
</g>
<g >
</g>
<g style="fill:#000000; fill-opacity:1.000000; 
stroke:#000000; stroke-width:0.021200; stroke-opacity:1; 
stroke-linecap:round; stroke-linejoin:round;">
</g>
<g style="fill:#000000; fill-opacity:1.000000; 
stroke:#000000; stroke-width:0.000000; stroke-opacity:1; 
stroke-linecap:round; stroke-linejoin:round;">
<circle cx="146.322500" cy="61.795000" r="1.250000" /> 
</g>
<g style="fill:#000000; fill-opacity:1.000000; 
stroke:#000000; stroke-width:0.021200; stroke-opacity:1; 
stroke-linecap:round; stroke-linejoin:round;">
</g>
<g >
</g>
<g >
</g>
<g >
</g>
<g style="fill:#000000; fill-opacity:1.000000; 
stroke:#000000; stroke-width:0.021200; stroke-opacity:1; 
stroke-linecap:round; stroke-linejoin:round;">
<g >
</g>
<g style="fill:#000000; fill-opacity:1.000000; 
stroke:#000000; stroke-width:0.000000; stroke-opacity:1; 
stroke-linecap:round; stroke-linejoin:round;">
<path style="fill:#000000; fill-opacity:1.000000; 
stroke:#000000; stroke-width:0.000000; stroke-opacity:1; 
stroke-linecap:round; stroke-linejoin:round;fill-rule:evenodd;"
d="M 142.554625,38.275563
142.567472,38.278118
142.579643,38.275697
142.588994,38.275697
142.603240,38.274583
142.972395,38.289458
142.982507,38.290274
143.311775,38.330248
143.379779,38.338503
143.389789,38.340130
143.507313,38.364120
143.781870,38.420163
143.791720,38.422590
143.983916,38.478251
144.176119,38.533914
144.185730,38.537123
144.559912,38.679009
144.569236,38.682981
144.930798,38.854515
144.939766,38.859221
145.151746,38.981586
145.286361,39.059292
145.294936,39.064714
145.624297,39.292013
145.632402,39.298102
145.942404,39.551159
145.949990,39.557877
146.238656,39.835082
146.245667,39.842380
146.511069,40.141882
146.517487,40.149740
146.739478,40.445073
146.746656,40.457431
146.751968,40.465124
146.756891,40.476514
146.761147,40.480642
146.765900,40.487006
146.984703,40.779982
147.020434,40.827826
147.308611,41.159183
147.620605,41.468219
147.622385,41.469738
147.622391,41.469743
147.718976,41.552139
147.954691,41.753227
147.956579,41.754609
147.956580,41.754610
148.307130,42.011247
148.307141,42.011254
148.309024,42.012633
148.681647,42.245003
149.070499,42.449053
149.473435,42.623657
149.664416,42.690047
149.886007,42.767078
149.886016,42.767081
149.888226,42.767849
149.890496,42.768453
149.890498,42.768454
150.310327,42.880233
150.310337,42.880235
150.312582,42.880833
150.314864,42.881262
150.314868,42.881263
150.376027,42.892763
150.744158,42.961985
150.746493,42.962246
150.746503,42.962248
151.178227,43.010595
151.178234,43.010596
151.180569,43.010857
151.560083,43.024971
151.604308,43.026616
151.613586,43.026961
151.619405,43.028118
151.632252,43.025563
151.656830,43.023142
168.160733,43.023142
168.228854,43.043144
168.275347,43.096800
168.286733,43.149142
168.286733,45.321008
168.284312,45.345586
168.281757,45.358433
168.283245,45.365915
168.283854,45.375212
168.287384,45.429078
168.298640,45.600870
168.346024,45.839162
168.347349,45.843065
168.347349,45.843067
168.392195,45.975223
168.424096,46.069234
168.531521,46.287151
168.533808,46.290575
168.533809,46.290577
168.550745,46.315934
168.666462,46.489189
168.669177,46.492286
168.821068,46.665564
168.826613,46.671890
168.829706,46.674604
168.829710,46.674608
168.889221,46.726826
169.009234,46.832133
169.012655,46.834421
169.012661,46.834425
169.207773,46.964884
169.207778,46.964887
169.211203,46.967177
169.214899,46.969002
169.214902,46.969003
169.425364,47.072885
169.425367,47.072886
169.429066,47.074712
169.432971,47.076039
169.432975,47.076041
169.450619,47.082038
169.659099,47.152900
169.897367,47.200403
170.026938,47.208959
170.122527,47.215271
170.122528,47.215271
170.132313,47.215917
170.139795,47.217409
170.152646,47.214859
170.177223,47.212451
170.277994,47.212503
170.378436,47.212554
170.403009,47.214986
170.415857,47.217548
170.426343,47.215467
170.441785,47.216690
170.472142,47.221512
170.509620,47.233706
170.542621,47.250536
170.574495,47.273709
170.600679,47.299906
170.623835,47.331790
170.640649,47.364803
170.652821,47.402278
170.653634,47.407407
170.657630,47.432646
170.658844,47.448085
170.656758,47.458571
170.659179,47.470743
170.659313,47.471415
170.661734,47.495996
170.661734,52.288850
170.659313,52.313428
170.656758,52.326275
170.659180,52.338449
170.659180,52.340161
170.659996,52.345663
170.672644,52.474084
170.715759,52.616213
170.785773,52.747201
170.879996,52.862012
170.994807,52.956235
171.000265,52.959152
171.000266,52.959153
171.120337,53.023332
171.120340,53.023333
171.125795,53.026249
171.267924,53.069364
171.396345,53.082012
171.401847,53.082828
171.403559,53.082828
171.415733,53.085250
171.428580,53.082695
171.453158,53.080274
179.628310,53.080274
179.652888,53.082695
179.665735,53.085250
179.677909,53.082828
179.679621,53.082828
179.685123,53.082012
179.813544,53.069364
179.955673,53.026249
179.961128,53.023333
179.961131,53.023332
180.081202,52.959153
180.081203,52.959152
180.086661,52.956235
180.201472,52.862012
180.295695,52.747201
180.365709,52.616213
180.408824,52.474084
180.421472,52.345663
180.422288,52.340161
180.422288,52.338449
180.424710,52.326275
180.422155,52.313428
180.419734,52.288850
180.419734,47.501163
180.422155,47.476582
180.422289,47.475908
180.424710,47.463737
180.422626,47.453258
180.423842,47.437813
180.428660,47.407407
180.440847,47.369911
180.457681,47.336884
180.480864,47.304989
180.507079,47.278787
180.538991,47.255617
180.572025,47.238801
180.609528,47.226632
180.639938,47.221829
180.655376,47.220622
180.665856,47.222712
180.678028,47.220297
180.678031,47.220297
180.678699,47.220164
180.703285,47.217754
180.803072,47.217805
180.902080,47.217856
180.926652,47.220288
180.939500,47.222850
180.946985,47.221365
181.182083,47.206071
181.345171,47.173708
181.416474,47.159559
181.416479,47.159558
181.420529,47.158754
181.650757,47.080711
181.737931,47.037764
181.865126,46.975101
181.865134,46.975097
181.868825,46.973278
182.070999,46.838294
182.081897,46.828743
182.250719,46.680787
182.250721,46.680785
182.253820,46.678069
182.414158,46.495348
182.416449,46.491921
182.416453,46.491916
182.528292,46.324630
182.549267,46.293256
182.552280,46.287151
182.618677,46.152588
182.656835,46.075255
182.735020,45.845076
182.782484,45.606659
182.782865,45.600870
182.794146,45.429078
182.797923,45.371570
182.799413,45.364086
182.796860,45.351242
182.794441,45.326660
182.794446,45.290547
182.794685,43.193277
182.814695,43.125159
182.868356,43.078672
182.932461,43.067844
182.950560,43.069543
182.961091,43.070981
183.104627,43.096800
183.373885,43.145234
183.384243,43.147553
183.586767,43.201948
183.789282,43.256340
183.799425,43.259528
184.193863,43.402081
184.203700,43.406113
184.584718,43.581418
184.594171,43.586260
184.959042,43.793059
184.968059,43.798685
185.048087,43.853440
185.314201,44.035516
185.322715,44.041885
185.647648,44.307049
185.655595,44.314113
185.957018,44.605734
185.964341,44.613443
186.240102,44.929436
186.246749,44.937736
186.494890,45.275862
186.500813,45.284691
186.719553,45.642518
186.724712,45.651817
186.912511,46.026830
186.916866,46.036529
187.072373,46.426024
187.075896,46.436056
187.164393,46.726826
187.198013,46.837291
187.200676,46.847581
187.288087,47.255617
187.288530,47.257686
187.290315,47.268163
187.296800,47.319101
187.343277,47.684200
187.344174,47.694794
187.360587,48.083422
187.359541,48.096963
187.359541,48.106972
187.357120,48.119142
187.359541,48.131312
187.359675,48.131986
187.362096,48.156567
187.362096,86.821997
187.342094,86.890118
187.288438,86.936611
187.236172,86.947997
187.218792,86.948007
186.433294,86.948481
186.408642,86.946061
186.408059,86.945945
186.408056,86.945945
186.395885,86.943524
186.388831,86.944927
186.156159,86.960400
186.002266,86.991470
185.924764,87.007117
185.924761,87.007118
185.920654,87.007947
185.916694,87.009312
185.916688,87.009314
185.697478,87.084895
185.697474,87.084897
185.693520,87.086260
185.689782,87.088135
185.689781,87.088135
185.482492,87.192087
185.482487,87.192090
185.478756,87.193961
185.475298,87.196315
185.475296,87.196316
185.283608,87.326796
185.283604,87.326799
185.280146,87.329153
185.101186,87.489454
184.945030,87.672041
184.814427,87.873699
184.711678,88.090875
184.638592,88.319745
184.596456,88.556278
184.596274,88.560457
184.596274,88.560459
184.587006,88.773501
184.576943,88.817644
184.573376,88.825971
184.550783,88.861111
184.524403,88.890122
184.491560,88.915945
184.457148,88.934733
184.417660,88.948398
184.387698,88.953435
184.383671,88.954112
184.368062,88.955415
184.358107,88.953435
184.345936,88.955856
184.336373,88.955856
184.330829,88.956403
181.946915,88.957440
181.131629,88.957795
181.063499,88.937823
181.016983,88.884187
181.006849,88.813918
181.036314,88.749324
181.072179,88.720673
181.105463,88.702882
181.110926,88.699962
181.225737,88.605739
181.319960,88.490928
181.322878,88.485469
181.387057,88.365398
181.387058,88.365395
181.389974,88.359940
181.433089,88.217811
181.445737,88.089389
181.446553,88.083888
181.446553,88.082176
181.448975,88.070002
181.446420,88.057155
181.443999,88.032577
181.444000,86.027424
181.446421,86.002843
181.446555,86.002171
181.448976,85.989999
181.446554,85.977825
181.446554,85.976113
181.445738,85.970611
181.433697,85.848355
181.433090,85.842190
181.389975,85.700061
181.369396,85.661559
181.322879,85.574532
181.322878,85.574531
181.319961,85.569073
181.225738,85.454262
181.110927,85.360039
181.105468,85.357121
180.985397,85.292942
180.985394,85.292941
180.979939,85.290025
180.837810,85.246910
180.709389,85.234262
180.703887,85.233446
180.702175,85.233446
180.690001,85.231024
180.677154,85.233579
180.652576,85.236000
170.477424,85.236000
170.452846,85.233579
170.439999,85.231024
170.427825,85.233446
170.426113,85.233446
170.420611,85.234262
170.292190,85.246910
170.150061,85.290025
170.144606,85.292941
170.144603,85.292942
170.024532,85.357121
170.019073,85.360039
169.904262,85.454262
169.810039,85.569073
169.807122,85.574531
169.807121,85.574532
169.760605,85.661559
169.740025,85.700061
169.696910,85.842190
169.696303,85.848355
169.684262,85.970611
169.683446,85.976113
169.683446,85.977825
169.681024,85.989999
169.683445,86.002171
169.683579,86.002843
169.686000,86.027424
169.686000,88.032576
169.683579,88.057154
169.681024,88.070001
169.683446,88.082175
169.683446,88.083887
169.684262,88.089389
169.696910,88.217810
169.740025,88.359939
169.742941,88.365394
169.742942,88.365397
169.807121,88.485468
169.810039,88.490927
169.904262,88.605738
170.019073,88.699961
170.024531,88.702878
170.024532,88.702879
170.144603,88.767058
170.144606,88.767059
170.150061,88.769975
170.292190,88.813090
170.420611,88.825738
170.426113,88.826554
170.427825,88.826554
170.439999,88.828976
170.452846,88.826421
170.477424,88.824000
170.555261,88.824000
179.274968,88.824001
179.343089,88.844003
179.389582,88.897659
179.399685,88.967933
179.370192,89.032513
179.334366,89.061121
179.294463,89.082450
179.179652,89.176673
179.085429,89.291484
179.082512,89.296942
179.082511,89.296943
179.019088,89.415601
179.015415,89.422472
178.972300,89.564601
178.971693,89.570766
178.959652,89.693022
178.958836,89.698524
178.958836,89.700236
178.956414,89.712410
178.958835,89.724581
178.958835,89.724586
178.958988,89.725354
178.961409,89.749869
178.963230,93.296428
178.965972,98.634372
178.965981,98.652608
178.963561,98.677246
178.961024,98.690001
178.963446,98.702175
178.963446,98.703887
178.964262,98.709389
178.976910,98.837810
179.020025,98.979939
179.022941,98.985394
179.022942,98.985397
179.087121,99.105468
179.090039,99.110927
179.184262,99.225738
179.299073,99.319961
179.304531,99.322878
179.304532,99.322879
179.424603,99.387058
179.424606,99.387059
179.430061,99.389975
179.572190,99.433090
179.700611,99.445738
179.706113,99.446554
179.707825,99.446554
179.719999,99.448976
179.732170,99.446555
179.732172,99.446555
179.732930,99.446404
179.757453,99.443984
181.976975,99.443018
184.326725,99.441996
184.351349,99.444416
184.364119,99.446956
184.374076,99.444975
184.389681,99.446278
184.423678,99.451994
184.463156,99.465655
184.497573,99.484445
184.530416,99.510267
184.556797,99.539279
184.579392,99.574428
184.582955,99.582745
184.593017,99.626886
184.602467,99.844113
184.644603,100.080646
184.717689,100.309516
184.820438,100.526692
184.822709,100.530198
184.948764,100.724835
184.948768,100.724840
184.951041,100.728350
185.107197,100.910938
185.286157,101.071239
185.484768,101.206430
185.488497,101.208300
185.488502,101.208303
185.628822,101.278671
185.699532,101.314131
185.703486,101.315494
185.703490,101.315496
185.862917,101.370465
185.926666,101.392445
185.930773,101.393274
185.930776,101.393275
186.158064,101.439163
186.158067,101.439163
186.162171,101.439992
186.305939,101.449552
186.384669,101.454788
186.394851,101.455465
186.401897,101.456867
186.414744,101.454312
186.439322,101.451891
187.236096,101.451891
187.304217,101.471893
187.350710,101.525549
187.362096,101.577891
187.362096,106.040293
187.359675,106.064871
187.357120,106.077718
187.359541,106.089889
187.359541,106.098302
187.360756,106.113559
187.352305,106.339651
187.348699,106.436122
187.348050,106.453471
187.347347,106.462858
187.305815,106.831821
187.304416,106.841118
187.248107,107.139011
187.235448,107.205983
187.233355,107.215160
187.137347,107.573832
187.134578,107.582818
187.051554,107.820336
187.012055,107.933336
187.008619,107.942099
186.860272,108.282484
186.856191,108.290967
186.756473,108.479859
186.697394,108.591769
186.688725,108.604370
186.684519,108.611663
186.676340,108.620999
186.672356,108.632753
186.672356,108.632754
186.672136,108.633403
186.661955,108.655904
180.817077,118.791372
174.638345,129.505770
174.623970,129.525852
174.623519,129.526366
174.623518,129.526368
174.615340,129.535703
174.611356,129.547458
174.606500,129.555880
174.600517,129.568408
174.397126,129.889650
174.391196,129.898210
174.143570,130.225913
174.136954,130.233956
173.863089,130.540115
173.855831,130.547583
173.741732,130.655671
173.557617,130.830085
173.549789,130.836908
173.229267,131.093817
173.220891,131.099979
173.045632,131.218088
172.880252,131.329539
172.871383,131.334997
172.512961,131.535638
172.503672,131.540345
172.129890,131.710708
172.120247,131.714630
171.973368,131.767410
171.733697,131.853535
171.723760,131.856649
171.327050,131.963163
171.316889,131.965446
170.912725,132.038838
170.902410,132.040273
170.493585,132.080036
170.483188,132.080615
170.266919,132.083705
170.072455,132.086483
170.062063,132.086201
169.857157,132.072167
169.652260,132.058132
169.641909,132.056992
169.352337,132.012913
169.235823,131.995177
169.225607,131.993188
169.099500,131.963163
168.826005,131.898047
168.815983,131.895218
168.425619,131.767410
168.415880,131.763770
168.037372,131.604149
168.027954,131.599709
167.862132,131.513010
167.691026,131.423548
167.679566,131.415697
167.671152,131.410845
167.661816,131.402666
167.650060,131.398682
167.649409,131.398461
167.626906,131.388279
156.394951,124.911085
156.374867,124.896709
156.374348,124.896254
156.374346,124.896253
156.365013,124.888076
156.354476,124.884505
156.350523,124.882395
156.350522,124.882394
156.349537,124.881868
156.346101,124.879961
156.345369,124.879644
156.183804,124.793403
156.022488,124.707295
156.020604,124.706443
156.020594,124.706438
155.671547,124.548573
155.671541,124.548570
155.669656,124.547718
155.307126,124.411601
154.936457,124.299530
154.559242,124.211985
154.557198,124.211650
154.557173,124.211645
154.198069,124.152779
154.197304,124.152588
154.193378,124.152010
154.192445,124.151857
154.192439,124.151857
154.187880,124.151110
154.177336,124.147545
154.164954,124.148372
154.164950,124.148371
154.164267,124.148417
154.139581,124.147639
119.952840,119.688746
119.928781,119.683167
119.928125,119.682945
119.928122,119.682945
119.916369,119.678971
119.903987,119.679798
119.894611,119.678575
119.880456,119.677841
119.659901,119.639922
119.513392,119.614733
119.503411,119.612597
119.112966,119.512319
119.103193,119.509382
118.722148,119.377787
118.712632,119.374062
118.343505,119.212019
118.334331,119.207539
117.979561,119.016118
117.970784,119.010913
117.632693,118.791368
117.624361,118.785464
117.305162,118.539232
117.297330,118.532666
116.999167,118.261401
116.991892,118.254223
116.716667,117.959657
116.709999,117.951912
116.478631,117.660075
116.471195,117.647998
116.465628,117.640359
116.460416,117.629097
116.451289,117.620684
116.450782,117.620216
116.434353,117.601781
115.586087,116.437792
139.496598,116.437792
139.529079,116.533477
139.595704,116.609449
139.686331,116.654141
139.699407,116.654998
139.723767,116.659019
153.222729,120.276056
153.245844,120.284757
153.257589,120.290549
153.269970,120.291361
153.269972,120.291361
153.311905,120.294109
153.358420,120.297158
153.377889,120.290549
153.442352,120.268667
153.442353,120.268666
153.454105,120.264677
153.530077,120.198052
153.563487,120.130302
153.563489,120.130297
153.569277,120.118560
153.569277,120.118559
153.574768,120.107425
153.575624,120.094362
153.579647,120.069990
153.626085,119.896682
154.208229,117.724090
160.754103,117.724090
160.760712,117.824921
160.805404,117.915548
160.881376,117.982173
160.893123,117.986161
160.893124,117.986161
160.893779,117.986383
160.916277,117.996577
164.864449,120.276055
173.010229,124.979023
173.019109,124.984150
173.039188,124.998539
173.049033,125.007173
173.073186,125.015372
173.125249,125.033045
173.144718,125.039654
173.206400,125.035611
173.233163,125.033857
173.233164,125.033857
173.245549,125.033045
173.336176,124.988353
173.402801,124.912381
173.407012,124.899977
173.417205,124.877480
177.237000,118.261401
180.404779,112.774646
180.419167,112.754569
180.419620,112.754053
180.419621,112.754052
180.427801,112.744724
180.460282,112.649039
180.453673,112.548208
180.408981,112.457581
180.352186,112.407774
180.333009,112.390956
180.320605,112.386745
180.298108,112.376552
173.199109,108.277943
168.195274,105.388978
168.175197,105.374590
168.174681,105.374137
168.174680,105.374136
168.165352,105.365956
168.069667,105.333475
168.008808,105.337464
167.981222,105.339272
167.981221,105.339272
167.968836,105.340084
167.878209,105.384776
167.811584,105.460748
167.807596,105.472495
167.807596,105.472496
167.807374,105.473151
167.797180,105.495649
165.285754,109.845567
161.386012,116.600119
160.809607,117.598481
160.795218,117.618560
160.786584,117.628405
160.778385,117.652558
160.754103,117.724090
154.208229,117.724090
156.501631,109.165000
158.573348,109.165000
158.591928,109.401083
158.647211,109.631354
158.737836,109.850141
158.861570,110.052057
159.015368,110.232132
159.195443,110.385930
159.397359,110.509664
159.401929,110.511557
159.401933,110.511559
159.611573,110.598395
159.611575,110.598396
159.616146,110.600289
159.695999,110.619460
159.841604,110.654417
159.841610,110.654418
159.846417,110.655572
160.082500,110.674152
160.318583,110.655572
160.323390,110.654418
160.323396,110.654417
160.469001,110.619460
160.548854,110.600289
160.553425,110.598396
160.553427,110.598395
160.763067,110.511559
160.763071,110.511557
160.767641,110.509664
160.969557,110.385930
161.149632,110.232132
161.303430,110.052057
161.427164,109.850141
161.517789,109.631354
161.573072,109.401083
161.591652,109.165000
161.573072,108.928917
161.565874,108.898932
161.518944,108.703458
161.517789,108.698646
161.515895,108.694073
161.429059,108.484433
161.429057,108.484429
161.427164,108.479859
161.303430,108.277943
161.149632,108.097868
160.969557,107.944070
160.767641,107.820336
160.763071,107.818443
160.763067,107.818441
160.553427,107.731605
160.553425,107.731604
160.548854,107.729711
160.469001,107.710540
160.323396,107.675583
160.323390,107.675582
160.318583,107.674428
160.082500,107.655848
159.846417,107.674428
159.841610,107.675582
159.841604,107.675583
159.695999,107.710540
159.616146,107.729711
159.611575,107.731604
159.611573,107.731605
159.401933,107.818441
159.401929,107.818443
159.397359,107.820336
159.195443,107.944070
159.015368,108.097868
158.861570,108.277943
158.737836,108.479859
158.735943,108.484429
158.735941,108.484433
158.649105,108.694073
158.647211,108.698646
158.646056,108.703458
158.599127,108.898932
158.591928,108.928917
158.573348,109.165000
156.501631,109.165000
157.196684,106.571027
157.205386,106.547909
157.205689,106.547295
157.211177,106.536167
157.217786,106.435336
157.185305,106.339651
157.118680,106.263679
157.050930,106.230269
157.050925,106.230267
157.039188,106.224479
157.039187,106.224479
157.028053,106.218988
157.015668,106.218176
157.015667,106.218176
157.015110,106.218140
157.014990,106.218132
156.990618,106.214109
144.273484,102.806564
180.692141,102.806564
180.692411,102.810683
180.709687,103.074257
180.712323,103.114482
180.713125,103.118515
180.713126,103.118521
180.771718,103.413081
180.772524,103.417131
180.773851,103.421040
180.773852,103.421044
180.805066,103.512998
180.871713,103.709334
180.873536,103.713030
180.873539,103.713038
180.961605,103.891616
181.008194,103.986089
181.010488,103.989522
181.010489,103.989524
181.084936,104.100941
181.179631,104.242663
181.383091,104.474665
181.615093,104.678125
181.618519,104.680414
181.618524,104.680418
181.812104,104.809764
181.871666,104.849562
181.875365,104.851386
181.875370,104.851389
182.017569,104.921513
182.148422,104.986043
182.152327,104.987368
182.152328,104.987369
182.436712,105.083904
182.436716,105.083905
182.440625,105.085232
182.444669,105.086036
182.444675,105.086038
182.739235,105.144630
182.739241,105.144631
182.743274,105.145433
182.747379,105.145702
182.747386,105.145703
183.047073,105.165345
183.051192,105.165615
183.055311,105.165345
183.354998,105.145703
183.355005,105.145702
183.359110,105.145433
183.363143,105.144631
183.363149,105.144630
183.657709,105.086038
183.657715,105.086036
183.661759,105.085232
183.665668,105.083905
183.665672,105.083904
183.950056,104.987369
183.950057,104.987368
183.953962,104.986043
184.084815,104.921513
184.227014,104.851389
184.227019,104.851386
184.230718,104.849562
184.290280,104.809764
184.483860,104.680418
184.483865,104.680414
184.487291,104.678125
184.719293,104.474665
184.922753,104.242663
185.017449,104.100941
185.091895,103.989524
185.091896,103.989522
185.094190,103.986089
185.140779,103.891616
185.228845,103.713038
185.228848,103.713030
185.230671,103.709334
185.297318,103.512998
185.328532,103.421044
185.328533,103.421040
185.329860,103.417131
185.330666,103.413081
185.389258,103.118521
185.389259,103.118515
185.390061,103.114482
185.392698,103.074257
185.409973,102.810683
185.410243,102.806564
185.401089,102.666895
185.390331,102.502758
185.390330,102.502751
185.390061,102.498646
185.372556,102.410639
185.330666,102.200047
185.330664,102.200041
185.329860,102.195997
185.279976,102.049041
185.232000,101.907709
185.232000,101.907708
185.230671,101.903794
185.228848,101.900098
185.228845,101.900090
185.096016,101.630742
185.094190,101.627039
185.081257,101.607683
184.925046,101.373896
184.925042,101.373891
184.922753,101.370465
184.719293,101.138463
184.487291,100.935003
184.483865,100.932714
184.483860,100.932710
184.282705,100.798303
184.230718,100.763566
184.227019,100.761742
184.227014,100.761739
184.029179,100.664178
183.953962,100.627085
183.822807,100.582564
183.665672,100.529224
183.665668,100.529223
183.661759,100.527896
183.657715,100.527092
183.657709,100.527090
183.363149,100.468498
183.363143,100.468497
183.359110,100.467695
183.355005,100.467426
183.354998,100.467425
183.055311,100.447783
183.051192,100.447513
183.047073,100.447783
182.747386,100.467425
182.747379,100.467426
182.743274,100.467695
182.739241,100.468497
182.739235,100.468498
182.444675,100.527090
182.444669,100.527092
182.440625,100.527896
182.436716,100.529223
182.436712,100.529224
182.279577,100.582564
182.148422,100.627085
182.144726,100.628908
182.144718,100.628911
182.065570,100.667943
181.871667,100.763566
181.868234,100.765860
181.868232,100.765861
181.618524,100.932710
181.618519,100.932714
181.615093,100.935003
181.383091,101.138463
181.179631,101.370465
181.177342,101.373891
181.177338,101.373896
181.021127,101.607683
181.008194,101.627039
181.006368,101.630742
180.873539,101.900090
180.873536,101.900098
180.871713,101.903794
180.870384,101.907708
180.870384,101.907709
180.822409,102.049041
180.772524,102.195997
180.771720,102.200041
180.771718,102.200047
180.729829,102.410639
180.712323,102.498646
180.712054,102.502751
180.712053,102.502758
180.704229,102.622132
180.695941,102.748580
180.692141,102.806564
144.273484,102.806564
143.491653,102.597073
143.468538,102.588372
143.456795,102.582581
143.444409,102.581769
143.444408,102.581769
143.431347,102.580913
143.431343,102.580913
143.431342,102.580912
143.355964,102.575971
143.344213,102.579960
143.344212,102.579960
143.272032,102.604462
143.272031,102.604463
143.260279,102.608452
143.184307,102.675077
143.139615,102.765704
143.138803,102.778084
143.138803,102.778085
143.138758,102.778776
143.134735,102.803143
141.715009,108.101630
139.517700,116.302098
139.509002,116.325209
139.503207,116.336961
139.501539,116.362414
139.496598,116.437792
115.586087,116.437792
115.056842,115.711564
120.073216,115.711564
120.078192,115.736581
120.092929,115.810670
120.149068,115.894688
120.233086,115.950827
120.332192,115.970540
120.345039,115.967985
120.369617,115.965564
134.344767,115.965564
134.369345,115.967985
134.382192,115.970540
134.481298,115.950827
134.565316,115.894688
134.621455,115.810670
134.636192,115.736581
134.641168,115.711564
134.638613,115.698717
134.636192,115.674139
134.636192,101.698989
134.638613,101.674408
134.638747,101.673734
134.641168,101.661564
134.621455,101.562458
134.565316,101.478440
134.481298,101.422301
134.407209,101.407564
134.394364,101.405009
134.382192,101.402588
134.369345,101.405143
134.344767,101.407564
120.369617,101.407564
120.345039,101.405143
120.332192,101.402588
120.320020,101.405009
120.307175,101.407564
120.233086,101.422301
120.222769,101.429195
120.222768,101.429195
120.181354,101.456867
120.149068,101.478440
120.092929,101.562458
120.073216,101.661564
120.075637,101.673734
120.075771,101.674408
120.078192,101.698989
120.078192,115.674139
120.075771,115.698717
120.073216,115.711564
115.056842,115.711564
110.781948,109.845567
108.833700,107.172186
108.821180,107.150894
108.820893,107.150274
108.815681,107.139011
108.813705,107.137190
108.528056,106.775880
108.213188,106.436122
107.872671,106.122075
107.870732,106.120549
107.870723,106.120542
107.510546,105.837201
107.510539,105.837196
107.508598,105.835669
107.204152,105.632643
107.125254,105.580028
107.125246,105.580023
107.123208,105.578664
106.758136,105.374590
106.721023,105.353844
106.721021,105.353843
106.718869,105.352640
106.298066,105.158986
105.863385,104.998892
105.861016,104.998225
105.861010,104.998223
105.419886,104.874014
105.419883,104.874013
105.417499,104.873342
104.963148,104.783109
104.960706,104.782820
104.960697,104.782819
104.730177,104.755577
104.503124,104.728745
104.042892,104.710690
104.040255,104.710166
104.027408,104.712721
104.002830,104.715142
55.553521,104.715142
55.528943,104.712721
55.516096,104.710166
55.503923,104.712587
55.494220,104.712587
55.480355,104.713663
55.100478,104.697952
55.090100,104.697092
54.833654,104.665126
54.682491,104.646283
54.672226,104.644571
54.467094,104.601559
54.270207,104.560276
54.260112,104.557720
53.866417,104.440512
53.856575,104.437134
53.473885,104.287807
53.464385,104.283640
53.095352,104.103231
53.086197,104.098277
52.897922,103.986089
52.733316,103.888005
52.724611,103.882318
52.390305,103.643629
52.382098,103.637242
52.068628,103.371745
52.060981,103.364704
51.770534,103.074257
51.763493,103.066610
51.497996,102.753140
51.491606,102.744929
51.400007,102.616636
51.252920,102.410627
51.247232,102.401921
51.148435,102.236119
51.036960,102.049038
51.032005,102.039882
50.899559,101.768958
50.851598,101.670853
50.847431,101.661353
50.805932,101.555000
112.003348,101.555000
112.021928,101.791083
112.023082,101.795890
112.023083,101.795896
112.048098,101.900090
112.077211,102.021354
112.079104,102.025925
112.079105,102.025927
112.084886,102.039882
112.167836,102.240141
112.291570,102.442057
112.445368,102.622132
112.625443,102.775930
112.827359,102.899664
112.831929,102.901557
112.831933,102.901559
113.041573,102.988395
113.041575,102.988396
113.046146,102.990289
113.124641,103.009134
113.271604,103.044417
113.271610,103.044418
113.276417,103.045572
113.512500,103.064152
113.748583,103.045572
113.753390,103.044418
113.753396,103.044417
113.900359,103.009134
113.978854,102.990289
113.983425,102.988396
113.983427,102.988395
114.193067,102.901559
114.193071,102.901557
114.197641,102.899664
114.399557,102.775930
114.579632,102.622132
114.733430,102.442057
114.857164,102.240141
114.940115,102.039882
114.945895,102.025927
114.945896,102.025925
114.947789,102.021354
114.976902,101.900090
115.001917,101.795896
115.001918,101.795890
115.003072,101.791083
115.021652,101.555000
115.003072,101.318917
114.980023,101.222908
114.966960,101.168499
114.947789,101.088646
114.922081,101.026581
114.859059,100.874433
114.859057,100.874429
114.857164,100.869859
114.733430,100.667943
114.579632,100.487868
114.399557,100.334070
114.197641,100.210336
114.193071,100.208443
114.193067,100.208441
113.983427,100.121605
113.983425,100.121604
113.978854,100.119711
113.899001,100.100540
113.753396,100.065583
113.753390,100.065582
113.748583,100.064428
113.512500,100.045848
113.276417,100.064428
113.271610,100.065582
113.271604,100.065583
113.125999,100.100540
113.046146,100.119711
113.041575,100.121604
113.041573,100.121605
112.831933,100.208441
112.831929,100.208443
112.827359,100.210336
112.625443,100.334070
112.445368,100.487868
112.291570,100.667943
112.167836,100.869859
112.165943,100.874429
112.165941,100.874433
112.102919,101.026581
112.077211,101.088646
112.058040,101.168499
112.044978,101.222908
112.021928,101.318917
112.003348,101.555000
50.805932,101.555000
50.698104,101.278663
50.694726,101.268821
50.577518,100.875126
50.574962,100.865031
50.568993,100.836564
53.573216,100.836564
53.592929,100.935670
53.649068,101.019688
53.733086,101.075827
53.797533,101.088646
53.832192,101.095540
53.845039,101.092985
53.869617,101.090564
67.844767,101.090564
67.869345,101.092985
67.882192,101.095540
67.895038,101.092985
67.916852,101.088646
67.939842,101.084073
67.981298,101.075827
68.031670,101.042170
68.055000,101.026581
68.065316,101.019688
68.121455,100.935670
68.141168,100.836564
72.573216,100.836564
72.592929,100.935670
72.649068,101.019688
72.733086,101.075827
72.797533,101.088646
72.832192,101.095540
72.845039,101.092985
72.869617,101.090564
86.844767,101.090564
86.869345,101.092985
86.882192,101.095540
86.895038,101.092985
86.916852,101.088646
86.939842,101.084073
86.981298,101.075827
87.031670,101.042170
87.055000,101.026581
87.065316,101.019688
87.121455,100.935670
87.141168,100.836564
87.138613,100.823717
87.136192,100.799139
87.136192,98.461564
148.573216,98.461564
148.592929,98.560670
148.649068,98.644688
148.733086,98.700827
148.803767,98.714886
148.832192,98.720540
148.845039,98.717985
148.869617,98.715564
162.844767,98.715564
162.869345,98.717985
162.882192,98.720540
162.895038,98.717985
162.910618,98.714886
162.981298,98.700827
162.997501,98.690001
163.055000,98.651581
163.065316,98.644688
163.121455,98.560670
163.141168,98.461564
163.138613,98.448717
163.136192,98.424139
163.136192,94.285564
166.260141,94.285564
166.280323,94.593482
166.281125,94.597515
166.281126,94.597521
166.339718,94.892081
166.340524,94.896131
166.341851,94.900040
166.341852,94.900044
166.373066,94.991998
166.439713,95.188334
166.441536,95.192030
166.441539,95.192038
166.529605,95.370616
166.576194,95.465089
166.578488,95.468522
166.578489,95.468524
166.646440,95.570219
166.747631,95.721663
166.951091,95.953665
167.183093,96.157125
167.186519,96.159414
167.186524,96.159418
167.336116,96.259372
167.439666,96.328562
167.443365,96.330386
167.443370,96.330389
167.585569,96.400513
167.716422,96.465043
167.720327,96.466368
167.720328,96.466369
168.004712,96.562904
168.004716,96.562905
168.008625,96.564232
168.012669,96.565036
168.012675,96.565038
168.307235,96.623630
168.307241,96.623631
168.311274,96.624433
168.315379,96.624702
168.315386,96.624703
168.615073,96.644345
168.619192,96.644615
168.623311,96.644345
168.922998,96.624703
168.923005,96.624702
168.927110,96.624433
168.931143,96.623631
168.931149,96.623630
169.225709,96.565038
169.225715,96.565036
169.229759,96.564232
169.233668,96.562905
169.233672,96.562904
169.518056,96.466369
169.518057,96.466368
169.521962,96.465043
169.652815,96.400513
169.795014,96.330389
169.795019,96.330386
169.798718,96.328562
169.902268,96.259372
170.051860,96.159418
170.051865,96.159414
170.055291,96.157125
170.287293,95.953665
170.490753,95.721663
170.591945,95.570219
170.659895,95.468524
170.659896,95.468522
170.662190,95.465089
170.708779,95.370616
170.796845,95.192038
170.796848,95.192030
170.798671,95.188334
170.865318,94.991998
170.896532,94.900044
170.896533,94.900040
170.897860,94.896131
170.898666,94.892081
170.957258,94.597521
170.957259,94.597515
170.958061,94.593482
170.978243,94.285564
170.958061,93.977646
170.956140,93.967985
170.898666,93.679047
170.898664,93.679041
170.897860,93.674997
170.847252,93.525908
170.800000,93.386709
170.800000,93.386708
170.798671,93.382794
170.796848,93.379098
170.796845,93.379090
170.664016,93.109742
170.662190,93.106039
170.620191,93.043183
170.493046,92.852896
170.493042,92.852891
170.490753,92.849465
170.287293,92.617463
170.055291,92.414003
170.051865,92.411714
170.051860,92.411710
169.858279,92.282364
169.798718,92.242566
169.795019,92.240742
169.795014,92.240739
169.652815,92.170615
169.521962,92.106085
169.518047,92.104756
169.233672,92.008224
169.233668,92.008223
169.229759,92.006896
169.225715,92.006092
169.225709,92.006090
168.931149,91.947498
168.931143,91.947497
168.927110,91.946695
168.923005,91.946426
168.922998,91.946425
168.623311,91.926783
168.619192,91.926513
168.615073,91.926783
168.315386,91.946425
168.315379,91.946426
168.311274,91.946695
168.307241,91.947497
168.307235,91.947498
168.012675,92.006090
168.012669,92.006092
168.008625,92.006896
168.004716,92.008223
168.004712,92.008224
167.720337,92.104756
167.716422,92.106085
167.712726,92.107908
167.712718,92.107911
167.488605,92.218433
167.439667,92.242566
167.436234,92.244860
167.436232,92.244861
167.186524,92.411710
167.186519,92.411714
167.183093,92.414003
166.951091,92.617463
166.747631,92.849465
166.745342,92.852891
166.745338,92.852896
166.618193,93.043183
166.576194,93.106039
166.574368,93.109742
166.441539,93.379090
166.441536,93.379098
166.439713,93.382794
166.438384,93.386708
166.438384,93.386709
166.391133,93.525908
166.340524,93.674997
166.339720,93.679041
166.339718,93.679047
166.282245,93.967985
166.280323,93.977646
166.263941,94.227580
166.260141,94.285564
163.136192,94.285564
163.136192,84.448989
163.138613,84.424408
163.138747,84.423734
163.141168,84.411564
163.121455,84.312458
163.065316,84.228440
162.981298,84.172301
162.907209,84.157564
162.894364,84.155009
162.882192,84.152588
162.869345,84.155143
162.844767,84.157564
148.869617,84.157564
148.845039,84.155143
148.832192,84.152588
148.820020,84.155009
148.807175,84.157564
148.733086,84.172301
148.649068,84.228440
148.592929,84.312458
148.573216,84.411564
148.575637,84.423734
148.575771,84.424408
148.578192,84.448989
148.578192,98.424139
148.575771,98.448717
148.573216,98.461564
87.136192,98.461564
87.136192,96.086564
91.573216,96.086564
91.578192,96.111581
91.592929,96.185670
91.649068,96.269688
91.733086,96.325827
91.832192,96.345540
91.845039,96.342985
91.869617,96.340564
105.844767,96.340564
105.869345,96.342985
105.882192,96.345540
105.981298,96.325827
106.065316,96.269688
106.121455,96.185670
106.136192,96.111581
106.141168,96.086564
129.573216,96.086564
129.578192,96.111581
129.592929,96.185670
129.649068,96.269688
129.733086,96.325827
129.832192,96.345540
129.845039,96.342985
129.869617,96.340564
143.844767,96.340564
143.869345,96.342985
143.882192,96.345540
143.981298,96.325827
144.065316,96.269688
144.121455,96.185670
144.136192,96.111581
144.141168,96.086564
144.138613,96.073717
144.136192,96.049139
144.136192,82.073989
144.138613,82.049408
144.138747,82.048734
144.141168,82.036564
144.121455,81.937458
144.065316,81.853440
143.981298,81.797301
143.907209,81.782564
143.894364,81.780009
143.882192,81.777588
143.869345,81.780143
143.844767,81.782564
129.869617,81.782564
129.845039,81.780143
129.832192,81.777588
129.820020,81.780009
129.807175,81.782564
129.733086,81.797301
129.649068,81.853440
129.592929,81.937458
129.573216,82.036564
129.575637,82.048734
129.575771,82.049408
129.578192,82.073989
129.578192,96.049139
129.575771,96.073717
129.573216,96.086564
106.141168,96.086564
106.138613,96.073717
106.136192,96.049139
106.136192,93.711564
110.573216,93.711564
110.578192,93.736581
110.592929,93.810670
110.649068,93.894688
110.733086,93.950827
110.832192,93.970540
110.845039,93.967985
110.869617,93.965564
124.844767,93.965564
124.869345,93.967985
124.882192,93.970540
124.981298,93.950827
125.065316,93.894688
125.121455,93.810670
125.136192,93.736581
125.141168,93.711564
125.138613,93.698717
125.136192,93.674139
125.136192,79.698989
125.138613,79.674408
125.138747,79.673734
125.141168,79.661564
125.121455,79.562458
125.065316,79.478440
125.040059,79.461564
148.573216,79.461564
148.578192,79.486581
148.592929,79.560670
148.649068,79.644688
148.733086,79.700827
148.832192,79.720540
148.845039,79.717985
148.869617,79.715564
162.844767,79.715564
162.869345,79.717985
162.882192,79.720540
162.981298,79.700827
163.065316,79.644688
163.121455,79.560670
163.136192,79.486581
163.141168,79.461564
163.138613,79.448717
163.136192,79.424139
163.136192,65.448989
163.138613,65.424408
163.138747,65.423734
163.141168,65.411564
163.121455,65.312458
163.065316,65.228440
162.981298,65.172301
162.907209,65.157564
162.894364,65.155009
162.882192,65.152588
162.869345,65.155143
162.844767,65.157564
148.869617,65.157564
148.845039,65.155143
148.832192,65.152588
148.820020,65.155009
148.807175,65.157564
148.733086,65.172301
148.649068,65.228440
148.592929,65.312458
148.573216,65.411564
148.575637,65.423734
148.575771,65.424408
148.578192,65.448989
148.578192,79.424139
148.575771,79.448717
148.573216,79.461564
125.040059,79.461564
124.981298,79.422301
124.907209,79.407564
124.894364,79.405009
124.882192,79.402588
124.869345,79.405143
124.844767,79.407564
110.869617,79.407564
110.845039,79.405143
110.832192,79.402588
110.820020,79.405009
110.807175,79.407564
110.733086,79.422301
110.649068,79.478440
110.592929,79.562458
110.573216,79.661564
110.575637,79.673734
110.575771,79.674408
110.578192,79.698989
110.578192,93.674139
110.575771,93.698717
110.573216,93.711564
106.136192,93.711564
106.136192,82.073989
106.138613,82.049408
106.138747,82.048734
106.141168,82.036564
106.121455,81.937458
106.065316,81.853440
105.981298,81.797301
105.907209,81.782564
105.894364,81.780009
105.882192,81.777588
105.869345,81.780143
105.844767,81.782564
91.869617,81.782564
91.845039,81.780143
91.832192,81.777588
91.820020,81.780009
91.807175,81.782564
91.733086,81.797301
91.649068,81.853440
91.592929,81.937458
91.573216,82.036564
91.575637,82.048734
91.575771,82.049408
91.578192,82.073989
91.578192,96.049139
91.575771,96.073717
91.573216,96.086564
87.136192,96.086564
87.136192,86.823989
87.138613,86.799408
87.138747,86.798734
87.141168,86.786564
87.121455,86.687458
87.065316,86.603440
86.981298,86.547301
86.907209,86.532564
86.894364,86.530009
86.882192,86.527588
86.869345,86.530143
86.844767,86.532564
72.869617,86.532564
72.845039,86.530143
72.832192,86.527588
72.820020,86.530009
72.807175,86.532564
72.733086,86.547301
72.649068,86.603440
72.592929,86.687458
72.573216,86.786564
72.575637,86.798734
72.575771,86.799408
72.578192,86.823989
72.578192,100.799139
72.575771,100.823717
72.573216,100.836564
68.141168,100.836564
68.138613,100.823717
68.136192,100.799139
68.136192,86.823989
68.138613,86.799408
68.138747,86.798734
68.141168,86.786564
68.121455,86.687458
68.065316,86.603440
67.981298,86.547301
67.907209,86.532564
67.894364,86.530009
67.882192,86.527588
67.869345,86.530143
67.844767,86.532564
53.869617,86.532564
53.845039,86.530143
53.832192,86.527588
53.820020,86.530009
53.807175,86.532564
53.733086,86.547301
53.649068,86.603440
53.592929,86.687458
53.573216,86.786564
53.575637,86.798734
53.575771,86.799408
53.578192,86.823989
53.578192,100.799139
53.575771,100.823717
53.573216,100.836564
50.568993,100.836564
50.495879,100.487868
50.490667,100.463012
50.488954,100.452743
50.438146,100.045138
50.437286,100.034760
50.421575,99.654883
50.422651,99.641018
50.422651,99.631315
50.425072,99.619142
50.422517,99.606295
50.420096,99.581717
50.420096,84.315000
68.853348,84.315000
68.871928,84.551083
68.927211,84.781354
69.017836,85.000141
69.141570,85.202057
69.295368,85.382132
69.475443,85.535930
69.677359,85.659664
69.681929,85.661557
69.681933,85.661559
69.891573,85.748395
69.891575,85.748396
69.896146,85.750289
69.975999,85.769460
70.121604,85.804417
70.121610,85.804418
70.126417,85.805572
70.362500,85.824152
70.598583,85.805572
70.603390,85.804418
70.603396,85.804417
70.749001,85.769460
70.828854,85.750289
70.833425,85.748396
70.833427,85.748395
71.043067,85.661559
71.043071,85.661557
71.047641,85.659664
71.249557,85.535930
71.429632,85.382132
71.583430,85.202057
71.707164,85.000141
71.797789,84.781354
71.853072,84.551083
71.871652,84.315000
71.853072,84.078917
71.797789,83.848646
71.707164,83.629859
71.583430,83.427943
71.429632,83.247868
71.249557,83.094070
71.047641,82.970336
71.043071,82.968443
71.043067,82.968441
70.833427,82.881605
70.833425,82.881604
70.828854,82.879711
70.749001,82.860540
70.603396,82.825583
70.603390,82.825582
70.598583,82.824428
70.362500,82.805848
70.126417,82.824428
70.121610,82.825582
70.121604,82.825583
69.975999,82.860540
69.896146,82.879711
69.891575,82.881604
69.891573,82.881605
69.681933,82.968441
69.681929,82.968443
69.677359,82.970336
69.475443,83.094070
69.295368,83.247868
69.141570,83.427943
69.017836,83.629859
68.927211,83.848646
68.871928,84.078917
68.853348,84.315000
50.420096,84.315000
50.420096,81.836564
53.573216,81.836564
53.578192,81.861581
53.592929,81.935670
53.649068,82.019688
53.733086,82.075827
53.832192,82.095540
53.845039,82.092985
53.869617,82.090564
67.844767,82.090564
67.869345,82.092985
67.882192,82.095540
67.981298,82.075827
68.065316,82.019688
68.121455,81.935670
68.136192,81.861581
68.141168,81.836564
72.573216,81.836564
72.578192,81.861581
72.592929,81.935670
72.649068,82.019688
72.733086,82.075827
72.832192,82.095540
72.845039,82.092985
72.869617,82.090564
86.844767,82.090564
86.869345,82.092985
86.882192,82.095540
86.981298,82.075827
87.065316,82.019688
87.121455,81.935670
87.136192,81.861581
87.141168,81.836564
87.138613,81.823717
87.136192,81.799139
87.136192,77.086564
91.573216,77.086564
91.578192,77.111581
91.592929,77.185670
91.649068,77.269688
91.733086,77.325827
91.832192,77.345540
91.845039,77.342985
91.869617,77.340564
105.844767,77.340564
105.869345,77.342985
105.882192,77.345540
105.981298,77.325827
106.065316,77.269688
106.121455,77.185670
106.136192,77.111581
106.141168,77.086564
129.573216,77.086564
129.578192,77.111581
129.592929,77.185670
129.649068,77.269688
129.733086,77.325827
129.832192,77.345540
129.845039,77.342985
129.869617,77.340564
143.844767,77.340564
143.869345,77.342985
143.882192,77.345540
143.981298,77.325827
144.065316,77.269688
144.121455,77.185670
144.136192,77.111581
144.141168,77.086564
144.138613,77.073717
144.136192,77.049139
144.136192,63.073989
144.138613,63.049408
144.138747,63.048734
144.141168,63.036564
144.121455,62.937458
144.065316,62.853440
143.981298,62.797301
143.907209,62.782564
143.894364,62.780009
143.882192,62.777588
143.869345,62.780143
143.844767,62.782564
129.869617,62.782564
129.845039,62.780143
129.832192,62.777588
129.820020,62.780009
129.807175,62.782564
129.733086,62.797301
129.649068,62.853440
129.592929,62.937458
129.573216,63.036564
129.575637,63.048734
129.575771,63.049408
129.578192,63.073989
129.578192,77.049139
129.575771,77.073717
129.573216,77.086564
106.141168,77.086564
106.138613,77.073717
106.136192,77.049139
106.136192,74.711564
110.573216,74.711564
110.578192,74.736581
110.592929,74.810670
110.649068,74.894688
110.733086,74.950827
110.832192,74.970540
110.845039,74.967985
110.869617,74.965564
124.844767,74.965564
124.869345,74.967985
124.882192,74.970540
124.981298,74.950827
125.065316,74.894688
125.121455,74.810670
125.136192,74.736581
125.141168,74.711564
125.138613,74.698717
125.136192,74.674139
125.136192,61.795000
144.813348,61.795000
144.831928,62.031083
144.887211,62.261354
144.977836,62.480141
145.101570,62.682057
145.255368,62.862132
145.435443,63.015930
145.637359,63.139664
145.641929,63.141557
145.641933,63.141559
145.851573,63.228395
145.851575,63.228396
145.856146,63.230289
145.935999,63.249460
146.081604,63.284417
146.081610,63.284418
146.086417,63.285572
146.322500,63.304152
146.558583,63.285572
146.563390,63.284418
146.563396,63.284417
146.709001,63.249460
146.788854,63.230289
146.793425,63.228396
146.793427,63.228395
147.003067,63.141559
147.003071,63.141557
147.007641,63.139664
147.209557,63.015930
147.389632,62.862132
147.543430,62.682057
147.667164,62.480141
147.757789,62.261354
147.813072,62.031083
147.831652,61.795000
147.813072,61.558917
147.757789,61.328646
147.667164,61.109859
147.543430,60.907943
147.389632,60.727868
147.209557,60.574070
147.025963,60.461564
148.573216,60.461564
148.578192,60.486581
148.592929,60.560670
148.599823,60.570987
148.599823,60.570988
148.602257,60.574630
148.649068,60.644688
148.733086,60.700827
148.832192,60.720540
148.845039,60.717985
148.869617,60.715564
162.844767,60.715564
162.869345,60.717985
162.882192,60.720540
162.981298,60.700827
163.065316,60.644688
163.121455,60.560670
163.136192,60.486581
163.141168,60.461564
163.138613,60.448717
163.136192,60.424139
163.136192,59.970000
166.481024,59.970000
166.500737,60.069106
166.556876,60.153124
166.640894,60.209263
166.706442,60.222301
166.740000,60.228976
166.752847,60.226421
166.777425,60.224000
170.572575,60.224000
170.597153,60.226421
170.610000,60.228976
170.622846,60.226421
170.643559,60.222301
170.709106,60.209263
170.793124,60.153124
170.849263,60.069106
170.868976,59.970000
180.281024,59.970000
180.300737,60.069106
180.356876,60.153124
180.440894,60.209263
180.506442,60.222301
180.540000,60.228976
180.552847,60.226421
180.577425,60.224000
184.372575,60.224000
184.397153,60.226421
184.410000,60.228976
184.422846,60.226421
184.443559,60.222301
184.509106,60.209263
184.593124,60.153124
184.649263,60.069106
184.668976,59.970000
184.666421,59.957153
184.664000,59.932575
184.664000,53.727425
184.666421,53.702844
184.666555,53.702170
184.668976,53.690000
184.649263,53.590894
184.593124,53.506876
184.509106,53.450737
184.435017,53.436000
184.422172,53.433445
184.410000,53.431024
184.397153,53.433579
184.372575,53.436000
180.577425,53.436000
180.552847,53.433579
180.540000,53.431024
180.527828,53.433445
180.514983,53.436000
180.440894,53.450737
180.356876,53.506876
180.300737,53.590894
180.281024,53.690000
180.283445,53.702170
180.283579,53.702844
180.286000,53.727425
180.286000,59.932575
180.283579,59.957153
180.281024,59.970000
170.868976,59.970000
170.866421,59.957153
170.864000,59.932575
170.864000,53.727425
170.866421,53.702844
170.866555,53.702170
170.868976,53.690000
170.849263,53.590894
170.793124,53.506876
170.709106,53.450737
170.635017,53.436000
170.622172,53.433445
170.610000,53.431024
170.597153,53.433579
170.572575,53.436000
166.777425,53.436000
166.752847,53.433579
166.740000,53.431024
166.727828,53.433445
166.714983,53.436000
166.640894,53.450737
166.556876,53.506876
166.500737,53.590894
166.481024,53.690000
166.483445,53.702170
166.483579,53.702844
166.486000,53.727425
166.486000,59.932575
166.483579,59.957153
166.481024,59.970000
163.136192,59.970000
163.136192,46.448989
163.138613,46.424408
163.138747,46.423734
163.141168,46.411564
163.121455,46.312458
163.065316,46.228440
162.981298,46.172301
162.907209,46.157564
162.894364,46.155009
162.882192,46.152588
162.869345,46.155143
162.844767,46.157564
148.869617,46.157564
148.845039,46.155143
148.832192,46.152588
148.820020,46.155009
148.807175,46.157564
148.733086,46.172301
148.649068,46.228440
148.592929,46.312458
148.573216,46.411564
148.575637,46.423734
148.575771,46.424408
148.578192,46.448989
148.578192,60.424139
148.575771,60.448717
148.573216,60.461564
147.025963,60.461564
147.007641,60.450336
147.003071,60.448443
147.003067,60.448441
146.793427,60.361605
146.793425,60.361604
146.788854,60.359711
146.709001,60.340540
146.563396,60.305583
146.563390,60.305582
146.558583,60.304428
146.322500,60.285848
146.086417,60.304428
146.081610,60.305582
146.081604,60.305583
145.935999,60.340540
145.856146,60.359711
145.851575,60.361604
145.851573,60.361605
145.641933,60.448441
145.641929,60.448443
145.637359,60.450336
145.435443,60.574070
145.255368,60.727868
145.101570,60.907943
144.977836,61.109859
144.887211,61.328646
144.831928,61.558917
144.813348,61.795000
125.136192,61.795000
125.136192,60.698989
125.138613,60.674408
125.138747,60.673734
125.141168,60.661564
125.121455,60.562458
125.065316,60.478440
124.981298,60.422301
124.907209,60.407564
124.894364,60.405009
124.882192,60.402588
124.869345,60.405143
124.844767,60.407564
110.869617,60.407564
110.845039,60.405143
110.832192,60.402588
110.820020,60.405009
110.807175,60.407564
110.733086,60.422301
110.722769,60.429195
110.722768,60.429195
110.687258,60.452922
110.649068,60.478440
110.592929,60.562458
110.573216,60.661564
110.575637,60.673734
110.575771,60.674408
110.578192,60.698989
110.578192,74.674139
110.575771,74.698717
110.573216,74.711564
106.136192,74.711564
106.136192,63.073989
106.138613,63.049408
106.138747,63.048734
106.141168,63.036564
106.121455,62.937458
106.065316,62.853440
105.981298,62.797301
105.907209,62.782564
105.894364,62.780009
105.882192,62.777588
105.869345,62.780143
105.844767,62.782564
91.869617,62.782564
91.845039,62.780143
91.832192,62.777588
91.820020,62.780009
91.807175,62.782564
91.733086,62.797301
91.649068,62.853440
91.592929,62.937458
91.573216,63.036564
91.575637,63.048734
91.575771,63.049408
91.578192,63.073989
91.578192,77.049139
91.575771,77.073717
91.573216,77.086564
87.136192,77.086564
87.136192,67.823989
87.138613,67.799408
87.138747,67.798734
87.141168,67.786564
87.121455,67.687458
87.065316,67.603440
86.981298,67.547301
86.907209,67.532564
86.894364,67.530009
86.882192,67.527588
86.869345,67.530143
86.844767,67.532564
72.869617,67.532564
72.845039,67.530143
72.832192,67.527588
72.820020,67.530009
72.807175,67.532564
72.733086,67.547301
72.649068,67.603440
72.592929,67.687458
72.573216,67.786564
72.575637,67.798734
72.575771,67.799408
72.578192,67.823989
72.578192,81.799139
72.575771,81.823717
72.573216,81.836564
68.141168,81.836564
68.138613,81.823717
68.136192,81.799139
68.136192,67.823989
68.138613,67.799408
68.138747,67.798734
68.141168,67.786564
68.121455,67.687458
68.065316,67.603440
67.981298,67.547301
67.907209,67.532564
67.894364,67.530009
67.882192,67.527588
67.869345,67.530143
67.844767,67.532564
53.869617,67.532564
53.845039,67.530143
53.832192,67.527588
53.820020,67.530009
53.807175,67.532564
53.733086,67.547301
53.649068,67.603440
53.592929,67.687458
53.573216,67.786564
53.575637,67.798734
53.575771,67.799408
53.578192,67.823989
53.578192,81.799139
53.575771,81.823717
53.573216,81.836564
50.420096,81.836564
50.420096,65.315000
68.843348,65.315000
68.861928,65.551083
68.917211,65.781354
69.007836,66.000141
69.131570,66.202057
69.285368,66.382132
69.465443,66.535930
69.667359,66.659664
69.671929,66.661557
69.671933,66.661559
69.881573,66.748395
69.881575,66.748396
69.886146,66.750289
69.965999,66.769460
70.111604,66.804417
70.111610,66.804418
70.116417,66.805572
70.352500,66.824152
70.588583,66.805572
70.593390,66.804418
70.593396,66.804417
70.739001,66.769460
70.818854,66.750289
70.823425,66.748396
70.823427,66.748395
71.033067,66.661559
71.033071,66.661557
71.037641,66.659664
71.239557,66.535930
71.419632,66.382132
71.573430,66.202057
71.697164,66.000141
71.787789,65.781354
71.843072,65.551083
71.861652,65.315000
71.843072,65.078917
71.787789,64.848646
71.697164,64.629859
71.573430,64.427943
71.419632,64.247868
71.239557,64.094070
71.037641,63.970336
71.033071,63.968443
71.033067,63.968441
70.823427,63.881605
70.823425,63.881604
70.818854,63.879711
70.739001,63.860540
70.593396,63.825583
70.593390,63.825582
70.588583,63.824428
70.352500,63.805848
70.116417,63.824428
70.111610,63.825582
70.111604,63.825583
69.965999,63.860540
69.886146,63.879711
69.881575,63.881604
69.881573,63.881605
69.671933,63.968441
69.671929,63.968443
69.667359,63.970336
69.465443,64.094070
69.285368,64.247868
69.131570,64.427943
69.007836,64.629859
68.917211,64.848646
68.861928,65.078917
68.843348,65.315000
50.420096,65.315000
50.420096,62.836564
53.573216,62.836564
53.578192,62.861581
53.592929,62.935670
53.649068,63.019688
53.733086,63.075827
53.832192,63.095540
53.845039,63.092985
53.869617,63.090564
67.844767,63.090564
67.869345,63.092985
67.882192,63.095540
67.981298,63.075827
68.065316,63.019688
68.121455,62.935670
68.136192,62.861581
68.141168,62.836564
72.573216,62.836564
72.578192,62.861581
72.592929,62.935670
72.649068,63.019688
72.733086,63.075827
72.832192,63.095540
72.845039,63.092985
72.869617,63.090564
86.844767,63.090564
86.869345,63.092985
86.882192,63.095540
86.981298,63.075827
87.065316,63.019688
87.121455,62.935670
87.136192,62.861581
87.141168,62.836564
87.138613,62.823717
87.136192,62.799139
87.136192,58.086564
91.573216,58.086564
91.578192,58.111581
91.592929,58.185670
91.649068,58.269688
91.733086,58.325827
91.832192,58.345540
91.845039,58.342985
91.869617,58.340564
105.844767,58.340564
105.869345,58.342985
105.882192,58.345540
105.981298,58.325827
106.065316,58.269688
106.121455,58.185670
106.136192,58.111581
106.141168,58.086564
129.573216,58.086564
129.578192,58.111581
129.592929,58.185670
129.649068,58.269688
129.733086,58.325827
129.832192,58.345540
129.845039,58.342985
129.869617,58.340564
143.844767,58.340564
143.869345,58.342985
143.882192,58.345540
143.981298,58.325827
144.065316,58.269688
144.121455,58.185670
144.136192,58.111581
144.141168,58.086564
144.138613,58.073717
144.136192,58.049139
144.136192,44.073989
144.138613,44.049408
144.138747,44.048734
144.141168,44.036564
144.121455,43.937458
144.065316,43.853440
143.981298,43.797301
143.907209,43.782564
143.894364,43.780009
143.882192,43.777588
143.869345,43.780143
143.844767,43.782564
129.869617,43.782564
129.845039,43.780143
129.832192,43.777588
129.820020,43.780009
129.807175,43.782564
129.733086,43.797301
129.649068,43.853440
129.592929,43.937458
129.573216,44.036564
129.575637,44.048734
129.575771,44.049408
129.578192,44.073989
129.578192,58.049139
129.575771,58.073717
129.573216,58.086564
106.141168,58.086564
106.138613,58.073717
106.136192,58.049139
106.136192,55.711564
110.573216,55.711564
110.578192,55.736581
110.592929,55.810670
110.649068,55.894688
110.733086,55.950827
110.832192,55.970540
110.845039,55.967985
110.869617,55.965564
124.844767,55.965564
124.869345,55.967985
124.882192,55.970540
124.981298,55.950827
125.065316,55.894688
125.121455,55.810670
125.136192,55.736581
125.141168,55.711564
125.138613,55.698717
125.136192,55.674139
125.136192,41.698989
125.138613,41.674408
125.138747,41.673734
125.141168,41.661564
125.121455,41.562458
125.065316,41.478440
124.981298,41.422301
124.907209,41.407564
124.894364,41.405009
124.882192,41.402588
124.869345,41.405143
124.844767,41.407564
110.869617,41.407564
110.845039,41.405143
110.832192,41.402588
110.820020,41.405009
110.807175,41.407564
110.733086,41.422301
110.722769,41.429195
110.722768,41.429195
110.666840,41.466565
110.649068,41.478440
110.592929,41.562458
110.573216,41.661564
110.575637,41.673734
110.575771,41.674408
110.578192,41.698989
110.578192,55.674139
110.575771,55.698717
110.573216,55.711564
106.136192,55.711564
106.136192,44.073989
106.138613,44.049408
106.138747,44.048734
106.141168,44.036564
106.121455,43.937458
106.065316,43.853440
105.981298,43.797301
105.907209,43.782564
105.894364,43.780009
105.882192,43.777588
105.869345,43.780143
105.844767,43.782564
91.869617,43.782564
91.845039,43.780143
91.832192,43.777588
91.820020,43.780009
91.807175,43.782564
91.733086,43.797301
91.649068,43.853440
91.592929,43.937458
91.573216,44.036564
91.575637,44.048734
91.575771,44.049408
91.578192,44.073989
91.578192,58.049139
91.575771,58.073717
91.573216,58.086564
87.136192,58.086564
87.136192,48.823989
87.138613,48.799408
87.138747,48.798734
87.141168,48.786564
87.121455,48.687458
87.065316,48.603440
86.981298,48.547301
86.907209,48.532564
86.894364,48.530009
86.882192,48.527588
86.869345,48.530143
86.844767,48.532564
72.869617,48.532564
72.845039,48.530143
72.832192,48.527588
72.820020,48.530009
72.807175,48.532564
72.733086,48.547301
72.649068,48.603440
72.592929,48.687458
72.573216,48.786564
72.575637,48.798734
72.575771,48.799408
72.578192,48.823989
72.578192,62.799139
72.575771,62.823717
72.573216,62.836564
68.141168,62.836564
68.138613,62.823717
68.136192,62.799139
68.136192,48.823989
68.138613,48.799408
68.138747,48.798734
68.141168,48.786564
68.121455,48.687458
68.065316,48.603440
67.981298,48.547301
67.907209,48.532564
67.894364,48.530009
67.882192,48.527588
67.869345,48.530143
67.844767,48.532564
53.869617,48.532564
53.845039,48.530143
53.832192,48.527588
53.820020,48.530009
53.807175,48.532564
53.733086,48.547301
53.649068,48.603440
53.592929,48.687458
53.573216,48.786564
53.575637,48.798734
53.575771,48.799408
53.578192,48.823989
53.578192,62.799139
53.575771,62.823717
53.573216,62.836564
50.420096,62.836564
50.420096,50.406567
50.422517,50.381986
50.422651,50.381312
50.425072,50.369142
50.422651,50.356969
50.422651,50.347266
50.421575,50.333401
50.437286,49.953524
50.438146,49.943146
50.488954,49.535541
50.490668,49.525269
50.574962,49.123253
50.577518,49.113158
50.694726,48.719463
50.698107,48.709613
50.847431,48.326931
50.851602,48.317423
50.897798,48.222929
51.032007,47.948398
51.036961,47.939243
51.247232,47.586363
51.252920,47.577657
51.491609,47.243351
51.497996,47.235144
51.763493,46.921674
51.770534,46.914027
52.060981,46.623580
52.068628,46.616539
52.382098,46.351042
52.390309,46.344652
52.418352,46.324630
52.724611,46.105966
52.733317,46.100278
52.775311,46.075255
53.086200,45.890006
53.095356,45.885051
53.464385,45.704644
53.473885,45.700477
53.856575,45.551150
53.866417,45.547772
54.260112,45.430564
54.270207,45.428008
54.602025,45.358433
54.672226,45.343713
54.682491,45.342001
54.850902,45.321008
55.090100,45.291192
55.100478,45.290332
55.480355,45.274621
55.494220,45.275697
55.503923,45.275697
55.516096,45.278118
55.528943,45.275563
55.553521,45.273142
82.478671,45.273142
82.503249,45.275563
82.516096,45.278118
82.521324,45.277078
82.958285,45.260703
82.960626,45.260439
82.960637,45.260438
83.174089,45.236351
83.397994,45.211084
83.832756,45.128693
83.835033,45.128082
84.257853,45.014607
84.257862,45.014604
84.260132,45.013995
84.677725,44.867631
84.679870,44.866694
84.679879,44.866690
84.882567,44.778106
85.083192,44.690424
85.085281,44.689318
85.472194,44.484461
85.472207,44.484453
85.474259,44.483367
85.476224,44.482130
85.476236,44.482123
85.846742,44.248874
85.846746,44.248871
85.848732,44.247621
86.204510,43.984510
86.206297,43.982969
86.537808,43.697054
86.537813,43.697049
86.539599,43.695509
86.852117,43.382238
87.140312,43.046456
87.325612,42.794631
87.401163,42.691957
87.401168,42.691949
87.402568,42.690047
87.410699,42.677063
87.636160,42.317009
87.637413,42.315008
87.796582,42.012633
87.842429,41.925537
87.842431,41.925532
87.843530,41.923445
87.854908,41.897241
88.013778,41.531336
88.017677,41.522356
88.020549,41.517860
88.022720,41.505644
88.026084,41.497025
88.030255,41.483247
88.176970,41.147637
88.181363,41.138591
88.298966,40.919182
88.368934,40.788645
88.374017,40.780007
88.588930,40.446141
88.594711,40.437902
88.835588,40.122256
88.841998,40.114520
89.089814,39.838582
89.107286,39.819128
89.114287,39.811931
89.369439,39.569843
89.402324,39.538642
89.409898,39.532011
89.718815,39.282600
89.726892,39.276595
90.054733,39.052636
90.063265,39.047295
90.407922,38.850230
90.416853,38.845586
90.596509,38.761118
90.776170,38.676647
90.785434,38.672736
91.157069,38.533026
91.166625,38.529863
91.239999,38.508789
91.548240,38.420260
91.558000,38.417874
91.947142,38.339084
91.957080,38.337482
92.351272,38.290006
92.361305,38.289203
92.532440,38.282362
92.727277,38.274573
92.741629,38.275698
92.750877,38.275698
92.763046,38.278118
92.775893,38.275563
92.800471,38.273142
142.530047,38.273142
Z" /> 
</g>
</g>
</g>
<g style="fill:#000000; fill-opacity:1.000000; 
stroke:#000000; stroke-width:0.000000; stroke-opacity:1; 
stroke-linecap:round; stroke-linejoin:round;">
</g>
<g style="fill:#000000; fill-opacity:0.0; 
stroke:#000000; stroke-width:0.100000; stroke-opacity:1; 
stroke-linecap:round; stroke-linejoin:round;">
<path d="M180.665986 46.963734 A0.499966 0.499966 0.0 0 0 180.165734 47.463736" />
<path d="M181.190000 85.990000 A0.500000 0.500000 0.0 0 0 180.690000 85.490000" />
<path d="M169.940000 88.070000
L169.940000 85.990000
" />
<path d="M179.715390 89.212411
L184.359508 89.210391
" />
<path d="M143.882192 44.036564
L143.882192 58.086564
" />
<path d="M162.882192 79.461564
L148.832192 79.461564
" />
<path d="M129.832192 58.086564
L129.832192 44.036564
" />
<path d="M86.882192 62.836564
L72.832192 62.836564
" />
<path d="M72.832192 67.786564
L86.882192 67.786564
" />
<path d="M92.763046 38.019159 A5.349941 5.349941 0.0 0 0 87.779303 41.423687" />
<path d="M91.832192 82.036564
L105.882192 82.036564
" />
<path d="M148.832192 79.461564
L148.832192 65.411564
" />
<path d="M143.882192 58.086564
L129.832192 58.086564
" />
<path d="M153.324617 120.040397
L139.753359 116.403989
" />
<path d="M146.970007 40.329366 A5.349958 5.349958 0.0 0 0 142.567472 38.019142" />
<path d="M156.961025 106.469139
L153.324617 120.040397
" />
<path d="M179.665734 52.826274
L171.415734 52.826274
" />
<path d="M110.832192 55.711564
L110.832192 41.661564
" />
<path d="M167.532448 131.626999 A5.350007 5.350007 0.0 0 0 174.839685 129.665077" />
<path d="M170.915734 52.326274
L170.915734 47.458572
" />
<path d="M156.235638 125.112421
L167.532441 131.627011
" />
<path d="M184.843988 88.830391
L184.843988 88.790391
" />
<path d="M53.832192 62.836564
L53.832192 48.786564
" />
<path d="M91.832192 63.036564
L105.882192 63.036564
" />
<circle cx="183.051192" cy="102.806564" r="2.100000" /> 
<path d="M110.832192 74.711564
L110.832192 60.661564
" />
<path d="M182.540733 42.776196
L182.540437 45.364057
" />
<path d="M124.882192 41.661564
L124.882192 55.711564
" />
<path d="M67.882192 81.836564
L53.832192 81.836564
" />
<path d="M170.915726 52.326274 A0.499974 0.499974 0.0 0 0 171.415734 52.826274" />
<path d="M134.382192 115.711564
L120.332192 115.711564
" />
<path d="M143.882192 82.036564
L143.882192 96.086564
" />
<path d="M170.915728 47.458572 A0.500028 0.500028 0.0 0 0 170.415986 46.958572" />
<path d="M148.832192 84.411564
L162.882192 84.411564
" />
<path d="M82.516096 45.019142
L55.516096 45.019142
" />
<path d="M187.616096 101.197891
L186.401897 101.197891
" />
<path d="M139.753359 116.403989
L143.389767 102.832732
" />
<path d="M124.882192 79.661564
L124.882192 93.711564
" />
<path d="M168.540733 42.769142
L151.619405 42.769142
" />
<path d="M50.166096 50.369142
L50.166096 99.619142
" />
<path d="M168.035864 105.590236
L180.203521 112.615236
" />
<path d="M105.882192 82.036564
L105.882192 96.086564
" />
<path d="M67.882192 48.786564
L67.882192 62.836564
" />
</g>
<g style="fill:#000000; fill-opacity:0.0; 
stroke:#000000; stroke-width:0.050000; stroke-opacity:1; 
stroke-linecap:round; stroke-linejoin:round;">
<path style="fill:#000000; fill-opacity:0.0; 
stroke:#000000; stroke-width:0.050000; stroke-opacity:1; 
stroke-linecap:round; stroke-linejoin:round;fill:none"
d="M 166.740000,53.690000
170.610000,53.690000
170.610000,59.970000
166.740000,59.970000
Z" /> 
</g>
<g style="fill:#000000; fill-opacity:0.0; 
stroke:#000000; stroke-width:0.100000; stroke-opacity:1; 
stroke-linecap:round; stroke-linejoin:round;">
<path d="M110.832192 93.711564
L110.832192 79.661564
" />
<path d="M110.832192 60.661564
L124.882192 60.661564
" />
<path d="M67.882192 100.836564
L53.832192 100.836564
" />
<path d="M180.689999 88.570001
L170.440000 88.570000
" />
<path d="M86.882192 67.786564
L86.882192 81.836564
" />
<path d="M148.832192 98.461564
L148.832192 84.411564
" />
<path d="M91.832192 58.086564
L91.832192 44.036564
" />
<path d="M187.616057 48.119142 A5.349957 5.349957 0.0 0 0 182.540733 42.776197" />
<path d="M179.220000 98.690000
L179.215390 89.712411
" />
<path d="M168.540667 45.358433 A1.600033 1.600033 0.0 0 0 170.139926 46.958433" />
<path d="M67.882192 67.786564
L67.882192 81.836564
" />
<path d="M129.832192 96.086564
L129.832192 82.036564
" />
<path d="M143.882192 77.086564
L129.832192 77.086564
" />
<path d="M105.882192 44.036564
L105.882192 58.086564
" />
<path d="M148.832192 60.461564
L148.832192 46.411564
" />
<path d="M179.665734 52.826334 A0.500034 0.500034 0.0 0 0 180.165734 52.326274" />
<path d="M91.832192 44.036564
L105.882192 44.036564
" />
<path d="M86.882192 86.786564
L86.882192 100.836564
" />
<path d="M91.832192 96.086564
L91.832192 82.036564
" />
<path d="M72.832192 81.836564
L72.832192 67.786564
" />
<path d="M86.882192 81.836564
L72.832192 81.836564
" />
<path d="M129.832192 82.036564
L143.882192 82.036564
" />
<path d="M170.415986 46.958572
L170.139926 46.958433
" />
<path d="M180.203521 112.615236
L173.178521 124.782893
" />
<path d="M143.882192 63.036564
L143.882192 77.086564
" />
<path d="M142.567472 38.019142
L92.763046 38.019142
" />
<path d="M129.832192 77.086564
L129.832192 63.036564
" />
<path d="M55.516096 45.019146 A5.349994 5.349994 0.0 0 0 50.166096 50.369142" />
<path d="M169.940000 88.070000 A0.500000 0.500000 0.0 0 0 170.440000 88.570000" />
<path d="M72.832192 62.836564
L72.832192 48.786564
" />
<path d="M72.832192 86.786564
L86.882192 86.786564
" />
<path d="M53.832192 67.786564
L67.882192 67.786564
" />
<path d="M124.882192 74.711564
L110.832192 74.711564
" />
<path d="M187.616096 106.077718
L187.616096 101.197891
" />
<path d="M168.540733 45.358433
L168.540733 42.769142
" />
<path d="M180.939631 46.963937 A1.600037 1.600037 0.0 0 0 182.540437 45.364057" />
<path d="M82.516096 45.019136 A5.649996 5.649996 0.0 0 0 87.779302 41.423687" />
<path d="M129.832192 63.036564
L143.882192 63.036564
" />
<path d="M134.382192 101.661564
L134.382192 115.711564
" />
<circle cx="168.619192" cy="94.285564" r="2.100000" /> 
<path d="M53.832192 48.786564
L67.882192 48.786564
" />
<path d="M170.440000 85.490000 A0.500000 0.500000 0.0 0 0 169.940000 85.990000" />
<path d="M120.332192 101.661564
L134.382192 101.661564
" />
<path d="M91.832192 77.086564
L91.832192 63.036564
" />
<path d="M184.364118 99.187980
L179.720000 99.190000
" />
<path d="M67.882192 62.836564
L53.832192 62.836564
" />
<path d="M53.832192 100.836564
L53.832192 86.786564
" />
<path d="M146.969984 40.329382 A5.650042 5.650042 0.0 0 0 151.619405 42.769142" />
<path d="M53.832192 86.786564
L67.882192 86.786564
" />
<path d="M105.882192 77.086564
L91.832192 77.086564
" />
<path d="M124.882192 60.661564
L124.882192 74.711564
" />
<path d="M116.251119 117.781624 A5.350004 5.350004 0.0 0 0 119.882875 119.935771" />
<path d="M162.882192 98.461564
L148.832192 98.461564
" />
<path d="M105.882192 96.086564
L91.832192 96.086564
" />
<path d="M53.832192 81.836564
L53.832192 67.786564
" />
<path d="M187.616096 87.201768
L187.616096 48.119142
" />
<path d="M55.516096 104.969142
L104.040255 104.969142
" />
</g>
<g style="fill:#000000; fill-opacity:0.0; 
stroke:#000000; stroke-width:0.200000; stroke-opacity:1; 
stroke-linecap:round; stroke-linejoin:round;">
<path d="M424.925367,111.394368 C424.925367,111.394368 424.925367,111.394368 424.925367,111.394368" />
</g>
<g style="fill:#000000; fill-opacity:0.0; 
stroke:#000000; stroke-width:0.100000; stroke-opacity:1; 
stroke-linecap:round; stroke-linejoin:round;">
<path d="M162.882192 84.411564
L162.882192 98.461564
" />
<path d="M186.395885 87.202480 A1.552320 1.552320 0.0 0 0 184.843988 88.790391" />
<path d="M180.939631 46.963874
L180.665986 46.963736
" />
<path d="M120.332192 115.711564
L120.332192 101.661564
" />
<path d="M187.616096 87.201768
L186.402901 87.202500
" />
<path d="M86.882192 48.786564
L86.882192 62.836564
" />
<path d="M161.010864 117.757893
L168.035864 105.590236
" />
<path d="M143.389767 102.832732
L156.961025 106.469139
" />
</g>
<g style="fill:#000000; fill-opacity:0.0; 
stroke:#000000; stroke-width:0.050000; stroke-opacity:1; 
stroke-linecap:round; stroke-linejoin:round;">
<path style="fill:#000000; fill-opacity:0.0; 
stroke:#000000; stroke-width:0.050000; stroke-opacity:1; 
stroke-linecap:round; stroke-linejoin:round;fill:none"
d="M 180.540000,53.690000
184.410000,53.690000
184.410000,59.970000
180.540000,59.970000
Z" /> 
</g>
<g style="fill:#000000; fill-opacity:0.0; 
stroke:#000000; stroke-width:0.100000; stroke-opacity:1; 
stroke-linecap:round; stroke-linejoin:round;">
<path d="M180.165734 47.463736
L180.165734 52.326274
" />
<path d="M67.882192 86.786564
L67.882192 100.836564
" />
<path d="M186.900677 108.750368 A5.349996 5.349996 0.0 0 0 187.616096 106.077718" />
<path d="M162.882192 65.411564
L162.882192 79.461564
" />
<path d="M119.882875 119.935772
L154.143842 124.404346
" />
<path d="M184.850000 99.610000
L184.850000 99.570000
" />
<path d="M156.235636 125.112425 A5.650008 5.650008 0.0 0 0 154.143842 124.404346" />
<path d="M184.849997 99.570001 A0.500020 0.500020 0.0 0 0 184.364118 99.187980" />
<path d="M124.882192 55.711564
L110.832192 55.711564
" />
<path d="M148.832192 65.411564
L162.882192 65.411564
" />
<path d="M180.689999 88.569999 A0.499999 0.499999 0.0 0 0 181.189999 88.070001" />
<path d="M179.220000 98.690000 A0.500000 0.500000 0.0 0 0 179.720000 99.190000" />
<path d="M72.832192 48.786564
L86.882192 48.786564
" />
<path d="M174.839685 129.665077
L186.900685 108.750373
" />
<path d="M108.606386 107.291537
L116.251121 117.781623
" />
<path d="M110.832192 41.661564
L124.882192 41.661564
" />
<path d="M50.166058 99.619142 A5.350042 5.350042 0.0 0 0 55.516096 104.969142" />
<path d="M162.882192 46.411564
L162.882192 60.461564
" />
<path d="M184.850017 99.610000 A1.552291 1.552291 0.0 0 0 186.401897 101.197891" />
<path d="M181.190000 85.990000
L181.189999 88.070001
" />
<path d="M124.882192 93.711564
L110.832192 93.711564
" />
</g>
<g style="fill:#000000; fill-opacity:0.0; 
stroke:#000000; stroke-width:0.200000; stroke-opacity:1; 
stroke-linecap:round; stroke-linejoin:round;">
<path d="M299.411433,111.386368 C299.411433,111.386368 299.411433,111.386368 299.411433,111.386368" />
</g>
<g style="fill:#000000; fill-opacity:0.0; 
stroke:#000000; stroke-width:0.100000; stroke-opacity:1; 
stroke-linecap:round; stroke-linejoin:round;">
<path d="M148.832192 46.411564
L162.882192 46.411564
" />
<path d="M105.882192 63.036564
L105.882192 77.086564
" />
<path d="M108.606401 107.291526 A5.649958 5.649958 0.0 0 0 104.040255 104.969142" />
<path d="M143.882192 96.086564
L129.832192 96.086564
" />
<path d="M170.440000 85.490000
L180.690000 85.490000
" />
<path d="M110.832192 79.661564
L124.882192 79.661564
" />
<path d="M105.882192 58.086564
L91.832192 58.086564
" />
<path d="M162.882192 60.461564
L148.832192 60.461564
" />
<path d="M179.715390 89.212390 A0.500010 0.500010 0.0 0 0 179.215390 89.712411" />
<path d="M173.178521 124.782893
L161.010864 117.757893
" />
<path d="M86.882192 100.836564
L72.832192 100.836564
" />
<path d="M72.832192 100.836564
L72.832192 86.786564
" />
<path d="M129.832192 44.036564
L143.882192 44.036564
" />
<path d="M184.358106 89.212409 A0.500009 0.500009 0.0 0 0 184.843988 88.830391" />
<g >
</g>
<g >
</g>
<g >
</g>
<g >
</g>
<g >
</g>
<g >
</g>
<g >
</g>
<g >
</g>
</g> 
</svg>
