0
SECTION
2
HEADER
9
$INSUNITS
70
4
9
$ACADVER
1
AC1014
9
$HANDSEED
5
FFFF
0
ENDSEC
0
SECTION
2
TABLES
0
TABLE
2
VPORT
5
8
100
AcDbSymbolTable
0
ENDTAB
0
TABLE
2
LTYPE
5
5
100
AcDbSymbolTable
0
LTYPE
5
14
100
AcDbSymbolTableRecord
100
AcDbLinetypeTableRecord
2
BYBLOCK
70
0
0
LTYPE
5
15
100
AcDbSymbolTableRecord
100
AcDbLinetypeTableRecord
2
BYLAYER
70
0
0
ENDTAB
0
TABLE
2
LAYER
5
2
100
AcDbSymbolTable
70
2
0
LAYER
5
50
100
AcDbSymbolTableRecord
100
AcDbLayerTableRecord
2
0
70
0
6
CONTINUOUS
0
ENDTAB
0
TABLE
2
STYLE
5
3
100
AcDbSymbolTable
70
1
0
STYLE
5
11
100
AcDbSymbolTableRecord
100
AcDbTextStyleTableRecord
2
STANDARD
70
0
0
ENDTAB
0
TABLE
2
VIEW
5
6
100
AcDbSymbolTable
70
0
0
ENDTAB
0
TABLE
2
UCS
5
7
100
AcDbSymbolTable
70
0
0
ENDTAB
0
TABLE
2
APPID
5
9
100
AcDbSymbolTable
70
2
0
APPID
5
12
100
AcDbSymbolTableRecord
100
AcDbRegAppTableRecord
2
ACAD
70
0
0
ENDTAB
0
TABLE
2
DIMSTYLE
5
A
100
AcDbSymbolTable
70
1
0
ENDTAB
0
TABLE
2
BLOCK_RECORD
5
1
100
AcDbSymbolTable
70
1
0
BLOCK_RECORD
5
1F
100
AcDbSymbolTableRecord
100
AcDbBlockTableRecord
2
*MODEL_SPACE
0
BLOCK_RECORD
5
1B
100
AcDbSymbolTableRecord
100
AcDbBlockTableRecord
2
*PAPER_SPACE
0
ENDTAB
0
ENDSEC
0
SECTION
2
BLOCKS
0
BLOCK
5
20
100
AcDbEntity
100
AcDbBlockBegin
2
*MODEL_SPACE
0
ENDBLK
5
21
100
AcDbEntity
100
AcDbBlockEnd
0
BLOCK
5
1C
100
AcDbEntity
100
AcDbBlockBegin
2
*PAPER_SPACE
0
ENDBLK
5
1D
100
AcDbEntity
100
AcDbBlockEnd
0
ENDSEC
0
SECTION
2
ENTITIES
0
LWPOLYLINE
5
100
100
AcDbEntity
8
0
100
AcDbPolyline
90
12
70
1
43
0.0
10
11.324910467631589
20
13.18921308126194
10
16.224910467631592
20
13.18921308126194
10
16.224910467631599
20
27.18321308126194
10
30.374910467631587
20
27.18321308126194
10
30.374910467631441
20
13.033213081261948
10
19.272910467631313
20
13.033213081261948
10
19.272910467631288
20
10.489213081261939
10
8.2729104676312897
20
10.489213081261941
10
8.2729104676313163
20
13.033213081261948
10
-2.825089532368541
20
13.033213081261948
10
-2.8250895323683949
20
27.18321308126194
10
11.324910467631597
20
27.18321308126194
0
CIRCLE
5
101
100
AcDbEntity
8
0
100
AcDbCircle
10
-24.327089532369733
20
9.4662130812621719
30
0
40
1
210
-1.3497998642108738e-45
220
1.3987413384377434e-59
230
1
0
CIRCLE
5
102
100
AcDbEntity
8
0
100
AcDbCircle
10
110.04791046763295
20
-27.826786918739145
30
0
40
1
210
-1.3497998642108738e-45
220
1.3987413384377434e-59
230
1
0
CIRCLE
5
103
100
AcDbEntity
8
0
100
AcDbCircle
10
109.02191046763291
20
29.384213081262693
30
0
40
1
210
-1.3497998642108738e-45
220
1.3987413384377434e-59
230
1
0
CIRCLE
5
104
100
AcDbEntity
8
0
100
AcDbCircle
10
51.872910467631783
20
9.4662130812621719
30
0
40
1
210
-1.3497998642108738e-45
220
1.3987413384377434e-59
230
1
0
CIRCLE
5
105
100
AcDbEntity
8
0
100
AcDbCircle
10
-61.055089532370445
20
-27.826786918730416
30
0
40
1
210
-1.3497998642108738e-45
220
1.3987413384377434e-59
230
1
0
CIRCLE
5
106
100
AcDbEntity
8
0
100
AcDbCircle
10
-81.476089532370878
20
29.384213081262956
30
0
40
1
210
-1.3497998642108738e-45
220
1.3987413384377434e-59
230
1
0
LWPOLYLINE
5
107
100
AcDbEntity
8
0
100
AcDbPolyline
90
8
70
1
43
0.0
10
-102.32708953236924
20
-42.869786918738072
42
0.41421356237309404
10
-96.977089532369291
20
-48.21978691873808
10
124.52291046763044
20
-48.21978691873808
42
0.41421356237309553
10
129.8729104676305
20
-42.869786918738086
10
129.87291046763141
20
45.088213081261948
42
0.41421356237309265
10
124.52291046763143
20
50.438213081261942
10
-96.977089532368296
20
50.438213081261949
42
0.41421356237309503
10
-102.32708953236838
20
45.088213081261955
0
LWPOLYLINE
5
108
100
AcDbEntity
8
0
100
AcDbPolyline
90
4
70
1
43
0.0
10
-83.925089532368588
20
8.1832130812619397
10
-83.92508953236873
20
-5.9667869187380518
10
-98.075089532368736
20
-5.9667869187380518
10
-98.075089532368594
20
8.1832130812619397
0
LWPOLYLINE
5
109
100
AcDbEntity
8
0
100
AcDbPolyline
90
4
70
1
43
0.0
10
-83.925089532368403
20
27.18321308126194
10
-83.925089532368546
20
13.033213081261948
10
-98.075089532368537
20
13.033213081261948
10
-98.075089532368395
20
27.18321308126194
0
LWPOLYLINE
5
110
100
AcDbEntity
8
0
100
AcDbPolyline
90
4
70
1
43
0.0
10
-83.925089532368787
20
-10.81678691873805
10
-83.925089532368929
20
-24.966786918738066
10
-98.075089532368935
20
-24.966786918738066
10
-98.075089532368793
20
-10.81678691873805
0
LWPOLYLINE
5
111
100
AcDbEntity
8
0
100
AcDbPolyline
90
4
70
1
43
0.0
10
-83.925089532368204
20
46.183213081261968
10
-83.925089532368347
20
32.033213081261955
10
-98.075089532368338
20
32.033213081261955
10
-98.075089532368196
20
46.183213081261968
0
LWPOLYLINE
5
112
100
AcDbEntity
8
0
100
AcDbPolyline
90
4
70
1
43
0.0
10
-83.925089532368986
20
-29.816786918738046
10
-83.925089532369128
20
-43.966786918738066
10
-98.075089532369134
20
-43.966786918738066
10
-98.075089532368992
20
-29.816786918738046
0
LWPOLYLINE
5
113
100
AcDbEntity
8
0
100
AcDbPolyline
90
4
70
1
43
0.0
10
-64.875089532368634
20
8.1832130812619397
10
-64.875089532368776
20
-5.9667869187380518
10
-79.025089532368767
20
-5.9667869187380518
10
-79.025089532368625
20
8.1832130812619397
0
LWPOLYLINE
5
114
100
AcDbEntity
8
0
100
AcDbPolyline
90
4
70
1
43
0.0
10
-64.875089532368435
20
27.18321308126194
10
-64.875089532368577
20
13.033213081261948
10
-79.025089532368582
20
13.033213081261948
10
-79.025089532368426
20
27.18321308126194
0
LWPOLYLINE
5
115
100
AcDbEntity
8
0
100
AcDbPolyline
90
4
70
1
43
0.0
10
-64.875089532368833
20
-10.81678691873805
10
-64.875089532368989
20
-24.966786918738066
10
-79.025089532368966
20
-24.966786918738066
10
-79.02508953236881
20
-10.81678691873805
0
LWPOLYLINE
5
116
100
AcDbEntity
8
0
100
AcDbPolyline
90
4
70
1
43
0.0
10
-64.875089532368236
20
46.183213081261968
10
-64.875089532368392
20
32.033213081261955
10
-79.025089532368384
20
32.033213081261955
10
-79.025089532368227
20
46.183213081261968
0
LWPOLYLINE
5
117
100
AcDbEntity
8
0
100
AcDbPolyline
90
4
70
1
43
0.0
10
-64.875089532369032
20
-29.816786918738046
10
-64.875089532369174
20
-43.966786918738066
10
-79.025089532369165
20
-43.966786918738066
10
-79.025089532369009
20
-29.816786918738046
0
LWPOLYLINE
5
118
100
AcDbEntity
8
0
100
AcDbPolyline
90
4
70
1
43
0.0
10
-45.825089532368615
20
8.1832130812619397
10
-45.825089532368764
20
-5.9667869187380518
10
-59.975089532368756
20
-5.9667869187380518
10
-59.975089532368607
20
8.1832130812619397
0
LWPOLYLINE
5
119
100
AcDbEntity
8
0
100
AcDbPolyline
90
4
70
1
43
0.0
10
-45.825089532368423
20
27.18321308126194
10
-45.825089532368573
20
13.033213081261948
10
-59.975089532368564
20
13.033213081261948
10
-59.975089532368415
20
27.18321308126194
0
LWPOLYLINE
5
120
100
AcDbEntity
8
0
100
AcDbPolyline
90
4
70
1
43
0.0
10
-45.825089532368821
20
-10.81678691873805
10
-45.82508953236897
20
-24.966786918738066
10
-59.975089532368955
20
-24.966786918738066
10
-59.975089532368806
20
-10.81678691873805
0
LWPOLYLINE
5
121
100
AcDbEntity
8
0
100
AcDbPolyline
90
4
70
1
43
0.0
10
-45.825089532368224
20
46.183213081261968
10
-45.825089532368381
20
32.033213081261955
10
-59.975089532368372
20
32.033213081261955
10
-59.975089532368216
20
46.183213081261968
0
LWPOLYLINE
5
122
100
AcDbEntity
8
0
100
AcDbPolyline
90
4
70
1
43
0.0
10
-45.82508953236902
20
-29.816786918738046
10
-45.825089532369169
20
-43.966786918738066
10
-59.975089532369154
20
-43.966786918738066
10
-59.975089532368997
20
-29.816786918738046
0
LWPOLYLINE
5
123
100
AcDbEntity
8
0
100
AcDbPolyline
90
4
70
1
43
0.0
10
-26.775089532368604
20
8.1832130812619397
10
-26.775089532368753
20
-5.9667869187380518
10
-40.925089532368744
20
-5.9667869187380518
10
-40.925089532368595
20
8.1832130812619397
0
LWPOLYLINE
5
124
100
AcDbEntity
8
0
100
AcDbPolyline
90
4
70
1
43
0.0
10
-26.775089532368412
20
27.18321308126194
10
-26.775089532368558
20
13.033213081261948
10
-40.925089532368553
20
13.033213081261948
10
-40.925089532368403
20
27.18321308126194
0
LWPOLYLINE
5
125
100
AcDbEntity
8
0
100
AcDbPolyline
90
4
70
1
43
0.0
10
-26.775089532368803
20
-10.81678691873805
10
-26.775089532368948
20
-24.966786918738066
10
-40.925089532368943
20
-24.966786918738066
10
-40.925089532368794
20
-10.81678691873805
0
LWPOLYLINE
5
126
100
AcDbEntity
8
0
100
AcDbPolyline
90
4
70
1
43
0.0
10
-26.775089532368209
20
46.183213081261968
10
-26.775089532368355
20
32.033213081261955
10
-40.925089532368347
20
32.033213081261955
10
-40.925089532368204
20
46.183213081261968
0
LWPOLYLINE
5
127
100
AcDbEntity
8
0
100
AcDbPolyline
90
4
70
1
43
0.0
10
-26.775089532369002
20
-29.816786918738046
10
-26.775089532369147
20
-43.966786918738066
10
-40.925089532369142
20
-43.966786918738066
10
-40.925089532368986
20
-29.816786918738046
0
LWPOLYLINE
5
128
100
AcDbEntity
8
0
100
AcDbPolyline
90
4
70
1
43
0.0
10
-7.7250895323685942
20
8.1832130812619397
10
-7.7250895323687407
20
-5.9667869187380518
10
-21.875089532368733
20
-5.9667869187380518
10
-21.875089532368584
20
8.1832130812619397
0
LWPOLYLINE
5
129
100
AcDbEntity
8
0
100
AcDbPolyline
90
4
70
1
43
0.0
10
-7.725089532368397
20
27.18321308126194
10
-7.7250895323685427
20
13.033213081261948
10
-21.875089532368534
20
13.033213081261948
10
-21.875089532368392
20
27.18321308126194
0
LWPOLYLINE
5
130
100
AcDbEntity
8
0
100
AcDbPolyline
90
4
70
1
43
0.0
10
-7.7250895323687905
20
-10.81678691873805
10
-7.725089532368937
20
-24.966786918738066
10
-21.875089532368929
20
-24.966786918738066
10
-21.875089532368783
20
-10.81678691873805
0
LWPOLYLINE
5
131
100
AcDbEntity
8
0
100
AcDbPolyline
90
4
70
1
43
0.0
10
-7.7250895323681998
20
46.183213081261968
10
-7.7250895323683464
20
32.033213081261955
10
-21.875089532368335
20
32.033213081261955
10
-21.87508953236819
20
46.183213081261968
0
LWPOLYLINE
5
132
100
AcDbEntity
8
0
100
AcDbPolyline
90
4
70
1
43
0.0
10
-7.7250895323689868
20
-29.816786918738046
10
-7.7250895323691342
20
-43.966786918738066
10
-21.875089532369127
20
-43.966786918738066
10
-21.875089532368982
20
-29.816786918738046
0
LWPOLYLINE
5
133
100
AcDbEntity
8
0
100
AcDbPolyline
90
4
70
1
43
0.0
10
11.324910467631399
20
8.1832130812619397
10
11.324910467631252
20
-5.9667869187380518
10
-2.8250895323687386
20
-5.9667869187380518
10
-2.8250895323685916
20
8.1832130812619397
0
LWPOLYLINE
5
134
100
AcDbEntity
8
0
100
AcDbPolyline
90
4
70
1
43
0.0
10
11.324910467631204
20
-10.81678691873805
10
11.324910467631057
20
-24.966786918738066
10
-2.8250895323689362
20
-24.966786918738066
10
-2.8250895323687883
20
-10.81678691873805
0
LWPOLYLINE
5
135
100
AcDbEntity
8
0
100
AcDbPolyline
90
4
70
1
43
0.0
10
11.324910467631796
20
46.183213081261968
10
11.324910467631648
20
32.033213081261955
10
-2.8250895323683456
20
32.033213081261955
10
-2.8250895323681977
20
46.183213081261968
0
LWPOLYLINE
5
136
100
AcDbEntity
8
0
100
AcDbPolyline
90
4
70
1
43
0.0
10
11.324910467631007
20
-29.816786918738046
10
11.324910467630859
20
-43.966786918738066
10
-2.8250895323691316
20
-43.966786918738066
10
-2.8250895323689855
20
-29.816786918738046
0
LWPOLYLINE
5
137
100
AcDbEntity
8
0
100
AcDbPolyline
90
4
70
1
43
0.0
10
30.374910467631395
20
8.1832130812619397
10
30.374910467631246
20
-5.9667869187380518
10
16.224910467631254
20
-5.9667869187380518
10
16.224910467631403
20
8.1832130812619397
0
LWPOLYLINE
5
138
100
AcDbEntity
8
0
100
AcDbPolyline
90
4
70
1
43
0.0
10
30.374910467631196
20
-10.81678691873805
10
30.37491046763105
20
-24.966786918738066
10
16.224910467631059
20
-24.966786918738066
10
16.224910467631204
20
-10.81678691873805
0
LWPOLYLINE
5
139
100
AcDbEntity
8
0
100
AcDbPolyline
90
4
70
1
43
0.0
10
30.374910467631789
20
46.183213081261968
10
30.374910467631643
20
32.033213081261955
10
16.224910467631652
20
32.033213081261955
10
16.224910467631794
20
46.183213081261968
0
LWPOLYLINE
5
140
100
AcDbEntity
8
0
100
AcDbPolyline
90
4
70
1
43
0.0
10
30.374910467630997
20
-29.816786918738046
10
30.374910467630851
20
-43.966786918738066
10
16.22491046763086
20
-43.966786918738066
10
16.224910467631009
20
-29.816786918738046
0
LWPOLYLINE
5
141
100
AcDbEntity
8
0
100
AcDbPolyline
90
4
70
1
43
0.0
10
49.424910467631406
20
8.1832130812619397
10
49.42491046763125
20
-5.9667869187380518
10
35.274910467631258
20
-5.9667869187380518
10
35.274910467631415
20
8.1832130812619397
0
LWPOLYLINE
5
142
100
AcDbEntity
8
0
100
AcDbPolyline
90
4
70
1
43
0.0
10
49.424910467631598
20
27.18321308126194
10
49.424910467631449
20
13.033213081261948
10
35.274910467631457
20
13.033213081261948
10
35.274910467631607
20
27.18321308126194
0
LWPOLYLINE
5
143
100
AcDbEntity
8
0
100
AcDbPolyline
90
4
70
1
43
0.0
10
49.4249104676312
20
-10.81678691873805
10
49.424910467631051
20
-24.966786918738066
10
35.274910467631067
20
-24.966786918738066
10
35.274910467631216
20
-10.81678691873805
0
LWPOLYLINE
5
144
100
AcDbEntity
8
0
100
AcDbPolyline
90
4
70
1
43
0.0
10
49.424910467631797
20
46.183213081261968
10
49.424910467631648
20
32.033213081261955
10
35.274910467631656
20
32.033213081261955
10
35.274910467631805
20
46.183213081261968
0
LWPOLYLINE
5
145
100
AcDbEntity
8
0
100
AcDbPolyline
90
4
70
1
43
0.0
10
49.424910467631008
20
-29.816786918738046
10
49.424910467630852
20
-43.966786918738066
10
35.274910467630875
20
-43.966786918738066
10
35.274910467631017
20
-29.816786918738046
0
LWPOLYLINE
5
146
100
AcDbEntity
8
0
100
AcDbPolyline
90
4
70
1
43
0.0
10
68.474910467631403
20
8.1832130812619397
10
68.474910467631261
20
-5.9667869187380518
10
54.324910467631263
20
-5.9667869187380518
10
54.324910467631412
20
8.1832130812619397
0
LWPOLYLINE
5
147
100
AcDbEntity
8
0
100
AcDbPolyline
90
4
70
1
43
0.0
10
68.474910467631602
20
27.18321308126194
10
68.474910467631446
20
13.033213081261948
10
54.324910467631462
20
13.033213081261948
10
54.324910467631611
20
27.18321308126194
0
LWPOLYLINE
5
148
100
AcDbEntity
8
0
100
AcDbPolyline
90
4
70
1
43
0.0
10
68.474910467631204
20
-10.81678691873805
10
68.474910467631048
20
-24.966786918738066
10
54.324910467631071
20
-24.966786918738066
10
54.32491046763122
20
-10.81678691873805
0
LWPOLYLINE
5
149
100
AcDbEntity
8
0
100
AcDbPolyline
90
4
70
1
43
0.0
10
68.474910467631801
20
46.183213081261968
10
68.474910467631645
20
32.033213081261955
10
54.324910467631653
20
32.033213081261955
10
54.32491046763181
20
46.183213081261968
0
LWPOLYLINE
5
150
100
AcDbEntity
8
0
100
AcDbPolyline
90
4
70
1
43
0.0
10
68.474910467631005
20
-29.816786918738046
10
68.474910467630849
20
-43.966786918738066
10
54.324910467630872
20
-43.966786918738066
10
54.324910467631028
20
-29.816786918738046
0
LWPOLYLINE
5
151
100
AcDbEntity
8
0
100
AcDbPolyline
90
4
70
1
43
0.0
10
87.524910467631415
20
8.1832130812619397
10
87.524910467631273
20
-5.9667869187380518
10
73.374910467631281
20
-5.9667869187380518
10
73.374910467631423
20
8.1832130812619397
0
LWPOLYLINE
5
152
100
AcDbEntity
8
0
100
AcDbPolyline
90
4
70
1
43
0.0
10
87.524910467631614
20
27.18321308126194
10
87.524910467631472
20
13.033213081261948
10
73.37491046763148
20
13.033213081261948
10
73.374910467631608
20
27.18321308126194
0
LWPOLYLINE
5
153
100
AcDbEntity
8
0
100
AcDbPolyline
90
4
70
1
43
0.0
10
87.52491046763123
20
-10.81678691873805
10
87.524910467631088
20
-24.966786918738066
10
73.374910467631068
20
-24.966786918738066
10
73.374910467631224
20
-10.81678691873805
0
LWPOLYLINE
5
154
100
AcDbEntity
8
0
100
AcDbPolyline
90
4
70
1
43
0.0
10
87.524910467631813
20
46.183213081261968
10
87.52491046763167
20
32.033213081261955
10
73.374910467631679
20
32.033213081261955
10
73.374910467631807
20
46.183213081261968
0
LWPOLYLINE
5
155
100
AcDbEntity
8
0
100
AcDbPolyline
90
4
70
1
43
0.0
10
87.524910467631031
20
-29.816786918738046
10
87.524910467630889
20
-43.966786918738066
10
73.374910467630883
20
-43.966786918738066
10
73.374910467631025
20
-29.816786918738046
0
LWPOLYLINE
5
156
100
AcDbEntity
8
0
100
AcDbPolyline
90
4
70
1
43
0.0
10
106.57491046763143
20
8.1832130812619397
10
106.57491046763128
20
-5.9667869187380518
10
92.424910467631292
20
-5.9667869187380518
10
92.424910467631435
20
8.1832130812619397
0
LWPOLYLINE
5
157
100
AcDbEntity
8
0
100
AcDbPolyline
90
4
70
1
43
0.0
10
106.57491046763163
20
27.18321308126194
10
106.57491046763148
20
13.033213081261948
10
92.424910467631491
20
13.033213081261948
10
92.424910467631634
20
27.18321308126194
0
LWPOLYLINE
5
158
100
AcDbEntity
8
0
100
AcDbPolyline
90
4
70
1
43
0.0
10
106.57491046763124
20
-10.81678691873805
10
106.5749104676311
20
-24.966786918738066
10
92.424910467631079
20
-24.966786918738066
10
92.424910467631221
20
-10.81678691873805
0
LWPOLYLINE
5
159
100
AcDbEntity
8
0
100
AcDbPolyline
90
4
70
1
43
0.0
10
106.57491046763182
20
46.183213081261968
10
106.57491046763168
20
32.033213081261955
10
92.42491046763169
20
32.033213081261955
10
92.424910467631832
20
46.183213081261968
0
LWPOLYLINE
5
160
100
AcDbEntity
8
0
100
AcDbPolyline
90
4
70
1
43
0.0
10
106.57491046763104
20
-29.816786918738046
10
106.5749104676309
20
-43.966786918738066
10
92.424910467630895
20
-43.966786918738066
10
92.424910467631037
20
-29.816786918738046
0
LWPOLYLINE
5
161
100
AcDbEntity
8
0
100
AcDbPolyline
90
4
70
1
43
0.0
10
125.62491046763142
20
8.1832130812619397
10
125.62491046763128
20
-5.9667869187380518
10
111.47491046763129
20
-5.9667869187380518
10
111.47491046763143
20
8.1832130812619397
0
LWPOLYLINE
5
162
100
AcDbEntity
8
0
100
AcDbPolyline
90
4
70
1
43
0.0
10
125.62491046763162
20
27.18321308126194
10
125.62491046763148
20
13.033213081261948
10
111.47491046763149
20
13.033213081261948
10
111.47491046763163
20
27.18321308126194
0
LWPOLYLINE
5
163
100
AcDbEntity
8
0
100
AcDbPolyline
90
4
70
1
43
0.0
10
125.62491046763122
20
-10.81678691873805
10
125.62491046763108
20
-24.966786918738066
10
111.47491046763108
20
-24.966786918738066
10
111.47491046763122
20
-10.81678691873805
0
LWPOLYLINE
5
164
100
AcDbEntity
8
0
100
AcDbPolyline
90
4
70
1
43
0.0
10
125.62491046763182
20
46.183213081261968
10
125.62491046763168
20
32.033213081261955
10
111.47491046763167
20
32.033213081261955
10
111.47491046763182
20
46.183213081261968
0
LWPOLYLINE
5
165
100
AcDbEntity
8
0
100
AcDbPolyline
90
4
70
1
43
0.0
10
125.62491046763103
20
-29.816786918738046
10
125.62491046763088
20
-43.966786918738066
10
111.47491046763088
20
-43.966786918738066
10
111.47491046763102
20
-29.816786918738046
0
ENDSEC
0
SECTION
2
OBJECTS
0
DICTIONARY
5
C
100
AcDbDictionary
3
ACAD_GROUP
350
D
3
ACAD_MLINESTYLE
350
17
0
DICTIONARY
5
D
100
AcDbDictionary
0
DICTIONARY
5
1A
330
C
100
AcDbDictionary
0
DICTIONARY
5
17
100
AcDbDictionary
0
ENDSEC
0
EOF
