<?xml version="1.0" standalone="no"?>
 <!DOCTYPE svg PUBLIC "-//W3C//DTD SVG 1.1//EN" 
 "http://www.w3.org/Graphics/SVG/1.1/DTD/svg11.dtd"> 
<svg
  xmlns:svg="http://www.w3.org/2000/svg"
  xmlns="http://www.w3.org/2000/svg"
  xmlns:xlink="http://www.w3.org/1999/xlink"
  version="1.1"
  width="59.400440cm" height="41.998900cm" viewBox="0 0 594004400 419989000">
<title>SVG Picture created as ortho Plate-Edge_Cuts.svg date 2022/11/02 06:00:10 </title>
  <desc>Picture generated by PCBNEW </desc>
<g style="fill:#000000; fill-opacity:1.000000;stroke:#000000; stroke-opacity:1.000000;
stroke-linecap:round; stroke-linejoin:round;"
 transform="translate(0 0) scale(1 1)">
</g>
<g style="fill:#000000; fill-opacity:0.0; 
stroke:#000000; stroke-width:0.000000; stroke-opacity:1; 
stroke-linecap:round; stroke-linejoin:round;">
</g>
<g style="fill:#000000; fill-opacity:0.0; 
stroke:#000000; stroke-width:200000.000000; stroke-opacity:1; 
stroke-linecap:round; stroke-linejoin:round;">
<path d="M126232920 46368080
L126230380 34548701
" />
<path d="M131280380 46368080
L126232920 46368080
" />
<path d="M202430380 34548701
L188430380 34548701
" />
<path d="M150330380 29498700
L164330380 29498700
" />
<path d="M241465380 13023700
L16045380 13023700
" />
<path d="M183380380 34548701
L169380380 34548701
" />
<path d="M169380380 15498700
L169380380 29498700
" />
<path d="M183380380 67598699
L183380380 53598700
" />
<path d="M93180380 15498700
L93180380 29498700
" />
<path d="M207480380 48548700
L221480380 48548700
" />
<path d="M74130380 15498700
L74130380 29498700
" />
<path d="M50030380 72648700
L36030380 72648700
" />
<circle cx="166855380.000000" cy="52198700.000000" r="1000000.000000" /> 
<path d="M183380380 29498700
L183380380 15498700
" />
<path d="M107180380 53598700
L93180380 53598700
" />
<path d="M226530380 34548701
L226530380 48548700
" />
<path d="M150330380 86648700
L164330380 86648700
" />
<path d="M107180380 86648700
L107180380 72648700
" />
<path d="M93180380 86648700
L107180380 86648700
" />
<path d="M145280379 34548701
L131280380 34548701
" />
<path d="M240530380 48548700
L240530380 34548701
" />
<path d="M164330380 48548700
L164330380 34548701
" />
<path d="M36030380 34548701
L36030380 48548700
" />
<path d="M36030380 53598700
L36030380 67598699
" />
<path d="M150330380 48548700
L164330380 48548700
" />
<path d="M207480380 29498700
L221480380 29498700
" />
<path d="M74130380 29498700
L88130380 29498700
" />
<path d="M126230380 72648700
L112230381 72648700
" />
<path d="M164330380 72648700
L150330380 72648700
" />
<path d="M150330380 72648700
L150330380 86648700
" />
<path d="M188430380 72648700
L188430380 86648700
" />
<path d="M188430380 53598700
L188430380 67598699
" />
<path d="M55080380 53598700
L55080380 67598699
" />
<path d="M188430380 67598699
L202430380 67598699
" />
<path d="M221480380 48548700
L221480380 34548701
" />
<path d="M107180380 34548701
L93180380 34548701
" />
<path d="M145280379 72648700
L131280380 72648700
" />
<path d="M131280380 72648700
L131280380 86648700
" />
<path d="M150330380 53598700
L150330380 67598699
" />
<path d="M112230381 48548700
L126230380 48548700
" />
<path d="M36030380 48548700
L50030380 48548700
" />
<path d="M131280380 67598699
L145280379 67598699
" />
<path d="M164330380 53598700
L150330380 53598700
" />
<path d="M69080380 72648700
L55080380 72648700
" />
<path d="M150330380 15498700
L150330380 29498700
" />
<path d="M30980380 34548701
L16980380 34548701
" />
<path d="M50030380 86648700
L50030380 72648700
" />
<path d="M93180380 72648700
L93180380 86648700
" />
<path d="M93180380 48548700
L107180380 48548700
" />
<path d="M112230381 29498700
L126230380 29498700
" />
<path d="M169380380 53598700
L169380380 67598699
" />
<path d="M69080380 53598700
L55080380 53598700
" />
<path d="M202430380 72648700
L188430380 72648700
" />
<path d="M240530380 72648700
L226530380 72648700
" />
<path d="M145280379 48548700
L145280379 34548701
" />
<path d="M169380380 67598699
L183380380 67598699
" />
<path d="M226530380 72648700
L226530380 86648700
" />
<path d="M188430380 34548701
L188430380 48548700
" />
<path d="M126230380 15498700
L112230381 15498700
" />
<path d="M107180380 72648700
L93180380 72648700
" />
<path d="M240530380 34548701
L226530380 34548701
" />
<path d="M244465380 86123700
L244465380 16023700
" />
<path d="M74130380 48548700
L88130380 48548700
" />
<path d="M145280379 29498700
L145280379 15498700
" />
<path d="M169380380 48548700
L183380380 48548700
" />
<path d="M93180380 53598700
L93180380 67598699
" />
<path d="M88130380 67598699
L88130380 53598700
" />
<path d="M207480380 67598699
L221480380 67598699
" />
<path d="M74130380 67598699
L88130380 67598699
" />
<path d="M16045380.000000 13023700.000000 A3000000.000000 3000000.000000 0.0 0 0 13045380.000000 16023700.000000" />
<path d="M88130380 34548701
L74130380 34548701
" />
<path d="M112230381 53598700
L112230381 67598699
" />
<path d="M164330380 29498700
L164330380 15498700
" />
<path d="M126230380 53598700
L112230381 53598700
" />
<path d="M36030380 86648700
L50030380 86648700
" />
<path d="M69080380 34548701
L55080380 34548701
" />
<path d="M55080380 86648700
L69080380 86648700
" />
<path d="M36030380 29498700
L50030380 29498700
" />
<path d="M169380380 29498700
L183380380 29498700
" />
<path d="M55080380 67598699
L69080380 67598699
" />
<path d="M202430380 48548700
L202430380 34548701
" />
<path d="M112230381 86648700
L126230380 86648700
" />
<path d="M226530380 53598700
L226530380 67598699
" />
<path d="M126230380 29498700
L126230380 15498700
" />
<path d="M50030380 53598700
L36030380 53598700
" />
<path d="M221480380 15498700
L207480380 15498700
" />
<path d="M145280379 67598699
L145280379 53598700
" />
<path d="M183380380 15498700
L169380380 15498700
" />
<path d="M188430380 86648700
L202430380 86648700
" />
<path d="M30980380 48548700
L30980380 34548701
" />
<path d="M207480380 72648700
L207480380 86648700
" />
<path d="M112230381 15498700
L112230381 29498700
" />
<path d="M241465380.000000 89123700.000000 A3000000.000000 3000000.000000 0.0 0 0 244465380.000000 86123700.000000" />
<path d="M36030380 15498700
L36030380 29498700
" />
<circle cx="90655380.000000" cy="52198700.000000" r="1000000.000000" /> 
<path d="M169380380 86648700
L183380380 86648700
" />
<path d="M221480380 67598699
L221480380 53598700
" />
<path d="M240530380 67598699
L240530380 53598700
" />
<path d="M36030380 72648700
L36030380 86648700
" />
<path d="M202430380 86648700
L202430380 72648700
" />
<path d="M50030380 67598699
L50030380 53598700
" />
<path d="M69080380 29498700
L69080380 15498700
" />
<path d="M221480380 34548701
L207480380 34548701
" />
<path d="M107180380 29498700
L107180380 15498700
" />
<path d="M16980380 86648700
L30980380 86648700
" />
<path d="M93180380 67598699
L107180380 67598699
" />
<path d="M150330380 34548701
L150330380 48548700
" />
<path d="M131280380 15498700
L131280380 29498700
" />
<path d="M183380380 48548700
L183380380 34548701
" />
<path d="M16980380 29498700
L30980380 29498700
" />
<path d="M188430380 15498700
L188430380 29498700
" />
<path d="M88130380 48548700
L88130380 34548701
" />
<path d="M107180380 15498700
L93180380 15498700
" />
<path d="M50030380 29498700
L50030380 15498700
" />
<path d="M16980380 53598700
L16980380 67598699
" />
<path d="M55080380 48548700
L69080380 48548700
" />
<path d="M145280379 86648700
L145280379 72648700
" />
<path d="M244465380.000000 16023700.000000 A3000000.000000 3000000.000000 0.0 0 0 241465380.000000 13023700.000000" />
<path d="M164330380 67598699
L164330380 53598700
" />
<path d="M226530380 48548700
L240530380 48548700
" />
<path d="M74130380 34548701
L74130380 48548700
" />
<path d="M16980380 15498700
L16980380 29498700
" />
<path d="M16980380 34548701
L16980380 48548700
" />
<path d="M88130380 29498700
L88130380 15498700
" />
<path d="M169380380 34548701
L169380380 48548700
" />
<path d="M126230380 86648700
L126230380 72648700
" />
<path d="M88130380 15498700
L74130380 15498700
" />
<path d="M131280380 34548701
L131280380 46368080
" />
<path d="M16980380 72648700
L16980380 86648700
" />
<path d="M107180380 48548700
L107180380 34548701
" />
<path d="M74130380 86648700
L88130380 86648700
" />
<path d="M88130380 86648700
L88130380 72648700
" />
<path d="M183380380 53598700
L169380380 53598700
" />
<path d="M202430380 53598700
L188430380 53598700
" />
<path d="M112230381 72648700
L112230381 86648700
" />
<path d="M240530380 15498700
L226530380 15498700
" />
<path d="M164330380 34548701
L150330380 34548701
" />
<path d="M69080380 67598699
L69080380 53598700
" />
<path d="M202430380 67598699
L202430380 53598700
" />
<path d="M164330380 86648700
L164330380 72648700
" />
<path d="M69080380 15498700
L55080380 15498700
" />
<path d="M16045380 89123700
L241465380 89123700
" />
<path d="M30980380 29498700
L30980380 15498700
" />
<path d="M240530380 86648700
L240530380 72648700
" />
<path d="M131280380 53598700
L131280380 67598699
" />
<path d="M150330380 67598699
L164330380 67598699
" />
<path d="M50030380 34548701
L36030380 34548701
" />
<path d="M88130380 53598700
L74130380 53598700
" />
<path d="M69080380 48548700
L69080380 34548701
" />
<path d="M112230381 67598699
L126230380 67598699
" />
<path d="M145280379 15498700
L131280380 15498700
" />
<circle cx="52555380.000000" cy="68398700.000000" r="1000000.000000" /> 
<path d="M188430380 29498700
L202430380 29498700
" />
<path d="M126230380 48548700
L145280379 48548700
" />
<path d="M188430380 48548700
L202430380 48548700
" />
<circle cx="224005380.000000" cy="68398700.000000" r="1000000.000000" /> 
<path d="M55080380 29498700
L69080380 29498700
" />
<path d="M126230380 34548701
L112230381 34548701
" />
<path d="M202430380 15498700
L188430380 15498700
" />
<path d="M13045380.000000 86123700.000000 A3000000.000000 3000000.000000 0.0 0 0 16045380.000000 89123700.000000" />
<path d="M240530380 53598700
L226530380 53598700
" />
<path d="M202430380 29498700
L202430380 15498700
" />
<path d="M226530380 29498700
L240530380 29498700
" />
<path d="M112230381 34548701
L112230381 48548700
" />
<path d="M221480380 86648700
L221480380 72648700
" />
<path d="M226530380 67598699
L240530380 67598699
" />
<path d="M240530380 29498700
L240530380 15498700
" />
<path d="M131280380 29498700
L145280379 29498700
" />
<circle cx="224005380.000000" cy="32298700.000000" r="1000000.000000" /> 
<path d="M30980380 86648700
L30980380 72648700
" />
<path d="M221480380 29498700
L221480380 15498700
" />
<path d="M36030380 67598699
L50030380 67598699
" />
<circle cx="33505380.000000" cy="32298700.000000" r="1000000.000000" /> 
<path d="M69080380 86648700
L69080380 72648700
" />
<path d="M55080380 72648700
L55080380 86648700
" />
<path d="M16980380 48548700
L30980380 48548700
" />
<path d="M55080380 15498700
L55080380 29498700
" />
<path d="M145280379 53598700
L131280380 53598700
" />
<path d="M50030380 15498700
L36030380 15498700
" />
<path d="M74130380 72648700
L74130380 86648700
" />
<path d="M30980380 15498700
L16980380 15498700
" />
<path d="M207480380 53598700
L207480380 67598699
" />
<path d="M169380380 72648700
L169380380 86648700
" />
<path d="M88130380 72648700
L74130380 72648700
" />
<path d="M93180380 34548701
L93180380 48548700
" />
<path d="M221480380 72648700
L207480380 72648700
" />
<path d="M221480380 53598700
L207480380 53598700
" />
<path d="M183380380 72648700
L169380380 72648700
" />
<path d="M207480380 86648700
L221480380 86648700
" />
<path d="M183380380 86648700
L183380380 72648700
" />
<path d="M207480380 34548701
L207480380 48548700
" />
<path d="M55080380 34548701
L55080380 48548700
" />
<path d="M30980380 72648700
L16980380 72648700
" />
<path d="M50030380 48548700
L50030380 34548701
" />
<path d="M93180380 29498700
L107180380 29498700
" />
<path d="M226530380 86648700
L240530380 86648700
" />
<path d="M131280380 86648700
L145280379 86648700
" />
<path d="M16980380 67598699
L30980380 67598699
" />
<path d="M74130380 53598700
L74130380 67598699
" />
<path d="M126230380 67598699
L126230380 53598700
" />
<path d="M164330380 15498700
L150330380 15498700
" />
<path d="M207480380 15498700
L207480380 29498700
" />
<path d="M13045380 16023700
L13045380 86123700
" />
<path d="M107180380 67598699
L107180380 53598700
" />
<path d="M30980380 67598699
L30980380 53598700
" />
<path d="M226530380 15498700
L226530380 29498700
" />
<path d="M30980380 53598700
L16980380 53598700
" />
<g >
</g>
<g >
</g>
<g >
</g>
<g >
</g>
</g> 
</svg>
