G04 #@! TF.GenerationSoftware,KiCad,Pcbnew,(5.1.10)-1*
G04 #@! TF.CreationDate,2022-09-11T19:43:20-07:00*
G04 #@! TF.ProjectId,ortho Plate,6f727468-6f20-4506-9c61-74652e6b6963,rev?*
G04 #@! TF.SameCoordinates,Original*
G04 #@! TF.FileFunction,Profile,NP*
%FSLAX46Y46*%
G04 Gerber Fmt 4.6, Leading zero omitted, Abs format (unit mm)*
G04 Created by KiCad (PCBNEW (5.1.10)-1) date 2022-09-11 19:43:20*
%MOMM*%
%LPD*%
G01*
G04 APERTURE LIST*
G04 #@! TA.AperFunction,Profile*
%ADD10C,0.200000*%
G04 #@! TD*
G04 APERTURE END LIST*
D10*
X126232920Y-46368080D02*
X126230380Y-34548701D01*
X131280380Y-46368080D02*
X126232920Y-46368080D01*
X202430380Y-34548701D02*
X188430380Y-34548701D01*
X150330380Y-29498700D02*
X164330380Y-29498700D01*
X241465380Y-13023700D02*
X16045380Y-13023700D01*
X183380380Y-34548701D02*
X169380380Y-34548701D01*
X169380380Y-15498700D02*
X169380380Y-29498700D01*
X183380380Y-67598699D02*
X183380380Y-53598700D01*
X93180380Y-15498700D02*
X93180380Y-29498700D01*
X207480380Y-48548700D02*
X221480380Y-48548700D01*
X74130380Y-15498700D02*
X74130380Y-29498700D01*
X50030380Y-72648700D02*
X36030380Y-72648700D01*
X167855380Y-52198700D02*
G75*
G03*
X167855380Y-52198700I-1000000J0D01*
G01*
X183380380Y-29498700D02*
X183380380Y-15498700D01*
X107180380Y-53598700D02*
X93180380Y-53598700D01*
X226530380Y-34548701D02*
X226530380Y-48548700D01*
X150330380Y-86648700D02*
X164330380Y-86648700D01*
X107180380Y-86648700D02*
X107180380Y-72648700D01*
X93180380Y-86648700D02*
X107180380Y-86648700D01*
X145280379Y-34548701D02*
X131280380Y-34548701D01*
X240530380Y-48548700D02*
X240530380Y-34548701D01*
X164330380Y-48548700D02*
X164330380Y-34548701D01*
X36030380Y-34548701D02*
X36030380Y-48548700D01*
X36030380Y-53598700D02*
X36030380Y-67598699D01*
X150330380Y-48548700D02*
X164330380Y-48548700D01*
X207480380Y-29498700D02*
X221480380Y-29498700D01*
X74130380Y-29498700D02*
X88130380Y-29498700D01*
X126230380Y-72648700D02*
X112230381Y-72648700D01*
X164330380Y-72648700D02*
X150330380Y-72648700D01*
X150330380Y-72648700D02*
X150330380Y-86648700D01*
X188430380Y-72648700D02*
X188430380Y-86648700D01*
X188430380Y-53598700D02*
X188430380Y-67598699D01*
X55080380Y-53598700D02*
X55080380Y-67598699D01*
X188430380Y-67598699D02*
X202430380Y-67598699D01*
X221480380Y-48548700D02*
X221480380Y-34548701D01*
X107180380Y-34548701D02*
X93180380Y-34548701D01*
X145280379Y-72648700D02*
X131280380Y-72648700D01*
X131280380Y-72648700D02*
X131280380Y-86648700D01*
X150330380Y-53598700D02*
X150330380Y-67598699D01*
X112230381Y-48548700D02*
X126230380Y-48548700D01*
X36030380Y-48548700D02*
X50030380Y-48548700D01*
X131280380Y-67598699D02*
X145280379Y-67598699D01*
X164330380Y-53598700D02*
X150330380Y-53598700D01*
X69080380Y-72648700D02*
X55080380Y-72648700D01*
X150330380Y-15498700D02*
X150330380Y-29498700D01*
X30980380Y-34548701D02*
X16980380Y-34548701D01*
X50030380Y-86648700D02*
X50030380Y-72648700D01*
X93180380Y-72648700D02*
X93180380Y-86648700D01*
X93180380Y-48548700D02*
X107180380Y-48548700D01*
X112230381Y-29498700D02*
X126230380Y-29498700D01*
X169380380Y-53598700D02*
X169380380Y-67598699D01*
X69080380Y-53598700D02*
X55080380Y-53598700D01*
X202430380Y-72648700D02*
X188430380Y-72648700D01*
X240530380Y-72648700D02*
X226530380Y-72648700D01*
X145280379Y-48548700D02*
X145280379Y-34548701D01*
X169380380Y-67598699D02*
X183380380Y-67598699D01*
X226530380Y-72648700D02*
X226530380Y-86648700D01*
X188430380Y-34548701D02*
X188430380Y-48548700D01*
X126230380Y-15498700D02*
X112230381Y-15498700D01*
X107180380Y-72648700D02*
X93180380Y-72648700D01*
X240530380Y-34548701D02*
X226530380Y-34548701D01*
X244465380Y-86123700D02*
X244465380Y-16023700D01*
X74130380Y-48548700D02*
X88130380Y-48548700D01*
X145280379Y-29498700D02*
X145280379Y-15498700D01*
X169380380Y-48548700D02*
X183380380Y-48548700D01*
X93180380Y-53598700D02*
X93180380Y-67598699D01*
X88130380Y-67598699D02*
X88130380Y-53598700D01*
X207480380Y-67598699D02*
X221480380Y-67598699D01*
X74130380Y-67598699D02*
X88130380Y-67598699D01*
X13045380Y-16023700D02*
G75*
G02*
X16045380Y-13023700I3000000J0D01*
G01*
X88130380Y-34548701D02*
X74130380Y-34548701D01*
X112230381Y-53598700D02*
X112230381Y-67598699D01*
X164330380Y-29498700D02*
X164330380Y-15498700D01*
X126230380Y-53598700D02*
X112230381Y-53598700D01*
X36030380Y-86648700D02*
X50030380Y-86648700D01*
X69080380Y-34548701D02*
X55080380Y-34548701D01*
X55080380Y-86648700D02*
X69080380Y-86648700D01*
X36030380Y-29498700D02*
X50030380Y-29498700D01*
X169380380Y-29498700D02*
X183380380Y-29498700D01*
X55080380Y-67598699D02*
X69080380Y-67598699D01*
X202430380Y-48548700D02*
X202430380Y-34548701D01*
X112230381Y-86648700D02*
X126230380Y-86648700D01*
X226530380Y-53598700D02*
X226530380Y-67598699D01*
X126230380Y-29498700D02*
X126230380Y-15498700D01*
X50030380Y-53598700D02*
X36030380Y-53598700D01*
X221480380Y-15498700D02*
X207480380Y-15498700D01*
X145280379Y-67598699D02*
X145280379Y-53598700D01*
X183380380Y-15498700D02*
X169380380Y-15498700D01*
X188430380Y-86648700D02*
X202430380Y-86648700D01*
X30980380Y-48548700D02*
X30980380Y-34548701D01*
X207480380Y-72648700D02*
X207480380Y-86648700D01*
X112230381Y-15498700D02*
X112230381Y-29498700D01*
X244465380Y-86123700D02*
G75*
G02*
X241465380Y-89123700I-3000000J0D01*
G01*
X36030380Y-15498700D02*
X36030380Y-29498700D01*
X91655380Y-52198700D02*
G75*
G03*
X91655380Y-52198700I-1000000J0D01*
G01*
X169380380Y-86648700D02*
X183380380Y-86648700D01*
X221480380Y-67598699D02*
X221480380Y-53598700D01*
X240530380Y-67598699D02*
X240530380Y-53598700D01*
X36030380Y-72648700D02*
X36030380Y-86648700D01*
X202430380Y-86648700D02*
X202430380Y-72648700D01*
X50030380Y-67598699D02*
X50030380Y-53598700D01*
X69080380Y-29498700D02*
X69080380Y-15498700D01*
X221480380Y-34548701D02*
X207480380Y-34548701D01*
X107180380Y-29498700D02*
X107180380Y-15498700D01*
X16980380Y-86648700D02*
X30980380Y-86648700D01*
X93180380Y-67598699D02*
X107180380Y-67598699D01*
X150330380Y-34548701D02*
X150330380Y-48548700D01*
X131280380Y-15498700D02*
X131280380Y-29498700D01*
X183380380Y-48548700D02*
X183380380Y-34548701D01*
X16980380Y-29498700D02*
X30980380Y-29498700D01*
X188430380Y-15498700D02*
X188430380Y-29498700D01*
X88130380Y-48548700D02*
X88130380Y-34548701D01*
X107180380Y-15498700D02*
X93180380Y-15498700D01*
X50030380Y-29498700D02*
X50030380Y-15498700D01*
X16980380Y-53598700D02*
X16980380Y-67598699D01*
X55080380Y-48548700D02*
X69080380Y-48548700D01*
X145280379Y-86648700D02*
X145280379Y-72648700D01*
X241465380Y-13023700D02*
G75*
G02*
X244465380Y-16023700I0J-3000000D01*
G01*
X164330380Y-67598699D02*
X164330380Y-53598700D01*
X226530380Y-48548700D02*
X240530380Y-48548700D01*
X74130380Y-34548701D02*
X74130380Y-48548700D01*
X16980380Y-15498700D02*
X16980380Y-29498700D01*
X16980380Y-34548701D02*
X16980380Y-48548700D01*
X88130380Y-29498700D02*
X88130380Y-15498700D01*
X169380380Y-34548701D02*
X169380380Y-48548700D01*
X126230380Y-86648700D02*
X126230380Y-72648700D01*
X88130380Y-15498700D02*
X74130380Y-15498700D01*
X131280380Y-34548701D02*
X131280380Y-46368080D01*
X16980380Y-72648700D02*
X16980380Y-86648700D01*
X107180380Y-48548700D02*
X107180380Y-34548701D01*
X74130380Y-86648700D02*
X88130380Y-86648700D01*
X88130380Y-86648700D02*
X88130380Y-72648700D01*
X183380380Y-53598700D02*
X169380380Y-53598700D01*
X202430380Y-53598700D02*
X188430380Y-53598700D01*
X112230381Y-72648700D02*
X112230381Y-86648700D01*
X240530380Y-15498700D02*
X226530380Y-15498700D01*
X164330380Y-34548701D02*
X150330380Y-34548701D01*
X69080380Y-67598699D02*
X69080380Y-53598700D01*
X202430380Y-67598699D02*
X202430380Y-53598700D01*
X164330380Y-86648700D02*
X164330380Y-72648700D01*
X69080380Y-15498700D02*
X55080380Y-15498700D01*
X16045380Y-89123700D02*
X241465380Y-89123700D01*
X30980380Y-29498700D02*
X30980380Y-15498700D01*
X240530380Y-86648700D02*
X240530380Y-72648700D01*
X131280380Y-53598700D02*
X131280380Y-67598699D01*
X150330380Y-67598699D02*
X164330380Y-67598699D01*
X50030380Y-34548701D02*
X36030380Y-34548701D01*
X88130380Y-53598700D02*
X74130380Y-53598700D01*
X69080380Y-48548700D02*
X69080380Y-34548701D01*
X112230381Y-67598699D02*
X126230380Y-67598699D01*
X145280379Y-15498700D02*
X131280380Y-15498700D01*
X53555380Y-68398700D02*
G75*
G03*
X53555380Y-68398700I-1000000J0D01*
G01*
X188430380Y-29498700D02*
X202430380Y-29498700D01*
X126230380Y-48548700D02*
X145280379Y-48548700D01*
X188430380Y-48548700D02*
X202430380Y-48548700D01*
X225005380Y-68398700D02*
G75*
G03*
X225005380Y-68398700I-1000000J0D01*
G01*
X55080380Y-29498700D02*
X69080380Y-29498700D01*
X126230380Y-34548701D02*
X112230381Y-34548701D01*
X202430380Y-15498700D02*
X188430380Y-15498700D01*
X16045380Y-89123700D02*
G75*
G02*
X13045380Y-86123700I0J3000000D01*
G01*
X240530380Y-53598700D02*
X226530380Y-53598700D01*
X202430380Y-29498700D02*
X202430380Y-15498700D01*
X226530380Y-29498700D02*
X240530380Y-29498700D01*
X112230381Y-34548701D02*
X112230381Y-48548700D01*
X221480380Y-86648700D02*
X221480380Y-72648700D01*
X226530380Y-67598699D02*
X240530380Y-67598699D01*
X240530380Y-29498700D02*
X240530380Y-15498700D01*
X131280380Y-29498700D02*
X145280379Y-29498700D01*
X225005380Y-32298700D02*
G75*
G03*
X225005380Y-32298700I-1000000J0D01*
G01*
X30980380Y-86648700D02*
X30980380Y-72648700D01*
X221480380Y-29498700D02*
X221480380Y-15498700D01*
X36030380Y-67598699D02*
X50030380Y-67598699D01*
X34505380Y-32298700D02*
G75*
G03*
X34505380Y-32298700I-1000000J0D01*
G01*
X69080380Y-86648700D02*
X69080380Y-72648700D01*
X55080380Y-72648700D02*
X55080380Y-86648700D01*
X16980380Y-48548700D02*
X30980380Y-48548700D01*
X55080380Y-15498700D02*
X55080380Y-29498700D01*
X145280379Y-53598700D02*
X131280380Y-53598700D01*
X50030380Y-15498700D02*
X36030380Y-15498700D01*
X74130380Y-72648700D02*
X74130380Y-86648700D01*
X30980380Y-15498700D02*
X16980380Y-15498700D01*
X207480380Y-53598700D02*
X207480380Y-67598699D01*
X169380380Y-72648700D02*
X169380380Y-86648700D01*
X88130380Y-72648700D02*
X74130380Y-72648700D01*
X93180380Y-34548701D02*
X93180380Y-48548700D01*
X221480380Y-72648700D02*
X207480380Y-72648700D01*
X221480380Y-53598700D02*
X207480380Y-53598700D01*
X183380380Y-72648700D02*
X169380380Y-72648700D01*
X207480380Y-86648700D02*
X221480380Y-86648700D01*
X183380380Y-86648700D02*
X183380380Y-72648700D01*
X207480380Y-34548701D02*
X207480380Y-48548700D01*
X55080380Y-34548701D02*
X55080380Y-48548700D01*
X30980380Y-72648700D02*
X16980380Y-72648700D01*
X50030380Y-48548700D02*
X50030380Y-34548701D01*
X93180380Y-29498700D02*
X107180380Y-29498700D01*
X226530380Y-86648700D02*
X240530380Y-86648700D01*
X131280380Y-86648700D02*
X145280379Y-86648700D01*
X16980380Y-67598699D02*
X30980380Y-67598699D01*
X74130380Y-53598700D02*
X74130380Y-67598699D01*
X126230380Y-67598699D02*
X126230380Y-53598700D01*
X164330380Y-15498700D02*
X150330380Y-15498700D01*
X207480380Y-15498700D02*
X207480380Y-29498700D01*
X13045380Y-16023700D02*
X13045380Y-86123700D01*
X107180380Y-67598699D02*
X107180380Y-53598700D01*
X30980380Y-67598699D02*
X30980380Y-53598700D01*
X226530380Y-15498700D02*
X226530380Y-29498700D01*
X30980380Y-53598700D02*
X16980380Y-53598700D01*
M02*
