%TF.GenerationSoftware,KiCad,Pcbnew,(6.0.0)*%
%TF.CreationDate,2023-03-10T14:28:10-08:00*%
%TF.ProjectId,uni_corne_plate_left,756e695f-636f-4726-9e65-5f706c617465,rev?*%
%TF.SameCoordinates,Original*%
%TF.FileFunction,Copper,L2,Bot*%
%TF.FilePolarity,Positive*%
%FSLAX46Y46*%
G04 Gerber Fmt 4.6, Leading zero omitted, Abs format (unit mm)*
G04 Created by KiCad (PCBNEW (6.0.0)) date 2023-03-10 14:28:10*
%MOMM*%
%LPD*%
G01*
G04 APERTURE LIST*
G04 APERTURE END LIST*
%TA.AperFunction,NonConductor*%
G36*
X142554625Y-38275563D02*
G01*
X142567472Y-38278118D01*
X142579643Y-38275697D01*
X142588994Y-38275697D01*
X142603240Y-38274583D01*
X142972395Y-38289458D01*
X142982507Y-38290274D01*
X143311775Y-38330248D01*
X143379779Y-38338503D01*
X143389789Y-38340130D01*
X143507313Y-38364120D01*
X143781870Y-38420163D01*
X143791720Y-38422590D01*
X143983916Y-38478251D01*
X144176119Y-38533914D01*
X144185730Y-38537123D01*
X144559912Y-38679009D01*
X144569236Y-38682981D01*
X144930798Y-38854515D01*
X144939766Y-38859221D01*
X145151746Y-38981586D01*
X145286361Y-39059292D01*
X145294936Y-39064714D01*
X145624297Y-39292013D01*
X145632402Y-39298102D01*
X145942404Y-39551159D01*
X145949990Y-39557877D01*
X146238656Y-39835082D01*
X146245667Y-39842380D01*
X146511069Y-40141882D01*
X146517487Y-40149740D01*
X146739478Y-40445073D01*
X146746656Y-40457431D01*
X146751968Y-40465124D01*
X146756891Y-40476514D01*
X146761147Y-40480642D01*
X146765900Y-40487006D01*
X146984703Y-40779982D01*
X147020434Y-40827826D01*
X147308611Y-41159183D01*
X147620605Y-41468219D01*
X147622385Y-41469738D01*
X147622391Y-41469743D01*
X147718976Y-41552139D01*
X147954691Y-41753227D01*
X147956579Y-41754609D01*
X147956580Y-41754610D01*
X148307130Y-42011247D01*
X148307141Y-42011254D01*
X148309024Y-42012633D01*
X148681647Y-42245003D01*
X149070499Y-42449053D01*
X149473435Y-42623657D01*
X149664416Y-42690047D01*
X149886007Y-42767078D01*
X149886016Y-42767081D01*
X149888226Y-42767849D01*
X149890496Y-42768453D01*
X149890498Y-42768454D01*
X150310327Y-42880233D01*
X150310337Y-42880235D01*
X150312582Y-42880833D01*
X150314864Y-42881262D01*
X150314868Y-42881263D01*
X150376027Y-42892763D01*
X150744158Y-42961985D01*
X150746493Y-42962246D01*
X150746503Y-42962248D01*
X151178227Y-43010595D01*
X151178234Y-43010596D01*
X151180569Y-43010857D01*
X151560083Y-43024971D01*
X151604308Y-43026616D01*
X151613586Y-43026961D01*
X151619405Y-43028118D01*
X151632252Y-43025563D01*
X151656830Y-43023142D01*
X168160733Y-43023142D01*
X168228854Y-43043144D01*
X168275347Y-43096800D01*
X168286733Y-43149142D01*
X168286733Y-45321008D01*
X168284312Y-45345586D01*
X168281757Y-45358433D01*
X168283245Y-45365915D01*
X168283854Y-45375212D01*
X168287384Y-45429078D01*
X168298640Y-45600870D01*
X168346024Y-45839162D01*
X168347349Y-45843065D01*
X168347349Y-45843067D01*
X168392195Y-45975223D01*
X168424096Y-46069234D01*
X168531521Y-46287151D01*
X168533808Y-46290575D01*
X168533809Y-46290577D01*
X168550745Y-46315934D01*
X168666462Y-46489189D01*
X168669177Y-46492286D01*
X168821068Y-46665564D01*
X168826613Y-46671890D01*
X168829706Y-46674604D01*
X168829710Y-46674608D01*
X168889221Y-46726826D01*
X169009234Y-46832133D01*
X169012655Y-46834421D01*
X169012661Y-46834425D01*
X169207773Y-46964884D01*
X169207778Y-46964887D01*
X169211203Y-46967177D01*
X169214899Y-46969002D01*
X169214902Y-46969003D01*
X169425364Y-47072885D01*
X169425367Y-47072886D01*
X169429066Y-47074712D01*
X169432971Y-47076039D01*
X169432975Y-47076041D01*
X169450619Y-47082038D01*
X169659099Y-47152900D01*
X169897367Y-47200403D01*
X170026938Y-47208959D01*
X170122527Y-47215271D01*
X170122528Y-47215271D01*
X170132313Y-47215917D01*
X170139795Y-47217409D01*
X170152646Y-47214859D01*
X170177223Y-47212451D01*
X170277994Y-47212503D01*
X170378436Y-47212554D01*
X170403009Y-47214986D01*
X170415857Y-47217548D01*
X170426343Y-47215467D01*
X170441785Y-47216690D01*
X170472142Y-47221512D01*
X170509620Y-47233706D01*
X170542621Y-47250536D01*
X170574495Y-47273709D01*
X170600679Y-47299906D01*
X170623835Y-47331790D01*
X170640649Y-47364803D01*
X170652821Y-47402278D01*
X170653634Y-47407407D01*
X170657630Y-47432646D01*
X170658844Y-47448085D01*
X170656758Y-47458571D01*
X170659179Y-47470743D01*
X170659313Y-47471415D01*
X170661734Y-47495996D01*
X170661734Y-52288850D01*
X170659313Y-52313428D01*
X170656758Y-52326275D01*
X170659180Y-52338449D01*
X170659180Y-52340161D01*
X170659996Y-52345663D01*
X170672644Y-52474084D01*
X170715759Y-52616213D01*
X170785773Y-52747201D01*
X170879996Y-52862012D01*
X170994807Y-52956235D01*
X171000265Y-52959152D01*
X171000266Y-52959153D01*
X171120337Y-53023332D01*
X171120340Y-53023333D01*
X171125795Y-53026249D01*
X171267924Y-53069364D01*
X171396345Y-53082012D01*
X171401847Y-53082828D01*
X171403559Y-53082828D01*
X171415733Y-53085250D01*
X171428580Y-53082695D01*
X171453158Y-53080274D01*
X179628310Y-53080274D01*
X179652888Y-53082695D01*
X179665735Y-53085250D01*
X179677909Y-53082828D01*
X179679621Y-53082828D01*
X179685123Y-53082012D01*
X179813544Y-53069364D01*
X179955673Y-53026249D01*
X179961128Y-53023333D01*
X179961131Y-53023332D01*
X180081202Y-52959153D01*
X180081203Y-52959152D01*
X180086661Y-52956235D01*
X180201472Y-52862012D01*
X180295695Y-52747201D01*
X180365709Y-52616213D01*
X180408824Y-52474084D01*
X180421472Y-52345663D01*
X180422288Y-52340161D01*
X180422288Y-52338449D01*
X180424710Y-52326275D01*
X180422155Y-52313428D01*
X180419734Y-52288850D01*
X180419734Y-47501163D01*
X180422155Y-47476582D01*
X180422289Y-47475908D01*
X180424710Y-47463737D01*
X180422626Y-47453258D01*
X180423842Y-47437813D01*
X180428660Y-47407407D01*
X180440847Y-47369911D01*
X180457681Y-47336884D01*
X180480864Y-47304989D01*
X180507079Y-47278787D01*
X180538991Y-47255617D01*
X180572025Y-47238801D01*
X180609528Y-47226632D01*
X180639938Y-47221829D01*
X180655376Y-47220622D01*
X180665856Y-47222712D01*
X180678028Y-47220297D01*
X180678031Y-47220297D01*
X180678699Y-47220164D01*
X180703285Y-47217754D01*
X180803072Y-47217805D01*
X180902080Y-47217856D01*
X180926652Y-47220288D01*
X180939500Y-47222850D01*
X180946985Y-47221365D01*
X181182083Y-47206071D01*
X181345171Y-47173708D01*
X181416474Y-47159559D01*
X181416479Y-47159558D01*
X181420529Y-47158754D01*
X181650757Y-47080711D01*
X181737931Y-47037764D01*
X181865126Y-46975101D01*
X181865134Y-46975097D01*
X181868825Y-46973278D01*
X182070999Y-46838294D01*
X182081897Y-46828743D01*
X182250719Y-46680787D01*
X182250721Y-46680785D01*
X182253820Y-46678069D01*
X182414158Y-46495348D01*
X182416449Y-46491921D01*
X182416453Y-46491916D01*
X182528292Y-46324630D01*
X182549267Y-46293256D01*
X182552280Y-46287151D01*
X182618677Y-46152588D01*
X182656835Y-46075255D01*
X182735020Y-45845076D01*
X182782484Y-45606659D01*
X182782865Y-45600870D01*
X182794146Y-45429078D01*
X182797923Y-45371570D01*
X182799413Y-45364086D01*
X182796860Y-45351242D01*
X182794441Y-45326660D01*
X182794446Y-45290547D01*
X182794685Y-43193277D01*
X182814695Y-43125159D01*
X182868356Y-43078672D01*
X182932461Y-43067844D01*
X182950560Y-43069543D01*
X182961091Y-43070981D01*
X183104627Y-43096800D01*
X183373885Y-43145234D01*
X183384243Y-43147553D01*
X183586767Y-43201948D01*
X183789282Y-43256340D01*
X183799425Y-43259528D01*
X184193863Y-43402081D01*
X184203700Y-43406113D01*
X184584718Y-43581418D01*
X184594171Y-43586260D01*
X184959042Y-43793059D01*
X184968059Y-43798685D01*
X185048087Y-43853440D01*
X185314201Y-44035516D01*
X185322715Y-44041885D01*
X185647648Y-44307049D01*
X185655595Y-44314113D01*
X185957018Y-44605734D01*
X185964341Y-44613443D01*
X186240102Y-44929436D01*
X186246749Y-44937736D01*
X186494890Y-45275862D01*
X186500813Y-45284691D01*
X186719553Y-45642518D01*
X186724712Y-45651817D01*
X186912511Y-46026830D01*
X186916866Y-46036529D01*
X187072373Y-46426024D01*
X187075896Y-46436056D01*
X187164393Y-46726826D01*
X187198013Y-46837291D01*
X187200676Y-46847581D01*
X187288087Y-47255617D01*
X187288530Y-47257686D01*
X187290315Y-47268163D01*
X187296800Y-47319101D01*
X187343277Y-47684200D01*
X187344174Y-47694794D01*
X187360587Y-48083422D01*
X187359541Y-48096963D01*
X187359541Y-48106972D01*
X187357120Y-48119142D01*
X187359541Y-48131312D01*
X187359675Y-48131986D01*
X187362096Y-48156567D01*
X187362096Y-86821768D01*
X187342094Y-86889889D01*
X187288438Y-86936382D01*
X187236096Y-86947768D01*
X186753521Y-86947768D01*
X186728943Y-86945347D01*
X186716096Y-86942792D01*
X186703926Y-86945212D01*
X186691515Y-86945212D01*
X186691515Y-86944357D01*
X186680800Y-86944990D01*
X186515421Y-86931975D01*
X186495893Y-86928882D01*
X186440390Y-86915557D01*
X186309796Y-86884204D01*
X186291001Y-86878097D01*
X186114182Y-86804856D01*
X186096577Y-86795886D01*
X185933386Y-86695883D01*
X185917400Y-86684268D01*
X185771868Y-86559972D01*
X185757890Y-86545994D01*
X185746420Y-86532564D01*
X185633596Y-86400464D01*
X185621980Y-86384476D01*
X185578048Y-86312785D01*
X185521978Y-86221287D01*
X185513008Y-86203682D01*
X185439767Y-86026863D01*
X185433659Y-86008064D01*
X185430321Y-85994158D01*
X185388982Y-85821971D01*
X185385889Y-85802443D01*
X185381309Y-85744242D01*
X185372874Y-85637064D01*
X185373507Y-85626349D01*
X185372652Y-85626349D01*
X185372652Y-85613938D01*
X185375072Y-85601768D01*
X185372517Y-85588921D01*
X185370096Y-85564343D01*
X185370096Y-83806566D01*
X185372517Y-83781985D01*
X185372651Y-83781313D01*
X185375072Y-83769141D01*
X185372650Y-83756967D01*
X185372650Y-83755255D01*
X185371834Y-83749753D01*
X185359793Y-83627497D01*
X185359186Y-83621332D01*
X185316071Y-83479203D01*
X185294840Y-83439481D01*
X185248975Y-83353674D01*
X185248974Y-83353673D01*
X185246057Y-83348215D01*
X185151834Y-83233404D01*
X185037023Y-83139181D01*
X184916198Y-83074599D01*
X184911493Y-83072084D01*
X184911490Y-83072083D01*
X184906035Y-83069167D01*
X184763906Y-83026052D01*
X184635485Y-83013404D01*
X184629983Y-83012588D01*
X184628271Y-83012588D01*
X184616097Y-83010166D01*
X184603250Y-83012721D01*
X184578672Y-83015142D01*
X168003520Y-83015142D01*
X167978942Y-83012721D01*
X167966095Y-83010166D01*
X167953921Y-83012588D01*
X167952209Y-83012588D01*
X167946707Y-83013404D01*
X167818286Y-83026052D01*
X167676157Y-83069167D01*
X167670702Y-83072083D01*
X167670699Y-83072084D01*
X167665994Y-83074599D01*
X167545169Y-83139181D01*
X167430358Y-83233404D01*
X167336135Y-83348215D01*
X167333218Y-83353673D01*
X167333217Y-83353674D01*
X167287353Y-83439481D01*
X167266121Y-83479203D01*
X167223006Y-83621332D01*
X167222399Y-83627497D01*
X167210358Y-83749753D01*
X167209542Y-83755255D01*
X167209542Y-83756967D01*
X167207120Y-83769141D01*
X167209541Y-83781313D01*
X167209675Y-83781985D01*
X167212096Y-83806566D01*
X167212096Y-84931718D01*
X167209675Y-84956296D01*
X167207120Y-84969143D01*
X167209542Y-84981317D01*
X167209542Y-84983029D01*
X167210358Y-84988531D01*
X167223006Y-85116952D01*
X167266121Y-85259081D01*
X167336135Y-85390069D01*
X167430358Y-85504880D01*
X167545169Y-85599103D01*
X167550627Y-85602020D01*
X167550628Y-85602021D01*
X167670699Y-85666200D01*
X167670702Y-85666201D01*
X167676157Y-85669117D01*
X167818286Y-85712232D01*
X167946707Y-85724880D01*
X167952209Y-85725696D01*
X167953921Y-85725696D01*
X167966095Y-85728118D01*
X167978942Y-85725563D01*
X168003520Y-85723142D01*
X168578669Y-85723142D01*
X168603250Y-85725563D01*
X168616095Y-85728118D01*
X168626578Y-85726033D01*
X168642019Y-85727248D01*
X168672402Y-85732060D01*
X168709895Y-85744242D01*
X168742912Y-85761065D01*
X168774804Y-85784237D01*
X168801001Y-85810434D01*
X168824173Y-85842326D01*
X168840996Y-85875343D01*
X168853178Y-85912836D01*
X168857990Y-85943219D01*
X168859205Y-85958660D01*
X168857120Y-85969143D01*
X168859541Y-85981314D01*
X168859675Y-85981988D01*
X168862096Y-86006569D01*
X168862096Y-88031718D01*
X168859675Y-88056296D01*
X168857120Y-88069143D01*
X168859542Y-88081317D01*
X168859542Y-88083029D01*
X168860358Y-88088531D01*
X168873006Y-88216952D01*
X168916121Y-88359081D01*
X168986135Y-88490069D01*
X169080358Y-88604880D01*
X169195169Y-88699103D01*
X169200627Y-88702020D01*
X169200628Y-88702021D01*
X169320699Y-88766200D01*
X169320702Y-88766201D01*
X169326157Y-88769117D01*
X169468286Y-88812232D01*
X169596707Y-88824880D01*
X169602209Y-88825696D01*
X169603921Y-88825696D01*
X169616095Y-88828118D01*
X169628942Y-88825563D01*
X169653520Y-88823142D01*
X180874470Y-88823142D01*
X180899051Y-88825563D01*
X180911896Y-88828118D01*
X180922379Y-88826033D01*
X180937820Y-88827248D01*
X180968203Y-88832060D01*
X181005696Y-88844242D01*
X181038713Y-88861065D01*
X181070605Y-88884237D01*
X181096802Y-88910434D01*
X181119974Y-88942326D01*
X181136797Y-88975343D01*
X181148979Y-89012836D01*
X181153791Y-89043219D01*
X181155006Y-89058660D01*
X181152921Y-89069143D01*
X181155342Y-89081314D01*
X181155476Y-89081988D01*
X181157897Y-89106569D01*
X181157897Y-89483621D01*
X181155476Y-89508202D01*
X181152921Y-89521047D01*
X181155006Y-89531530D01*
X181153791Y-89546971D01*
X181148979Y-89577354D01*
X181136797Y-89614847D01*
X181119974Y-89647864D01*
X181096802Y-89679756D01*
X181070605Y-89705953D01*
X181038713Y-89729125D01*
X181005696Y-89745948D01*
X180968203Y-89758130D01*
X180937820Y-89762942D01*
X180922379Y-89764157D01*
X180911896Y-89762072D01*
X180899725Y-89764493D01*
X180899051Y-89764627D01*
X180874470Y-89767048D01*
X176949321Y-89767048D01*
X176924743Y-89764627D01*
X176911896Y-89762072D01*
X176899722Y-89764494D01*
X176898010Y-89764494D01*
X176892508Y-89765310D01*
X176764087Y-89777958D01*
X176621958Y-89821073D01*
X176616503Y-89823989D01*
X176616500Y-89823990D01*
X176496429Y-89888169D01*
X176490970Y-89891087D01*
X176376159Y-89985310D01*
X176281936Y-90100121D01*
X176211922Y-90231109D01*
X176168807Y-90373238D01*
X176168200Y-90379403D01*
X176156159Y-90501659D01*
X176155343Y-90507161D01*
X176155343Y-90508873D01*
X176152921Y-90521047D01*
X176155342Y-90533219D01*
X176155476Y-90533891D01*
X176157897Y-90558472D01*
X176157897Y-99063624D01*
X176155476Y-99088202D01*
X176152921Y-99101049D01*
X176155343Y-99113223D01*
X176155343Y-99114935D01*
X176156159Y-99120437D01*
X176168807Y-99248858D01*
X176211922Y-99390987D01*
X176281936Y-99521975D01*
X176376159Y-99636786D01*
X176490970Y-99731009D01*
X176496428Y-99733926D01*
X176496429Y-99733927D01*
X176616500Y-99798106D01*
X176616503Y-99798107D01*
X176621958Y-99801023D01*
X176764087Y-99844138D01*
X176892508Y-99856786D01*
X176898010Y-99857602D01*
X176899722Y-99857602D01*
X176911896Y-99860024D01*
X176924743Y-99857469D01*
X176949321Y-99855048D01*
X184333489Y-99855048D01*
X184358067Y-99857469D01*
X184370914Y-99860024D01*
X184380871Y-99858043D01*
X184396476Y-99859346D01*
X184430473Y-99865062D01*
X184469951Y-99878723D01*
X184504368Y-99897513D01*
X184537211Y-99923335D01*
X184563592Y-99952347D01*
X184586187Y-99987495D01*
X184599757Y-100019170D01*
X184604707Y-100034034D01*
X184605132Y-100044176D01*
X184607889Y-100050116D01*
X184679820Y-100278727D01*
X184681597Y-100282520D01*
X184681600Y-100282528D01*
X184782435Y-100497778D01*
X184782438Y-100497784D01*
X184784218Y-100501583D01*
X184801988Y-100529224D01*
X184898907Y-100679981D01*
X184917300Y-100708592D01*
X184920015Y-100711786D01*
X184920017Y-100711788D01*
X184964039Y-100763566D01*
X185076707Y-100896085D01*
X185259612Y-101060735D01*
X185263079Y-101063105D01*
X185263080Y-101063106D01*
X185450992Y-101191571D01*
X185462771Y-101199624D01*
X185528251Y-101232590D01*
X185678835Y-101308403D01*
X185678841Y-101308405D01*
X185682582Y-101310289D01*
X185766820Y-101339439D01*
X185896163Y-101384197D01*
X185915149Y-101390767D01*
X185919261Y-101391600D01*
X185919268Y-101391602D01*
X186070797Y-101422301D01*
X186156346Y-101439633D01*
X186160534Y-101439912D01*
X186160538Y-101439913D01*
X186384787Y-101454876D01*
X186395474Y-101455589D01*
X186401897Y-101456867D01*
X186414744Y-101454312D01*
X186439322Y-101451891D01*
X187236096Y-101451891D01*
X187304217Y-101471893D01*
X187350710Y-101525549D01*
X187362096Y-101577891D01*
X187362096Y-106040293D01*
X187359675Y-106064871D01*
X187357120Y-106077718D01*
X187359541Y-106089889D01*
X187359541Y-106098302D01*
X187360756Y-106113559D01*
X187352305Y-106339651D01*
X187348699Y-106436122D01*
X187348050Y-106453471D01*
X187347347Y-106462858D01*
X187305815Y-106831821D01*
X187304416Y-106841118D01*
X187248107Y-107139011D01*
X187235448Y-107205983D01*
X187233355Y-107215160D01*
X187137347Y-107573832D01*
X187134578Y-107582818D01*
X187074048Y-107755985D01*
X187012055Y-107933336D01*
X187008619Y-107942099D01*
X186860272Y-108282484D01*
X186856191Y-108290967D01*
X186745851Y-108499980D01*
X186697394Y-108591769D01*
X186688725Y-108604370D01*
X186684519Y-108611663D01*
X186676340Y-108620999D01*
X186672356Y-108632753D01*
X186672356Y-108632754D01*
X186672136Y-108633403D01*
X186661955Y-108655904D01*
X180817077Y-118791372D01*
X174638345Y-129505770D01*
X174623970Y-129525852D01*
X174623519Y-129526366D01*
X174623518Y-129526368D01*
X174615340Y-129535703D01*
X174611356Y-129547458D01*
X174606500Y-129555880D01*
X174600517Y-129568408D01*
X174397126Y-129889650D01*
X174391196Y-129898210D01*
X174143570Y-130225913D01*
X174136954Y-130233956D01*
X173863089Y-130540115D01*
X173855831Y-130547583D01*
X173741732Y-130655671D01*
X173557617Y-130830085D01*
X173549789Y-130836908D01*
X173229267Y-131093817D01*
X173220891Y-131099979D01*
X173045632Y-131218088D01*
X172880252Y-131329539D01*
X172871383Y-131334997D01*
X172512961Y-131535638D01*
X172503672Y-131540345D01*
X172129890Y-131710708D01*
X172120247Y-131714630D01*
X171973368Y-131767410D01*
X171733697Y-131853535D01*
X171723760Y-131856649D01*
X171327050Y-131963163D01*
X171316889Y-131965446D01*
X170912725Y-132038838D01*
X170902410Y-132040273D01*
X170493585Y-132080036D01*
X170483188Y-132080615D01*
X170266919Y-132083705D01*
X170072455Y-132086483D01*
X170062063Y-132086201D01*
X169857157Y-132072167D01*
X169652260Y-132058132D01*
X169641909Y-132056992D01*
X169352337Y-132012913D01*
X169235823Y-131995177D01*
X169225607Y-131993188D01*
X169099500Y-131963163D01*
X168826005Y-131898047D01*
X168815983Y-131895218D01*
X168425619Y-131767410D01*
X168415880Y-131763770D01*
X168037372Y-131604149D01*
X168027954Y-131599709D01*
X167862132Y-131513010D01*
X167691026Y-131423548D01*
X167679566Y-131415697D01*
X167671152Y-131410845D01*
X167661816Y-131402666D01*
X167650060Y-131398682D01*
X167649409Y-131398461D01*
X167626906Y-131388279D01*
X156394951Y-124911085D01*
X156374867Y-124896709D01*
X156374348Y-124896254D01*
X156374346Y-124896253D01*
X156365013Y-124888076D01*
X156354476Y-124884505D01*
X156350523Y-124882395D01*
X156350522Y-124882394D01*
X156349537Y-124881868D01*
X156346101Y-124879961D01*
X156345369Y-124879644D01*
X156183804Y-124793403D01*
X156022488Y-124707295D01*
X156020604Y-124706443D01*
X156020594Y-124706438D01*
X155671547Y-124548573D01*
X155671541Y-124548570D01*
X155669656Y-124547718D01*
X155307126Y-124411601D01*
X154936457Y-124299530D01*
X154559242Y-124211985D01*
X154557198Y-124211650D01*
X154557173Y-124211645D01*
X154198069Y-124152779D01*
X154197304Y-124152588D01*
X154193378Y-124152010D01*
X154192445Y-124151857D01*
X154192439Y-124151857D01*
X154187880Y-124151110D01*
X154177336Y-124147545D01*
X154164954Y-124148372D01*
X154164950Y-124148371D01*
X154164267Y-124148417D01*
X154139581Y-124147639D01*
X119952840Y-119688746D01*
X119928781Y-119683167D01*
X119928125Y-119682945D01*
X119928122Y-119682945D01*
X119916369Y-119678971D01*
X119903987Y-119679798D01*
X119894611Y-119678575D01*
X119880456Y-119677841D01*
X119659901Y-119639922D01*
X119513392Y-119614733D01*
X119503411Y-119612597D01*
X119112966Y-119512319D01*
X119103193Y-119509382D01*
X118722148Y-119377787D01*
X118712632Y-119374062D01*
X118343505Y-119212019D01*
X118334331Y-119207539D01*
X117979561Y-119016118D01*
X117970784Y-119010913D01*
X117632693Y-118791368D01*
X117624361Y-118785464D01*
X117305162Y-118539232D01*
X117297330Y-118532666D01*
X116999167Y-118261401D01*
X116991892Y-118254223D01*
X116716667Y-117959657D01*
X116709999Y-117951912D01*
X116478631Y-117660075D01*
X116471195Y-117647998D01*
X116465628Y-117640359D01*
X116460416Y-117629097D01*
X116451289Y-117620684D01*
X116450782Y-117620216D01*
X116434353Y-117601781D01*
X115586087Y-116437792D01*
X139496598Y-116437792D01*
X139529079Y-116533477D01*
X139595704Y-116609449D01*
X139686331Y-116654141D01*
X139699407Y-116654998D01*
X139723767Y-116659019D01*
X153222729Y-120276056D01*
X153245844Y-120284757D01*
X153257589Y-120290549D01*
X153269970Y-120291361D01*
X153269972Y-120291361D01*
X153311905Y-120294109D01*
X153358420Y-120297158D01*
X153377889Y-120290549D01*
X153442352Y-120268667D01*
X153442353Y-120268666D01*
X153454105Y-120264677D01*
X153530077Y-120198052D01*
X153532779Y-120192573D01*
X153563487Y-120130302D01*
X153563488Y-120130302D01*
X153563489Y-120130296D01*
X153569277Y-120118559D01*
X153574768Y-120107425D01*
X153575624Y-120094362D01*
X153579647Y-120069990D01*
X153626085Y-119896682D01*
X154208229Y-117724090D01*
X160754103Y-117724090D01*
X160760712Y-117824921D01*
X160805404Y-117915548D01*
X160881376Y-117982173D01*
X160893123Y-117986161D01*
X160893124Y-117986161D01*
X160893779Y-117986383D01*
X160916277Y-117996577D01*
X164864449Y-120276055D01*
X173010229Y-124979023D01*
X173019109Y-124984150D01*
X173039188Y-124998539D01*
X173049033Y-125007173D01*
X173073186Y-125015372D01*
X173125249Y-125033045D01*
X173144718Y-125039654D01*
X173206400Y-125035611D01*
X173233163Y-125033857D01*
X173233164Y-125033857D01*
X173245549Y-125033045D01*
X173336176Y-124988353D01*
X173402801Y-124912381D01*
X173407012Y-124899977D01*
X173417205Y-124877480D01*
X177237000Y-118261401D01*
X180404779Y-112774646D01*
X180419167Y-112754569D01*
X180419620Y-112754053D01*
X180419621Y-112754052D01*
X180427801Y-112744724D01*
X180460282Y-112649039D01*
X180453673Y-112548208D01*
X180408981Y-112457581D01*
X180352186Y-112407774D01*
X180333009Y-112390956D01*
X180320605Y-112386745D01*
X180298108Y-112376552D01*
X172884542Y-108096328D01*
X168195274Y-105388978D01*
X168175197Y-105374590D01*
X168174681Y-105374137D01*
X168174680Y-105374136D01*
X168165352Y-105365956D01*
X168069667Y-105333475D01*
X168008808Y-105337464D01*
X167981222Y-105339272D01*
X167981221Y-105339272D01*
X167968836Y-105340084D01*
X167878209Y-105384776D01*
X167811584Y-105460748D01*
X167807596Y-105472495D01*
X167807596Y-105472496D01*
X167807374Y-105473151D01*
X167797180Y-105495649D01*
X164841248Y-110615474D01*
X161386012Y-116600119D01*
X160809607Y-117598481D01*
X160795218Y-117618560D01*
X160786584Y-117628405D01*
X160778385Y-117652558D01*
X160754103Y-117724090D01*
X154208229Y-117724090D01*
X156510763Y-109130918D01*
X158621645Y-109130918D01*
X158622939Y-109153356D01*
X158635408Y-109369615D01*
X158636545Y-109374661D01*
X158636546Y-109374667D01*
X158657976Y-109469757D01*
X158687972Y-109602859D01*
X158777924Y-109824387D01*
X158902851Y-110028248D01*
X159059395Y-110208967D01*
X159063370Y-110212267D01*
X159063374Y-110212271D01*
X159139864Y-110275774D01*
X159243354Y-110361693D01*
X159449786Y-110482322D01*
X159673149Y-110567616D01*
X159678217Y-110568647D01*
X159678220Y-110568648D01*
X159793784Y-110592160D01*
X159907443Y-110615284D01*
X159912616Y-110615474D01*
X159912619Y-110615474D01*
X160141212Y-110623856D01*
X160141216Y-110623856D01*
X160146376Y-110624045D01*
X160151496Y-110623389D01*
X160151498Y-110623389D01*
X160223935Y-110614110D01*
X160383532Y-110593665D01*
X160388480Y-110592180D01*
X160388487Y-110592179D01*
X160607591Y-110526444D01*
X160607590Y-110526444D01*
X160612541Y-110524959D01*
X160713188Y-110475652D01*
X160822603Y-110422051D01*
X160822608Y-110422048D01*
X160827254Y-110419772D01*
X160831464Y-110416769D01*
X160831469Y-110416766D01*
X161017692Y-110283934D01*
X161017697Y-110283930D01*
X161021904Y-110280929D01*
X161191263Y-110112160D01*
X161330785Y-109917996D01*
X161383752Y-109810824D01*
X161434426Y-109708293D01*
X161434427Y-109708291D01*
X161436720Y-109703651D01*
X161506225Y-109474883D01*
X161537433Y-109237835D01*
X161537515Y-109234483D01*
X161539093Y-109169928D01*
X161539093Y-109169924D01*
X161539175Y-109166564D01*
X161519584Y-108928274D01*
X161461337Y-108696384D01*
X161405720Y-108568472D01*
X161368059Y-108481857D01*
X161368057Y-108481854D01*
X161365999Y-108477120D01*
X161304653Y-108382294D01*
X161238940Y-108280717D01*
X161238936Y-108280711D01*
X161236129Y-108276373D01*
X161214557Y-108252665D01*
X161185368Y-108220587D01*
X161075216Y-108099531D01*
X161071165Y-108096332D01*
X161071161Y-108096328D01*
X160891639Y-107954551D01*
X160887581Y-107951346D01*
X160678263Y-107835796D01*
X160556075Y-107792527D01*
X160457758Y-107757711D01*
X160457754Y-107757710D01*
X160452883Y-107755985D01*
X160447790Y-107755078D01*
X160447787Y-107755077D01*
X160222583Y-107714962D01*
X160222577Y-107714961D01*
X160217494Y-107714056D01*
X160126214Y-107712941D01*
X159983587Y-107711198D01*
X159983585Y-107711198D01*
X159978418Y-107711135D01*
X159742076Y-107747301D01*
X159630329Y-107783825D01*
X159519731Y-107819973D01*
X159519725Y-107819976D01*
X159514813Y-107821581D01*
X159510227Y-107823968D01*
X159510223Y-107823970D01*
X159482698Y-107838299D01*
X159302735Y-107931983D01*
X159111535Y-108075539D01*
X158946349Y-108248396D01*
X158811614Y-108445911D01*
X158809441Y-108450593D01*
X158809439Y-108450596D01*
X158714138Y-108655906D01*
X158710947Y-108662780D01*
X158647052Y-108893178D01*
X158621645Y-109130918D01*
X156510763Y-109130918D01*
X157196684Y-106571027D01*
X157205386Y-106547909D01*
X157205689Y-106547295D01*
X157211177Y-106536167D01*
X157217786Y-106435336D01*
X157185305Y-106339651D01*
X157118680Y-106263679D01*
X157050930Y-106230269D01*
X157050925Y-106230267D01*
X157039188Y-106224479D01*
X157039187Y-106224479D01*
X157028053Y-106218988D01*
X157015668Y-106218176D01*
X157015667Y-106218176D01*
X157015110Y-106218140D01*
X157014990Y-106218132D01*
X156990618Y-106214109D01*
X144273484Y-102806564D01*
X180692141Y-102806564D01*
X180692411Y-102810683D01*
X180709687Y-103074257D01*
X180712323Y-103114482D01*
X180713125Y-103118515D01*
X180713126Y-103118521D01*
X180771718Y-103413081D01*
X180772524Y-103417131D01*
X180773851Y-103421040D01*
X180773852Y-103421044D01*
X180805066Y-103512998D01*
X180871713Y-103709334D01*
X180873536Y-103713030D01*
X180873539Y-103713038D01*
X180961605Y-103891616D01*
X181008194Y-103986089D01*
X181010488Y-103989522D01*
X181010489Y-103989524D01*
X181084936Y-104100941D01*
X181179631Y-104242663D01*
X181383091Y-104474665D01*
X181615093Y-104678125D01*
X181618519Y-104680414D01*
X181618524Y-104680418D01*
X181812104Y-104809764D01*
X181871666Y-104849562D01*
X181875365Y-104851386D01*
X181875370Y-104851389D01*
X182017569Y-104921513D01*
X182148422Y-104986043D01*
X182152327Y-104987368D01*
X182152328Y-104987369D01*
X182436712Y-105083904D01*
X182436716Y-105083905D01*
X182440625Y-105085232D01*
X182444669Y-105086036D01*
X182444675Y-105086038D01*
X182739235Y-105144630D01*
X182739241Y-105144631D01*
X182743274Y-105145433D01*
X182747379Y-105145702D01*
X182747386Y-105145703D01*
X183047073Y-105165345D01*
X183051192Y-105165615D01*
X183055311Y-105165345D01*
X183354998Y-105145703D01*
X183355005Y-105145702D01*
X183359110Y-105145433D01*
X183363143Y-105144631D01*
X183363149Y-105144630D01*
X183657709Y-105086038D01*
X183657715Y-105086036D01*
X183661759Y-105085232D01*
X183665668Y-105083905D01*
X183665672Y-105083904D01*
X183950056Y-104987369D01*
X183950057Y-104987368D01*
X183953962Y-104986043D01*
X184084815Y-104921513D01*
X184227014Y-104851389D01*
X184227019Y-104851386D01*
X184230718Y-104849562D01*
X184290280Y-104809764D01*
X184483860Y-104680418D01*
X184483865Y-104680414D01*
X184487291Y-104678125D01*
X184719293Y-104474665D01*
X184922753Y-104242663D01*
X185017449Y-104100941D01*
X185091895Y-103989524D01*
X185091896Y-103989522D01*
X185094190Y-103986089D01*
X185140779Y-103891616D01*
X185228845Y-103713038D01*
X185228848Y-103713030D01*
X185230671Y-103709334D01*
X185297318Y-103512998D01*
X185328532Y-103421044D01*
X185328533Y-103421040D01*
X185329860Y-103417131D01*
X185330666Y-103413081D01*
X185389258Y-103118521D01*
X185389259Y-103118515D01*
X185390061Y-103114482D01*
X185392698Y-103074257D01*
X185409973Y-102810683D01*
X185410243Y-102806564D01*
X185400819Y-102662779D01*
X185390331Y-102502758D01*
X185390330Y-102502751D01*
X185390061Y-102498646D01*
X185387087Y-102483692D01*
X185330666Y-102200047D01*
X185330664Y-102200041D01*
X185329860Y-102195997D01*
X185296381Y-102097369D01*
X185232000Y-101907709D01*
X185232000Y-101907708D01*
X185230671Y-101903794D01*
X185228848Y-101900098D01*
X185228845Y-101900090D01*
X185096016Y-101630742D01*
X185094190Y-101627039D01*
X185091715Y-101623335D01*
X184925046Y-101373896D01*
X184925042Y-101373891D01*
X184922753Y-101370465D01*
X184719293Y-101138463D01*
X184487291Y-100935003D01*
X184483865Y-100932714D01*
X184483860Y-100932710D01*
X184283957Y-100799139D01*
X184230718Y-100763566D01*
X184227019Y-100761742D01*
X184227014Y-100761739D01*
X184061224Y-100679981D01*
X183953962Y-100627085D01*
X183822807Y-100582564D01*
X183665672Y-100529224D01*
X183665668Y-100529223D01*
X183661759Y-100527896D01*
X183657715Y-100527092D01*
X183657709Y-100527090D01*
X183363149Y-100468498D01*
X183363143Y-100468497D01*
X183359110Y-100467695D01*
X183355005Y-100467426D01*
X183354998Y-100467425D01*
X183055311Y-100447783D01*
X183051192Y-100447513D01*
X183047073Y-100447783D01*
X182747386Y-100467425D01*
X182747379Y-100467426D01*
X182743274Y-100467695D01*
X182739241Y-100468497D01*
X182739235Y-100468498D01*
X182444675Y-100527090D01*
X182444669Y-100527092D01*
X182440625Y-100527896D01*
X182436716Y-100529223D01*
X182436712Y-100529224D01*
X182279577Y-100582564D01*
X182148422Y-100627085D01*
X182144726Y-100628908D01*
X182144718Y-100628911D01*
X181976662Y-100711788D01*
X181871667Y-100763566D01*
X181868234Y-100765860D01*
X181868232Y-100765861D01*
X181618524Y-100932710D01*
X181618519Y-100932714D01*
X181615093Y-100935003D01*
X181383091Y-101138463D01*
X181179631Y-101370465D01*
X181177342Y-101373891D01*
X181177338Y-101373896D01*
X181010669Y-101623335D01*
X181008194Y-101627039D01*
X181006368Y-101630742D01*
X180873539Y-101900090D01*
X180873536Y-101900098D01*
X180871713Y-101903794D01*
X180870384Y-101907708D01*
X180870384Y-101907709D01*
X180806004Y-102097369D01*
X180772524Y-102195997D01*
X180771720Y-102200041D01*
X180771718Y-102200047D01*
X180715298Y-102483692D01*
X180712323Y-102498646D01*
X180712054Y-102502751D01*
X180712053Y-102502758D01*
X180700759Y-102675077D01*
X180695941Y-102748580D01*
X180692141Y-102806564D01*
X144273484Y-102806564D01*
X143491653Y-102597073D01*
X143468538Y-102588372D01*
X143456795Y-102582581D01*
X143444409Y-102581769D01*
X143444408Y-102581769D01*
X143431347Y-102580913D01*
X143431343Y-102580913D01*
X143431342Y-102580912D01*
X143355964Y-102575971D01*
X143344213Y-102579960D01*
X143344212Y-102579960D01*
X143272032Y-102604462D01*
X143272031Y-102604463D01*
X143260279Y-102608452D01*
X143184307Y-102675077D01*
X143139615Y-102765704D01*
X143138803Y-102778084D01*
X143138803Y-102778085D01*
X143138758Y-102778776D01*
X143134735Y-102803143D01*
X141785569Y-107838299D01*
X139517700Y-116302098D01*
X139509002Y-116325209D01*
X139503207Y-116336961D01*
X139501539Y-116362414D01*
X139496598Y-116437792D01*
X115586087Y-116437792D01*
X115056842Y-115711564D01*
X120073216Y-115711564D01*
X120078192Y-115736581D01*
X120092929Y-115810670D01*
X120149068Y-115894688D01*
X120233086Y-115950827D01*
X120332192Y-115970540D01*
X120345039Y-115967985D01*
X120369617Y-115965564D01*
X134344767Y-115965564D01*
X134369345Y-115967985D01*
X134382192Y-115970540D01*
X134481298Y-115950827D01*
X134565316Y-115894688D01*
X134621455Y-115810670D01*
X134636192Y-115736581D01*
X134641168Y-115711564D01*
X134638613Y-115698717D01*
X134636192Y-115674139D01*
X134636192Y-101698989D01*
X134638613Y-101674408D01*
X134638747Y-101673734D01*
X134641168Y-101661564D01*
X134621455Y-101562458D01*
X134565316Y-101478440D01*
X134481298Y-101422301D01*
X134407209Y-101407564D01*
X134394364Y-101405009D01*
X134382192Y-101402588D01*
X134369345Y-101405143D01*
X134344767Y-101407564D01*
X120369617Y-101407564D01*
X120345039Y-101405143D01*
X120332192Y-101402588D01*
X120320020Y-101405009D01*
X120307175Y-101407564D01*
X120233086Y-101422301D01*
X120222769Y-101429195D01*
X120222768Y-101429195D01*
X120184334Y-101454876D01*
X120149068Y-101478440D01*
X120092929Y-101562458D01*
X120073216Y-101661564D01*
X120075637Y-101673734D01*
X120075771Y-101674408D01*
X120078192Y-101698989D01*
X120078192Y-115674139D01*
X120075771Y-115698717D01*
X120073216Y-115711564D01*
X115056842Y-115711564D01*
X111744707Y-111166662D01*
X108833700Y-107172186D01*
X108821180Y-107150894D01*
X108820893Y-107150274D01*
X108815681Y-107139011D01*
X108813705Y-107137190D01*
X108528056Y-106775880D01*
X108213188Y-106436122D01*
X107872671Y-106122075D01*
X107870732Y-106120549D01*
X107870723Y-106120542D01*
X107510546Y-105837201D01*
X107510539Y-105837196D01*
X107508598Y-105835669D01*
X107204152Y-105632643D01*
X107125254Y-105580028D01*
X107125246Y-105580023D01*
X107123208Y-105578664D01*
X106758136Y-105374590D01*
X106721023Y-105353844D01*
X106721021Y-105353843D01*
X106718869Y-105352640D01*
X106298066Y-105158986D01*
X105863385Y-104998892D01*
X105861016Y-104998225D01*
X105861010Y-104998223D01*
X105419886Y-104874014D01*
X105419883Y-104874013D01*
X105417499Y-104873342D01*
X104963148Y-104783109D01*
X104960706Y-104782820D01*
X104960697Y-104782819D01*
X104730177Y-104755577D01*
X104503124Y-104728745D01*
X104042892Y-104710690D01*
X104040255Y-104710166D01*
X104027408Y-104712721D01*
X104002830Y-104715142D01*
X55553521Y-104715142D01*
X55528943Y-104712721D01*
X55516096Y-104710166D01*
X55503923Y-104712587D01*
X55494220Y-104712587D01*
X55480355Y-104713663D01*
X55100478Y-104697952D01*
X55090100Y-104697092D01*
X54833654Y-104665126D01*
X54682491Y-104646283D01*
X54672226Y-104644571D01*
X54467094Y-104601559D01*
X54270207Y-104560276D01*
X54260112Y-104557720D01*
X53866417Y-104440512D01*
X53856575Y-104437134D01*
X53473885Y-104287807D01*
X53464385Y-104283640D01*
X53095352Y-104103231D01*
X53086197Y-104098277D01*
X52897922Y-103986089D01*
X52733316Y-103888005D01*
X52724611Y-103882318D01*
X52390305Y-103643629D01*
X52382098Y-103637242D01*
X52068628Y-103371745D01*
X52060981Y-103364704D01*
X51770534Y-103074257D01*
X51763493Y-103066610D01*
X51497996Y-102753140D01*
X51491606Y-102744929D01*
X51435891Y-102666895D01*
X51252920Y-102410627D01*
X51247232Y-102401921D01*
X51203704Y-102328871D01*
X51036960Y-102049038D01*
X51032005Y-102039882D01*
X51004352Y-101983317D01*
X50851598Y-101670853D01*
X50847431Y-101661353D01*
X50790877Y-101516418D01*
X112055645Y-101516418D01*
X112055942Y-101521569D01*
X112055942Y-101521573D01*
X112056655Y-101533924D01*
X112056939Y-101538856D01*
X112069408Y-101755115D01*
X112070545Y-101760161D01*
X112070546Y-101760167D01*
X112083451Y-101817428D01*
X112121972Y-101988359D01*
X112211924Y-102209887D01*
X112336851Y-102413748D01*
X112493395Y-102594467D01*
X112497370Y-102597767D01*
X112497374Y-102597771D01*
X112573864Y-102661274D01*
X112677354Y-102747193D01*
X112883786Y-102867822D01*
X113107149Y-102953116D01*
X113112217Y-102954147D01*
X113112220Y-102954148D01*
X113227784Y-102977660D01*
X113341443Y-103000784D01*
X113346616Y-103000974D01*
X113346619Y-103000974D01*
X113575212Y-103009356D01*
X113575216Y-103009356D01*
X113580376Y-103009545D01*
X113585496Y-103008889D01*
X113585498Y-103008889D01*
X113657935Y-102999610D01*
X113817532Y-102979165D01*
X113822480Y-102977680D01*
X113822487Y-102977679D01*
X114041591Y-102911944D01*
X114041590Y-102911944D01*
X114046541Y-102910459D01*
X114147188Y-102861152D01*
X114256603Y-102807551D01*
X114256608Y-102807548D01*
X114261254Y-102805272D01*
X114265464Y-102802269D01*
X114265469Y-102802266D01*
X114451692Y-102669434D01*
X114451697Y-102669430D01*
X114455904Y-102666429D01*
X114625263Y-102497660D01*
X114764785Y-102303496D01*
X114833101Y-102165268D01*
X114868426Y-102093793D01*
X114868427Y-102093791D01*
X114870720Y-102089151D01*
X114940225Y-101860383D01*
X114945880Y-101817428D01*
X114970996Y-101626657D01*
X114970997Y-101626651D01*
X114971433Y-101623335D01*
X114971816Y-101607683D01*
X114973093Y-101555428D01*
X114973093Y-101555424D01*
X114973175Y-101552064D01*
X114953584Y-101313774D01*
X114895337Y-101081884D01*
X114826469Y-100923498D01*
X114802059Y-100867357D01*
X114802057Y-100867354D01*
X114799999Y-100862620D01*
X114791017Y-100848736D01*
X114672940Y-100666217D01*
X114672936Y-100666211D01*
X114670129Y-100661873D01*
X114648557Y-100638165D01*
X114619368Y-100606087D01*
X114509216Y-100485031D01*
X114505165Y-100481832D01*
X114505161Y-100481828D01*
X114325639Y-100340051D01*
X114321581Y-100336846D01*
X114112263Y-100221296D01*
X113990075Y-100178027D01*
X113891758Y-100143211D01*
X113891754Y-100143210D01*
X113886883Y-100141485D01*
X113881790Y-100140578D01*
X113881787Y-100140577D01*
X113656583Y-100100462D01*
X113656577Y-100100461D01*
X113651494Y-100099556D01*
X113560214Y-100098441D01*
X113417587Y-100096698D01*
X113417585Y-100096698D01*
X113412418Y-100096635D01*
X113176076Y-100132801D01*
X113064329Y-100169325D01*
X112953731Y-100205473D01*
X112953725Y-100205476D01*
X112948813Y-100207081D01*
X112944227Y-100209468D01*
X112944223Y-100209470D01*
X112916698Y-100223799D01*
X112736735Y-100317483D01*
X112545535Y-100461039D01*
X112380349Y-100633896D01*
X112245614Y-100831411D01*
X112243441Y-100836093D01*
X112243439Y-100836096D01*
X112154103Y-101028556D01*
X112144947Y-101048280D01*
X112081052Y-101278678D01*
X112080503Y-101283815D01*
X112059704Y-101478440D01*
X112055645Y-101516418D01*
X50790877Y-101516418D01*
X50698104Y-101278663D01*
X50694726Y-101268821D01*
X50577518Y-100875126D01*
X50574962Y-100865031D01*
X50568993Y-100836564D01*
X53573216Y-100836564D01*
X53578192Y-100861581D01*
X53592929Y-100935670D01*
X53599823Y-100945987D01*
X53599823Y-100945988D01*
X53624748Y-100983291D01*
X53649068Y-101019688D01*
X53733086Y-101075827D01*
X53832192Y-101095540D01*
X53845039Y-101092985D01*
X53869617Y-101090564D01*
X67844767Y-101090564D01*
X67869345Y-101092985D01*
X67882192Y-101095540D01*
X67981298Y-101075827D01*
X68065316Y-101019688D01*
X68121455Y-100935670D01*
X68136192Y-100861581D01*
X68141168Y-100836564D01*
X72573216Y-100836564D01*
X72578192Y-100861581D01*
X72592929Y-100935670D01*
X72599823Y-100945987D01*
X72599823Y-100945988D01*
X72624748Y-100983291D01*
X72649068Y-101019688D01*
X72733086Y-101075827D01*
X72832192Y-101095540D01*
X72845039Y-101092985D01*
X72869617Y-101090564D01*
X86844767Y-101090564D01*
X86869345Y-101092985D01*
X86882192Y-101095540D01*
X86981298Y-101075827D01*
X87065316Y-101019688D01*
X87121455Y-100935670D01*
X87136192Y-100861581D01*
X87141168Y-100836564D01*
X87138613Y-100823717D01*
X87136192Y-100799139D01*
X87136192Y-98461564D01*
X148573216Y-98461564D01*
X148578192Y-98486581D01*
X148592929Y-98560670D01*
X148649068Y-98644688D01*
X148733086Y-98700827D01*
X148832192Y-98720540D01*
X148845039Y-98717985D01*
X148869617Y-98715564D01*
X162844767Y-98715564D01*
X162869345Y-98717985D01*
X162882192Y-98720540D01*
X162981298Y-98700827D01*
X163065316Y-98644688D01*
X163121455Y-98560670D01*
X163136192Y-98486581D01*
X163141168Y-98461564D01*
X163138613Y-98448717D01*
X163136192Y-98424139D01*
X163136192Y-94285564D01*
X166260141Y-94285564D01*
X166280323Y-94593482D01*
X166281125Y-94597515D01*
X166281126Y-94597521D01*
X166339718Y-94892081D01*
X166340524Y-94896131D01*
X166341851Y-94900040D01*
X166341852Y-94900044D01*
X166373066Y-94991998D01*
X166439713Y-95188334D01*
X166441536Y-95192030D01*
X166441539Y-95192038D01*
X166529605Y-95370616D01*
X166576194Y-95465089D01*
X166578488Y-95468522D01*
X166578489Y-95468524D01*
X166646440Y-95570219D01*
X166747631Y-95721663D01*
X166951091Y-95953665D01*
X167183093Y-96157125D01*
X167186519Y-96159414D01*
X167186524Y-96159418D01*
X167336116Y-96259372D01*
X167439666Y-96328562D01*
X167443365Y-96330386D01*
X167443370Y-96330389D01*
X167585569Y-96400513D01*
X167716422Y-96465043D01*
X167720327Y-96466368D01*
X167720328Y-96466369D01*
X168004712Y-96562904D01*
X168004716Y-96562905D01*
X168008625Y-96564232D01*
X168012669Y-96565036D01*
X168012675Y-96565038D01*
X168307235Y-96623630D01*
X168307241Y-96623631D01*
X168311274Y-96624433D01*
X168315379Y-96624702D01*
X168315386Y-96624703D01*
X168615073Y-96644345D01*
X168619192Y-96644615D01*
X168623311Y-96644345D01*
X168922998Y-96624703D01*
X168923005Y-96624702D01*
X168927110Y-96624433D01*
X168931143Y-96623631D01*
X168931149Y-96623630D01*
X169225709Y-96565038D01*
X169225715Y-96565036D01*
X169229759Y-96564232D01*
X169233668Y-96562905D01*
X169233672Y-96562904D01*
X169518056Y-96466369D01*
X169518057Y-96466368D01*
X169521962Y-96465043D01*
X169652815Y-96400513D01*
X169795014Y-96330389D01*
X169795019Y-96330386D01*
X169798718Y-96328562D01*
X169902268Y-96259372D01*
X170051860Y-96159418D01*
X170051865Y-96159414D01*
X170055291Y-96157125D01*
X170287293Y-95953665D01*
X170490753Y-95721663D01*
X170591945Y-95570219D01*
X170659895Y-95468524D01*
X170659896Y-95468522D01*
X170662190Y-95465089D01*
X170708779Y-95370616D01*
X170796845Y-95192038D01*
X170796848Y-95192030D01*
X170798671Y-95188334D01*
X170865318Y-94991998D01*
X170896532Y-94900044D01*
X170896533Y-94900040D01*
X170897860Y-94896131D01*
X170898666Y-94892081D01*
X170957258Y-94597521D01*
X170957259Y-94597515D01*
X170958061Y-94593482D01*
X170978243Y-94285564D01*
X170958061Y-93977646D01*
X170956140Y-93967985D01*
X170898666Y-93679047D01*
X170898664Y-93679041D01*
X170897860Y-93674997D01*
X170847252Y-93525908D01*
X170800000Y-93386709D01*
X170800000Y-93386708D01*
X170798671Y-93382794D01*
X170796848Y-93379098D01*
X170796845Y-93379090D01*
X170664016Y-93109742D01*
X170662190Y-93106039D01*
X170620191Y-93043183D01*
X170493046Y-92852896D01*
X170493042Y-92852891D01*
X170490753Y-92849465D01*
X170287293Y-92617463D01*
X170055291Y-92414003D01*
X170051865Y-92411714D01*
X170051860Y-92411710D01*
X169858279Y-92282364D01*
X169798718Y-92242566D01*
X169795019Y-92240742D01*
X169795014Y-92240739D01*
X169652815Y-92170615D01*
X169521962Y-92106085D01*
X169518047Y-92104756D01*
X169233672Y-92008224D01*
X169233668Y-92008223D01*
X169229759Y-92006896D01*
X169225715Y-92006092D01*
X169225709Y-92006090D01*
X168931149Y-91947498D01*
X168931143Y-91947497D01*
X168927110Y-91946695D01*
X168923005Y-91946426D01*
X168922998Y-91946425D01*
X168623311Y-91926783D01*
X168619192Y-91926513D01*
X168615073Y-91926783D01*
X168315386Y-91946425D01*
X168315379Y-91946426D01*
X168311274Y-91946695D01*
X168307241Y-91947497D01*
X168307235Y-91947498D01*
X168012675Y-92006090D01*
X168012669Y-92006092D01*
X168008625Y-92006896D01*
X168004716Y-92008223D01*
X168004712Y-92008224D01*
X167720337Y-92104756D01*
X167716422Y-92106085D01*
X167712726Y-92107908D01*
X167712718Y-92107911D01*
X167488605Y-92218433D01*
X167439667Y-92242566D01*
X167436234Y-92244860D01*
X167436232Y-92244861D01*
X167186524Y-92411710D01*
X167186519Y-92411714D01*
X167183093Y-92414003D01*
X166951091Y-92617463D01*
X166747631Y-92849465D01*
X166745342Y-92852891D01*
X166745338Y-92852896D01*
X166618193Y-93043183D01*
X166576194Y-93106039D01*
X166574368Y-93109742D01*
X166441539Y-93379090D01*
X166441536Y-93379098D01*
X166439713Y-93382794D01*
X166438384Y-93386708D01*
X166438384Y-93386709D01*
X166391133Y-93525908D01*
X166340524Y-93674997D01*
X166339720Y-93679041D01*
X166339718Y-93679047D01*
X166282245Y-93967985D01*
X166280323Y-93977646D01*
X166263941Y-94227580D01*
X166260141Y-94285564D01*
X163136192Y-94285564D01*
X163136192Y-84448989D01*
X163138613Y-84424408D01*
X163138747Y-84423734D01*
X163141168Y-84411564D01*
X163121455Y-84312458D01*
X163065316Y-84228440D01*
X162981298Y-84172301D01*
X162907209Y-84157564D01*
X162894364Y-84155009D01*
X162882192Y-84152588D01*
X162869345Y-84155143D01*
X162844767Y-84157564D01*
X148869617Y-84157564D01*
X148845039Y-84155143D01*
X148832192Y-84152588D01*
X148820020Y-84155009D01*
X148807175Y-84157564D01*
X148733086Y-84172301D01*
X148649068Y-84228440D01*
X148592929Y-84312458D01*
X148573216Y-84411564D01*
X148575637Y-84423734D01*
X148575771Y-84424408D01*
X148578192Y-84448989D01*
X148578192Y-98424139D01*
X148575771Y-98448717D01*
X148573216Y-98461564D01*
X87136192Y-98461564D01*
X87136192Y-96086564D01*
X91573216Y-96086564D01*
X91578192Y-96111581D01*
X91592929Y-96185670D01*
X91649068Y-96269688D01*
X91733086Y-96325827D01*
X91832192Y-96345540D01*
X91845039Y-96342985D01*
X91869617Y-96340564D01*
X105844767Y-96340564D01*
X105869345Y-96342985D01*
X105882192Y-96345540D01*
X105981298Y-96325827D01*
X106065316Y-96269688D01*
X106121455Y-96185670D01*
X106136192Y-96111581D01*
X106141168Y-96086564D01*
X129573216Y-96086564D01*
X129578192Y-96111581D01*
X129592929Y-96185670D01*
X129649068Y-96269688D01*
X129733086Y-96325827D01*
X129832192Y-96345540D01*
X129845039Y-96342985D01*
X129869617Y-96340564D01*
X143844767Y-96340564D01*
X143869345Y-96342985D01*
X143882192Y-96345540D01*
X143981298Y-96325827D01*
X144065316Y-96269688D01*
X144121455Y-96185670D01*
X144136192Y-96111581D01*
X144141168Y-96086564D01*
X144138613Y-96073717D01*
X144136192Y-96049139D01*
X144136192Y-82073989D01*
X144138613Y-82049408D01*
X144138747Y-82048734D01*
X144141168Y-82036564D01*
X144121455Y-81937458D01*
X144065316Y-81853440D01*
X143981298Y-81797301D01*
X143907209Y-81782564D01*
X143894364Y-81780009D01*
X143882192Y-81777588D01*
X143869345Y-81780143D01*
X143844767Y-81782564D01*
X129869617Y-81782564D01*
X129845039Y-81780143D01*
X129832192Y-81777588D01*
X129820020Y-81780009D01*
X129807175Y-81782564D01*
X129733086Y-81797301D01*
X129649068Y-81853440D01*
X129592929Y-81937458D01*
X129573216Y-82036564D01*
X129575637Y-82048734D01*
X129575771Y-82049408D01*
X129578192Y-82073989D01*
X129578192Y-96049139D01*
X129575771Y-96073717D01*
X129573216Y-96086564D01*
X106141168Y-96086564D01*
X106138613Y-96073717D01*
X106136192Y-96049139D01*
X106136192Y-93711564D01*
X110573216Y-93711564D01*
X110578192Y-93736581D01*
X110592929Y-93810670D01*
X110649068Y-93894688D01*
X110733086Y-93950827D01*
X110832192Y-93970540D01*
X110845039Y-93967985D01*
X110869617Y-93965564D01*
X124844767Y-93965564D01*
X124869345Y-93967985D01*
X124882192Y-93970540D01*
X124981298Y-93950827D01*
X125065316Y-93894688D01*
X125121455Y-93810670D01*
X125136192Y-93736581D01*
X125141168Y-93711564D01*
X125138613Y-93698717D01*
X125136192Y-93674139D01*
X125136192Y-79698989D01*
X125138613Y-79674408D01*
X125138747Y-79673734D01*
X125141168Y-79661564D01*
X125121455Y-79562458D01*
X125065316Y-79478440D01*
X125040059Y-79461564D01*
X148573216Y-79461564D01*
X148578192Y-79486581D01*
X148592929Y-79560670D01*
X148649068Y-79644688D01*
X148733086Y-79700827D01*
X148832192Y-79720540D01*
X148845039Y-79717985D01*
X148869617Y-79715564D01*
X162844767Y-79715564D01*
X162869345Y-79717985D01*
X162882192Y-79720540D01*
X162981298Y-79700827D01*
X163065316Y-79644688D01*
X163121455Y-79560670D01*
X163136192Y-79486581D01*
X163141168Y-79461564D01*
X163138613Y-79448717D01*
X163136192Y-79424139D01*
X163136192Y-65448989D01*
X163138613Y-65424408D01*
X163138747Y-65423734D01*
X163141168Y-65411564D01*
X163121455Y-65312458D01*
X163065316Y-65228440D01*
X162981298Y-65172301D01*
X162907209Y-65157564D01*
X162894364Y-65155009D01*
X162882192Y-65152588D01*
X162869345Y-65155143D01*
X162844767Y-65157564D01*
X148869617Y-65157564D01*
X148845039Y-65155143D01*
X148832192Y-65152588D01*
X148820020Y-65155009D01*
X148807175Y-65157564D01*
X148733086Y-65172301D01*
X148649068Y-65228440D01*
X148592929Y-65312458D01*
X148573216Y-65411564D01*
X148575637Y-65423734D01*
X148575771Y-65424408D01*
X148578192Y-65448989D01*
X148578192Y-79424139D01*
X148575771Y-79448717D01*
X148573216Y-79461564D01*
X125040059Y-79461564D01*
X124981298Y-79422301D01*
X124907209Y-79407564D01*
X124894364Y-79405009D01*
X124882192Y-79402588D01*
X124869345Y-79405143D01*
X124844767Y-79407564D01*
X110869617Y-79407564D01*
X110845039Y-79405143D01*
X110832192Y-79402588D01*
X110820020Y-79405009D01*
X110807175Y-79407564D01*
X110733086Y-79422301D01*
X110649068Y-79478440D01*
X110592929Y-79562458D01*
X110573216Y-79661564D01*
X110575637Y-79673734D01*
X110575771Y-79674408D01*
X110578192Y-79698989D01*
X110578192Y-93674139D01*
X110575771Y-93698717D01*
X110573216Y-93711564D01*
X106136192Y-93711564D01*
X106136192Y-82073989D01*
X106138613Y-82049408D01*
X106138747Y-82048734D01*
X106141168Y-82036564D01*
X106121455Y-81937458D01*
X106065316Y-81853440D01*
X105981298Y-81797301D01*
X105907209Y-81782564D01*
X105894364Y-81780009D01*
X105882192Y-81777588D01*
X105869345Y-81780143D01*
X105844767Y-81782564D01*
X91869617Y-81782564D01*
X91845039Y-81780143D01*
X91832192Y-81777588D01*
X91820020Y-81780009D01*
X91807175Y-81782564D01*
X91733086Y-81797301D01*
X91649068Y-81853440D01*
X91592929Y-81937458D01*
X91573216Y-82036564D01*
X91575637Y-82048734D01*
X91575771Y-82049408D01*
X91578192Y-82073989D01*
X91578192Y-96049139D01*
X91575771Y-96073717D01*
X91573216Y-96086564D01*
X87136192Y-96086564D01*
X87136192Y-86823989D01*
X87138613Y-86799408D01*
X87138747Y-86798734D01*
X87141168Y-86786564D01*
X87121455Y-86687458D01*
X87065316Y-86603440D01*
X86981298Y-86547301D01*
X86907209Y-86532564D01*
X86898124Y-86530757D01*
X86894364Y-86530009D01*
X86882192Y-86527588D01*
X86869345Y-86530143D01*
X86844767Y-86532564D01*
X72869617Y-86532564D01*
X72845039Y-86530143D01*
X72832192Y-86527588D01*
X72820020Y-86530009D01*
X72816260Y-86530757D01*
X72807175Y-86532564D01*
X72733086Y-86547301D01*
X72722769Y-86554195D01*
X72722768Y-86554195D01*
X72659384Y-86596547D01*
X72649068Y-86603440D01*
X72592929Y-86687458D01*
X72573216Y-86786564D01*
X72575637Y-86798734D01*
X72575771Y-86799408D01*
X72578192Y-86823989D01*
X72578192Y-100799139D01*
X72575771Y-100823717D01*
X72573216Y-100836564D01*
X68141168Y-100836564D01*
X68138613Y-100823717D01*
X68136192Y-100799139D01*
X68136192Y-86823989D01*
X68138613Y-86799408D01*
X68138747Y-86798734D01*
X68141168Y-86786564D01*
X68121455Y-86687458D01*
X68065316Y-86603440D01*
X67981298Y-86547301D01*
X67907209Y-86532564D01*
X67898124Y-86530757D01*
X67894364Y-86530009D01*
X67882192Y-86527588D01*
X67869345Y-86530143D01*
X67844767Y-86532564D01*
X53869617Y-86532564D01*
X53845039Y-86530143D01*
X53832192Y-86527588D01*
X53820020Y-86530009D01*
X53816260Y-86530757D01*
X53807175Y-86532564D01*
X53733086Y-86547301D01*
X53722769Y-86554195D01*
X53722768Y-86554195D01*
X53659384Y-86596547D01*
X53649068Y-86603440D01*
X53592929Y-86687458D01*
X53573216Y-86786564D01*
X53575637Y-86798734D01*
X53575771Y-86799408D01*
X53578192Y-86823989D01*
X53578192Y-100799139D01*
X53575771Y-100823717D01*
X53573216Y-100836564D01*
X50568993Y-100836564D01*
X50490668Y-100463015D01*
X50488954Y-100452743D01*
X50488669Y-100450452D01*
X50450371Y-100143211D01*
X50438146Y-100045138D01*
X50437286Y-100034760D01*
X50421575Y-99654883D01*
X50422651Y-99641018D01*
X50422651Y-99631315D01*
X50425072Y-99619142D01*
X50422517Y-99606295D01*
X50420096Y-99581717D01*
X50420096Y-84275918D01*
X68898645Y-84275918D01*
X68899939Y-84298356D01*
X68912408Y-84514615D01*
X68913545Y-84519661D01*
X68913546Y-84519667D01*
X68934976Y-84614757D01*
X68964972Y-84747859D01*
X69005899Y-84848651D01*
X69049610Y-84956299D01*
X69054924Y-84969387D01*
X69057629Y-84973802D01*
X69057630Y-84973803D01*
X69071619Y-84996631D01*
X69179851Y-85173248D01*
X69336395Y-85353967D01*
X69340370Y-85357267D01*
X69340374Y-85357271D01*
X69416864Y-85420774D01*
X69520354Y-85506693D01*
X69726786Y-85627322D01*
X69950149Y-85712616D01*
X69955217Y-85713647D01*
X69955220Y-85713648D01*
X70061064Y-85735182D01*
X70184443Y-85760284D01*
X70189616Y-85760474D01*
X70189619Y-85760474D01*
X70418212Y-85768856D01*
X70418216Y-85768856D01*
X70423376Y-85769045D01*
X70428496Y-85768389D01*
X70428498Y-85768389D01*
X70500935Y-85759110D01*
X70660532Y-85738665D01*
X70665480Y-85737180D01*
X70665487Y-85737179D01*
X70884591Y-85671444D01*
X70884590Y-85671444D01*
X70889541Y-85669959D01*
X70990188Y-85620652D01*
X71099603Y-85567051D01*
X71099608Y-85567048D01*
X71104254Y-85564772D01*
X71108464Y-85561769D01*
X71108469Y-85561766D01*
X71294692Y-85428934D01*
X71294697Y-85428930D01*
X71298904Y-85425929D01*
X71334890Y-85390069D01*
X71464607Y-85260803D01*
X71468263Y-85257160D01*
X71607785Y-85062996D01*
X71672666Y-84931718D01*
X71711426Y-84853293D01*
X71711427Y-84853291D01*
X71713720Y-84848651D01*
X71783225Y-84619883D01*
X71805724Y-84448989D01*
X71813996Y-84386157D01*
X71813997Y-84386151D01*
X71814433Y-84382835D01*
X71814515Y-84379483D01*
X71816093Y-84314928D01*
X71816093Y-84314924D01*
X71816175Y-84311564D01*
X71796584Y-84073274D01*
X71738337Y-83841384D01*
X71642999Y-83622120D01*
X71620049Y-83586645D01*
X71515940Y-83425717D01*
X71515936Y-83425711D01*
X71513129Y-83421373D01*
X71491557Y-83397665D01*
X71442207Y-83343430D01*
X71352216Y-83244531D01*
X71348165Y-83241332D01*
X71348161Y-83241328D01*
X71168639Y-83099551D01*
X71164581Y-83096346D01*
X70955263Y-82980796D01*
X70833075Y-82937527D01*
X70734758Y-82902711D01*
X70734754Y-82902710D01*
X70729883Y-82900985D01*
X70724790Y-82900078D01*
X70724787Y-82900077D01*
X70499583Y-82859962D01*
X70499577Y-82859961D01*
X70494494Y-82859056D01*
X70403214Y-82857941D01*
X70260587Y-82856198D01*
X70260585Y-82856198D01*
X70255418Y-82856135D01*
X70019076Y-82892301D01*
X69907329Y-82928825D01*
X69796731Y-82964973D01*
X69796725Y-82964976D01*
X69791813Y-82966581D01*
X69787227Y-82968968D01*
X69787223Y-82968970D01*
X69677571Y-83026052D01*
X69579735Y-83076983D01*
X69388535Y-83220539D01*
X69223349Y-83393396D01*
X69088614Y-83590911D01*
X69086441Y-83595593D01*
X69086439Y-83595596D01*
X68994270Y-83794159D01*
X68987947Y-83807780D01*
X68924052Y-84038178D01*
X68923503Y-84043315D01*
X68904456Y-84221547D01*
X68898645Y-84275918D01*
X50420096Y-84275918D01*
X50420096Y-81836564D01*
X53573216Y-81836564D01*
X53578192Y-81861581D01*
X53592929Y-81935670D01*
X53649068Y-82019688D01*
X53733086Y-82075827D01*
X53832192Y-82095540D01*
X53845039Y-82092985D01*
X53869617Y-82090564D01*
X67844767Y-82090564D01*
X67869345Y-82092985D01*
X67882192Y-82095540D01*
X67981298Y-82075827D01*
X68065316Y-82019688D01*
X68121455Y-81935670D01*
X68136192Y-81861581D01*
X68141168Y-81836564D01*
X72573216Y-81836564D01*
X72578192Y-81861581D01*
X72592929Y-81935670D01*
X72649068Y-82019688D01*
X72733086Y-82075827D01*
X72832192Y-82095540D01*
X72845039Y-82092985D01*
X72869617Y-82090564D01*
X86844767Y-82090564D01*
X86869345Y-82092985D01*
X86882192Y-82095540D01*
X86981298Y-82075827D01*
X87065316Y-82019688D01*
X87121455Y-81935670D01*
X87136192Y-81861581D01*
X87141168Y-81836564D01*
X87138613Y-81823717D01*
X87136192Y-81799139D01*
X87136192Y-77086564D01*
X91573216Y-77086564D01*
X91578192Y-77111581D01*
X91592929Y-77185670D01*
X91649068Y-77269688D01*
X91733086Y-77325827D01*
X91832192Y-77345540D01*
X91845039Y-77342985D01*
X91869617Y-77340564D01*
X105844767Y-77340564D01*
X105869345Y-77342985D01*
X105882192Y-77345540D01*
X105981298Y-77325827D01*
X106065316Y-77269688D01*
X106121455Y-77185670D01*
X106136192Y-77111581D01*
X106141168Y-77086564D01*
X129573216Y-77086564D01*
X129578192Y-77111581D01*
X129592929Y-77185670D01*
X129649068Y-77269688D01*
X129733086Y-77325827D01*
X129832192Y-77345540D01*
X129845039Y-77342985D01*
X129869617Y-77340564D01*
X143844767Y-77340564D01*
X143869345Y-77342985D01*
X143882192Y-77345540D01*
X143981298Y-77325827D01*
X144065316Y-77269688D01*
X144121455Y-77185670D01*
X144136192Y-77111581D01*
X144141168Y-77086564D01*
X144138613Y-77073717D01*
X144136192Y-77049139D01*
X144136192Y-63073989D01*
X144138613Y-63049408D01*
X144138747Y-63048734D01*
X144141168Y-63036564D01*
X144121455Y-62937458D01*
X144065316Y-62853440D01*
X143981298Y-62797301D01*
X143907209Y-62782564D01*
X143894364Y-62780009D01*
X143882192Y-62777588D01*
X143869345Y-62780143D01*
X143844767Y-62782564D01*
X129869617Y-62782564D01*
X129845039Y-62780143D01*
X129832192Y-62777588D01*
X129820020Y-62780009D01*
X129807175Y-62782564D01*
X129733086Y-62797301D01*
X129649068Y-62853440D01*
X129592929Y-62937458D01*
X129573216Y-63036564D01*
X129575637Y-63048734D01*
X129575771Y-63049408D01*
X129578192Y-63073989D01*
X129578192Y-77049139D01*
X129575771Y-77073717D01*
X129573216Y-77086564D01*
X106141168Y-77086564D01*
X106138613Y-77073717D01*
X106136192Y-77049139D01*
X106136192Y-74711564D01*
X110573216Y-74711564D01*
X110578192Y-74736581D01*
X110592929Y-74810670D01*
X110649068Y-74894688D01*
X110733086Y-74950827D01*
X110832192Y-74970540D01*
X110845039Y-74967985D01*
X110869617Y-74965564D01*
X124844767Y-74965564D01*
X124869345Y-74967985D01*
X124882192Y-74970540D01*
X124981298Y-74950827D01*
X125065316Y-74894688D01*
X125121455Y-74810670D01*
X125136192Y-74736581D01*
X125141168Y-74711564D01*
X125138613Y-74698717D01*
X125136192Y-74674139D01*
X125136192Y-61761418D01*
X144866645Y-61761418D01*
X144867939Y-61783856D01*
X144880408Y-62000115D01*
X144881545Y-62005161D01*
X144881546Y-62005167D01*
X144902976Y-62100257D01*
X144932972Y-62233359D01*
X145022924Y-62454887D01*
X145147851Y-62658748D01*
X145304395Y-62839467D01*
X145308370Y-62842767D01*
X145308374Y-62842771D01*
X145331031Y-62861581D01*
X145488354Y-62992193D01*
X145694786Y-63112822D01*
X145918149Y-63198116D01*
X145923217Y-63199147D01*
X145923220Y-63199148D01*
X146038784Y-63222660D01*
X146152443Y-63245784D01*
X146157616Y-63245974D01*
X146157619Y-63245974D01*
X146386212Y-63254356D01*
X146386216Y-63254356D01*
X146391376Y-63254545D01*
X146396496Y-63253889D01*
X146396498Y-63253889D01*
X146468935Y-63244610D01*
X146628532Y-63224165D01*
X146633480Y-63222680D01*
X146633487Y-63222679D01*
X146852591Y-63156944D01*
X146852590Y-63156944D01*
X146857541Y-63155459D01*
X146990008Y-63090564D01*
X147067603Y-63052551D01*
X147067608Y-63052548D01*
X147072254Y-63050272D01*
X147076464Y-63047269D01*
X147076469Y-63047266D01*
X147262692Y-62914434D01*
X147262697Y-62914430D01*
X147266904Y-62911429D01*
X147436263Y-62742660D01*
X147575785Y-62548496D01*
X147628752Y-62441324D01*
X147679426Y-62338793D01*
X147679427Y-62338791D01*
X147681720Y-62334151D01*
X147751225Y-62105383D01*
X147782433Y-61868335D01*
X147782515Y-61864983D01*
X147784093Y-61800428D01*
X147784093Y-61800424D01*
X147784175Y-61797064D01*
X147764584Y-61558774D01*
X147706337Y-61326884D01*
X147610999Y-61107620D01*
X147549653Y-61012794D01*
X147483940Y-60911217D01*
X147483936Y-60911211D01*
X147481129Y-60906873D01*
X147459557Y-60883165D01*
X147430368Y-60851087D01*
X147320216Y-60730031D01*
X147316165Y-60726832D01*
X147316161Y-60726828D01*
X147136639Y-60585051D01*
X147132581Y-60581846D01*
X146923263Y-60466296D01*
X146909900Y-60461564D01*
X148573216Y-60461564D01*
X148578192Y-60486581D01*
X148592929Y-60560670D01*
X148649068Y-60644688D01*
X148733086Y-60700827D01*
X148832192Y-60720540D01*
X148845039Y-60717985D01*
X148869617Y-60715564D01*
X162844767Y-60715564D01*
X162869345Y-60717985D01*
X162882192Y-60720540D01*
X162981298Y-60700827D01*
X163065316Y-60644688D01*
X163121455Y-60560670D01*
X163136192Y-60486581D01*
X163141168Y-60461564D01*
X163138613Y-60448717D01*
X163136192Y-60424139D01*
X163136192Y-46448989D01*
X163138613Y-46424408D01*
X163138747Y-46423734D01*
X163141168Y-46411564D01*
X163121455Y-46312458D01*
X163065316Y-46228440D01*
X162981298Y-46172301D01*
X162907209Y-46157564D01*
X162894364Y-46155009D01*
X162882192Y-46152588D01*
X162869345Y-46155143D01*
X162844767Y-46157564D01*
X148869617Y-46157564D01*
X148845039Y-46155143D01*
X148832192Y-46152588D01*
X148820020Y-46155009D01*
X148807175Y-46157564D01*
X148733086Y-46172301D01*
X148649068Y-46228440D01*
X148592929Y-46312458D01*
X148573216Y-46411564D01*
X148575637Y-46423734D01*
X148575771Y-46424408D01*
X148578192Y-46448989D01*
X148578192Y-60424139D01*
X148575771Y-60448717D01*
X148573216Y-60461564D01*
X146909900Y-60461564D01*
X146792188Y-60419880D01*
X146702758Y-60388211D01*
X146702754Y-60388210D01*
X146697883Y-60386485D01*
X146692790Y-60385578D01*
X146692787Y-60385577D01*
X146467583Y-60345462D01*
X146467577Y-60345461D01*
X146462494Y-60344556D01*
X146371214Y-60343441D01*
X146228587Y-60341698D01*
X146228585Y-60341698D01*
X146223418Y-60341635D01*
X145987076Y-60377801D01*
X145903832Y-60405009D01*
X145764731Y-60450473D01*
X145764725Y-60450476D01*
X145759813Y-60452081D01*
X145755227Y-60454468D01*
X145755223Y-60454470D01*
X145621704Y-60523977D01*
X145547735Y-60562483D01*
X145356535Y-60706039D01*
X145191349Y-60878896D01*
X145056614Y-61076411D01*
X145054441Y-61081093D01*
X145054439Y-61081096D01*
X144965103Y-61273556D01*
X144955947Y-61293280D01*
X144892052Y-61523678D01*
X144866645Y-61761418D01*
X125136192Y-61761418D01*
X125136192Y-60698989D01*
X125138613Y-60674408D01*
X125138747Y-60673734D01*
X125141168Y-60661564D01*
X125121455Y-60562458D01*
X125065316Y-60478440D01*
X124981298Y-60422301D01*
X124907209Y-60407564D01*
X124894364Y-60405009D01*
X124882192Y-60402588D01*
X124869345Y-60405143D01*
X124844767Y-60407564D01*
X110869617Y-60407564D01*
X110845039Y-60405143D01*
X110832192Y-60402588D01*
X110820020Y-60405009D01*
X110807175Y-60407564D01*
X110733086Y-60422301D01*
X110722769Y-60429195D01*
X110722768Y-60429195D01*
X110674325Y-60461564D01*
X110649068Y-60478440D01*
X110592929Y-60562458D01*
X110573216Y-60661564D01*
X110575637Y-60673734D01*
X110575771Y-60674408D01*
X110578192Y-60698989D01*
X110578192Y-74674139D01*
X110575771Y-74698717D01*
X110573216Y-74711564D01*
X106136192Y-74711564D01*
X106136192Y-63073989D01*
X106138613Y-63049408D01*
X106138747Y-63048734D01*
X106141168Y-63036564D01*
X106121455Y-62937458D01*
X106065316Y-62853440D01*
X105981298Y-62797301D01*
X105907209Y-62782564D01*
X105894364Y-62780009D01*
X105882192Y-62777588D01*
X105869345Y-62780143D01*
X105844767Y-62782564D01*
X91869617Y-62782564D01*
X91845039Y-62780143D01*
X91832192Y-62777588D01*
X91820020Y-62780009D01*
X91807175Y-62782564D01*
X91733086Y-62797301D01*
X91649068Y-62853440D01*
X91592929Y-62937458D01*
X91573216Y-63036564D01*
X91575637Y-63048734D01*
X91575771Y-63049408D01*
X91578192Y-63073989D01*
X91578192Y-77049139D01*
X91575771Y-77073717D01*
X91573216Y-77086564D01*
X87136192Y-77086564D01*
X87136192Y-67823989D01*
X87138613Y-67799408D01*
X87138747Y-67798734D01*
X87141168Y-67786564D01*
X87121455Y-67687458D01*
X87065316Y-67603440D01*
X86981298Y-67547301D01*
X86907209Y-67532564D01*
X86894364Y-67530009D01*
X86882192Y-67527588D01*
X86869345Y-67530143D01*
X86844767Y-67532564D01*
X72869617Y-67532564D01*
X72845039Y-67530143D01*
X72832192Y-67527588D01*
X72820020Y-67530009D01*
X72807175Y-67532564D01*
X72733086Y-67547301D01*
X72649068Y-67603440D01*
X72592929Y-67687458D01*
X72573216Y-67786564D01*
X72575637Y-67798734D01*
X72575771Y-67799408D01*
X72578192Y-67823989D01*
X72578192Y-81799139D01*
X72575771Y-81823717D01*
X72573216Y-81836564D01*
X68141168Y-81836564D01*
X68138613Y-81823717D01*
X68136192Y-81799139D01*
X68136192Y-67823989D01*
X68138613Y-67799408D01*
X68138747Y-67798734D01*
X68141168Y-67786564D01*
X68121455Y-67687458D01*
X68065316Y-67603440D01*
X67981298Y-67547301D01*
X67907209Y-67532564D01*
X67894364Y-67530009D01*
X67882192Y-67527588D01*
X67869345Y-67530143D01*
X67844767Y-67532564D01*
X53869617Y-67532564D01*
X53845039Y-67530143D01*
X53832192Y-67527588D01*
X53820020Y-67530009D01*
X53807175Y-67532564D01*
X53733086Y-67547301D01*
X53649068Y-67603440D01*
X53592929Y-67687458D01*
X53573216Y-67786564D01*
X53575637Y-67798734D01*
X53575771Y-67799408D01*
X53578192Y-67823989D01*
X53578192Y-81799139D01*
X53575771Y-81823717D01*
X53573216Y-81836564D01*
X50420096Y-81836564D01*
X50420096Y-65275918D01*
X68898645Y-65275918D01*
X68899939Y-65298356D01*
X68912408Y-65514615D01*
X68913545Y-65519661D01*
X68913546Y-65519667D01*
X68934976Y-65614757D01*
X68964972Y-65747859D01*
X69054924Y-65969387D01*
X69179851Y-66173248D01*
X69336395Y-66353967D01*
X69340370Y-66357267D01*
X69340374Y-66357271D01*
X69416864Y-66420774D01*
X69520354Y-66506693D01*
X69726786Y-66627322D01*
X69950149Y-66712616D01*
X69955217Y-66713647D01*
X69955220Y-66713648D01*
X70070784Y-66737160D01*
X70184443Y-66760284D01*
X70189616Y-66760474D01*
X70189619Y-66760474D01*
X70418212Y-66768856D01*
X70418216Y-66768856D01*
X70423376Y-66769045D01*
X70428496Y-66768389D01*
X70428498Y-66768389D01*
X70500935Y-66759110D01*
X70660532Y-66738665D01*
X70665480Y-66737180D01*
X70665487Y-66737179D01*
X70884591Y-66671444D01*
X70884590Y-66671444D01*
X70889541Y-66669959D01*
X70990188Y-66620652D01*
X71099603Y-66567051D01*
X71099608Y-66567048D01*
X71104254Y-66564772D01*
X71108464Y-66561769D01*
X71108469Y-66561766D01*
X71294692Y-66428934D01*
X71294697Y-66428930D01*
X71298904Y-66425929D01*
X71468263Y-66257160D01*
X71607785Y-66062996D01*
X71660752Y-65955824D01*
X71711426Y-65853293D01*
X71711427Y-65853291D01*
X71713720Y-65848651D01*
X71783225Y-65619883D01*
X71805724Y-65448989D01*
X71813996Y-65386157D01*
X71813997Y-65386151D01*
X71814433Y-65382835D01*
X71814515Y-65379483D01*
X71816093Y-65314928D01*
X71816093Y-65314924D01*
X71816175Y-65311564D01*
X71796584Y-65073274D01*
X71738337Y-64841384D01*
X71642999Y-64622120D01*
X71581653Y-64527294D01*
X71515940Y-64425717D01*
X71515936Y-64425711D01*
X71513129Y-64421373D01*
X71491557Y-64397665D01*
X71462368Y-64365587D01*
X71352216Y-64244531D01*
X71348165Y-64241332D01*
X71348161Y-64241328D01*
X71168639Y-64099551D01*
X71164581Y-64096346D01*
X70955263Y-63980796D01*
X70833075Y-63937527D01*
X70734758Y-63902711D01*
X70734754Y-63902710D01*
X70729883Y-63900985D01*
X70724790Y-63900078D01*
X70724787Y-63900077D01*
X70499583Y-63859962D01*
X70499577Y-63859961D01*
X70494494Y-63859056D01*
X70403214Y-63857941D01*
X70260587Y-63856198D01*
X70260585Y-63856198D01*
X70255418Y-63856135D01*
X70019076Y-63892301D01*
X69907329Y-63928825D01*
X69796731Y-63964973D01*
X69796725Y-63964976D01*
X69791813Y-63966581D01*
X69787227Y-63968968D01*
X69787223Y-63968970D01*
X69759698Y-63983299D01*
X69579735Y-64076983D01*
X69388535Y-64220539D01*
X69223349Y-64393396D01*
X69088614Y-64590911D01*
X69086441Y-64595593D01*
X69086439Y-64595596D01*
X68997103Y-64788056D01*
X68987947Y-64807780D01*
X68924052Y-65038178D01*
X68923503Y-65043315D01*
X68904456Y-65221547D01*
X68898645Y-65275918D01*
X50420096Y-65275918D01*
X50420096Y-62836564D01*
X53573216Y-62836564D01*
X53578192Y-62861581D01*
X53592929Y-62935670D01*
X53649068Y-63019688D01*
X53733086Y-63075827D01*
X53832192Y-63095540D01*
X53845039Y-63092985D01*
X53869617Y-63090564D01*
X67844767Y-63090564D01*
X67869345Y-63092985D01*
X67882192Y-63095540D01*
X67981298Y-63075827D01*
X68065316Y-63019688D01*
X68121455Y-62935670D01*
X68136192Y-62861581D01*
X68141168Y-62836564D01*
X72573216Y-62836564D01*
X72578192Y-62861581D01*
X72592929Y-62935670D01*
X72649068Y-63019688D01*
X72733086Y-63075827D01*
X72832192Y-63095540D01*
X72845039Y-63092985D01*
X72869617Y-63090564D01*
X86844767Y-63090564D01*
X86869345Y-63092985D01*
X86882192Y-63095540D01*
X86981298Y-63075827D01*
X87065316Y-63019688D01*
X87121455Y-62935670D01*
X87136192Y-62861581D01*
X87141168Y-62836564D01*
X87138613Y-62823717D01*
X87136192Y-62799139D01*
X87136192Y-58086564D01*
X91573216Y-58086564D01*
X91578192Y-58111581D01*
X91592929Y-58185670D01*
X91649068Y-58269688D01*
X91733086Y-58325827D01*
X91832192Y-58345540D01*
X91845039Y-58342985D01*
X91869617Y-58340564D01*
X105844767Y-58340564D01*
X105869345Y-58342985D01*
X105882192Y-58345540D01*
X105981298Y-58325827D01*
X106065316Y-58269688D01*
X106121455Y-58185670D01*
X106136192Y-58111581D01*
X106141168Y-58086564D01*
X129573216Y-58086564D01*
X129578192Y-58111581D01*
X129592929Y-58185670D01*
X129649068Y-58269688D01*
X129733086Y-58325827D01*
X129832192Y-58345540D01*
X129845039Y-58342985D01*
X129869617Y-58340564D01*
X143844767Y-58340564D01*
X143869345Y-58342985D01*
X143882192Y-58345540D01*
X143981298Y-58325827D01*
X144065316Y-58269688D01*
X144121455Y-58185670D01*
X144136192Y-58111581D01*
X144141168Y-58086564D01*
X144138613Y-58073717D01*
X144136192Y-58049139D01*
X144136192Y-44073989D01*
X144138613Y-44049408D01*
X144138747Y-44048734D01*
X144141168Y-44036564D01*
X144121455Y-43937458D01*
X144065316Y-43853440D01*
X143981298Y-43797301D01*
X143907209Y-43782564D01*
X143894364Y-43780009D01*
X143882192Y-43777588D01*
X143869345Y-43780143D01*
X143844767Y-43782564D01*
X129869617Y-43782564D01*
X129845039Y-43780143D01*
X129832192Y-43777588D01*
X129820020Y-43780009D01*
X129807175Y-43782564D01*
X129733086Y-43797301D01*
X129649068Y-43853440D01*
X129592929Y-43937458D01*
X129573216Y-44036564D01*
X129575637Y-44048734D01*
X129575771Y-44049408D01*
X129578192Y-44073989D01*
X129578192Y-58049139D01*
X129575771Y-58073717D01*
X129573216Y-58086564D01*
X106141168Y-58086564D01*
X106138613Y-58073717D01*
X106136192Y-58049139D01*
X106136192Y-55711564D01*
X110573216Y-55711564D01*
X110578192Y-55736581D01*
X110592929Y-55810670D01*
X110649068Y-55894688D01*
X110733086Y-55950827D01*
X110832192Y-55970540D01*
X110845039Y-55967985D01*
X110869617Y-55965564D01*
X124844767Y-55965564D01*
X124869345Y-55967985D01*
X124882192Y-55970540D01*
X124981298Y-55950827D01*
X125065316Y-55894688D01*
X125121455Y-55810670D01*
X125136192Y-55736581D01*
X125141168Y-55711564D01*
X125138613Y-55698717D01*
X125136192Y-55674139D01*
X125136192Y-41698989D01*
X125138613Y-41674408D01*
X125138747Y-41673734D01*
X125141168Y-41661564D01*
X125121455Y-41562458D01*
X125065316Y-41478440D01*
X124981298Y-41422301D01*
X124907209Y-41407564D01*
X124894364Y-41405009D01*
X124882192Y-41402588D01*
X124869345Y-41405143D01*
X124844767Y-41407564D01*
X110869617Y-41407564D01*
X110845039Y-41405143D01*
X110832192Y-41402588D01*
X110820020Y-41405009D01*
X110807175Y-41407564D01*
X110733086Y-41422301D01*
X110722769Y-41429195D01*
X110722768Y-41429195D01*
X110666840Y-41466565D01*
X110649068Y-41478440D01*
X110592929Y-41562458D01*
X110573216Y-41661564D01*
X110575637Y-41673734D01*
X110575771Y-41674408D01*
X110578192Y-41698989D01*
X110578192Y-55674139D01*
X110575771Y-55698717D01*
X110573216Y-55711564D01*
X106136192Y-55711564D01*
X106136192Y-44073989D01*
X106138613Y-44049408D01*
X106138747Y-44048734D01*
X106141168Y-44036564D01*
X106121455Y-43937458D01*
X106065316Y-43853440D01*
X105981298Y-43797301D01*
X105907209Y-43782564D01*
X105894364Y-43780009D01*
X105882192Y-43777588D01*
X105869345Y-43780143D01*
X105844767Y-43782564D01*
X91869617Y-43782564D01*
X91845039Y-43780143D01*
X91832192Y-43777588D01*
X91820020Y-43780009D01*
X91807175Y-43782564D01*
X91733086Y-43797301D01*
X91649068Y-43853440D01*
X91592929Y-43937458D01*
X91573216Y-44036564D01*
X91575637Y-44048734D01*
X91575771Y-44049408D01*
X91578192Y-44073989D01*
X91578192Y-58049139D01*
X91575771Y-58073717D01*
X91573216Y-58086564D01*
X87136192Y-58086564D01*
X87136192Y-48823989D01*
X87138613Y-48799408D01*
X87138747Y-48798734D01*
X87141168Y-48786564D01*
X87121455Y-48687458D01*
X87065316Y-48603440D01*
X86981298Y-48547301D01*
X86907209Y-48532564D01*
X86894364Y-48530009D01*
X86882192Y-48527588D01*
X86869345Y-48530143D01*
X86844767Y-48532564D01*
X72869617Y-48532564D01*
X72845039Y-48530143D01*
X72832192Y-48527588D01*
X72820020Y-48530009D01*
X72807175Y-48532564D01*
X72733086Y-48547301D01*
X72649068Y-48603440D01*
X72592929Y-48687458D01*
X72573216Y-48786564D01*
X72575637Y-48798734D01*
X72575771Y-48799408D01*
X72578192Y-48823989D01*
X72578192Y-62799139D01*
X72575771Y-62823717D01*
X72573216Y-62836564D01*
X68141168Y-62836564D01*
X68138613Y-62823717D01*
X68136192Y-62799139D01*
X68136192Y-48823989D01*
X68138613Y-48799408D01*
X68138747Y-48798734D01*
X68141168Y-48786564D01*
X68121455Y-48687458D01*
X68065316Y-48603440D01*
X67981298Y-48547301D01*
X67907209Y-48532564D01*
X67894364Y-48530009D01*
X67882192Y-48527588D01*
X67869345Y-48530143D01*
X67844767Y-48532564D01*
X53869617Y-48532564D01*
X53845039Y-48530143D01*
X53832192Y-48527588D01*
X53820020Y-48530009D01*
X53807175Y-48532564D01*
X53733086Y-48547301D01*
X53649068Y-48603440D01*
X53592929Y-48687458D01*
X53573216Y-48786564D01*
X53575637Y-48798734D01*
X53575771Y-48799408D01*
X53578192Y-48823989D01*
X53578192Y-62799139D01*
X53575771Y-62823717D01*
X53573216Y-62836564D01*
X50420096Y-62836564D01*
X50420096Y-50406567D01*
X50422517Y-50381986D01*
X50422651Y-50381312D01*
X50425072Y-50369142D01*
X50422651Y-50356969D01*
X50422651Y-50347266D01*
X50421575Y-50333401D01*
X50437286Y-49953524D01*
X50438146Y-49943146D01*
X50488954Y-49535541D01*
X50490668Y-49525269D01*
X50574962Y-49123253D01*
X50577518Y-49113158D01*
X50694726Y-48719463D01*
X50698107Y-48709613D01*
X50847431Y-48326931D01*
X50851602Y-48317423D01*
X50897798Y-48222929D01*
X51032007Y-47948398D01*
X51036961Y-47939243D01*
X51247232Y-47586363D01*
X51252920Y-47577657D01*
X51491609Y-47243351D01*
X51497996Y-47235144D01*
X51763493Y-46921674D01*
X51770534Y-46914027D01*
X52060981Y-46623580D01*
X52068628Y-46616539D01*
X52382098Y-46351042D01*
X52390309Y-46344652D01*
X52418352Y-46324630D01*
X52724611Y-46105966D01*
X52733317Y-46100278D01*
X52775311Y-46075255D01*
X53086200Y-45890006D01*
X53095356Y-45885051D01*
X53464385Y-45704644D01*
X53473885Y-45700477D01*
X53856575Y-45551150D01*
X53866417Y-45547772D01*
X54260112Y-45430564D01*
X54270207Y-45428008D01*
X54602025Y-45358433D01*
X54672226Y-45343713D01*
X54682491Y-45342001D01*
X54850902Y-45321008D01*
X55090100Y-45291192D01*
X55100478Y-45290332D01*
X55480355Y-45274621D01*
X55494220Y-45275697D01*
X55503923Y-45275697D01*
X55516096Y-45278118D01*
X55528943Y-45275563D01*
X55553521Y-45273142D01*
X82478671Y-45273142D01*
X82503249Y-45275563D01*
X82516096Y-45278118D01*
X82521324Y-45277078D01*
X82958285Y-45260703D01*
X82960626Y-45260439D01*
X82960637Y-45260438D01*
X83174089Y-45236351D01*
X83397994Y-45211084D01*
X83832756Y-45128693D01*
X83835033Y-45128082D01*
X84257853Y-45014607D01*
X84257862Y-45014604D01*
X84260132Y-45013995D01*
X84677725Y-44867631D01*
X84679870Y-44866694D01*
X84679879Y-44866690D01*
X84882567Y-44778106D01*
X85083192Y-44690424D01*
X85085281Y-44689318D01*
X85472194Y-44484461D01*
X85472207Y-44484453D01*
X85474259Y-44483367D01*
X85476224Y-44482130D01*
X85476236Y-44482123D01*
X85846742Y-44248874D01*
X85846746Y-44248871D01*
X85848732Y-44247621D01*
X86204510Y-43984510D01*
X86206297Y-43982969D01*
X86537808Y-43697054D01*
X86537813Y-43697049D01*
X86539599Y-43695509D01*
X86852117Y-43382238D01*
X87140312Y-43046456D01*
X87325612Y-42794631D01*
X87401163Y-42691957D01*
X87401168Y-42691949D01*
X87402568Y-42690047D01*
X87410699Y-42677063D01*
X87636160Y-42317009D01*
X87637413Y-42315008D01*
X87796582Y-42012633D01*
X87842429Y-41925537D01*
X87842431Y-41925532D01*
X87843530Y-41923445D01*
X87854908Y-41897241D01*
X88013778Y-41531336D01*
X88017677Y-41522356D01*
X88020549Y-41517860D01*
X88022720Y-41505644D01*
X88026084Y-41497025D01*
X88030255Y-41483247D01*
X88176970Y-41147637D01*
X88181363Y-41138591D01*
X88298966Y-40919182D01*
X88368934Y-40788645D01*
X88374017Y-40780007D01*
X88588930Y-40446141D01*
X88594711Y-40437902D01*
X88835588Y-40122256D01*
X88841998Y-40114520D01*
X89089814Y-39838582D01*
X89107286Y-39819128D01*
X89114287Y-39811931D01*
X89369439Y-39569843D01*
X89402324Y-39538642D01*
X89409898Y-39532011D01*
X89718815Y-39282600D01*
X89726892Y-39276595D01*
X90054733Y-39052636D01*
X90063265Y-39047295D01*
X90407922Y-38850230D01*
X90416853Y-38845586D01*
X90596509Y-38761118D01*
X90776170Y-38676647D01*
X90785434Y-38672736D01*
X91157069Y-38533026D01*
X91166625Y-38529863D01*
X91239999Y-38508789D01*
X91548240Y-38420260D01*
X91558000Y-38417874D01*
X91947142Y-38339084D01*
X91957080Y-38337482D01*
X92351272Y-38290006D01*
X92361305Y-38289203D01*
X92532440Y-38282362D01*
X92727277Y-38274573D01*
X92741629Y-38275698D01*
X92750877Y-38275698D01*
X92763046Y-38278118D01*
X92775893Y-38275563D01*
X92800471Y-38273142D01*
X142530047Y-38273142D01*
X142554625Y-38275563D01*
G37*
%TD.AperFunction*%
M02*
