<?xml version="1.0" standalone="no"?>
 <!DOCTYPE svg PUBLIC "-//W3C//DTD SVG 1.1//EN" 
 "http://www.w3.org/Graphics/SVG/1.1/DTD/svg11.dtd"> 
<svg
  xmlns:svg="http://www.w3.org/2000/svg"
  xmlns="http://www.w3.org/2000/svg"
  xmlns:xlink="http://www.w3.org/1999/xlink"
  version="1.1"
  width="297.002200mm" height="210.007200mm" viewBox="0.000000 0.000000 297.002200 210.007200">
<title>SVG Image created as keyboard-Edge_Cuts.svg date 2023/04/18 14:37:48 </title>
  <desc>Image generated by PCBNEW </desc>
<g style="fill:#000000; fill-opacity:1.000000;stroke:#000000; stroke-opacity:1.000000;
stroke-linecap:round; stroke-linejoin:round;"
 transform="translate(0 0) scale(1 1)">
</g>
<g style="fill:#000000; fill-opacity:0.0; 
stroke:#000000; stroke-width:0.000000; stroke-opacity:1; 
stroke-linecap:round; stroke-linejoin:round;">
</g>
<g style="fill:#D0D2CD; fill-opacity:0.0; 
stroke:#D0D2CD; stroke-width:0.000000; stroke-opacity:1; 
stroke-linecap:round; stroke-linejoin:round;">
</g>
<g style="fill:#D0D2CD; fill-opacity:0.0; 
stroke:#D0D2CD; stroke-width:0.150000; stroke-opacity:1; 
stroke-linecap:round; stroke-linejoin:round;">
<circle cx="247.809568" cy="52.400000" r="1.040433" /> 
<circle cx="261.050000" cy="52.400000" r="1.040433" /> 
</g>
<g style="fill:#D0D2CD; fill-opacity:0.0; 
stroke:#D0D2CD; stroke-width:0.100000; stroke-opacity:1; 
stroke-linecap:round; stroke-linejoin:round;">
<path d="M241.745000 88.230000 A3.330000 3.330000 0.0 0 0 245.075000 84.900000" />
<path d="M12.874660 84.910000 A3.330000 3.330000 0.0 0 0 16.204666 88.240000" />
<path d="M16.204666 89.795306 A3.329994 3.329994 0.0 0 0 12.874666 93.125300" />
<path d="M245.075000 93.115300 A3.330000 3.330000 0.0 0 0 241.745000 89.785300" />
<path d="M241.745000 89.785300
L209.138520 89.809320
" />
<path d="M32.445960 89.789000
L16.204666 89.795300
" />
<path d="M89.606120 89.791540
L37.879020 89.791540
" />
<path d="M146.758660 89.783920
L95.006160 89.786460
" />
<path d="M203.913740 89.786460
L152.135840 89.786460
" />
<path d="M209.138520 89.809320
L209.138520 88.234520
" />
<path d="M241.745000 88.230000
L209.138520 88.234520
" />
<path d="M89.606120 88.239600
L37.879020 88.239600
" />
<path d="M146.758660 88.231980
L95.006160 88.234520
" />
<path d="M203.913740 88.234520
L152.135840 88.234520
" />
<path d="M32.445960 88.237060
L16.204666 88.240000
" />
<path d="M203.913740 89.786460
L203.913740 88.234520
" />
<path d="M32.445960 89.789000
L32.445960 88.237060
" />
<path d="M89.606120 89.791540
L89.606120 88.239600
" />
<path d="M146.758660 89.783920
L146.758660 88.231980
" />
<path d="M18.227000 11.620200 A5.350000 5.350000 0.0 0 0 12.877000 16.970200" />
<path d="M265.250000 50.179800
L265.250000 16.900000
" />
<path d="M95.006160 89.786460
L95.006160 88.234520
" />
<path d="M37.879020 89.791540
L37.879020 88.239600
" />
<path d="M152.135840 89.786460
L152.135840 88.234520
" />
<path d="M239.727000 110.278200 A5.350000 5.350000 0.0 0 0 245.077000 104.928200" />
<path d="M12.877000 104.928200 A5.350000 5.350000 0.0 0 0 18.227000 110.278200" />
<path d="M245.077000 104.928200
L245.075000 93.115300
" />
<path d="M250.433021 55.533021 A5.349979 5.349979 0.0 0 0 245.083021 60.883021" />
<path d="M259.900000 55.529800 A5.350000 5.350000 0.0 0 0 265.250000 50.179800" />
<path d="M12.874666 93.125300
L12.877000 104.928200
" />
<path d="M245.075000 84.900000
L245.083021 60.883021
" />
<path d="M250.433021 55.533021
L259.900000 55.529800
" />
<path d="M18.227000 110.278200
L239.727000 110.278200
" />
<path d="M12.877000 16.970200
L12.874666 84.910000
" />
<path d="M265.250000 16.900000 A5.350000 5.350000 0.0 0 0 259.900000 11.550000" />
<path d="M259.900000 11.550000
L18.227000 11.620200
" />
</g>
<g style="fill:#D0D2CD; fill-opacity:0.0; 
stroke:#D0D2CD; stroke-width:0.120000; stroke-opacity:1; 
stroke-linecap:round; stroke-linejoin:round;">
<path d="M22.405000 16.157600
L26.005000 16.157600
" />
<path d="M26.005000 16.157600
L26.005000 19.257600
" />
<path d="M22.405000 19.257600
L22.405000 16.157600
" />
<path d="M26.005000 19.257600
L22.405000 19.257600
" />
<path d="M41.455000 19.257600
L41.455000 16.157600
" />
<path d="M45.055000 16.157600
L45.055000 19.257600
" />
<path d="M41.455000 16.157600
L45.055000 16.157600
" />
<path d="M45.055000 19.257600
L41.455000 19.257600
" />
<path d="M60.505000 19.257600
L60.505000 16.157600
" />
<path d="M60.505000 16.157600
L64.105000 16.157600
" />
<path d="M64.105000 19.257600
L60.505000 19.257600
" />
<path d="M64.105000 16.157600
L64.105000 19.257600
" />
<path d="M83.155000 19.257600
L79.555000 19.257600
" />
<path d="M79.555000 19.257600
L79.555000 16.157600
" />
<path d="M79.555000 16.157600
L83.155000 16.157600
" />
<path d="M83.155000 16.157600
L83.155000 19.257600
" />
<path d="M102.205000 19.257600
L98.605000 19.257600
" />
<path d="M98.605000 19.257600
L98.605000 16.157600
" />
<path d="M102.205000 16.157600
L102.205000 19.257600
" />
<path d="M98.605000 16.157600
L102.205000 16.157600
" />
<path d="M121.255000 16.157600
L121.255000 19.257600
" />
<path d="M117.655000 19.257600
L117.655000 16.157600
" />
<path d="M117.655000 16.157600
L121.255000 16.157600
" />
<path d="M121.255000 19.257600
L117.655000 19.257600
" />
<path d="M140.305000 16.157600
L140.305000 19.257600
" />
<path d="M136.705000 16.157600
L140.305000 16.157600
" />
<path d="M140.305000 19.257600
L136.705000 19.257600
" />
<path d="M136.705000 19.257600
L136.705000 16.157600
" />
<path d="M155.755000 19.257600
L155.755000 16.157600
" />
<path d="M159.355000 16.157600
L159.355000 19.257600
" />
<path d="M159.355000 19.257600
L155.755000 19.257600
" />
<path d="M155.755000 16.157600
L159.355000 16.157600
" />
<path d="M178.405000 16.157600
L178.405000 19.257600
" />
<path d="M178.405000 19.257600
L174.805000 19.257600
" />
<path d="M174.805000 19.257600
L174.805000 16.157600
" />
<path d="M174.805000 16.157600
L178.405000 16.157600
" />
<path d="M197.455000 16.157600
L197.455000 19.257600
" />
<path d="M193.855000 16.157600
L197.455000 16.157600
" />
<path d="M193.855000 19.257600
L193.855000 16.157600
" />
<path d="M197.455000 19.257600
L193.855000 19.257600
" />
<path d="M212.905000 19.757600
L212.905000 16.657600
" />
<path d="M212.905000 16.657600
L216.505000 16.657600
" />
<path d="M216.505000 19.757600
L212.905000 19.757600
" />
<path d="M216.505000 16.657600
L216.505000 19.757600
" />
<path d="M233.075000 16.627600
L236.675000 16.627600
" />
<path d="M233.075000 19.727600
L233.075000 16.627600
" />
<path d="M236.675000 19.727600
L233.075000 19.727600
" />
<path d="M236.675000 16.627600
L236.675000 19.727600
" />
<path d="M22.761800 38.705800
L22.761800 35.605800
" />
<path d="M26.361800 38.705800
L22.761800 38.705800
" />
<path d="M22.761800 35.605800
L26.361800 35.605800
" />
<path d="M26.361800 35.605800
L26.361800 38.705800
" />
<path d="M41.459802 38.705800
L41.459802 35.605800
" />
<path d="M45.059802 38.705800
L41.459802 38.705800
" />
<path d="M45.059802 35.605800
L45.059802 38.705800
" />
<path d="M41.459802 35.605800
L45.059802 35.605800
" />
<path d="M60.509802 35.605800
L64.109802 35.605800
" />
<path d="M64.109802 35.605800
L64.109802 38.705800
" />
<path d="M64.109802 38.705800
L60.509802 38.705800
" />
<path d="M60.509802 38.705800
L60.509802 35.605800
" />
<path d="M83.159802 35.605800
L83.159802 38.705800
" />
<path d="M79.559802 35.605800
L83.159802 35.605800
" />
<path d="M83.159802 38.705800
L79.559802 38.705800
" />
<path d="M79.559802 38.705800
L79.559802 35.605800
" />
<path d="M98.609802 35.605800
L102.209802 35.605800
" />
<path d="M102.209802 38.705800
L98.609802 38.705800
" />
<path d="M102.209802 35.605800
L102.209802 38.705800
" />
<path d="M98.609802 38.705800
L98.609802 35.605800
" />
<path d="M121.259802 35.605800
L121.259802 38.705800
" />
<path d="M117.659802 35.605800
L121.259802 35.605800
" />
<path d="M121.259802 38.705800
L117.659802 38.705800
" />
<path d="M117.659802 38.705800
L117.659802 35.605800
" />
<path d="M136.709802 38.705800
L136.709802 35.605800
" />
<path d="M140.309802 35.605800
L140.309802 38.705800
" />
<path d="M140.309802 38.705800
L136.709802 38.705800
" />
<path d="M136.709802 35.605800
L140.309802 35.605800
" />
<path d="M159.359802 38.705800
L155.759802 38.705800
" />
<path d="M155.759802 38.705800
L155.759802 35.605800
" />
<path d="M159.359802 35.605800
L159.359802 38.705800
" />
<path d="M155.759802 35.605800
L159.359802 35.605800
" />
<path d="M174.809802 35.605800
L178.409802 35.605800
" />
<path d="M174.809802 38.705800
L174.809802 35.605800
" />
<path d="M178.409802 38.705800
L174.809802 38.705800
" />
<path d="M178.409802 35.605800
L178.409802 38.705800
" />
<path d="M193.859802 38.705800
L193.859802 35.605800
" />
<path d="M197.459802 38.705800
L193.859802 38.705800
" />
<path d="M197.459802 35.605800
L197.459802 38.705800
" />
<path d="M193.859802 35.605800
L197.459802 35.605800
" />
<path d="M212.931600 38.667400
L212.931600 35.567400
" />
<path d="M216.531600 35.567400
L216.531600 38.667400
" />
<path d="M216.531600 38.667400
L212.931600 38.667400
" />
<path d="M212.931600 35.567400
L216.531600 35.567400
" />
<path d="M231.950000 35.140000
L235.550000 35.140000
" />
<path d="M235.550000 35.140000
L235.550000 38.240000
" />
<path d="M231.950000 38.240000
L231.950000 35.140000
" />
<path d="M235.550000 38.240000
L231.950000 38.240000
" />
<path d="M22.775001 57.285000
L22.775001 54.185000
" />
<path d="M22.775001 54.185000
L26.375001 54.185000
" />
<path d="M26.375001 54.185000
L26.375001 57.285000
" />
<path d="M26.375001 57.285000
L22.775001 57.285000
" />
<path d="M41.455000 57.285000
L41.455000 54.185000
" />
<path d="M41.455000 54.185000
L45.055000 54.185000
" />
<path d="M45.055000 54.185000
L45.055000 57.285000
" />
<path d="M45.055000 57.285000
L41.455000 57.285000
" />
<path d="M60.505000 57.285000
L60.505000 54.185000
" />
<path d="M64.105000 57.285000
L60.505000 57.285000
" />
<path d="M64.105000 54.185000
L64.105000 57.285000
" />
<path d="M60.505000 54.185000
L64.105000 54.185000
" />
<path d="M83.155000 54.185000
L83.155000 57.285000
" />
<path d="M79.555000 54.185000
L83.155000 54.185000
" />
<path d="M79.555000 57.285000
L79.555000 54.185000
" />
<path d="M83.155000 57.285000
L79.555000 57.285000
" />
<path d="M102.205000 54.185000
L102.205000 57.285000
" />
<path d="M98.605000 54.185000
L102.205000 54.185000
" />
<path d="M102.205000 57.285000
L98.605000 57.285000
" />
<path d="M98.605000 57.285000
L98.605000 54.185000
" />
<path d="M117.655000 57.285000
L117.655000 54.185000
" />
<path d="M117.655000 54.185000
L121.255000 54.185000
" />
<path d="M121.255000 57.285000
L117.655000 57.285000
" />
<path d="M121.255000 54.185000
L121.255000 57.285000
" />
<path d="M140.305000 57.285000
L136.705000 57.285000
" />
<path d="M140.305000 54.185000
L140.305000 57.285000
" />
<path d="M136.705000 54.185000
L140.305000 54.185000
" />
<path d="M136.705000 57.285000
L136.705000 54.185000
" />
<path d="M159.355000 57.285000
L155.755000 57.285000
" />
<path d="M159.355000 54.185000
L159.355000 57.285000
" />
<path d="M155.755000 57.285000
L155.755000 54.185000
" />
<path d="M155.755000 54.185000
L159.355000 54.185000
" />
<path d="M178.405000 57.285000
L174.805000 57.285000
" />
<path d="M174.805000 54.185000
L178.405000 54.185000
" />
<path d="M178.405000 54.185000
L178.405000 57.285000
" />
<path d="M174.805000 57.285000
L174.805000 54.185000
" />
<path d="M197.455000 54.185000
L197.455000 57.285000
" />
<path d="M193.855000 57.285000
L193.855000 54.185000
" />
<path d="M197.455000 57.285000
L193.855000 57.285000
" />
<path d="M193.855000 54.185000
L197.455000 54.185000
" />
<path d="M216.505000 57.285000
L212.905000 57.285000
" />
<path d="M212.905000 57.285000
L212.905000 54.185000
" />
<path d="M216.505000 54.185000
L216.505000 57.285000
" />
<path d="M212.905000 54.185000
L216.505000 54.185000
" />
<path d="M231.955000 54.185000
L235.555000 54.185000
" />
<path d="M231.955000 57.285000
L231.955000 54.185000
" />
<path d="M235.555000 54.185000
L235.555000 57.285000
" />
<path d="M235.555000 57.285000
L231.955000 57.285000
" />
<path d="M193.834402 73.403900
L197.434402 73.403900
" />
<path d="M197.434402 76.503900
L193.834402 76.503900
" />
<path d="M197.434402 73.403900
L197.434402 76.503900
" />
<path d="M193.834402 76.503900
L193.834402 73.403900
" />
<path d="M159.334402 76.503900
L155.734402 76.503900
" />
<path d="M155.734402 76.503900
L155.734402 73.403900
" />
<path d="M155.734402 73.403900
L159.334402 73.403900
" />
<path d="M159.334402 73.403900
L159.334402 76.503900
" />
<path d="M216.484402 76.503900
L212.884402 76.503900
" />
<path d="M212.884402 73.403900
L216.484402 73.403900
" />
<path d="M216.484402 73.403900
L216.484402 76.503900
" />
<path d="M212.884402 76.503900
L212.884402 73.403900
" />
<path d="M235.581600 73.403900
L235.581600 76.503900
" />
<path d="M235.581600 76.503900
L231.981600 76.503900
" />
<path d="M231.981600 76.503900
L231.981600 73.403900
" />
<path d="M231.981600 73.403900
L235.581600 73.403900
" />
<path d="M174.784402 76.503900
L174.784402 73.403900
" />
<path d="M174.784402 73.403900
L178.384402 73.403900
" />
<path d="M178.384402 76.503900
L174.784402 76.503900
" />
<path d="M178.384402 73.403900
L178.384402 76.503900
" />
<path d="M22.787200 73.403900
L26.387200 73.403900
" />
<path d="M22.787200 76.503900
L22.787200 73.403900
" />
<path d="M26.387200 73.403900
L26.387200 76.503900
" />
<path d="M26.387200 76.503900
L22.787200 76.503900
" />
<path d="M120.200000 72.750000
L120.200000 75.850000
" />
<path d="M116.600000 75.850000
L116.600000 72.750000
" />
<path d="M120.200000 75.850000
L116.600000 75.850000
" />
<path d="M116.600000 72.750000
L120.200000 72.750000
" />
<path d="M45.034402 73.403900
L45.034402 76.503900
" />
<path d="M41.434402 73.403900
L45.034402 73.403900
" />
<path d="M41.434402 76.503900
L41.434402 73.403900
" />
<path d="M45.034402 76.503900
L41.434402 76.503900
" />
<path d="M60.484402 73.403900
L64.084402 73.403900
" />
<path d="M64.084402 73.403900
L64.084402 76.503900
" />
<path d="M64.084402 76.503900
L60.484402 76.503900
" />
<path d="M60.484402 76.503900
L60.484402 73.403900
" />
<path d="M79.534402 73.403900
L83.134402 73.403900
" />
<path d="M83.134402 76.503900
L79.534402 76.503900
" />
<path d="M83.134402 73.403900
L83.134402 76.503900
" />
<path d="M79.534402 76.503900
L79.534402 73.403900
" />
<path d="M98.584402 73.403900
L102.184402 73.403900
" />
<path d="M102.184402 73.403900
L102.184402 76.503900
" />
<path d="M98.584402 76.503900
L98.584402 73.403900
" />
<path d="M102.184402 76.503900
L98.584402 76.503900
" />
<path d="M25.999900 92.197400
L25.999900 95.297400
" />
<path d="M22.399900 95.297400
L22.399900 92.197400
" />
<path d="M25.999900 95.297400
L22.399900 95.297400
" />
<path d="M22.399900 92.197400
L25.999900 92.197400
" />
<path d="M41.449900 95.297400
L41.449900 92.197400
" />
<path d="M45.049900 95.297400
L41.449900 95.297400
" />
<path d="M45.049900 92.197400
L45.049900 95.297400
" />
<path d="M41.449900 92.197400
L45.049900 92.197400
" />
<path d="M64.099900 92.197400
L64.099900 95.297400
" />
<path d="M64.099900 95.297400
L60.499900 95.297400
" />
<path d="M60.499900 95.297400
L60.499900 92.197400
" />
<path d="M60.499900 92.197400
L64.099900 92.197400
" />
<path d="M83.149900 95.297400
L79.549900 95.297400
" />
<path d="M79.549900 95.297400
L79.549900 92.197400
" />
<path d="M79.549900 92.197400
L83.149900 92.197400
" />
<path d="M83.149900 92.197400
L83.149900 95.297400
" />
<path d="M98.599900 95.297400
L98.599900 92.197400
" />
<path d="M102.199900 95.297400
L98.599900 95.297400
" />
<path d="M102.199900 92.197400
L102.199900 95.297400
" />
<path d="M98.599900 92.197400
L102.199900 92.197400
" />
<path d="M128.300000 93.250000
L128.300000 90.150000
" />
<path d="M131.900000 93.250000
L128.300000 93.250000
" />
<path d="M128.300000 90.150000
L131.900000 90.150000
" />
<path d="M131.900000 90.150000
L131.900000 93.250000
" />
<path d="M159.349900 92.197400
L159.349900 95.297400
" />
<path d="M159.349900 95.297400
L155.749900 95.297400
" />
<path d="M155.749900 92.197400
L159.349900 92.197400
" />
<path d="M155.749900 95.297400
L155.749900 92.197400
" />
<path d="M174.799900 92.197400
L178.399900 92.197400
" />
<path d="M178.399900 92.197400
L178.399900 95.297400
" />
<path d="M178.399900 95.297400
L174.799900 95.297400
" />
<path d="M174.799900 95.297400
L174.799900 92.197400
" />
<path d="M193.849900 92.197400
L197.449900 92.197400
" />
<path d="M193.849900 95.297400
L193.849900 92.197400
" />
<path d="M197.449900 92.197400
L197.449900 95.297400
" />
<path d="M197.449900 95.297400
L193.849900 95.297400
" />
<path d="M216.499900 95.297400
L212.899900 95.297400
" />
<path d="M212.899900 95.297400
L212.899900 92.197400
" />
<path d="M212.899900 92.197400
L216.499900 92.197400
" />
<path d="M216.499900 92.197400
L216.499900 95.297400
" />
<path d="M231.949900 92.197400
L235.549900 92.197400
" />
<path d="M235.549900 95.297400
L231.949900 95.297400
" />
<path d="M235.549900 92.197400
L235.549900 95.297400
" />
<path d="M231.949900 95.297400
L231.949900 92.197400
" />
<path d="M142.210000 77.040000
L139.110000 77.040000
" />
<path d="M139.110000 77.040000
L139.110000 73.440000
" />
<path d="M139.110000 73.440000
L142.210000 73.440000
" />
<path d="M142.210000 73.440000
L142.210000 77.040000
" />
<g >
</g>
<g >
</g>
<g >
</g>
<g >
</g>
<g >
</g>
<g >
</g>
<g >
</g>
<g >
</g>
<g >
</g>
<g >
</g>
<g >
</g>
<g >
</g>
<g >
</g>
<g >
</g>
<g >
</g>
<g >
</g>
<g >
</g>
<g >
</g>
<g >
</g>
<g >
</g>
<g >
</g>
<g >
</g>
<g >
</g>
<g >
</g>
<g >
</g>
<g >
</g>
<g >
</g>
<g >
</g>
<g >
</g>
<g >
</g>
<g >
</g>
<g >
</g>
<g >
</g>
<g >
</g>
<g >
</g>
<g >
</g>
<g >
</g>
<g >
</g>
<g >
</g>
<g >
</g>
<g >
</g>
<g >
</g>
<g >
</g>
<g >
</g>
<g >
</g>
<g >
</g>
<g >
</g>
<g >
</g>
<g >
</g>
<g >
</g>
<g >
</g>
<g >
</g>
<g >
</g>
<g >
</g>
<g >
</g>
<g >
</g>
<g >
</g>
<g >
</g>
<g >
</g>
<g >
</g>
<g >
</g>
<g >
</g>
<g >
</g>
<g >
</g>
<g >
</g>
<g >
</g>
<g >
</g>
<g >
</g>
<g >
</g>
<g >
</g>
<g >
</g>
<g >
</g>
<g >
</g>
<g >
</g>
<g >
</g>
<g >
</g>
<g >
</g>
<g >
</g>
<g >
</g>
<g >
</g>
<g >
</g>
<g >
</g>
<g >
</g>
<g >
</g>
<g >
</g>
<g >
</g>
<g >
</g>
<g >
</g>
<g >
</g>
<g >
</g>
<g >
</g>
<g >
</g>
<g >
</g>
<g >
</g>
<g >
</g>
<g >
</g>
<g >
</g>
<g >
</g>
<g >
</g>
<g >
</g>
<g >
</g>
<g >
</g>
<g >
</g>
<g >
</g>
<g >
</g>
<g >
</g>
<g >
</g>
<g >
</g>
<g >
</g>
<g >
</g>
<g >
</g>
<g >
</g>
<g >
</g>
<g >
</g>
<g >
</g>
<g >
</g>
<g >
</g>
<g >
</g>
<g >
</g>
<g >
</g>
<g >
</g>
<g >
</g>
<g >
</g>
<g >
</g>
<g >
</g>
<g >
</g>
<g >
</g>
<g >
</g>
<g >
</g>
<g >
</g>
<g >
</g>
<g >
</g>
<g >
</g>
<g >
</g>
<g >
</g>
<g >
</g>
<g >
</g>
<g >
</g>
<g >
</g>
<g >
</g>
<g >
</g>
<g >
</g>
<g >
</g>
<g >
</g>
<g >
</g>
<g >
</g>
<g >
</g>
<g >
</g>
<g >
</g>
<g >
</g>
<g >
</g>
<g >
</g>
<g >
</g>
<g >
</g>
<g >
</g>
<g >
</g>
<g >
</g>
<g >
</g>
<g >
</g>
<g >
</g>
<g >
</g>
<g >
</g>
<g >
</g>
<g >
</g>
<g >
</g>
<g >
</g>
<g >
</g>
<g >
</g>
<g >
</g>
<g >
</g>
<g >
</g>
<g >
</g>
<g >
</g>
<g >
</g>
<g >
</g>
<g >
</g>
<g >
</g>
<g >
</g>
<g >
</g>
<g >
</g>
<g >
</g>
<g >
</g>
<g >
</g>
<g >
</g>
<g >
</g>
<g >
</g>
<g >
</g>
<g >
</g>
<g >
</g>
<g >
</g>
<g >
</g>
<g >
</g>
<g >
</g>
<g >
</g>
<g >
</g>
<g >
</g>
<g >
</g>
<g >
</g>
<g >
</g>
<g >
</g>
<g >
</g>
<g >
</g>
<g >
</g>
<g >
</g>
<g >
</g>
<g >
</g>
<g >
</g>
<g >
</g>
<g >
</g>
<g >
</g>
<g >
</g>
<g >
</g>
<g >
</g>
<g >
</g>
</g> 
</svg>
