G04 #@! TF.GenerationSoftware,KiCad,Pcbnew,5.1.6-c6e7f7d~87~ubuntu20.04.1*
G04 #@! TF.CreationDate,2020-11-25T16:37:26-08:00*
G04 #@! TF.ProjectId,staggared Plate,73746167-6761-4726-9564-20506c617465,rev?*
G04 #@! TF.SameCoordinates,Original*
G04 #@! TF.FileFunction,Legend,Bot*
G04 #@! TF.FilePolarity,Positive*
%FSLAX46Y46*%
G04 Gerber Fmt 4.6, Leading zero omitted, Abs format (unit mm)*
G04 Created by KiCad (PCBNEW 5.1.6-c6e7f7d~87~ubuntu20.04.1) date 2020-11-25 16:37:26*
%MOMM*%
%LPD*%
G01*
G04 APERTURE LIST*
%ADD10C,0.150000*%
G04 APERTURE END LIST*
D10*
X52056207Y-34091420D02*
X52056207Y-33091420D01*
X51484779Y-34091420D02*
X51913350Y-33519992D01*
X51484779Y-33091420D02*
X52056207Y-33662849D01*
X51294302Y-34186659D02*
X50532398Y-34186659D01*
X50341921Y-33186659D02*
X50294302Y-33139040D01*
X50199064Y-33091420D01*
X49960969Y-33091420D01*
X49865731Y-33139040D01*
X49818112Y-33186659D01*
X49770493Y-33281897D01*
X49770493Y-33377135D01*
X49818112Y-33519992D01*
X50389540Y-34091420D01*
X49770493Y-34091420D01*
X238269898Y-52141420D02*
X238269898Y-51141420D01*
X237698469Y-52141420D02*
X238127040Y-51569992D01*
X237698469Y-51141420D02*
X238269898Y-51712849D01*
X237507993Y-52236659D02*
X236746088Y-52236659D01*
X236555612Y-51236659D02*
X236507993Y-51189040D01*
X236412755Y-51141420D01*
X236174660Y-51141420D01*
X236079421Y-51189040D01*
X236031802Y-51236659D01*
X235984183Y-51331897D01*
X235984183Y-51427135D01*
X236031802Y-51569992D01*
X236603231Y-52141420D01*
X235984183Y-52141420D01*
X235650850Y-51141420D02*
X235031802Y-51141420D01*
X235365136Y-51522373D01*
X235222279Y-51522373D01*
X235127040Y-51569992D01*
X235079421Y-51617611D01*
X235031802Y-51712849D01*
X235031802Y-51950944D01*
X235079421Y-52046182D01*
X235127040Y-52093801D01*
X235222279Y-52141420D01*
X235507993Y-52141420D01*
X235603231Y-52093801D01*
X235650850Y-52046182D01*
X214457398Y-52141420D02*
X214457398Y-51141420D01*
X213885969Y-52141420D02*
X214314540Y-51569992D01*
X213885969Y-51141420D02*
X214457398Y-51712849D01*
X213695493Y-52236659D02*
X212933588Y-52236659D01*
X212743112Y-51236659D02*
X212695493Y-51189040D01*
X212600255Y-51141420D01*
X212362160Y-51141420D01*
X212266921Y-51189040D01*
X212219302Y-51236659D01*
X212171683Y-51331897D01*
X212171683Y-51427135D01*
X212219302Y-51569992D01*
X212790731Y-52141420D01*
X212171683Y-52141420D01*
X211790731Y-51236659D02*
X211743112Y-51189040D01*
X211647874Y-51141420D01*
X211409779Y-51141420D01*
X211314540Y-51189040D01*
X211266921Y-51236659D01*
X211219302Y-51331897D01*
X211219302Y-51427135D01*
X211266921Y-51569992D01*
X211838350Y-52141420D01*
X211219302Y-52141420D01*
X195407398Y-52141420D02*
X195407398Y-51141420D01*
X194835969Y-52141420D02*
X195264540Y-51569992D01*
X194835969Y-51141420D02*
X195407398Y-51712849D01*
X194645493Y-52236659D02*
X193883588Y-52236659D01*
X193693112Y-51236659D02*
X193645493Y-51189040D01*
X193550255Y-51141420D01*
X193312160Y-51141420D01*
X193216921Y-51189040D01*
X193169302Y-51236659D01*
X193121683Y-51331897D01*
X193121683Y-51427135D01*
X193169302Y-51569992D01*
X193740731Y-52141420D01*
X193121683Y-52141420D01*
X192169302Y-52141420D02*
X192740731Y-52141420D01*
X192455017Y-52141420D02*
X192455017Y-51141420D01*
X192550255Y-51284278D01*
X192645493Y-51379516D01*
X192740731Y-51427135D01*
X176357398Y-52141420D02*
X176357398Y-51141420D01*
X175785969Y-52141420D02*
X176214540Y-51569992D01*
X175785969Y-51141420D02*
X176357398Y-51712849D01*
X175595493Y-52236659D02*
X174833588Y-52236659D01*
X174643112Y-51236659D02*
X174595493Y-51189040D01*
X174500255Y-51141420D01*
X174262160Y-51141420D01*
X174166921Y-51189040D01*
X174119302Y-51236659D01*
X174071683Y-51331897D01*
X174071683Y-51427135D01*
X174119302Y-51569992D01*
X174690731Y-52141420D01*
X174071683Y-52141420D01*
X173452636Y-51141420D02*
X173357398Y-51141420D01*
X173262160Y-51189040D01*
X173214540Y-51236659D01*
X173166921Y-51331897D01*
X173119302Y-51522373D01*
X173119302Y-51760468D01*
X173166921Y-51950944D01*
X173214540Y-52046182D01*
X173262160Y-52093801D01*
X173357398Y-52141420D01*
X173452636Y-52141420D01*
X173547874Y-52093801D01*
X173595493Y-52046182D01*
X173643112Y-51950944D01*
X173690731Y-51760468D01*
X173690731Y-51522373D01*
X173643112Y-51331897D01*
X173595493Y-51236659D01*
X173547874Y-51189040D01*
X173452636Y-51141420D01*
X157307398Y-52141420D02*
X157307398Y-51141420D01*
X156735969Y-52141420D02*
X157164540Y-51569992D01*
X156735969Y-51141420D02*
X157307398Y-51712849D01*
X156545493Y-52236659D02*
X155783588Y-52236659D01*
X155021683Y-52141420D02*
X155593112Y-52141420D01*
X155307398Y-52141420D02*
X155307398Y-51141420D01*
X155402636Y-51284278D01*
X155497874Y-51379516D01*
X155593112Y-51427135D01*
X154545493Y-52141420D02*
X154355017Y-52141420D01*
X154259779Y-52093801D01*
X154212160Y-52046182D01*
X154116921Y-51903325D01*
X154069302Y-51712849D01*
X154069302Y-51331897D01*
X154116921Y-51236659D01*
X154164540Y-51189040D01*
X154259779Y-51141420D01*
X154450255Y-51141420D01*
X154545493Y-51189040D01*
X154593112Y-51236659D01*
X154640731Y-51331897D01*
X154640731Y-51569992D01*
X154593112Y-51665230D01*
X154545493Y-51712849D01*
X154450255Y-51760468D01*
X154259779Y-51760468D01*
X154164540Y-51712849D01*
X154116921Y-51665230D01*
X154069302Y-51569992D01*
X138257398Y-52141420D02*
X138257398Y-51141420D01*
X137685969Y-52141420D02*
X138114540Y-51569992D01*
X137685969Y-51141420D02*
X138257398Y-51712849D01*
X137495493Y-52236659D02*
X136733588Y-52236659D01*
X135971683Y-52141420D02*
X136543112Y-52141420D01*
X136257398Y-52141420D02*
X136257398Y-51141420D01*
X136352636Y-51284278D01*
X136447874Y-51379516D01*
X136543112Y-51427135D01*
X135400255Y-51569992D02*
X135495493Y-51522373D01*
X135543112Y-51474754D01*
X135590731Y-51379516D01*
X135590731Y-51331897D01*
X135543112Y-51236659D01*
X135495493Y-51189040D01*
X135400255Y-51141420D01*
X135209779Y-51141420D01*
X135114540Y-51189040D01*
X135066921Y-51236659D01*
X135019302Y-51331897D01*
X135019302Y-51379516D01*
X135066921Y-51474754D01*
X135114540Y-51522373D01*
X135209779Y-51569992D01*
X135400255Y-51569992D01*
X135495493Y-51617611D01*
X135543112Y-51665230D01*
X135590731Y-51760468D01*
X135590731Y-51950944D01*
X135543112Y-52046182D01*
X135495493Y-52093801D01*
X135400255Y-52141420D01*
X135209779Y-52141420D01*
X135114540Y-52093801D01*
X135066921Y-52046182D01*
X135019302Y-51950944D01*
X135019302Y-51760468D01*
X135066921Y-51665230D01*
X135114540Y-51617611D01*
X135209779Y-51569992D01*
X119207398Y-52141420D02*
X119207398Y-51141420D01*
X118635969Y-52141420D02*
X119064540Y-51569992D01*
X118635969Y-51141420D02*
X119207398Y-51712849D01*
X118445493Y-52236659D02*
X117683588Y-52236659D01*
X116921683Y-52141420D02*
X117493112Y-52141420D01*
X117207398Y-52141420D02*
X117207398Y-51141420D01*
X117302636Y-51284278D01*
X117397874Y-51379516D01*
X117493112Y-51427135D01*
X116588350Y-51141420D02*
X115921683Y-51141420D01*
X116350255Y-52141420D01*
X100157398Y-52141420D02*
X100157398Y-51141420D01*
X99585969Y-52141420D02*
X100014540Y-51569992D01*
X99585969Y-51141420D02*
X100157398Y-51712849D01*
X99395493Y-52236659D02*
X98633588Y-52236659D01*
X97871683Y-52141420D02*
X98443112Y-52141420D01*
X98157398Y-52141420D02*
X98157398Y-51141420D01*
X98252636Y-51284278D01*
X98347874Y-51379516D01*
X98443112Y-51427135D01*
X97014540Y-51141420D02*
X97205017Y-51141420D01*
X97300255Y-51189040D01*
X97347874Y-51236659D01*
X97443112Y-51379516D01*
X97490731Y-51569992D01*
X97490731Y-51950944D01*
X97443112Y-52046182D01*
X97395493Y-52093801D01*
X97300255Y-52141420D01*
X97109779Y-52141420D01*
X97014540Y-52093801D01*
X96966921Y-52046182D01*
X96919302Y-51950944D01*
X96919302Y-51712849D01*
X96966921Y-51617611D01*
X97014540Y-51569992D01*
X97109779Y-51522373D01*
X97300255Y-51522373D01*
X97395493Y-51569992D01*
X97443112Y-51617611D01*
X97490731Y-51712849D01*
X81107398Y-52141420D02*
X81107398Y-51141420D01*
X80535969Y-52141420D02*
X80964540Y-51569992D01*
X80535969Y-51141420D02*
X81107398Y-51712849D01*
X80345493Y-52236659D02*
X79583588Y-52236659D01*
X78821683Y-52141420D02*
X79393112Y-52141420D01*
X79107398Y-52141420D02*
X79107398Y-51141420D01*
X79202636Y-51284278D01*
X79297874Y-51379516D01*
X79393112Y-51427135D01*
X77916921Y-51141420D02*
X78393112Y-51141420D01*
X78440731Y-51617611D01*
X78393112Y-51569992D01*
X78297874Y-51522373D01*
X78059779Y-51522373D01*
X77964540Y-51569992D01*
X77916921Y-51617611D01*
X77869302Y-51712849D01*
X77869302Y-51950944D01*
X77916921Y-52046182D01*
X77964540Y-52093801D01*
X78059779Y-52141420D01*
X78297874Y-52141420D01*
X78393112Y-52093801D01*
X78440731Y-52046182D01*
X62057398Y-52141420D02*
X62057398Y-51141420D01*
X61485969Y-52141420D02*
X61914540Y-51569992D01*
X61485969Y-51141420D02*
X62057398Y-51712849D01*
X61295493Y-52236659D02*
X60533588Y-52236659D01*
X59771683Y-52141420D02*
X60343112Y-52141420D01*
X60057398Y-52141420D02*
X60057398Y-51141420D01*
X60152636Y-51284278D01*
X60247874Y-51379516D01*
X60343112Y-51427135D01*
X58914540Y-51474754D02*
X58914540Y-52141420D01*
X59152636Y-51093801D02*
X59390731Y-51808087D01*
X58771683Y-51808087D01*
X243032398Y-34091420D02*
X243032398Y-33091420D01*
X242460969Y-34091420D02*
X242889540Y-33519992D01*
X242460969Y-33091420D02*
X243032398Y-33662849D01*
X242270493Y-34186659D02*
X241508588Y-34186659D01*
X240746683Y-34091420D02*
X241318112Y-34091420D01*
X241032398Y-34091420D02*
X241032398Y-33091420D01*
X241127636Y-33234278D01*
X241222874Y-33329516D01*
X241318112Y-33377135D01*
X240365731Y-33186659D02*
X240318112Y-33139040D01*
X240222874Y-33091420D01*
X239984779Y-33091420D01*
X239889540Y-33139040D01*
X239841921Y-33186659D01*
X239794302Y-33281897D01*
X239794302Y-33377135D01*
X239841921Y-33519992D01*
X240413350Y-34091420D01*
X239794302Y-34091420D01*
X223982398Y-34091420D02*
X223982398Y-33091420D01*
X223410969Y-34091420D02*
X223839540Y-33519992D01*
X223410969Y-33091420D02*
X223982398Y-33662849D01*
X223220493Y-34186659D02*
X222458588Y-34186659D01*
X221696683Y-34091420D02*
X222268112Y-34091420D01*
X221982398Y-34091420D02*
X221982398Y-33091420D01*
X222077636Y-33234278D01*
X222172874Y-33329516D01*
X222268112Y-33377135D01*
X220744302Y-34091420D02*
X221315731Y-34091420D01*
X221030017Y-34091420D02*
X221030017Y-33091420D01*
X221125255Y-33234278D01*
X221220493Y-33329516D01*
X221315731Y-33377135D01*
X204932398Y-34091420D02*
X204932398Y-33091420D01*
X204360969Y-34091420D02*
X204789540Y-33519992D01*
X204360969Y-33091420D02*
X204932398Y-33662849D01*
X204170493Y-34186659D02*
X203408588Y-34186659D01*
X202646683Y-34091420D02*
X203218112Y-34091420D01*
X202932398Y-34091420D02*
X202932398Y-33091420D01*
X203027636Y-33234278D01*
X203122874Y-33329516D01*
X203218112Y-33377135D01*
X202027636Y-33091420D02*
X201932398Y-33091420D01*
X201837160Y-33139040D01*
X201789540Y-33186659D01*
X201741921Y-33281897D01*
X201694302Y-33472373D01*
X201694302Y-33710468D01*
X201741921Y-33900944D01*
X201789540Y-33996182D01*
X201837160Y-34043801D01*
X201932398Y-34091420D01*
X202027636Y-34091420D01*
X202122874Y-34043801D01*
X202170493Y-33996182D01*
X202218112Y-33900944D01*
X202265731Y-33710468D01*
X202265731Y-33472373D01*
X202218112Y-33281897D01*
X202170493Y-33186659D01*
X202122874Y-33139040D01*
X202027636Y-33091420D01*
X185406207Y-34091420D02*
X185406207Y-33091420D01*
X184834779Y-34091420D02*
X185263350Y-33519992D01*
X184834779Y-33091420D02*
X185406207Y-33662849D01*
X184644302Y-34186659D02*
X183882398Y-34186659D01*
X183596683Y-34091420D02*
X183406207Y-34091420D01*
X183310969Y-34043801D01*
X183263350Y-33996182D01*
X183168112Y-33853325D01*
X183120493Y-33662849D01*
X183120493Y-33281897D01*
X183168112Y-33186659D01*
X183215731Y-33139040D01*
X183310969Y-33091420D01*
X183501445Y-33091420D01*
X183596683Y-33139040D01*
X183644302Y-33186659D01*
X183691921Y-33281897D01*
X183691921Y-33519992D01*
X183644302Y-33615230D01*
X183596683Y-33662849D01*
X183501445Y-33710468D01*
X183310969Y-33710468D01*
X183215731Y-33662849D01*
X183168112Y-33615230D01*
X183120493Y-33519992D01*
X166356207Y-34091420D02*
X166356207Y-33091420D01*
X165784779Y-34091420D02*
X166213350Y-33519992D01*
X165784779Y-33091420D02*
X166356207Y-33662849D01*
X165594302Y-34186659D02*
X164832398Y-34186659D01*
X164451445Y-33519992D02*
X164546683Y-33472373D01*
X164594302Y-33424754D01*
X164641921Y-33329516D01*
X164641921Y-33281897D01*
X164594302Y-33186659D01*
X164546683Y-33139040D01*
X164451445Y-33091420D01*
X164260969Y-33091420D01*
X164165731Y-33139040D01*
X164118112Y-33186659D01*
X164070493Y-33281897D01*
X164070493Y-33329516D01*
X164118112Y-33424754D01*
X164165731Y-33472373D01*
X164260969Y-33519992D01*
X164451445Y-33519992D01*
X164546683Y-33567611D01*
X164594302Y-33615230D01*
X164641921Y-33710468D01*
X164641921Y-33900944D01*
X164594302Y-33996182D01*
X164546683Y-34043801D01*
X164451445Y-34091420D01*
X164260969Y-34091420D01*
X164165731Y-34043801D01*
X164118112Y-33996182D01*
X164070493Y-33900944D01*
X164070493Y-33710468D01*
X164118112Y-33615230D01*
X164165731Y-33567611D01*
X164260969Y-33519992D01*
X147306207Y-34091420D02*
X147306207Y-33091420D01*
X146734779Y-34091420D02*
X147163350Y-33519992D01*
X146734779Y-33091420D02*
X147306207Y-33662849D01*
X146544302Y-34186659D02*
X145782398Y-34186659D01*
X145639540Y-33091420D02*
X144972874Y-33091420D01*
X145401445Y-34091420D01*
X128256207Y-34091420D02*
X128256207Y-33091420D01*
X127684779Y-34091420D02*
X128113350Y-33519992D01*
X127684779Y-33091420D02*
X128256207Y-33662849D01*
X127494302Y-34186659D02*
X126732398Y-34186659D01*
X126065731Y-33091420D02*
X126256207Y-33091420D01*
X126351445Y-33139040D01*
X126399064Y-33186659D01*
X126494302Y-33329516D01*
X126541921Y-33519992D01*
X126541921Y-33900944D01*
X126494302Y-33996182D01*
X126446683Y-34043801D01*
X126351445Y-34091420D01*
X126160969Y-34091420D01*
X126065731Y-34043801D01*
X126018112Y-33996182D01*
X125970493Y-33900944D01*
X125970493Y-33662849D01*
X126018112Y-33567611D01*
X126065731Y-33519992D01*
X126160969Y-33472373D01*
X126351445Y-33472373D01*
X126446683Y-33519992D01*
X126494302Y-33567611D01*
X126541921Y-33662849D01*
X109206207Y-34091420D02*
X109206207Y-33091420D01*
X108634779Y-34091420D02*
X109063350Y-33519992D01*
X108634779Y-33091420D02*
X109206207Y-33662849D01*
X108444302Y-34186659D02*
X107682398Y-34186659D01*
X106968112Y-33091420D02*
X107444302Y-33091420D01*
X107491921Y-33567611D01*
X107444302Y-33519992D01*
X107349064Y-33472373D01*
X107110969Y-33472373D01*
X107015731Y-33519992D01*
X106968112Y-33567611D01*
X106920493Y-33662849D01*
X106920493Y-33900944D01*
X106968112Y-33996182D01*
X107015731Y-34043801D01*
X107110969Y-34091420D01*
X107349064Y-34091420D01*
X107444302Y-34043801D01*
X107491921Y-33996182D01*
X90156207Y-34091420D02*
X90156207Y-33091420D01*
X89584779Y-34091420D02*
X90013350Y-33519992D01*
X89584779Y-33091420D02*
X90156207Y-33662849D01*
X89394302Y-34186659D02*
X88632398Y-34186659D01*
X87965731Y-33424754D02*
X87965731Y-34091420D01*
X88203826Y-33043801D02*
X88441921Y-33758087D01*
X87822874Y-33758087D01*
X71106207Y-34091420D02*
X71106207Y-33091420D01*
X70534779Y-34091420D02*
X70963350Y-33519992D01*
X70534779Y-33091420D02*
X71106207Y-33662849D01*
X70344302Y-34186659D02*
X69582398Y-34186659D01*
X69439540Y-33091420D02*
X68820493Y-33091420D01*
X69153826Y-33472373D01*
X69010969Y-33472373D01*
X68915731Y-33519992D01*
X68868112Y-33567611D01*
X68820493Y-33662849D01*
X68820493Y-33900944D01*
X68868112Y-33996182D01*
X68915731Y-34043801D01*
X69010969Y-34091420D01*
X69296683Y-34091420D01*
X69391921Y-34043801D01*
X69439540Y-33996182D01*
X33006207Y-34091420D02*
X33006207Y-33091420D01*
X32434779Y-34091420D02*
X32863350Y-33519992D01*
X32434779Y-33091420D02*
X33006207Y-33662849D01*
X32244302Y-34186659D02*
X31482398Y-34186659D01*
X30720493Y-34091420D02*
X31291921Y-34091420D01*
X31006207Y-34091420D02*
X31006207Y-33091420D01*
X31101445Y-33234278D01*
X31196683Y-33329516D01*
X31291921Y-33377135D01*
M02*
