G04 #@! TF.GenerationSoftware,KiCad,Pcbnew,5.1.6-c6e7f7d~87~ubuntu20.04.1*
G04 #@! TF.CreationDate,2020-11-25T16:37:26-08:00*
G04 #@! TF.ProjectId,staggared Plate,73746167-6761-4726-9564-20506c617465,rev?*
G04 #@! TF.SameCoordinates,Original*
G04 #@! TF.FileFunction,Profile,NP*
%FSLAX46Y46*%
G04 Gerber Fmt 4.6, Leading zero omitted, Abs format (unit mm)*
G04 Created by KiCad (PCBNEW 5.1.6-c6e7f7d~87~ubuntu20.04.1) date 2020-11-25 16:37:26*
%MOMM*%
%LPD*%
G01*
G04 APERTURE LIST*
G04 #@! TA.AperFunction,Profile*
%ADD10C,0.200000*%
G04 #@! TD*
G04 #@! TA.AperFunction,Profile*
%ADD11C,0.150000*%
G04 #@! TD*
G04 APERTURE END LIST*
D10*
X23915480Y-95299680D02*
G75*
G02*
X20915480Y-92299680I0J3000000D01*
G01*
X20915480Y-22099680D02*
G75*
G02*
X23915480Y-19099680I3000000J0D01*
G01*
X249535480Y-19099680D02*
X23915480Y-19099680D01*
X252535480Y-92299680D02*
X252535480Y-22099680D01*
X20915480Y-22099680D02*
X20915480Y-92299680D01*
X249535480Y-19099680D02*
G75*
G02*
X252535480Y-22099680I0J-3000000D01*
G01*
X23915480Y-95299680D02*
X249535480Y-95299680D01*
X252535480Y-92299680D02*
G75*
G02*
X249535480Y-95299680I-3000000J0D01*
G01*
D11*
X57993040Y-37124400D02*
X57993040Y-23124400D01*
X43993040Y-37124400D02*
X57993040Y-37124400D01*
X43993040Y-23124400D02*
X43993040Y-37124400D01*
X57993040Y-23124400D02*
X43993040Y-23124400D01*
X243730540Y-55174400D02*
X243730540Y-41174400D01*
X229730540Y-55174400D02*
X243730540Y-55174400D01*
X229730540Y-41174400D02*
X229730540Y-55174400D01*
X243730540Y-41174400D02*
X229730540Y-41174400D01*
X219918040Y-55174400D02*
X219918040Y-41174400D01*
X205918040Y-55174400D02*
X219918040Y-55174400D01*
X205918040Y-41174400D02*
X205918040Y-55174400D01*
X219918040Y-41174400D02*
X205918040Y-41174400D01*
X200868040Y-55174400D02*
X200868040Y-41174400D01*
X186868040Y-55174400D02*
X200868040Y-55174400D01*
X186868040Y-41174400D02*
X186868040Y-55174400D01*
X200868040Y-41174400D02*
X186868040Y-41174400D01*
X181818040Y-55174400D02*
X181818040Y-41174400D01*
X167818040Y-55174400D02*
X181818040Y-55174400D01*
X167818040Y-41174400D02*
X167818040Y-55174400D01*
X181818040Y-41174400D02*
X167818040Y-41174400D01*
X162768040Y-55174400D02*
X162768040Y-41174400D01*
X148768040Y-55174400D02*
X162768040Y-55174400D01*
X148768040Y-41174400D02*
X148768040Y-55174400D01*
X162768040Y-41174400D02*
X148768040Y-41174400D01*
X143718040Y-55174400D02*
X143718040Y-41174400D01*
X129718040Y-55174400D02*
X143718040Y-55174400D01*
X129718040Y-41174400D02*
X129718040Y-55174400D01*
X143718040Y-41174400D02*
X129718040Y-41174400D01*
X124668040Y-55174400D02*
X124668040Y-41174400D01*
X110668040Y-55174400D02*
X124668040Y-55174400D01*
X110668040Y-41174400D02*
X110668040Y-55174400D01*
X124668040Y-41174400D02*
X110668040Y-41174400D01*
X105618040Y-55174400D02*
X105618040Y-41174400D01*
X91618040Y-55174400D02*
X105618040Y-55174400D01*
X91618040Y-41174400D02*
X91618040Y-55174400D01*
X105618040Y-41174400D02*
X91618040Y-41174400D01*
X86568040Y-55174400D02*
X86568040Y-41174400D01*
X72568040Y-55174400D02*
X86568040Y-55174400D01*
X72568040Y-41174400D02*
X72568040Y-55174400D01*
X86568040Y-41174400D02*
X72568040Y-41174400D01*
X67518040Y-55174400D02*
X67518040Y-41174400D01*
X53518040Y-55174400D02*
X67518040Y-55174400D01*
X53518040Y-41174400D02*
X53518040Y-55174400D01*
X67518040Y-41174400D02*
X53518040Y-41174400D01*
X248493040Y-37124400D02*
X248493040Y-23124400D01*
X234493040Y-37124400D02*
X248493040Y-37124400D01*
X234493040Y-23124400D02*
X234493040Y-37124400D01*
X248493040Y-23124400D02*
X234493040Y-23124400D01*
X229443040Y-37124400D02*
X229443040Y-23124400D01*
X215443040Y-37124400D02*
X229443040Y-37124400D01*
X215443040Y-23124400D02*
X215443040Y-37124400D01*
X229443040Y-23124400D02*
X215443040Y-23124400D01*
X210393040Y-37124400D02*
X210393040Y-23124400D01*
X196393040Y-37124400D02*
X210393040Y-37124400D01*
X196393040Y-23124400D02*
X196393040Y-37124400D01*
X210393040Y-23124400D02*
X196393040Y-23124400D01*
X191343040Y-37124400D02*
X191343040Y-23124400D01*
X177343040Y-37124400D02*
X191343040Y-37124400D01*
X177343040Y-23124400D02*
X177343040Y-37124400D01*
X191343040Y-23124400D02*
X177343040Y-23124400D01*
X172293040Y-37124400D02*
X172293040Y-23124400D01*
X158293040Y-37124400D02*
X172293040Y-37124400D01*
X158293040Y-23124400D02*
X158293040Y-37124400D01*
X172293040Y-23124400D02*
X158293040Y-23124400D01*
X153243040Y-37124400D02*
X153243040Y-23124400D01*
X139243040Y-37124400D02*
X153243040Y-37124400D01*
X139243040Y-23124400D02*
X139243040Y-37124400D01*
X153243040Y-23124400D02*
X139243040Y-23124400D01*
X134193040Y-37124400D02*
X134193040Y-23124400D01*
X120193040Y-37124400D02*
X134193040Y-37124400D01*
X120193040Y-23124400D02*
X120193040Y-37124400D01*
X134193040Y-23124400D02*
X120193040Y-23124400D01*
X115143040Y-37124400D02*
X115143040Y-23124400D01*
X101143040Y-37124400D02*
X115143040Y-37124400D01*
X101143040Y-23124400D02*
X101143040Y-37124400D01*
X115143040Y-23124400D02*
X101143040Y-23124400D01*
X96093040Y-37124400D02*
X96093040Y-23124400D01*
X82093040Y-37124400D02*
X96093040Y-37124400D01*
X82093040Y-23124400D02*
X82093040Y-37124400D01*
X96093040Y-23124400D02*
X82093040Y-23124400D01*
X77043040Y-37124400D02*
X77043040Y-23124400D01*
X63043040Y-37124400D02*
X77043040Y-37124400D01*
X63043040Y-23124400D02*
X63043040Y-37124400D01*
X77043040Y-23124400D02*
X63043040Y-23124400D01*
X38943040Y-37124400D02*
X38943040Y-23124400D01*
X24943040Y-37124400D02*
X38943040Y-37124400D01*
X24943040Y-23124400D02*
X24943040Y-37124400D01*
X38943040Y-23124400D02*
X24943040Y-23124400D01*
X43715700Y-55177960D02*
X43715700Y-41177960D01*
X29715700Y-55177960D02*
X43715700Y-55177960D01*
X29715700Y-41177960D02*
X29715700Y-55177960D01*
X43715700Y-41177960D02*
X29715700Y-41177960D01*
X100865700Y-91277960D02*
X100865700Y-77277960D01*
X86865700Y-91277960D02*
X100865700Y-91277960D01*
X86865700Y-77277960D02*
X86865700Y-91277960D01*
X100865700Y-77277960D02*
X86865700Y-77277960D01*
X129440700Y-91277960D02*
X129440700Y-77277960D01*
X115440700Y-91277960D02*
X129440700Y-91277960D01*
X115440700Y-77277960D02*
X115440700Y-91277960D01*
X129440700Y-77277960D02*
X115440700Y-77277960D01*
X158015700Y-91277960D02*
X158015700Y-77277960D01*
X144015700Y-91277960D02*
X158015700Y-91277960D01*
X144015700Y-77277960D02*
X144015700Y-91277960D01*
X158015700Y-77277960D02*
X144015700Y-77277960D01*
X186590700Y-91277960D02*
X186590700Y-77277960D01*
X172590700Y-91277960D02*
X186590700Y-91277960D01*
X172590700Y-77277960D02*
X172590700Y-91277960D01*
X186590700Y-77277960D02*
X172590700Y-77277960D01*
X38953200Y-73227960D02*
X38953200Y-59227960D01*
X24953200Y-73227960D02*
X38953200Y-73227960D01*
X24953200Y-59227960D02*
X24953200Y-73227960D01*
X38953200Y-59227960D02*
X24953200Y-59227960D01*
X58003200Y-73227960D02*
X58003200Y-59227960D01*
X44003200Y-73227960D02*
X58003200Y-73227960D01*
X44003200Y-59227960D02*
X44003200Y-73227960D01*
X58003200Y-59227960D02*
X44003200Y-59227960D01*
X77053200Y-73227960D02*
X77053200Y-59227960D01*
X63053200Y-73227960D02*
X77053200Y-73227960D01*
X63053200Y-59227960D02*
X63053200Y-73227960D01*
X77053200Y-59227960D02*
X63053200Y-59227960D01*
X96103200Y-73227960D02*
X96103200Y-59227960D01*
X82103200Y-73227960D02*
X96103200Y-73227960D01*
X82103200Y-59227960D02*
X82103200Y-73227960D01*
X96103200Y-59227960D02*
X82103200Y-59227960D01*
X115153200Y-73227960D02*
X115153200Y-59227960D01*
X101153200Y-73227960D02*
X115153200Y-73227960D01*
X101153200Y-59227960D02*
X101153200Y-73227960D01*
X115153200Y-59227960D02*
X101153200Y-59227960D01*
X134203200Y-73227960D02*
X134203200Y-59227960D01*
X120203200Y-73227960D02*
X134203200Y-73227960D01*
X120203200Y-59227960D02*
X120203200Y-73227960D01*
X134203200Y-59227960D02*
X120203200Y-59227960D01*
X153253200Y-73227960D02*
X153253200Y-59227960D01*
X139253200Y-73227960D02*
X153253200Y-73227960D01*
X139253200Y-59227960D02*
X139253200Y-73227960D01*
X153253200Y-59227960D02*
X139253200Y-59227960D01*
X172303200Y-73227960D02*
X172303200Y-59227960D01*
X158303200Y-73227960D02*
X172303200Y-73227960D01*
X158303200Y-59227960D02*
X158303200Y-73227960D01*
X172303200Y-59227960D02*
X158303200Y-59227960D01*
X191353200Y-73227960D02*
X191353200Y-59227960D01*
X177353200Y-73227960D02*
X191353200Y-73227960D01*
X177353200Y-59227960D02*
X177353200Y-73227960D01*
X191353200Y-59227960D02*
X177353200Y-59227960D01*
X210403200Y-73227960D02*
X210403200Y-59227960D01*
X196403200Y-73227960D02*
X210403200Y-73227960D01*
X196403200Y-59227960D02*
X196403200Y-73227960D01*
X210403200Y-59227960D02*
X196403200Y-59227960D01*
X229453200Y-73227960D02*
X229453200Y-59227960D01*
X215453200Y-73227960D02*
X229453200Y-73227960D01*
X215453200Y-59227960D02*
X215453200Y-73227960D01*
X229453200Y-59227960D02*
X215453200Y-59227960D01*
X248503200Y-73227960D02*
X248503200Y-59227960D01*
X234503200Y-73227960D02*
X248503200Y-73227960D01*
X234503200Y-59227960D02*
X234503200Y-73227960D01*
X248503200Y-59227960D02*
X234503200Y-59227960D01*
X38953200Y-91277960D02*
X38953200Y-77277960D01*
X24953200Y-91277960D02*
X38953200Y-91277960D01*
X24953200Y-77277960D02*
X24953200Y-91277960D01*
X38953200Y-77277960D02*
X24953200Y-77277960D01*
X58003200Y-91277960D02*
X58003200Y-77277960D01*
X44003200Y-91277960D02*
X58003200Y-91277960D01*
X44003200Y-77277960D02*
X44003200Y-91277960D01*
X58003200Y-77277960D02*
X44003200Y-77277960D01*
X77053200Y-91277960D02*
X77053200Y-77277960D01*
X63053200Y-91277960D02*
X77053200Y-91277960D01*
X63053200Y-77277960D02*
X63053200Y-91277960D01*
X77053200Y-77277960D02*
X63053200Y-77277960D01*
X210403200Y-91277960D02*
X210403200Y-77277960D01*
X196403200Y-91277960D02*
X210403200Y-91277960D01*
X196403200Y-77277960D02*
X196403200Y-91277960D01*
X210403200Y-77277960D02*
X196403200Y-77277960D01*
X229453200Y-91277960D02*
X229453200Y-77277960D01*
X215453200Y-91277960D02*
X229453200Y-91277960D01*
X215453200Y-77277960D02*
X215453200Y-91277960D01*
X229453200Y-77277960D02*
X215453200Y-77277960D01*
X248503200Y-91277960D02*
X248503200Y-77277960D01*
X234503200Y-91277960D02*
X248503200Y-91277960D01*
X234503200Y-77277960D02*
X234503200Y-91277960D01*
X248503200Y-77277960D02*
X234503200Y-77277960D01*
M02*
