<?xml version="1.0" standalone="no"?>
 <!DOCTYPE svg PUBLIC "-//W3C//DTD SVG 1.1//EN" 
 "http://www.w3.org/Graphics/SVG/1.1/DTD/svg11.dtd"> 
<svg
  xmlns:svg="http://www.w3.org/2000/svg"
  xmlns="http://www.w3.org/2000/svg"
  xmlns:xlink="http://www.w3.org/1999/xlink"
  version="1.1"
  width="29.700220cm" height="21.000720cm" viewBox="0 0 297002200 210007200">
<title>SVG Picture created as uni_corne_plate_left-B_Mask.svg date 2023/03/10 14:28:29 </title>
  <desc>Picture generated by PCBNEW </desc>
<g style="fill:#000000; fill-opacity:1.000000;stroke:#000000; stroke-opacity:1.000000;
stroke-linecap:round; stroke-linejoin:round;"
 transform="translate(0 0) scale(1 1)">
</g>
<g style="fill:#000000; fill-opacity:0.0; 
stroke:#000000; stroke-width:0.000000; stroke-opacity:1; 
stroke-linecap:round; stroke-linejoin:round;">
</g>
<g style="fill:#000000; fill-opacity:0.0; 
stroke:#000000; stroke-width:100000.000000; stroke-opacity:1; 
stroke-linecap:round; stroke-linejoin:round;">
<path d="M167966096.000000 83269142.000001 A500001.000000 500001.000000 0.0 0 0 167466096.000001 83769142.000000" />
<path d="M180665985.999968 46963736.063001 A500001.000000 500001.000000 0.0 0 0 180165734.000001 47463736.000000" />
<circle cx="146325192.000000" cy="61797064.000000" r="1200000.000000" /> 
<path d="M176911897 90021048
L180911897 90021048
" />
<path d="M169116096 88069142
L169116096 85969142
" />
<path d="M143882192 44036564
L143882192 58086564
" />
<path d="M162882192 79461564
L148832192 79461564
" />
<path d="M129832192 58086564
L129832192 44036564
" />
<path d="M86882192 62836564
L72832192 62836564
" />
<path d="M181411897 89521048
L181411897 89069142
" />
<path d="M72832192 67786564
L86882192 67786564
" />
<path d="M92763046.000000 38019142.000000 A5350000.000000 5350000.000000 0.0 0 0 87779301.949032 41423686.980104" />
<path d="M91832192 82036564
L105882192 82036564
" />
<path d="M148832192 79461564
L148832192 65411564
" />
<path d="M143882192 58086564
L129832192 58086564
" />
<path d="M153324617 120040397
L139753359 116403989
" />
<path d="M146970003.357715 40329368.753012 A5349997.000000 5349997.000000 0.0 0 0 142567472.000000 38019142.000000" />
<path d="M156961025 106469139
L153324617 120040397
" />
<path d="M179665734 52826274
L171415734 52826274
" />
<path d="M110832192 55711564
L110832192 41661564
" />
<path d="M167532441.064372 131627010.888374 A5349999.000000 5349999.000000 0.0 0 0 174839684.570695 129665076.752431" />
<path d="M180911897.000000 90021047.999999 A500001.000000 500001.000000 0.0 0 0 181411896.999999 89521048.000000" />
<path d="M167466096 84969142
L167466096 83769142
" />
<path d="M170915734 52326274
L170915734 47458572
" />
<path d="M156235638 125112421
L167532441 131627011
" />
<path d="M53832192 62836564
L53832192 48786564
" />
<path d="M91832192 63036564
L105882192 63036564
" />
<circle cx="183051192.000000" cy="102806564.000000" r="2100000.000000" /> 
<path d="M110832192 74711564
L110832192 60661564
" />
<path d="M182540733 42776196
L182540437 45364057
" />
<path d="M124882192 41661564
L124882192 55711564
" />
<path d="M67882192 81836564
L53832192 81836564
" />
<path d="M170915734.000001 52326274.000000 A500001.000000 500001.000000 0.0 0 0 171415734.000000 52826273.999999" />
<path d="M134382192 115711564
L120332192 115711564
" />
<path d="M143882192 82036564
L143882192 96086564
" />
<circle cx="160080192.000000" cy="109166564.000000" r="1200000.000000" /> 
<path d="M170915733.999996 47458572.000000 A499998.000000 499998.000000 0.0 0 0 170415985.999969 46958572.062500" />
<path d="M148832192 84411564
L162882192 84411564
" />
<path d="M82516096 45019142
L55516096 45019142
" />
<path d="M187616096 101197891
L186401897 101197891
" />
<path d="M139753359 116403989
L143389767 102832732
" />
<path d="M124882192 79661564
L124882192 93711564
" />
<path d="M168540733 42769142
L151619405 42769142
" />
<path d="M50166096 50369142
L50166096 99619142
" />
<path d="M168035864 105590236
L180203521 112615236
" />
<path d="M105882192 82036564
L105882192 96086564
" />
<path d="M169116095.999999 85969142.000000 A500001.000000 500001.000000 0.0 0 0 168616096.000000 85469142.000001" />
<path d="M67882192 48786564
L67882192 62836564
" />
<path d="M110832192 93711564
L110832192 79661564
" />
<path d="M110832192 60661564
L124882192 60661564
" />
<path d="M67882192 100836564
L53832192 100836564
" />
<path d="M180911897 88569142
L169616096 88569142
" />
<path d="M86882192 67786564
L86882192 81836564
" />
<path d="M148832192 98461564
L148832192 84411564
" />
<path d="M91832192 58086564
L91832192 44036564
" />
<path d="M187616096.000000 48119142.000000 A5350000.000000 5350000.000000 0.0 0 0 182540733.012278 42776195.761127" />
<path d="M176411897 99101048
L176411897 90521048
" />
<path d="M186716096 87201768
L187616096 87201768
" />
<circle cx="113514192.000000" cy="101552064.000000" r="1200000.000000" /> 
<path d="M168540733.000000 45358433.000000 A1600000.000000 1600000.000000 0.0 0 0 170139926.000103 46958432.796485" />
<path d="M67882192 67786564
L67882192 81836564
" />
<path d="M129832192 96086564
L129832192 82036564
" />
<path d="M143882192 77086564
L129832192 77086564
" />
<path d="M105882192 44036564
L105882192 58086564
" />
<path d="M148832192 60461564
L148832192 46411564
" />
<path d="M179665734.000000 52826273.999999 A500001.000000 500001.000000 0.0 0 0 180165733.999999 52326274.000000" />
<circle cx="70357192.000000" cy="65311564.000000" r="1200000.000000" /> 
<path d="M91832192 44036564
L105882192 44036564
" />
<path d="M86882192 86786564
L86882192 100836564
" />
<path d="M91832192 96086564
L91832192 82036564
" />
<path d="M72832192 81836564
L72832192 67786564
" />
<path d="M86882192 81836564
L72832192 81836564
" />
<path d="M129832192 82036564
L143882192 82036564
" />
<path d="M170415986 46958572
L170139926 46958433
" />
<path d="M180203521 112615236
L173178521 124782893
" />
<path d="M143882192 63036564
L143882192 77086564
" />
<path d="M181411896.999999 89069142.000000 A500001.000000 500001.000000 0.0 0 0 180911897.000000 88569142.000001" />
<path d="M142567472 38019142
L92763046 38019142
" />
<path d="M129832192 77086564
L129832192 63036564
" />
<path d="M55516096.000000 45019142.000000 A5349998.000000 5349998.000000 0.0 0 0 50166096.000000 50369142.000000" />
<path d="M169116096.000001 88069142.000000 A500001.000000 500001.000000 0.0 0 0 169616096.000000 88569141.999999" />
<path d="M72832192 62836564
L72832192 48786564
" />
<path d="M72832192 86786564
L86882192 86786564
" />
<path d="M53832192 67786564
L67882192 67786564
" />
<path d="M124882192 74711564
L110832192 74711564
" />
<path d="M187616096 106077718
L187616096 101197891
" />
<path d="M168540733 45358433
L168540733 42769142
" />
<path d="M176911897.000000 90021048.000001 A500001.000000 500001.000000 0.0 0 0 176411897.000001 90521048.000000" />
<path d="M180939631.000103 46963873.795980 A1599998.000000 1599998.000000 0.0 0 0 182540436.989762 45364056.999999" />
<path d="M82516096.000000 45019142.000000 A5649997.000000 5649997.000000 0.0 0 0 87779301.703079 41423686.884094" />
<path d="M129832192 63036564
L143882192 63036564
" />
<path d="M134382192 101661564
L134382192 115711564
" />
<circle cx="168619192.000000" cy="94285564.000000" r="2100000.000000" /> 
<path d="M53832192 48786564
L67882192 48786564
" />
<path d="M120332192 101661564
L134382192 101661564
" />
<path d="M185116095.999999 83769142.000000 A500001.000000 500001.000000 0.0 0 0 184616096.000000 83269142.000001" />
<path d="M91832192 77086564
L91832192 63036564
" />
<path d="M185116096.000000 85601768.000000 A1599999.000000 1599999.000000 0.0 0 0 186716096.000000 87201768.000000" />
<path d="M184370913 99601048
L176911897 99601048
" />
<path d="M67882192 62836564
L53832192 62836564
" />
<path d="M53832192 100836564
L53832192 86786564
" />
<path d="M146970003.055957 40329368.961364 A5650001.000000 5650001.000000 0.0 0 0 151619405.000000 42769142.000000" />
<path d="M53832192 86786564
L67882192 86786564
" />
<path d="M105882192 77086564
L91832192 77086564
" />
<path d="M124882192 60661564
L124882192 74711564
" />
<path d="M116251121.421738 117781622.692655 A5350005.000000 5350005.000000 0.0 0 0 119882875.030823 119935771.763679" />
<path d="M162882192 98461564
L148832192 98461564
" />
<path d="M105882192 96086564
L91832192 96086564
" />
<path d="M53832192 81836564
L53832192 67786564
" />
<path d="M187616096 87201768
L187616096 48119142
" />
<path d="M55516096 104969142
L104040255 104969142
" />
<path d="M162882192 84411564
L162882192 98461564
" />
<path d="M180939631 46963874
L180665986 46963736
" />
<path d="M120332192 115711564
L120332192 101661564
" />
<path d="M86882192 48786564
L86882192 62836564
" />
<path d="M185116096 83769142
L185116096 85601768
" />
<path d="M161010864 117757893
L168035864 105590236
" />
<path d="M143389767 102832732
L156961025 106469139
" />
<path d="M180165734 47463736
L180165734 52326274
" />
<path d="M67882192 86786564
L67882192 100836564
" />
<path d="M186900685.096017 108750373.055371 A5350012.000000 5350012.000000 0.0 0 0 187616095.999999 106077718.000000" />
<path d="M162882192 65411564
L162882192 79461564
" />
<path d="M119882875 119935772
L154143842 124404346
" />
<path d="M156235637.923973 125112421.131837 A5649989.000000 5649989.000000 0.0 0 0 154143841.969093 124404346.236969" />
<path d="M184856795.362894 99983067.911883 A500000.000000 500000.000000 0.0 0 0 184370913.000000 99601048.000001" />
<path d="M168616096 85469142
L167966096 85469142
" />
<path d="M124882192 55711564
L110832192 55711564
" />
<path d="M148832192 65411564
L162882192 65411564
" />
<path d="M176411897.000001 99101048.000000 A500001.000000 500001.000000 0.0 0 0 176911897.000000 99601047.999999" />
<path d="M72832192 48786564
L86882192 48786564
" />
<path d="M174839685 129665077
L186900685 108750373
" />
<circle cx="70357192.000000" cy="84311564.000000" r="1200000.000000" /> 
<path d="M108606386 107291537
L116251121 117781623
" />
<path d="M110832192 41661564
L124882192 41661564
" />
<path d="M50166096.000000 99619142.000000 A5349998.000000 5349998.000000 0.0 0 0 55516096.000000 104969142.000000" />
<path d="M162882192 46411564
L162882192 60461564
" />
<path d="M184856795.324513 99983067.921203 A1590000.000000 1590000.000000 0.0 0 0 186401897.000000 101197891.000000" />
<path d="M124882192 93711564
L110832192 93711564
" />
<path d="M148832192 46411564
L162882192 46411564
" />
<path d="M105882192 63036564
L105882192 77086564
" />
<path d="M108606385.840624 107291537.116147 A5650007.000000 5650007.000000 0.0 0 0 104040255.000000 104969142.000001" />
<path d="M143882192 96086564
L129832192 96086564
" />
<path d="M167966096 83269142
L184616096 83269142
" />
<path d="M110832192 79661564
L124882192 79661564
" />
<path d="M105882192 58086564
L91832192 58086564
" />
<path d="M162882192 60461564
L148832192 60461564
" />
<path d="M167466096.000001 84969142.000000 A500001.000000 500001.000000 0.0 0 0 167966096.000000 85469141.999999" />
<path d="M173178521 124782893
L161010864 117757893
" />
<path d="M86882192 100836564
L72832192 100836564
" />
<path d="M72832192 100836564
L72832192 86786564
" />
<path d="M129832192 44036564
L143882192 44036564
" />
<g >
</g>
<g >
</g>
<g >
</g>
</g> 
</svg>
