0
SECTION
2
HEADER
9
$INSUNITS
70
4
9
$ACADVER
1
AC1014
9
$HANDSEED
5
FFFF
0
ENDSEC
0
SECTION
2
TABLES
0
TABLE
2
VPORT
5
8
100
AcDbSymbolTable
0
ENDTAB
0
TABLE
2
LTYPE
5
5
100
AcDbSymbolTable
0
LTYPE
5
14
100
AcDbSymbolTableRecord
100
AcDbLinetypeTableRecord
2
BYBLOCK
70
0
0
LTYPE
5
15
100
AcDbSymbolTableRecord
100
AcDbLinetypeTableRecord
2
BYLAYER
70
0
0
ENDTAB
0
TABLE
2
LAYER
5
2
100
AcDbSymbolTable
70
2
0
LAYER
5
50
100
AcDbSymbolTableRecord
100
AcDbLayerTableRecord
2
0
70
0
6
CONTINUOUS
0
ENDTAB
0
TABLE
2
STYLE
5
3
100
AcDbSymbolTable
70
1
0
STYLE
5
11
100
AcDbSymbolTableRecord
100
AcDbTextStyleTableRecord
2
STANDARD
70
0
0
ENDTAB
0
TABLE
2
VIEW
5
6
100
AcDbSymbolTable
70
0
0
ENDTAB
0
TABLE
2
UCS
5
7
100
AcDbSymbolTable
70
0
0
ENDTAB
0
TABLE
2
APPID
5
9
100
AcDbSymbolTable
70
2
0
APPID
5
12
100
AcDbSymbolTableRecord
100
AcDbRegAppTableRecord
2
ACAD
70
0
0
ENDTAB
0
TABLE
2
DIMSTYLE
5
A
100
AcDbSymbolTable
70
1
0
ENDTAB
0
TABLE
2
BLOCK_RECORD
5
1
100
AcDbSymbolTable
70
1
0
BLOCK_RECORD
5
1F
100
AcDbSymbolTableRecord
100
AcDbBlockTableRecord
2
*MODEL_SPACE
0
BLOCK_RECORD
5
1B
100
AcDbSymbolTableRecord
100
AcDbBlockTableRecord
2
*PAPER_SPACE
0
ENDTAB
0
ENDSEC
0
SECTION
2
BLOCKS
0
BLOCK
5
20
100
AcDbEntity
100
AcDbBlockBegin
2
*MODEL_SPACE
0
ENDBLK
5
21
100
AcDbEntity
100
AcDbBlockEnd
0
BLOCK
5
1C
100
AcDbEntity
100
AcDbBlockBegin
2
*PAPER_SPACE
0
ENDBLK
5
1D
100
AcDbEntity
100
AcDbBlockEnd
0
ENDSEC
0
SECTION
2
ENTITIES
0
LINE
5
100
100
AcDbEntity
8
0
100
AcDbLine
10
-2.4480000349648674
20
12.898999973134316
30
0
11
2.4519999650351361
21
12.898999973134316
31
5.0891747530509028e-46
0
LINE
5
101
100
AcDbEntity
8
0
100
AcDbLine
10
2.4519999650351361
20
12.898999973134316
30
5.0891747530509028e-46
11
2.4519999650351378
21
26.073999973134327
31
3.944304526105059e-30
0
LINE
5
102
100
AcDbEntity
8
0
100
AcDbLine
10
2.4519999650351378
20
26.073999973134327
30
3.944304526105059e-30
11
16.60199996503513
21
26.073999973134327
31
-7.4191296423278097e-46
0
LINE
5
103
100
AcDbEntity
8
0
100
AcDbLine
10
16.60199996503513
20
26.073999973134327
30
-7.4191296423278097e-46
11
16.601999965034985
21
11.923999973134334
31
-2.2204460492503131e-15
0
LINE
5
104
100
AcDbEntity
8
0
100
AcDbLine
10
16.601999965034985
20
11.923999973134334
30
-2.2204460492503131e-15
11
5.4999999650348919
21
11.923999973134334
31
1.5514767636234505e-29
0
LINE
5
105
100
AcDbEntity
8
0
100
AcDbLine
10
5.4999999650348288
20
10.198999973134315
30
0
11
-5.5000000349651721
21
10.198999973134317
31
-1.8409270289595962e-30
0
LINE
5
106
100
AcDbEntity
8
0
100
AcDbLine
10
-5.5000000349651117
20
11.92399997313434
30
2.2204460492503131e-15
11
-16.598000034965001
21
11.92399997313434
31
2.2204460492503249e-15
0
LINE
5
107
100
AcDbEntity
8
0
100
AcDbLine
10
-16.598000034965001
20
11.92399997313434
30
2.2204460492503249e-15
11
-16.598000034964855
21
26.073999973134331
31
2.2204460492503131e-15
0
LINE
5
108
100
AcDbEntity
8
0
100
AcDbLine
10
-16.598000034964855
20
26.073999973134331
30
2.2204460492503131e-15
11
-2.4480000349648634
21
26.073999973134335
31
-7.4191296423278097e-46
0
LINE
5
109
100
AcDbEntity
8
0
100
AcDbLine
10
-2.4480000349648643
20
26.073999973134335
30
0
11
-2.4480000349648674
21
12.898999973134316
31
-1.1832913578315177e-29
0
CIRCLE
5
110
100
AcDbEntity
8
0
100
AcDbCircle
10
-38.100000034965255
20
8.5289999731343471
30
0
40
1
210
-1.3497998642108738e-45
220
1.3987413384377434e-59
230
1
0
CIRCLE
5
111
100
AcDbEntity
8
0
100
AcDbCircle
10
95.349925398625984
20
-7.7710000268656385
30
0
40
1
210
-1.3497998642108738e-45
220
1.3987413384377434e-59
230
1
0
CIRCLE
5
112
100
AcDbEntity
8
0
100
AcDbCircle
10
38.099999965034755
20
8.5289999731343471
30
0
40
1
210
-1.3497998642108738e-45
220
1.3987413384377434e-59
230
1
0
CIRCLE
5
113
100
AcDbEntity
8
0
100
AcDbCircle
10
-75.999074601373991
20
-7.7710000268656501
30
0
40
1
210
-1.3497998642108738e-45
220
1.3987413384377434e-59
230
1
0
LWPOLYLINE
5
114
100
AcDbEntity
8
0
100
AcDbPolyline
90
8
70
1
43
0.0
10
-116.10000003496553
20
-24.981000026865601
42
0.41421356237309387
10
-110.75000003496558
20
-30.331000026865599
10
110.74999996503419
20
-30.331000026865681
42
0.41421356237309848
10
116.09999996503426
20
-24.981000026865683
10
116.09999996503498
20
43.978999973134307
42
0.41421356237309309
10
110.74999996503504
20
49.328999973134309
10
-110.7500000349647
20
49.328999973134387
42
0.41421356237309992
10
-116.10000003496475
20
43.978999973134378
0
LWPOLYLINE
5
115
100
AcDbEntity
8
0
100
AcDbPolyline
90
4
70
1
43
0.0
10
-97.698000034965077
20
7.0739999731343612
10
-97.698000034965219
20
-7.0760000268656302
10
-111.84800003496521
20
-7.0760000268656302
10
-111.84800003496507
20
7.0739999731343612
0
LWPOLYLINE
5
116
100
AcDbEntity
8
0
100
AcDbPolyline
90
4
70
1
43
0.0
10
-97.698000034964878
20
26.073999973134359
10
-97.69800003496502
20
11.92399997313437
10
-111.84800003496503
20
11.92399997313437
10
-111.84800003496488
20
26.073999973134359
0
LWPOLYLINE
5
117
100
AcDbEntity
8
0
100
AcDbPolyline
90
4
70
1
43
0.0
10
-97.698000034965276
20
-11.926000026865628
10
-97.698000034965418
20
-26.076000026865643
10
-111.84800003496541
20
-26.076000026865643
10
-111.84800003496527
20
-11.926000026865628
0
LWPOLYLINE
5
118
100
AcDbEntity
8
0
100
AcDbPolyline
90
4
70
1
43
0.0
10
-97.698000034964693
20
45.073999973134384
10
-97.698000034964835
20
30.923999973134375
10
-111.84800003496483
20
30.923999973134375
10
-111.84800003496468
20
45.073999973134384
0
LWPOLYLINE
5
119
100
AcDbEntity
8
0
100
AcDbPolyline
90
4
70
1
43
0.0
10
-78.648000034965094
20
7.0739999731343559
10
-78.648000034965236
20
-7.0760000268656356
10
-92.798000034965213
20
-7.0760000268656356
10
-92.798000034965099
20
7.0739999731343559
0
LWPOLYLINE
5
120
100
AcDbEntity
8
0
100
AcDbPolyline
90
4
70
1
43
0.0
10
-78.648000034964895
20
26.073999973134356
10
-78.648000034965037
20
11.923999973134363
10
-92.798000034965028
20
11.923999973134363
10
-92.7980000349649
20
26.073999973134356
0
LWPOLYLINE
5
121
100
AcDbEntity
8
0
100
AcDbPolyline
90
4
70
1
43
0.0
10
-78.648000034965278
20
-11.926000026865635
10
-78.648000034965435
20
-26.07600002686565
10
-92.798000034965412
20
-26.07600002686565
10
-92.798000034965298
20
-11.926000026865635
0
LWPOLYLINE
5
122
100
AcDbEntity
8
0
100
AcDbPolyline
90
4
70
1
43
0.0
10
-78.648000034964682
20
45.073999973134384
10
-78.648000034964838
20
30.923999973134372
10
-92.798000034964829
20
30.923999973134372
10
-92.798000034964701
20
45.073999973134384
0
LWPOLYLINE
5
123
100
AcDbEntity
8
0
100
AcDbPolyline
90
4
70
1
43
0.0
10
-59.598000034965075
20
7.0739999731343497
10
-59.598000034965224
20
-7.0760000268656418
10
-73.748000034965202
20
-7.0760000268656418
10
-73.74800003496506
20
7.0739999731343497
0
LWPOLYLINE
5
124
100
AcDbEntity
8
0
100
AcDbPolyline
90
4
70
1
43
0.0
10
-59.598000034964883
20
26.073999973134349
10
-59.598000034965033
20
11.923999973134357
10
-73.748000034965017
20
11.923999973134357
10
-73.748000034964861
20
26.073999973134349
0
LWPOLYLINE
5
125
100
AcDbEntity
8
0
100
AcDbPolyline
90
4
70
1
43
0.0
10
-59.598000034965267
20
-11.926000026865641
10
-59.598000034965423
20
-26.076000026865653
10
-73.748000034965401
20
-26.076000026865653
10
-73.748000034965258
20
-11.926000026865641
0
LWPOLYLINE
5
126
100
AcDbEntity
8
0
100
AcDbPolyline
90
4
70
1
43
0.0
10
-59.598000034964677
20
45.073999973134377
10
-59.598000034964826
20
30.923999973134364
10
-73.748000034964818
20
30.923999973134364
10
-73.748000034964662
20
45.073999973134377
0
LWPOLYLINE
5
127
100
AcDbEntity
8
0
100
AcDbPolyline
90
4
70
1
43
0.0
10
-40.548000034965064
20
7.0739999731343435
10
-40.548000034965213
20
-7.076000026865648
10
-54.698000034965197
20
-7.076000026865648
10
-54.698000034965048
20
7.0739999731343435
0
LWPOLYLINE
5
128
100
AcDbEntity
8
0
100
AcDbPolyline
90
4
70
1
43
0.0
10
-40.548000034964872
20
26.073999973134345
10
-40.548000034965021
20
11.923999973134352
10
-54.698000034965006
20
11.923999973134352
10
-54.698000034964849
20
26.073999973134345
0
LWPOLYLINE
5
129
100
AcDbEntity
8
0
100
AcDbPolyline
90
4
70
1
43
0.0
10
-40.548000034965256
20
-11.926000026865646
10
-40.548000034965412
20
-26.076000026865657
10
-54.698000034965389
20
-26.076000026865657
10
-54.69800003496524
20
-11.926000026865646
0
LWPOLYLINE
5
130
100
AcDbEntity
8
0
100
AcDbPolyline
90
4
70
1
43
0.0
10
-40.548000034964666
20
45.073999973134363
10
-40.548000034964815
20
30.923999973134361
10
-54.698000034964807
20
30.923999973134361
10
-54.698000034964657
20
45.073999973134363
0
LWPOLYLINE
5
131
100
AcDbEntity
8
0
100
AcDbPolyline
90
4
70
1
43
0.0
10
-21.498000034965052
20
7.0739999731343381
10
-21.498000034965198
20
-7.0760000268656533
10
-35.648000034965193
20
-7.0760000268656533
10
-35.648000034965051
20
7.0739999731343381
0
LWPOLYLINE
5
132
100
AcDbEntity
8
0
100
AcDbPolyline
90
4
70
1
43
0.0
10
-21.498000034964857
20
26.073999973134335
10
-21.498000034965003
20
11.923999973134345
10
-35.648000034964994
20
11.923999973134345
10
-35.648000034964852
20
26.073999973134335
0
LWPOLYLINE
5
133
100
AcDbEntity
8
0
100
AcDbPolyline
90
4
70
1
43
0.0
10
-21.498000034965251
20
-11.926000026865653
10
-21.498000034965401
20
-26.076000026865668
10
-35.648000034965392
20
-26.076000026865668
10
-35.648000034965243
20
-11.926000026865653
0
LWPOLYLINE
5
134
100
AcDbEntity
8
0
100
AcDbPolyline
90
4
70
1
43
0.0
10
-21.498000034964662
20
45.073999973134363
10
-21.498000034964807
20
30.923999973134354
10
-35.648000034964802
20
30.923999973134354
10
-35.648000034964653
20
45.073999973134363
0
LWPOLYLINE
5
135
100
AcDbEntity
8
0
100
AcDbPolyline
90
4
70
1
43
0.0
10
-2.448000034965061
20
7.0739999731343328
10
-2.4480000349652076
20
-7.0760000268656587
10
-16.598000034965199
20
-7.0760000268656587
10
-16.598000034965054
20
7.0739999731343328
0
LWPOLYLINE
5
136
100
AcDbEntity
8
0
100
AcDbPolyline
90
4
70
1
43
0.0
10
-2.4480000349652578
20
-11.926000026865658
10
-2.4480000349654043
20
-26.076000026865671
10
-16.598000034965395
20
-26.076000026865671
10
-16.598000034965249
20
-11.926000026865658
0
LWPOLYLINE
5
137
100
AcDbEntity
8
0
100
AcDbPolyline
90
4
70
1
43
0.0
10
-2.4480000349646671
20
45.073999973134356
10
-2.4480000349648137
20
30.92399997313435
10
-16.598000034964805
20
30.92399997313435
10
-16.598000034964659
20
45.073999973134356
0
LWPOLYLINE
5
138
100
AcDbEntity
8
0
100
AcDbPolyline
90
4
70
1
43
0.0
10
16.601999965034931
20
7.0739999731343257
10
16.601999965034786
20
-7.0760000268656658
10
2.4519999650347946
20
-7.0760000268656658
10
2.4519999650349411
20
7.0739999731343257
0
LWPOLYLINE
5
139
100
AcDbEntity
8
0
100
AcDbPolyline
90
4
70
1
43
0.0
10
16.601999965034736
20
-11.926000026865664
10
16.601999965034587
20
-26.076000026865675
10
2.4519999650345969
20
-26.076000026865675
10
2.4519999650347439
20
-11.926000026865664
0
LWPOLYLINE
5
140
100
AcDbEntity
8
0
100
AcDbPolyline
90
4
70
1
43
0.0
10
16.601999965035326
20
45.073999973134349
10
16.60199996503518
20
30.923999973134343
10
2.4519999650351876
20
30.923999973134343
10
2.451999965035335
20
45.073999973134349
0
LWPOLYLINE
5
141
100
AcDbEntity
8
0
100
AcDbPolyline
90
4
70
1
43
0.0
10
35.651999965034946
20
7.0739999731343204
10
35.651999965034797
20
-7.0760000268656711
10
21.501999965034805
20
-7.0760000268656711
10
21.501999965034951
20
7.0739999731343204
0
LWPOLYLINE
5
142
100
AcDbEntity
8
0
100
AcDbPolyline
90
4
70
1
43
0.0
10
35.651999965035145
20
26.07399997313432
10
35.651999965034996
20
11.923999973134329
10
21.501999965035004
20
11.923999973134329
10
21.50199996503515
20
26.07399997313432
0
LWPOLYLINE
5
143
100
AcDbEntity
8
0
100
AcDbPolyline
90
4
70
1
43
0.0
10
35.651999965034747
20
-11.926000026865669
10
35.651999965034598
20
-26.076000026865685
10
21.501999965034607
20
-26.076000026865685
10
21.501999965034756
20
-11.926000026865669
0
LWPOLYLINE
5
144
100
AcDbEntity
8
0
100
AcDbPolyline
90
4
70
1
43
0.0
10
35.651999965035337
20
45.073999973134349
10
35.651999965035188
20
30.923999973134336
10
21.5019999650352
20
30.923999973134336
10
21.501999965035345
20
45.073999973134349
0
LWPOLYLINE
5
145
100
AcDbEntity
8
0
100
AcDbPolyline
90
4
70
1
43
0.0
10
54.70199996503495
20
7.0739999731343151
10
54.701999965034801
20
-7.0760000268656764
10
40.551999965034817
20
-7.0760000268656764
10
40.551999965034966
20
7.0739999731343151
0
LWPOLYLINE
5
146
100
AcDbEntity
8
0
100
AcDbPolyline
90
4
70
1
43
0.0
10
54.701999965035142
20
26.073999973134313
10
54.701999965034993
20
11.923999973134322
10
40.551999965035009
20
11.923999973134322
10
40.551999965035165
20
26.073999973134313
0
LWPOLYLINE
5
147
100
AcDbEntity
8
0
100
AcDbPolyline
90
4
70
1
43
0.0
10
54.701999965034751
20
-11.926000026865676
10
54.701999965034602
20
-26.076000026865689
10
40.551999965034618
20
-26.076000026865689
10
40.551999965034767
20
-11.926000026865676
0
LWPOLYLINE
5
148
100
AcDbEntity
8
0
100
AcDbPolyline
90
4
70
1
43
0.0
10
54.701999965035348
20
45.073999973134342
10
54.701999965035199
20
30.923999973134329
10
40.551999965035208
20
30.923999973134329
10
40.551999965035357
20
45.073999973134342
0
LWPOLYLINE
5
149
100
AcDbEntity
8
0
100
AcDbPolyline
90
4
70
1
43
0.0
10
73.751999965034955
20
7.0739999731343097
10
73.751999965034798
20
-7.0760000268656817
10
59.601999965034821
20
-7.0760000268656817
10
59.60199996503497
20
7.0739999731343097
0
LWPOLYLINE
5
150
100
AcDbEntity
8
0
100
AcDbPolyline
90
4
70
1
43
0.0
10
73.751999965035139
20
26.07399997313431
10
73.751999965034997
20
11.923999973134316
10
59.601999965035013
20
11.923999973134316
10
59.601999965035162
20
26.07399997313431
0
LWPOLYLINE
5
151
100
AcDbEntity
8
0
100
AcDbPolyline
90
4
70
1
43
0.0
10
73.751999965034756
20
-11.926000026865681
10
73.751999965034599
20
-26.076000026865692
10
59.601999965034622
20
-26.076000026865692
10
59.601999965034771
20
-11.926000026865681
0
LWPOLYLINE
5
152
100
AcDbEntity
8
0
100
AcDbPolyline
90
4
70
1
43
0.0
10
73.751999965035353
20
45.073999973134335
10
73.751999965035196
20
30.923999973134325
10
59.601999965035205
20
30.923999973134325
10
59.601999965035361
20
45.073999973134335
0
LWPOLYLINE
5
153
100
AcDbEntity
8
0
100
AcDbPolyline
90
4
70
1
43
0.0
10
92.801999965034923
20
7.0739999731343026
10
92.801999965034781
20
-7.0760000268656889
10
78.651999965034804
20
-7.0760000268656889
10
78.651999965034975
20
7.0739999731343026
0
LWPOLYLINE
5
154
100
AcDbEntity
8
0
100
AcDbPolyline
90
4
70
1
43
0.0
10
92.801999965035122
20
26.073999973134299
10
92.80199996503498
20
11.923999973134311
10
78.651999965035003
20
11.923999973134311
10
78.651999965035174
20
26.073999973134299
0
LWPOLYLINE
5
155
100
AcDbEntity
8
0
100
AcDbPolyline
90
4
70
1
43
0.0
10
92.801999965034724
20
-11.926000026865687
10
92.801999965034582
20
-26.076000026865703
10
78.651999965034605
20
-26.076000026865703
10
78.651999965034776
20
-11.926000026865687
0
LWPOLYLINE
5
156
100
AcDbEntity
8
0
100
AcDbPolyline
90
4
70
1
43
0.0
10
92.801999965035321
20
45.073999973134335
10
92.801999965035179
20
30.923999973134318
10
78.651999965035188
20
30.923999973134318
10
78.651999965035358
20
45.073999973134335
0
LWPOLYLINE
5
157
100
AcDbEntity
8
0
100
AcDbPolyline
90
4
70
1
43
0.0
10
111.85199996503493
20
7.0739999731342973
10
111.85199996503479
20
-7.0760000268656942
10
97.701999965034801
20
-7.0760000268656942
10
97.701999965034943
20
7.0739999731342973
0
LWPOLYLINE
5
158
100
AcDbEntity
8
0
100
AcDbPolyline
90
4
70
1
43
0.0
10
111.85199996503513
20
26.073999973134296
10
111.85199996503499
20
11.923999973134304
10
97.701999965035
20
11.923999973134304
10
97.701999965035142
20
26.073999973134296
0
LWPOLYLINE
5
159
100
AcDbEntity
8
0
100
AcDbPolyline
90
4
70
1
43
0.0
10
111.85199996503474
20
-11.926000026865694
10
111.85199996503459
20
-26.076000026865707
10
97.701999965034616
20
-26.076000026865707
10
97.701999965034759
20
-11.926000026865694
0
LWPOLYLINE
5
160
100
AcDbEntity
8
0
100
AcDbPolyline
90
4
70
1
43
0.0
10
111.85199996503533
20
45.07399997313432
10
111.85199996503519
20
30.923999973134315
10
97.701999965035199
20
30.923999973134315
10
97.701999965035341
20
45.07399997313432
0
CIRCLE
5
161
100
AcDbEntity
8
0
100
AcDbCircle
10
95.274999965034738
20
28.418999973134348
30
0
40
1
210
-1.3497998642108738e-45
220
1.3987413384377434e-59
230
1
0
CIRCLE
5
162
100
AcDbEntity
8
0
100
AcDbCircle
10
-95.275000034965288
20
28.418999973132571
30
-2.2204460492503131e-15
40
1
210
-1.3497998642108738e-45
220
1.3987413384377434e-59
230
1
0
LINE
5
163
100
AcDbEntity
8
0
100
AcDbLine
10
5.4999999650348919
20
11.923999973134334
30
1.5514767636234505e-29
11
5.4999999650348288
21
10.198999973134315
31
0
0
LINE
5
164
100
AcDbEntity
8
0
100
AcDbLine
10
-5.5000000349651721
20
10.198999973134317
30
-1.8409270289595962e-30
11
-5.5000000349651117
21
11.92399997313434
31
2.2204460492503131e-15
0
ENDSEC
0
SECTION
2
OBJECTS
0
DICTIONARY
5
C
100
AcDbDictionary
3
ACAD_GROUP
350
D
3
ACAD_MLINESTYLE
350
17
0
DICTIONARY
5
D
100
AcDbDictionary
0
DICTIONARY
5
1A
330
C
100
AcDbDictionary
0
DICTIONARY
5
17
100
AcDbDictionary
0
ENDSEC
0
EOF
