<?xml version="1.0" standalone="no"?>
 <!DOCTYPE svg PUBLIC "-//W3C//DTD SVG 1.1//EN" 
 "http://www.w3.org/Graphics/SVG/1.1/DTD/svg11.dtd"> 
<svg
  xmlns:svg="http://www.w3.org/2000/svg"
  xmlns="http://www.w3.org/2000/svg"
  xmlns:xlink="http://www.w3.org/1999/xlink"
  version="1.1"
  width="29.700220cm" height="21.000720cm" viewBox="0 0 116930 82680">
<title>SVG Picture created as BS65-Plate-Edge_Cuts.svg date 2021/07/12 11:45:52 </title>
  <desc>Picture generated by PCBNEW </desc>
<g style="fill:#000000; fill-opacity:1;stroke:#000000; stroke-opacity:1;
stroke-linecap:round; stroke-linejoin:round;"
 transform="translate(0 0) scale(1 1)">
</g>
<g style="fill:#000000; fill-opacity:0.0; 
stroke:#000000; stroke-width:-0.000393701; stroke-opacity:1; 
stroke-linecap:round; stroke-linejoin:round;">
</g>
<g style="fill:#000000; fill-opacity:0.0; 
stroke:#000000; stroke-width:78.7402; stroke-opacity:1; 
stroke-linecap:round; stroke-linejoin:round;">
<path d="M44503 28014
L44503 33526
" />
<path d="M123253 37389
L123253 42901
" />
<path d="M123253 44889
L123253 50401
" />
<path d="M80128 20514
L80128 26026
" />
<path d="M50473 48821
L50473 48436
" />
<path d="M12975 41026
L12975 41321
" />
<path d="M12975 41321
L14274 41321
" />
<path d="M97116 26026
L97116 20514
" />
<path d="M54617 46675
L52650 46671
" />
<path d="M72628 26026
L67116 26026
" />
<path d="M119269 33435
L119948 33435
" />
<path d="M119948 33435
L119948 33098
" />
<path d="M74616 26026
L74616 20514
" />
<path d="M50891 52207
L17352 52207
" />
<path d="M51481.7 10608 A984.252 984.252 0.0 0 0 53450.2 10608" />
<path d="M130753 18526
L125241 18526
" />
<path d="M37116 20514
L42628 20514
" />
<path d="M110128 20514
L110128 26026
" />
<path d="M69229 43593
L69229 43230
" />
<path d="M133161 29495.9 A984.252 984.252 0.0 0 0 133161 31464.4" />
<path d="M123253 50401
L117741 50401
" />
<path d="M81769 43592
L82650 43585
" />
<path d="M134473 45292.8 A590.551 590.551 0.0 0 0 133883 44702.2" />
<path d="M88170 9885.27 A590.551 590.551 0.0 0 0 87579.5 9294.72" />
<path d="M53450 9885
L53450 10607
" />
<path d="M82974 44857
L82974 45959
" />
<path d="M71807 43015
L77319 43015
" />
<path d="M132702 52207.9 A1771.65 1771.65 0.0 0 0 134473 50436.2" />
<path d="M79905 43229
L81769 43229
" />
<path d="M67116 20514
L72628 20514
" />
<path d="M106378 43014
L106378 48526
" />
<path d="M110241 50401
L110241 44889
" />
<path d="M77319 48526
L71807 48526
" />
<path d="M54040.7 9294.72 A590.551 590.551 0.0 0 0 53450.2 9885.27" />
<path d="M63366 18526
L63366 13014
" />
<path d="M26690 48526
L21178 48526
" />
<path d="M23991 28014
L29503 28014
" />
<path d="M120047 30966
L120273 30966
" />
<path d="M120273 30966
L120273 29776
" />
<path d="M22116 26026
L22116 20514
" />
<path d="M18366 13014
L23878 13014
" />
<path d="M18366 18526
L18366 13014
" />
<path d="M95128 26026
L89616 26026
" />
<path d="M59616 20514
L65128 20514
" />
<path d="M114929 26026
L113991 26026
" />
<path d="M114929 28014
L114929 26026
" />
<path d="M110241 44889
L115753 44889
" />
<path d="M120440 29776
L120273 29776
" />
<path d="M120440 29776
L120440 24264
" />
<path d="M14793 51617
L14793 50932
" />
<path d="M52650 48431
L51773 48436
" />
<path d="M58678 48526
L64190 48526
" />
<path d="M64191 43013
L64191 44864
" />
<path d="M14274 41321
L14274 41026
" />
<path d="M14274 41026
L22345 41026
" />
<path d="M25866 13014
L31378 13014
" />
<path d="M25866 18526
L25866 13014
" />
<path d="M31491 33526
L31491 28014
" />
<path d="M119503 20942
L120047 20942
" />
<path d="M119503 20514
L119503 20942
" />
<path d="M106378 13014
L106378 18526
" />
<path d="M117741 50401
L117741 44889
" />
<path d="M7147 50436
L7147 45292
" />
<path d="M102628 26026
L97116 26026
" />
<path d="M57628 20514
L57628 26026
" />
<path d="M97116 20514
L102628 20514
" />
<path d="M79898 48821
L79922 48821
" />
<path d="M51481 51617
L51481 50932
" />
<path d="M16378 18526
L10866 18526
" />
<path d="M23878 13014
L23878 18526
" />
<path d="M133883 29495.9 A590.552 590.552 0.0 0 0 134473 28905.3" />
<path d="M51773 43230
L51773 43593
" />
<path d="M117741 37389
L123253 37389
" />
<path d="M22116 20514
L27628 20514
" />
<path d="M51481.7 9885.27 A590.551 590.551 0.0 0 0 50891.1 9294.72" />
<path d="M93366 13014
L98878 13014
" />
<path d="M29616 26026
L29616 20514
" />
<path d="M134473 45292
L134473 50436
" />
<path d="M50128 26026
L44616 26026
" />
<path d="M62524 43014
L56807 43014
" />
<path d="M90729 9294
L124268 9294
" />
<path d="M8460.26 44702.2 A984.252 984.252 0.0 0 0 8460.26 42733.7" />
<path d="M105554 35514
L111065 35514
" />
<path d="M42402 48436
L42402 48821
" />
<path d="M106565 51617
L106565 50932
" />
<path d="M87628 20514
L87628 26026
" />
<path d="M55866 13014
L61378 13014
" />
<path d="M51773 43593
L52648 43588
" />
<path d="M71807 48436
L70527 48436
" />
<path d="M42402 43592
L42402 43593
" />
<path d="M90138 9885
L90138 10607
" />
<path d="M42399 43230
L42399 43592
" />
<path d="M120047 24264
L120440 24264
" />
<path d="M120047 20942
L120047 24264
" />
<path d="M7147 42143.2 A590.551 590.551 0.0 0 0 7737.56 42733.7" />
<path d="M90729.1 9294.72 A590.551 590.551 0.0 0 0 90138.5 9885.27" />
<path d="M106491 28014
L114929 28014
" />
<path d="M106491 33526
L106491 28014
" />
<path d="M40229 48435
L41099 48435
" />
<path d="M133161 42733.7 A984.252 984.252 0.0 0 0 133161 44702.2" />
<path d="M69229 48436
L68354 48432
" />
<path d="M7737.56 31464.4 A590.551 590.551 0.0 0 0 7147 32054.9" />
<path d="M43682 43593
L42402 43593
" />
<path d="M43682 43593
L43682 43015
" />
<path d="M116063 18526
L118908 18526
" />
<path d="M118908 18526
L118908 18821
" />
<path d="M73369.1 9294.72 A590.551 590.551 0.0 0 0 72778.6 9885.27" />
<path d="M117741 42901
L117741 37389
" />
<path d="M112003 33526
L116690 33526
" />
<path d="M116690 33526
L116690 33435
" />
<path d="M134473 11066.4 A1771.65 1771.65 0.0 0 0 132702 9294.72" />
<path d="M89616 20514
L95128 20514
" />
<path d="M118908 18821
L120207 18821
" />
<path d="M120207 18821
L120207 18526
" />
<path d="M8918.66 9294.72 A1771.65 1771.65 0.0 0 0 7147 11066.4" />
<path d="M11804 43014
L17315 43014
" />
<path d="M76378 18526
L70866 18526
" />
<path d="M7737.56 44702.2 A590.551 590.551 0.0 0 0 7147 45292.8" />
<path d="M38991 28014
L44503 28014
" />
<path d="M123253 42901
L117741 42901
" />
<path d="M49194 43015
L49194 43593
" />
<path d="M134473 32054
L134473 42143
" />
<path d="M48366 13014
L53878 13014
" />
<path d="M48366 18526
L48366 13014
" />
<path d="M29503 33526
L23991 33526
" />
<path d="M27628 26026
L22116 26026
" />
<path d="M120207 18526
L121378 18526
" />
<path d="M121378 13014
L121378 18526
" />
<path d="M30554 48526
L30554 43014
" />
<path d="M65128 26026
L59616 26026
" />
<path d="M62524 43014
L64191 43013
" />
<path d="M69229 43230
L70527 43230
" />
<path d="M106378 18526
L100866 18526
" />
<path d="M87579 52207
L54040 52207
" />
<path d="M33366 13014
L38878 13014
" />
<path d="M33366 18526
L33366 13014
" />
<path d="M36065 48526
L30554 48526
" />
<path d="M12741 26026
L12741 20514
" />
<path d="M79898 48821
L78599 48821
" />
<path d="M77319 43015
L77319 43593
" />
<path d="M53450 50932
L53450 51617
" />
<path d="M133160 42733
L133882 42733
" />
<path d="M30554 43014
L36065 43014
" />
<path d="M95128 20514
L95128 26026
" />
<path d="M108534 50932.6 A984.252 984.252 0.0 0 0 106565 50932.6" />
<path d="M70866 13014
L76378 13014
" />
<path d="M23991 33526
L23991 28014
" />
<path d="M14202.8 52207.9 A590.551 590.551 0.0 0 0 14793.3 51617.3" />
<path d="M115753 50401
L110241 50401
" />
<path d="M100866 18526
L100866 13014
" />
<path d="M98878 13014
L98878 18526
" />
<path d="M68878 13014
L68878 18526
" />
<path d="M59616 26026
L59616 20514
" />
<path d="M14793.3 10608 A984.252 984.252 0.0 0 0 16761.8 10608" />
<path d="M113878 18526
L115866 18526
" />
<path d="M117970 33435
L117970 33821
" />
<path d="M130753 50401
L125241 50401
" />
<path d="M46378 18526
L40866 18526
" />
<path d="M53878 13014
L53878 18526
" />
<path d="M113991 20514
L119503 20514
" />
<path d="M113991 26026
L113991 20514
" />
<path d="M115753 44889
L115753 50401
" />
<path d="M105974 52207
L90729 52207
" />
<path d="M88170 51617
L88170 50932
" />
<path d="M125241 50401
L125241 44889
" />
<path d="M85866 48526
L106378 48526
" />
<path d="M16761 9885
L16761 10607
" />
<path d="M42628 20514
L42628 26026
" />
<path d="M36065 43014
L36065 48526
" />
<path d="M44616 26026
L44616 20514
" />
<path d="M51773 48436
L51773 48821
" />
<path d="M133882 44702
L133160 44702
" />
<path d="M57628 26026
L52116 26026
" />
<path d="M44616 20514
L50128 20514
" />
<path d="M37116 26026
L37116 20514
" />
<path d="M90138.5 50932.6 A984.252 984.252 0.0 0 0 88170 50932.6" />
<path d="M50128 20514
L50128 26026
" />
<path d="M77319 48436
L77319 48526
" />
<path d="M83878 18526
L78366 18526
" />
<path d="M41099 43230
L41099 43593
" />
<path d="M78599 48821
L78599 48436
" />
<path d="M53450.2 50932.6 A984.252 984.252 0.0 0 0 51481.7 50932.6" />
<path d="M26690 43014
L26690 48526
" />
<path d="M80128 26026
L74616 26026
" />
<path d="M50473 43593
L50473 43230
" />
<path d="M17315 48526
L11804 48526
" />
<path d="M11804 48526
L11804 43014
" />
<path d="M25753 35514
L25753 41026
" />
<path d="M25753 35514
L11804 35514
" />
<path d="M80470 48821
L80470 48821
" />
<path d="M41099 43593
L40229 43593
" />
<path d="M53878 18526
L48366 18526
" />
<path d="M63366 13014
L68878 13014
" />
<path d="M87579.5 52207.9 A590.551 590.551 0.0 0 0 88170 51617.3" />
<path d="M14793.3 9885.27 A590.551 590.551 0.0 0 0 14202.8 9294.72" />
<path d="M21178 43014
L26690 43014
" />
<path d="M56807 48526
L58678 48525
" />
<path d="M37003 33526
L31491 33526
" />
<path d="M10866 13014
L16378 13014
" />
<path d="M10866 18526
L10866 13014
" />
<path d="M134473 32054.9 A590.551 590.551 0.0 0 0 133883 31464.4" />
<path d="M31491 28014
L37003 28014
" />
<path d="M85866 43014
L106378 43014
" />
<path d="M23878 18526
L18366 18526
" />
<path d="M31378 13014
L31378 18526
" />
<path d="M105554 41026
L105554 35514
" />
<path d="M64191 46675
L64190 48526
" />
<path d="M7147 28905
L7147 11066
" />
<path d="M109537 18526
L108366 18526
" />
<path d="M109537 18526
L109537 18821
" />
<path d="M49194 43593
L50473 43593
" />
<path d="M82650 43585
L82650 44857
" />
<path d="M125241 18526
L125241 13014
" />
<path d="M54617 46675
L56803 46675
" />
<path d="M7737 29495
L8460 29495
" />
<path d="M124859 9885.27 A590.551 590.551 0.0 0 0 124268 9294.72" />
<path d="M8918 9294
L14202 9294
" />
<path d="M41099 48435
L41099 48821
" />
<path d="M72628 20514
L72628 26026
" />
<path d="M70527 43593
L71807 43593
" />
<path d="M83878 13014
L83878 18526
" />
<path d="M38878 18526
L33366 18526
" />
<path d="M46378 13014
L46378 18526
" />
<path d="M50891.1 52207.9 A590.551 590.551 0.0 0 0 51481.7 51617.3" />
<path d="M85866 13014
L91378 13014
" />
<path d="M14793 10607
L14793 9885
" />
<path d="M39905 45966
L39905 44865
" />
<path d="M61378 13014
L61378 18526
" />
<path d="M40866 13014
L46378 13014
" />
<path d="M40866 18526
L40866 13014
" />
<path d="M78599 48436
L77319 48436
" />
<path d="M124858 10607
L124858 9885
" />
<path d="M91378 13014
L91378 18526
" />
<path d="M100753 41026
L95241 41026
" />
<path d="M51481 10607
L51481 9885
" />
<path d="M91378 18526
L85866 18526
" />
<path d="M43682 48526
L43682 48436
" />
<path d="M11804 41026
L11804 35514
" />
<path d="M116063 18526
L115866 18526
" />
<path d="M85866 18526
L85866 13014
" />
<path d="M76378 13014
L76378 18526
" />
<path d="M121378 13014
L108366 13014
" />
<path d="M108366 18526
L108366 13014
" />
<path d="M111065 35514
L111065 41026
" />
<path d="M105975 52207.9 A590.551 590.551 0.0 0 0 106565 51617.3" />
<path d="M90138 50932
L90138 51617
" />
<path d="M16761.8 51617.3 A590.551 590.551 0.0 0 0 17352.4 52207.9" />
<path d="M109537 18821
L110836 18821
" />
<path d="M110836 18821
L110836 18526
" />
<path d="M27628 20514
L27628 26026
" />
<path d="M68841.6 9885.27 A590.551 590.551 0.0 0 0 68251 9294.72" />
<path d="M78366 18526
L78366 13014
" />
<path d="M104616 20514
L110128 20514
" />
<path d="M68841.6 10672.7 A590.551 590.551 0.0 0 0 69432.1 11263.2" />
<path d="M87628 26026
L82116 26026
" />
<path d="M68841 9885
L68841 10672
" />
<path d="M14202 52207
L8918 52207
" />
<path d="M70527 43230
L70527 43593
" />
<path d="M134473 11066
L134473 28905
" />
<path d="M108534 51617.3 A590.551 590.551 0.0 0 0 109124 52207.9" />
<path d="M42402 48821
L41099 48821
" />
<path d="M120047 33098
L119948 33098
" />
<path d="M120047 30966
L120047 33098
" />
<path d="M68354 48432
L68354 46671
" />
<path d="M109898 33526
L112003 33526
" />
<path d="M112003 33526
L112003 33526
" />
<path d="M51773 48821
L50473 48821
" />
<path d="M17352.4 9294.72 A590.551 590.551 0.0 0 0 16761.8 9885.27" />
<path d="M132701 52207
L109124 52207
" />
<path d="M58678 48525
L58678 48526
" />
<path d="M88170 10607
L88170 9885
" />
<path d="M61378 18526
L55866 18526
" />
<path d="M125241 44889
L130753 44889
" />
<path d="M53450.2 51617.3 A590.551 590.551 0.0 0 0 54040.7 52207.9" />
<path d="M54040 9294
L68251 9294
" />
<path d="M52650 46671
L52650 48431
" />
<path d="M29616 20514
L35128 20514
" />
<path d="M108533 50932
L108533 51617
" />
<path d="M70527 48436
L70527 48821
" />
<path d="M43682 43015
L49194 43015
" />
<path d="M85866 48526
L85866 43014
" />
<path d="M133882 31464
L133160 31464
" />
<path d="M95241 35514
L100753 35514
" />
<path d="M130753 13014
L130753 18526
" />
<path d="M39905 45966
L40229 45966
" />
<path d="M40229 44865
L39905 44865
" />
<path d="M102628 20514
L102628 26026
" />
<path d="M18253 26026
L12741 26026
" />
<path d="M40229 44865
L40229 43593
" />
<path d="M18253 20514
L18253 26026
" />
<path d="M98878 18526
L93366 18526
" />
<path d="M78366 13014
L83878 13014
" />
<path d="M133883 42733.7 A590.552 590.552 0.0 0 0 134473 42143.2" />
<path d="M50473 48436
L49194 48436
" />
<path d="M82116 20514
L87628 20514
" />
<path d="M8460 44702
L7737 44702
" />
<path d="M125241 13014
L130753 13014
" />
<path d="M81769 43229
L81769 43592
" />
<path d="M130753 44889
L130753 50401
" />
<path d="M22345 41026
L22345 41321
" />
<path d="M22345 41321
L23644 41321
" />
<path d="M17315 43014
L17315 48526
" />
<path d="M72778 10672
L72778 9885
" />
<path d="M68354 43589
L69229 43593
" />
<path d="M90138.5 51617.3 A590.551 590.551 0.0 0 0 90729.1 52207.9" />
<path d="M56807 48526
L56803 46675
" />
<path d="M52648 43588
L52648 44860
" />
<path d="M116690 33435
L117970 33435
" />
<path d="M16378 13014
L16378 18526
" />
<path d="M133160 29495
L133882 29495
" />
<path d="M73369 9294
L87579 9294
" />
<path d="M31378 18526
L25866 18526
" />
<path d="M38878 13014
L38878 18526
" />
<path d="M42399 43230
L41099 43230
" />
<path d="M56807 43014
L56803 44864
" />
<path d="M82650 44857
L82974 44857
" />
<path d="M29503 28014
L29503 33526
" />
<path d="M93366 18526
L93366 13014
" />
<path d="M7737 42733
L8460 42733
" />
<path d="M67116 26026
L67116 20514
" />
<path d="M7147 28905.3 A590.551 590.551 0.0 0 0 7737.56 29495.9" />
<path d="M8460.26 31464.4 A984.252 984.252 0.0 0 0 8460.26 29495.9" />
<path d="M78599 43593
L78599 43230
" />
<path d="M100866 13014
L106378 13014
" />
<path d="M95241 41026
L95241 35514
" />
<path d="M70753 35514
L70753 41026
" />
<path d="M104503 28014
L104503 33526
" />
<path d="M19190 28014
L19190 33526
" />
<path d="M81769 48435
L81769 48821
" />
<path d="M80470 48821
L81769 48821
" />
<path d="M71807 43593
L71807 43015
" />
<path d="M13678 28014
L19190 28014
" />
<path d="M33253 41026
L27741 41026
" />
<path d="M81769 48435
L82650 48428
" />
<path d="M27741 41026
L27741 35514
" />
<path d="M130753 20514
L130753 26026
" />
<path d="M98991 28014
L104503 28014
" />
<path d="M44503 33526
L38991 33526
" />
<path d="M130753 33526
L125241 33526
" />
<path d="M87741 41026
L87741 35514
" />
<path d="M130753 28014
L130753 33526
" />
<path d="M40753 35514
L40753 41026
" />
<path d="M82003 28014
L82003 33526
" />
<path d="M85753 35514
L85753 41026
" />
<path d="M33253 35514
L33253 41026
" />
<path d="M65241 41026
L65241 35514
" />
<path d="M78253 35514
L78253 41026
" />
<path d="M70753 41026
L65241 41026
" />
<path d="M87741 35514
L93253 35514
" />
<path d="M72741 35514
L78253 35514
" />
<path d="M68991 28014
L74503 28014
" />
<path d="M104503 33526
L98991 33526
" />
<path d="M125241 26026
L125241 20514
" />
<path d="M27741 35514
L33253 35514
" />
<path d="M127418 9294
L132701 9294
" />
<path d="M61491 33526
L61491 28014
" />
<path d="M74503 28014
L74503 33526
" />
<path d="M130753 26026
L125241 26026
" />
<path d="M69432 11263
L72188 11263
" />
<path d="M46491 28014
L52003 28014
" />
<path d="M59503 28014
L59503 33526
" />
<path d="M52003 28014
L52003 33526
" />
<path d="M89503 28014
L89503 33526
" />
<path d="M65241 35514
L70753 35514
" />
<path d="M17352 9294
L50891 9294
" />
<path d="M83991 28014
L89503 28014
" />
<path d="M126827 9885
L126827 10607
" />
<path d="M83991 33526
L83991 28014
" />
<path d="M72741 41026
L72741 35514
" />
<path d="M68991 33526
L68991 28014
" />
<path d="M85753 41026
L80241 41026
" />
<path d="M67003 28014
L67003 33526
" />
<path d="M91491 28014
L97003 28014
" />
<path d="M35241 41026
L35241 35514
" />
<path d="M70527 48821
L69229 48821
" />
<path d="M124859 10608 A984.252 984.252 0.0 0 0 126827 10608" />
<path d="M67003 33526
L61491 33526
" />
<path d="M110128 26026
L104616 26026
" />
<path d="M80241 41026
L80241 35514
" />
<path d="M38991 33526
L38991 28014
" />
<path d="M19190 33526
L13678 33526
" />
<path d="M93253 35514
L93253 41026
" />
<path d="M13678 33526
L13678 28014
" />
<path d="M125241 20514
L130753 20514
" />
<path d="M100753 35514
L100753 41026
" />
<path d="M61491 28014
L67003 28014
" />
<path d="M82650 45959
L82974 45959
" />
<path d="M63253 41026
L57741 41026
" />
<path d="M8460 31464
L7737 31464
" />
<path d="M82650 45959
L82650 48428
" />
<path d="M80241 35514
L85753 35514
" />
<path d="M52648 44860
L56803 44864
" />
<path d="M55753 35514
L55753 41026
" />
<path d="M93253 41026
L87741 41026
" />
<path d="M7147 50436.2 A1771.65 1771.65 0.0 0 0 8918.66 52207.9" />
<path d="M77319 43593
L78599 43593
" />
<path d="M57741 35514
L63253 35514
" />
<path d="M55753 41026
L50241 41026
" />
<path d="M89503 33526
L83991 33526
" />
<path d="M53991 33526
L53991 28014
" />
<path d="M46491 33526
L46491 28014
" />
<path d="M76491 33526
L76491 28014
" />
<path d="M42741 35514
L48253 35514
" />
<path d="M52003 33526
L46491 33526
" />
<path d="M42741 41026
L42741 35514
" />
<path d="M76491 28014
L82003 28014
" />
<path d="M50241 41026
L50241 35514
" />
<path d="M111065 41026
L105554 41026
" />
<path d="M63253 35514
L63253 41026
" />
<path d="M57741 41026
L57741 35514
" />
<path d="M53991 28014
L59503 28014
" />
<path d="M35128 26026
L29616 26026
" />
<path d="M82003 33526
L76491 33526
" />
<path d="M59503 33526
L53991 33526
" />
<path d="M48253 41026
L42741 41026
" />
<path d="M40229 48435
L40229 45966
" />
<path d="M50241 35514
L55753 35514
" />
<path d="M21178 48526
L21178 43014
" />
<path d="M52116 26026
L52116 20514
" />
<path d="M117970 33821
L119269 33821
" />
<path d="M119269 33821
L119269 33435
" />
<path d="M104616 26026
L104616 20514
" />
<path d="M72188 11263.2 A590.551 590.551 0.0 0 0 72778.6 10672.7" />
<path d="M37003 28014
L37003 33526
" />
<path d="M74503 33526
L68991 33526
" />
<path d="M113681 18526
L110836 18526
" />
<path d="M113878 18526
L113681 18526
" />
<path d="M65128 20514
L65128 26026
" />
<path d="M108599 33821
L109898 33821
" />
<path d="M109898 33821
L109898 33526
" />
<path d="M42628 26026
L37116 26026
" />
<path d="M52116 20514
L57628 20514
" />
<path d="M50473 43230
L51773 43230
" />
<path d="M12741 20514
L18253 20514
" />
<path d="M35128 20514
L35128 26026
" />
<path d="M89616 26026
L89616 20514
" />
<path d="M35241 35514
L40753 35514
" />
<path d="M125241 28014
L130753 28014
" />
<path d="M78253 41026
L72741 41026
" />
<path d="M106491 33526
L108599 33526
" />
<path d="M108599 33526
L108599 33821
" />
<path d="M97003 33526
L91491 33526
" />
<path d="M91491 33526
L91491 28014
" />
<path d="M98991 33526
L98991 28014
" />
<path d="M82116 26026
L82116 20514
" />
<path d="M40753 41026
L35241 41026
" />
<path d="M55866 18526
L55866 13014
" />
<path d="M79898 43230
L79905 43229
" />
<path d="M68878 18526
L63366 18526
" />
<path d="M78599 43230
L79898 43230
" />
<path d="M97003 28014
L97003 33526
" />
<path d="M125241 33526
L125241 28014
" />
<path d="M48253 35514
L48253 41026
" />
<path d="M23644 41321
L23644 41026
" />
<path d="M23644 41026
L25753 41026
" />
<path d="M71807 48526
L71807 48436
" />
<path d="M16761.8 50932.6 A984.252 984.252 0.0 0 0 14793.3 50932.6" />
<path d="M127418 9294.72 A590.551 590.551 0.0 0 0 126827 9885.27" />
<path d="M49194 48436
L49194 48526
" />
<path d="M117741 44889
L123253 44889
" />
<path d="M49194 48526
L43682 48526
" />
<path d="M69229 48821
L69229 48436
" />
<path d="M42399 43592
L42402 43592
" />
<path d="M7147 42143
L7147 32054
" />
<path d="M64191 44864
L68354 44861
" />
<path d="M12975 41026
L11804 41026
" />
<path d="M64191 46675
L68354 46671
" />
<path d="M68354 44861
L68354 43589
" />
<path d="M74616 20514
L80128 20514
" />
<path d="M88170 10608 A984.252 984.252 0.0 0 0 90138.5 10608" />
<path d="M43682 48436
L42402 48436
" />
<path d="M70866 18526
L70866 13014
" />
<path d="M16761 50932
L16761 51617
" />
<path d="M80470 48821
L79922 48821
" />
<g >
</g>
</g> 
</svg>
