<?xml version="1.0" standalone="no"?>
 <!DOCTYPE svg PUBLIC "-//W3C//DTD SVG 1.1//EN" 
 "http://www.w3.org/Graphics/SVG/1.1/DTD/svg11.dtd"> 
<svg
  xmlns:svg="http://www.w3.org/2000/svg"
  xmlns="http://www.w3.org/2000/svg"
  xmlns:xlink="http://www.w3.org/1999/xlink"
  version="1.1"
  width="29.700220cm" height="21.000720cm" viewBox="0 0 297002200 210007200">
<title>SVG Picture created as 5x12-plate-F_Silkscreen.svg date 2023/02/24 11:05:33 </title>
  <desc>Picture generated by PCBNEW </desc>
<g style="fill:#000000; fill-opacity:1.000000;stroke:#000000; stroke-opacity:1.000000;
stroke-linecap:round; stroke-linejoin:round;"
 transform="translate(0 0) scale(1 1)">
</g>
<g style="fill:#000000; fill-opacity:0.0; 
stroke:#000000; stroke-width:0.000000; stroke-opacity:1; 
stroke-linecap:round; stroke-linejoin:round;">
</g>
<g style="fill:#000000; fill-opacity:0.0; 
stroke:#000000; stroke-width:100000.000000; stroke-opacity:1; 
stroke-linecap:round; stroke-linejoin:round;">
<path d="M92518400 54433800
L106668400 54433800
" />
<path d="M182868400 16433800
L182868400 30583800
" />
<path d="M220968400 87583800
L206818400 87583800
" />
<path d="M182868400 73433800
L182868400 87583800
" />
<path d="M201918400 54433800
L201918400 68583800
" />
<path d="M30468400 49583800
L16318400 49583800
" />
<path d="M206818400 87583800
L206818400 73433800
" />
<path d="M122666400 52127800
L122666400 49583800
" />
<path d="M87618400 73433800
L87618400 87583800
" />
<path d="M68568400 16433800
L68568400 30583800
" />
<path d="M201918400 87583800
L187768400 87583800
" />
<path d="M125718400 48427800
L130618400 48427800
" />
<path d="M130618400 30583800
L130618400 16433800
" />
<path d="M92518400 87583800
L92518400 73433800
" />
<path d="M106668400 49583800
L92518400 49583800
" />
<path d="M225868400 68583800
L225868400 54433800
" />
<path d="M206818400 73433800
L220968400 73433800
" />
<path d="M73468400 49583800
L73468400 35433800
" />
<path d="M206818400 92433800
L220968400 92433800
" />
<path d="M35368400 35433800
L49518400 35433800
" />
<path d="M182868400 30583800
L168718400 30583800
" />
<path d="M35368400 92433800
L49518400 92433800
" />
<path d="M240018400 54433800
L240018400 68583800
" />
<path d="M35368400 16433800
L49518400 16433800
" />
<path d="M206818400 16433800
L220968400 16433800
" />
<path d="M87618400 54433800
L87618400 68583800
" />
<path d="M144768400 30583800
L130618400 30583800
" />
<path d="M73468400 16433800
L87618400 16433800
" />
<path d="M206818400 54433800
L220968400 54433800
" />
<path d="M111568400 87583800
L111568400 73433800
" />
<path d="M149668400 16433800
L163818400 16433800
" />
<path d="M73468400 106583800
L73468400 92433800
" />
<path d="M111568400 106583800
L111568400 92433800
" />
<path d="M68568400 73433800
L68568400 87583800
" />
<path d="M220968400 30583800
L206818400 30583800
" />
<path d="M54418400 106583800
L54418400 92433800
" />
<path d="M139041400 71122000
L128041400 71122000
" />
<path d="M206818400 35433800
L220968400 35433800
" />
<path d="M73468400 73433800
L87618400 73433800
" />
<path d="M144768400 68583800
L139041400 68578000
" />
<path d="M106668400 54433800
L106668400 68583800
" />
<path d="M130618400 35433800
L144768400 35433800
" />
<path d="M16318400 92433800
L30468400 92433800
" />
<path d="M68568400 92433800
L68568400 106583800
" />
<path d="M106668400 92433800
L106668400 106583800
" />
<path d="M220968400 92433800
L220968400 106583800
" />
<path d="M149668400 68583800
L149668400 54433800
" />
<path d="M182868400 68583800
L168718400 68583800
" />
<path d="M125718400 30583800
L111568400 30583800
" />
<path d="M163818400 106583800
L149668400 106583800
" />
<path d="M149668400 30583800
L149668400 16433800
" />
<path d="M16318400 68583800
L16318400 54433800
" />
<path d="M35368400 87583800
L35368400 73433800
" />
<path d="M87618400 68583800
L73468400 68583800
" />
<path d="M54418400 73433800
L68568400 73433800
" />
<path d="M49518400 87583800
L35368400 87583800
" />
<path d="M182868400 54433800
L182868400 68583800
" />
<path d="M225868400 49583800
L225868400 35433800
" />
<path d="M54418400 68583800
L54418400 54433800
" />
<path d="M35368400 30583800
L35368400 16433800
" />
<path d="M240018400 49583800
L225868400 49583800
" />
<path d="M168718400 30583800
L168718400 16433800
" />
<path d="M244266400.000000 17528800.000000 A5349998.000000 5349998.000000 0.0 0 0 238916400.000000 12178800.000000" />
<path d="M87618400 92433800
L87618400 106583800
" />
<path d="M92518400 16433800
L106668400 16433800
" />
<path d="M187768400 49583800
L187768400 35433800
" />
<path d="M225868400 73433800
L240018400 73433800
" />
<path d="M206818400 30583800
L206818400 16433800
" />
<path d="M16318400 35433800
L30468400 35433800
" />
<path d="M225868400 30583800
L225868400 16433800
" />
<path d="M30468400 87583800
L16318400 87583800
" />
<path d="M49518400 35433800
L49518400 49583800
" />
<path d="M73468400 35433800
L87618400 35433800
" />
<path d="M16318400 16433800
L30468400 16433800
" />
<path d="M128041400 71122000
L117041400 71122000
" />
<path d="M244266400 105486800
L244266400 17528800
" />
<path d="M187768400 54433800
L201918400 54433800
" />
<path d="M92518400 49583800
L92518400 35433800
" />
<path d="M87618400 35433800
L87618400 49583800
" />
<path d="M240018400 73433800
L240018400 87583800
" />
<path d="M182868400 106583800
L168718400 106583800
" />
<path d="M206818400 49583800
L206818400 35433800
" />
<path d="M92518400 35433800
L106668400 35433800
" />
<path d="M163818400 87583800
L149668400 87583800
" />
<path d="M73468400 54433800
L87618400 54433800
" />
<path d="M111568400 49583800
L111568400 35433800
" />
<path d="M238916400 12178800
L17416400 12178800
" />
<path d="M106668400 87583800
L92518400 87583800
" />
<path d="M149668400 54433800
L163818400 54433800
" />
<path d="M149668400 49583800
L149668400 35433800
" />
<path d="M73468400 30583800
L73468400 16433800
" />
<path d="M30468400 16433800
L30468400 30583800
" />
<path d="M54418400 92433800
L68568400 92433800
" />
<path d="M163818400 92433800
L163818400 106583800
" />
<path d="M225868400 54433800
L240018400 54433800
" />
<path d="M73468400 92433800
L87618400 92433800
" />
<path d="M49518400 68583800
L35368400 68583800
" />
<path d="M220968400 106583800
L206818400 106583800
" />
<path d="M201918400 92433800
L201918400 106583800
" />
<path d="M54418400 16433800
L68568400 16433800
" />
<path d="M130618400 16433800
L144768400 16433800
" />
<path d="M238916400.000000 110836800.000000 A5349998.000000 5349998.000000 0.0 0 0 244266400.000000 105486800.000000" />
<path d="M35368400 54433800
L49518400 54433800
" />
<path d="M240018400 106583800
L225868400 106583800
" />
<path d="M201918400 16433800
L201918400 30583800
" />
<path d="M201918400 73433800
L201918400 87583800
" />
<path d="M17416400.000000 12178800.000000 A5350001.000000 5350001.000000 0.0 0 0 12066400.000000 17528800.000000" />
<path d="M220968400 73433800
L220968400 87583800
" />
<path d="M125718400 67427800
L130618400 67427800
" />
<path d="M144768400 49583800
L133666400 49583800
" />
<path d="M92518400 73433800
L106668400 73433800
" />
<path d="M87618400 106583800
L73468400 106583800
" />
<path d="M206818400 68583800
L206818400 54433800
" />
<path d="M111568400 35433800
L125718400 35433800
" />
<path d="M168718400 92433800
L182868400 92433800
" />
<path d="M87618400 49583800
L73468400 49583800
" />
<path d="M68568400 106583800
L54418400 106583800
" />
<path d="M35368400 106583800
L35368400 92433800
" />
<path d="M49518400 92433800
L49518400 106583800
" />
<path d="M168718400 54433800
L182868400 54433800
" />
<path d="M54418400 87583800
L54418400 73433800
" />
<path d="M125718400 54433800
L125718400 67427800
" />
<path d="M168718400 106583800
L168718400 92433800
" />
<path d="M16318400 73433800
L30468400 73433800
" />
<path d="M30468400 30583800
L16318400 30583800
" />
<path d="M49518400 54433800
L49518400 68583800
" />
<path d="M111568400 92433800
L144768400 92433800
" />
<path d="M16318400 87583800
L16318400 73433800
" />
<path d="M130618400 67427800
L130618400 54433800
" />
<path d="M133666400 49583800
L133666400 52127800
" />
<path d="M111568400 68583800
L111568400 54433800
" />
<path d="M30468400 106583800
L16318400 106583800
" />
<path d="M220968400 35433800
L220968400 49583800
" />
<path d="M163818400 68583800
L149668400 68583800
" />
<path d="M54418400 30583800
L54418400 16433800
" />
<path d="M49518400 30583800
L35368400 30583800
" />
<path d="M49518400 49583800
L35368400 49583800
" />
<path d="M144768400 73433800
L144768400 87583800
" />
<path d="M225868400 35433800
L240018400 35433800
" />
<path d="M92518400 30583800
L92518400 16433800
" />
<path d="M87618400 87583800
L73468400 87583800
" />
<path d="M168718400 35433800
L182868400 35433800
" />
<path d="M122666400 49583800
L111568400 49583800
" />
<path d="M54418400 35433800
L68568400 35433800
" />
<path d="M30468400 73433800
L30468400 87583800
" />
<path d="M54418400 54433800
L68568400 54433800
" />
<path d="M182868400 92433800
L182868400 106583800
" />
<path d="M220968400 68583800
L206818400 68583800
" />
<path d="M168718400 49583800
L168718400 35433800
" />
<path d="M201918400 49583800
L187768400 49583800
" />
<path d="M187768400 16433800
L201918400 16433800
" />
<path d="M225868400 106583800
L225868400 92433800
" />
<path d="M201918400 30583800
L187768400 30583800
" />
<path d="M187768400 73433800
L201918400 73433800
" />
<path d="M149668400 35433800
L163818400 35433800
" />
<path d="M168718400 68583800
L168718400 54433800
" />
<path d="M182868400 87583800
L168718400 87583800
" />
<path d="M139041400 68578000
L139041400 71122000
" />
<path d="M220968400 16433800
L220968400 30583800
" />
<path d="M30468400 35433800
L30468400 49583800
" />
<path d="M106668400 68583800
L92518400 68583800
" />
<path d="M54418400 49583800
L54418400 35433800
" />
<path d="M111568400 30583800
L111568400 16433800
" />
<path d="M206818400 106583800
L206818400 92433800
" />
<path d="M240018400 92433800
L240018400 106583800
" />
<path d="M187768400 106583800
L187768400 92433800
" />
<path d="M106668400 16433800
L106668400 30583800
" />
<path d="M133666400 52127800
L122666400 52127800
" />
<path d="M12066400 17528800
L12066400 105486800
" />
<path d="M163818400 30583800
L149668400 30583800
" />
<path d="M35368400 73433800
L49518400 73433800
" />
<path d="M225868400 16433800
L240018400 16433800
" />
<path d="M16318400 49583800
L16318400 35433800
" />
<path d="M17416400 110836800
L238916400 110836800
" />
<path d="M201918400 68583800
L187768400 68583800
" />
<path d="M49518400 106583800
L35368400 106583800
" />
<path d="M240018400 87583800
L225868400 87583800
" />
<path d="M144768400 106583800
L111568400 106583800
" />
<path d="M12066400.000000 105486800.000000 A5350001.000000 5350001.000000 0.0 0 0 17416400.000000 110836800.000000" />
<path d="M187768400 35433800
L201918400 35433800
" />
<path d="M163818400 54433800
L163818400 68583800
" />
<path d="M30468400 92433800
L30468400 106583800
" />
<path d="M149668400 73433800
L163818400 73433800
" />
<path d="M225868400 92433800
L240018400 92433800
" />
<path d="M87618400 30583800
L73468400 30583800
" />
<path d="M68568400 30583800
L54418400 30583800
" />
<path d="M68568400 35433800
L68568400 49583800
" />
<path d="M187768400 92433800
L201918400 92433800
" />
<path d="M240018400 68583800
L225868400 68583800
" />
<path d="M30468400 54433800
L30468400 68583800
" />
<path d="M130618400 48427800
L130618400 35433800
" />
<path d="M144768400 87583800
L111568400 87583800
" />
<path d="M144768400 35433800
L144768400 49583800
" />
<path d="M111568400 16433800
L125718400 16433800
" />
<path d="M117041400 68578000
L111568400 68583800
" />
<path d="M168718400 73433800
L182868400 73433800
" />
<path d="M168718400 87583800
L168718400 73433800
" />
<path d="M220968400 54433800
L220968400 68583800
" />
<path d="M35368400 68583800
L35368400 54433800
" />
<path d="M16318400 30583800
L16318400 16433800
" />
<path d="M49518400 73433800
L49518400 87583800
" />
<path d="M187768400 87583800
L187768400 73433800
" />
<path d="M149668400 87583800
L149668400 73433800
" />
<path d="M68568400 49583800
L54418400 49583800
" />
<path d="M106668400 35433800
L106668400 49583800
" />
<path d="M68568400 68583800
L54418400 68583800
" />
<path d="M187768400 30583800
L187768400 16433800
" />
<path d="M182868400 35433800
L182868400 49583800
" />
<path d="M30468400 68583800
L16318400 68583800
" />
<path d="M240018400 35433800
L240018400 49583800
" />
<path d="M149668400 92433800
L163818400 92433800
" />
<path d="M35368400 49583800
L35368400 35433800
" />
<path d="M149668400 106583800
L149668400 92433800
" />
<path d="M130618400 54433800
L144768400 54433800
" />
<path d="M92518400 92433800
L106668400 92433800
" />
<path d="M106668400 30583800
L92518400 30583800
" />
<path d="M16318400 54433800
L30468400 54433800
" />
<path d="M106668400 73433800
L106668400 87583800
" />
<path d="M106668400 106583800
L92518400 106583800
" />
<path d="M125718400 35433800
L125718400 48427800
" />
<path d="M117041400 71122000
L117041400 68578000
" />
<path d="M111568400 73433800
L144768400 73433800
" />
<path d="M144768400 92433800
L144768400 106583800
" />
<path d="M201918400 35433800
L201918400 49583800
" />
<path d="M87618400 16433800
L87618400 30583800
" />
<path d="M187768400 68583800
L187768400 54433800
" />
<path d="M168718400 16433800
L182868400 16433800
" />
<path d="M68568400 87583800
L54418400 87583800
" />
<path d="M225868400 87583800
L225868400 73433800
" />
<path d="M92518400 68583800
L92518400 54433800
" />
<path d="M163818400 16433800
L163818400 30583800
" />
<path d="M68568400 54433800
L68568400 68583800
" />
<path d="M144768400 54433800
L144768400 68583800
" />
<path d="M201918400 106583800
L187768400 106583800
" />
<path d="M49518400 16433800
L49518400 30583800
" />
<path d="M125718400 16433800
L125718400 30583800
" />
<path d="M163818400 35433800
L163818400 49583800
" />
<path d="M111568400 54433800
L125718400 54433800
" />
<path d="M73468400 68583800
L73468400 54433800
" />
<path d="M92518400 106583800
L92518400 92433800
" />
<path d="M220968400 49583800
L206818400 49583800
" />
<path d="M182868400 49583800
L168718400 49583800
" />
<path d="M240018400 30583800
L225868400 30583800
" />
<path d="M163818400 73433800
L163818400 87583800
" />
<path d="M73468400 87583800
L73468400 73433800
" />
<path d="M240018400 16433800
L240018400 30583800
" />
<path d="M16318400 106583800
L16318400 92433800
" />
<path d="M144768400 16433800
L144768400 30583800
" />
<path d="M163818400 49583800
L149668400 49583800
" />
<g >
</g>
<g >
</g>
<g >
</g>
<g >
</g>
<g >
</g>
<g >
</g>
<g >
</g>
<g >
</g>
<g >
</g>
</g> 
</svg>
