G04 #@! TF.GenerationSoftware,KiCad,Pcbnew,5.1.6-c6e7f7d~87~ubuntu20.04.1*
G04 #@! TF.CreationDate,2021-06-15T12:00:34-07:00*
G04 #@! TF.ProjectId,ergo-Plate,6572676f-2d50-46c6-9174-652e6b696361,rev?*
G04 #@! TF.SameCoordinates,Original*
G04 #@! TF.FileFunction,Copper,L1,Top*
G04 #@! TF.FilePolarity,Positive*
%FSLAX46Y46*%
G04 Gerber Fmt 4.6, Leading zero omitted, Abs format (unit mm)*
G04 Created by KiCad (PCBNEW 5.1.6-c6e7f7d~87~ubuntu20.04.1) date 2021-06-15 12:00:34*
%MOMM*%
%LPD*%
G01*
G04 APERTURE LIST*
G04 #@! TA.AperFunction,NonConductor*
%ADD10C,0.254000*%
G04 #@! TD*
G04 APERTURE END LIST*
D10*
G36*
X246852920Y-90305480D02*
G01*
X12106920Y-90305480D01*
X12106920Y-88190023D01*
X12137788Y-88235788D01*
X12174254Y-88291513D01*
X12180740Y-88299466D01*
X12553950Y-88750599D01*
X12601240Y-88797560D01*
X12647828Y-88845134D01*
X12655735Y-88851676D01*
X13109463Y-89221728D01*
X13164956Y-89258597D01*
X13219917Y-89296230D01*
X13228944Y-89301111D01*
X13745908Y-89575985D01*
X13807547Y-89601391D01*
X13868728Y-89627613D01*
X13878531Y-89630648D01*
X14439039Y-89799875D01*
X14504431Y-89812823D01*
X14569547Y-89826664D01*
X14579753Y-89827737D01*
X15162456Y-89884872D01*
X15162457Y-89884872D01*
X15198075Y-89888380D01*
X240890285Y-89888380D01*
X240923064Y-89885152D01*
X240941739Y-89885282D01*
X240951952Y-89884281D01*
X241534242Y-89823080D01*
X241599568Y-89809670D01*
X241664936Y-89797201D01*
X241674752Y-89794237D01*
X241674759Y-89794236D01*
X241674765Y-89794233D01*
X242234074Y-89621098D01*
X242295481Y-89595285D01*
X242357249Y-89570329D01*
X242366310Y-89565511D01*
X242881342Y-89287035D01*
X242936588Y-89249772D01*
X242992313Y-89213306D01*
X243000266Y-89206820D01*
X243451399Y-88833610D01*
X243498360Y-88786320D01*
X243545934Y-88739732D01*
X243552476Y-88731825D01*
X243922528Y-88278097D01*
X243959397Y-88222604D01*
X243997030Y-88167643D01*
X244001911Y-88158616D01*
X244276785Y-87641652D01*
X244302191Y-87580013D01*
X244328413Y-87518832D01*
X244331448Y-87509029D01*
X244500675Y-86948521D01*
X244513623Y-86883129D01*
X244527464Y-86818013D01*
X244528537Y-86807807D01*
X244585672Y-86225104D01*
X244585672Y-86225103D01*
X244589180Y-86189485D01*
X244589180Y-15917275D01*
X244585952Y-15884496D01*
X244586082Y-15865821D01*
X244585081Y-15855607D01*
X244523880Y-15273318D01*
X244510474Y-15208011D01*
X244498001Y-15142625D01*
X244495037Y-15132808D01*
X244495036Y-15132801D01*
X244495033Y-15132795D01*
X244321898Y-14573487D01*
X244296083Y-14512076D01*
X244271129Y-14450311D01*
X244266311Y-14441250D01*
X243987835Y-13926218D01*
X243950572Y-13870972D01*
X243914106Y-13815247D01*
X243907620Y-13807294D01*
X243534410Y-13356161D01*
X243487137Y-13309217D01*
X243440532Y-13261626D01*
X243432625Y-13255084D01*
X242978897Y-12885032D01*
X242923378Y-12848145D01*
X242868443Y-12810531D01*
X242859416Y-12805649D01*
X242342452Y-12530775D01*
X242280813Y-12505369D01*
X242219632Y-12479147D01*
X242209829Y-12476112D01*
X241649321Y-12306885D01*
X241583961Y-12293943D01*
X241518813Y-12280096D01*
X241508607Y-12279023D01*
X240925904Y-12221888D01*
X240925903Y-12221888D01*
X240890285Y-12218380D01*
X15198075Y-12218380D01*
X15165296Y-12221608D01*
X15146621Y-12221478D01*
X15136407Y-12222479D01*
X14554118Y-12283680D01*
X14488811Y-12297086D01*
X14423425Y-12309559D01*
X14413608Y-12312523D01*
X14413601Y-12312524D01*
X14413595Y-12312527D01*
X13854287Y-12485662D01*
X13792876Y-12511477D01*
X13731111Y-12536431D01*
X13722050Y-12541249D01*
X13207018Y-12819725D01*
X13151772Y-12856988D01*
X13096047Y-12893454D01*
X13088094Y-12899940D01*
X12636961Y-13273150D01*
X12590017Y-13320423D01*
X12542426Y-13367028D01*
X12535884Y-13374935D01*
X12165832Y-13828663D01*
X12128945Y-13884182D01*
X12106920Y-13916349D01*
X12106920Y-10559480D01*
X246852920Y-10559480D01*
X246852920Y-90305480D01*
G37*
X246852920Y-90305480D02*
X12106920Y-90305480D01*
X12106920Y-88190023D01*
X12137788Y-88235788D01*
X12174254Y-88291513D01*
X12180740Y-88299466D01*
X12553950Y-88750599D01*
X12601240Y-88797560D01*
X12647828Y-88845134D01*
X12655735Y-88851676D01*
X13109463Y-89221728D01*
X13164956Y-89258597D01*
X13219917Y-89296230D01*
X13228944Y-89301111D01*
X13745908Y-89575985D01*
X13807547Y-89601391D01*
X13868728Y-89627613D01*
X13878531Y-89630648D01*
X14439039Y-89799875D01*
X14504431Y-89812823D01*
X14569547Y-89826664D01*
X14579753Y-89827737D01*
X15162456Y-89884872D01*
X15162457Y-89884872D01*
X15198075Y-89888380D01*
X240890285Y-89888380D01*
X240923064Y-89885152D01*
X240941739Y-89885282D01*
X240951952Y-89884281D01*
X241534242Y-89823080D01*
X241599568Y-89809670D01*
X241664936Y-89797201D01*
X241674752Y-89794237D01*
X241674759Y-89794236D01*
X241674765Y-89794233D01*
X242234074Y-89621098D01*
X242295481Y-89595285D01*
X242357249Y-89570329D01*
X242366310Y-89565511D01*
X242881342Y-89287035D01*
X242936588Y-89249772D01*
X242992313Y-89213306D01*
X243000266Y-89206820D01*
X243451399Y-88833610D01*
X243498360Y-88786320D01*
X243545934Y-88739732D01*
X243552476Y-88731825D01*
X243922528Y-88278097D01*
X243959397Y-88222604D01*
X243997030Y-88167643D01*
X244001911Y-88158616D01*
X244276785Y-87641652D01*
X244302191Y-87580013D01*
X244328413Y-87518832D01*
X244331448Y-87509029D01*
X244500675Y-86948521D01*
X244513623Y-86883129D01*
X244527464Y-86818013D01*
X244528537Y-86807807D01*
X244585672Y-86225104D01*
X244585672Y-86225103D01*
X244589180Y-86189485D01*
X244589180Y-15917275D01*
X244585952Y-15884496D01*
X244586082Y-15865821D01*
X244585081Y-15855607D01*
X244523880Y-15273318D01*
X244510474Y-15208011D01*
X244498001Y-15142625D01*
X244495037Y-15132808D01*
X244495036Y-15132801D01*
X244495033Y-15132795D01*
X244321898Y-14573487D01*
X244296083Y-14512076D01*
X244271129Y-14450311D01*
X244266311Y-14441250D01*
X243987835Y-13926218D01*
X243950572Y-13870972D01*
X243914106Y-13815247D01*
X243907620Y-13807294D01*
X243534410Y-13356161D01*
X243487137Y-13309217D01*
X243440532Y-13261626D01*
X243432625Y-13255084D01*
X242978897Y-12885032D01*
X242923378Y-12848145D01*
X242868443Y-12810531D01*
X242859416Y-12805649D01*
X242342452Y-12530775D01*
X242280813Y-12505369D01*
X242219632Y-12479147D01*
X242209829Y-12476112D01*
X241649321Y-12306885D01*
X241583961Y-12293943D01*
X241518813Y-12280096D01*
X241508607Y-12279023D01*
X240925904Y-12221888D01*
X240925903Y-12221888D01*
X240890285Y-12218380D01*
X15198075Y-12218380D01*
X15165296Y-12221608D01*
X15146621Y-12221478D01*
X15136407Y-12222479D01*
X14554118Y-12283680D01*
X14488811Y-12297086D01*
X14423425Y-12309559D01*
X14413608Y-12312523D01*
X14413601Y-12312524D01*
X14413595Y-12312527D01*
X13854287Y-12485662D01*
X13792876Y-12511477D01*
X13731111Y-12536431D01*
X13722050Y-12541249D01*
X13207018Y-12819725D01*
X13151772Y-12856988D01*
X13096047Y-12893454D01*
X13088094Y-12899940D01*
X12636961Y-13273150D01*
X12590017Y-13320423D01*
X12542426Y-13367028D01*
X12535884Y-13374935D01*
X12165832Y-13828663D01*
X12128945Y-13884182D01*
X12106920Y-13916349D01*
X12106920Y-10559480D01*
X246852920Y-10559480D01*
X246852920Y-90305480D01*
G36*
X241293435Y-13734974D02*
G01*
X241715961Y-13862542D01*
X242105662Y-14069749D01*
X242447693Y-14348704D01*
X242729029Y-14688779D01*
X242938951Y-15077024D01*
X243069465Y-15498645D01*
X243119181Y-15971663D01*
X243119180Y-86117433D01*
X243072586Y-86592635D01*
X242945018Y-87015161D01*
X242737811Y-87404862D01*
X242458856Y-87746893D01*
X242118781Y-88028229D01*
X241730536Y-88238151D01*
X241308917Y-88368665D01*
X240835906Y-88418380D01*
X15270127Y-88418380D01*
X14794925Y-88371786D01*
X14372399Y-88244218D01*
X13982698Y-88037011D01*
X13640667Y-87758056D01*
X13359331Y-87417981D01*
X13149409Y-87029736D01*
X13018895Y-86608117D01*
X12969180Y-86135106D01*
X12969180Y-71125320D01*
X15547885Y-71125320D01*
X15551320Y-71160197D01*
X15551321Y-85090433D01*
X15547885Y-85125320D01*
X15561593Y-85264504D01*
X15602192Y-85398340D01*
X15668120Y-85521683D01*
X15756845Y-85629795D01*
X15864957Y-85718520D01*
X15988300Y-85784448D01*
X16122136Y-85825047D01*
X16226443Y-85835320D01*
X16261320Y-85838755D01*
X16296197Y-85835320D01*
X30226443Y-85835320D01*
X30261320Y-85838755D01*
X30296197Y-85835320D01*
X30400504Y-85825047D01*
X30534340Y-85784448D01*
X30657683Y-85718520D01*
X30765795Y-85629795D01*
X30854520Y-85521683D01*
X30920448Y-85398340D01*
X30961047Y-85264504D01*
X30974755Y-85125320D01*
X30971320Y-85090443D01*
X30971320Y-71160197D01*
X30974755Y-71125320D01*
X53647925Y-71125320D01*
X53651360Y-71160197D01*
X53651361Y-85090433D01*
X53647925Y-85125320D01*
X53661633Y-85264504D01*
X53702232Y-85398340D01*
X53768160Y-85521683D01*
X53856885Y-85629795D01*
X53964997Y-85718520D01*
X54088340Y-85784448D01*
X54222176Y-85825047D01*
X54326483Y-85835320D01*
X54361360Y-85838755D01*
X54396237Y-85835320D01*
X68326483Y-85835320D01*
X68361360Y-85838755D01*
X68396237Y-85835320D01*
X68500544Y-85825047D01*
X68634380Y-85784448D01*
X68757723Y-85718520D01*
X68865835Y-85629795D01*
X68954560Y-85521683D01*
X69020488Y-85398340D01*
X69061087Y-85264504D01*
X69074795Y-85125320D01*
X69071360Y-85090443D01*
X69071360Y-71160197D01*
X69074795Y-71125320D01*
X77460425Y-71125320D01*
X77463860Y-71160197D01*
X77463861Y-85090433D01*
X77460425Y-85125320D01*
X77474133Y-85264504D01*
X77514732Y-85398340D01*
X77580660Y-85521683D01*
X77669385Y-85629795D01*
X77777497Y-85718520D01*
X77900840Y-85784448D01*
X78034676Y-85825047D01*
X78138983Y-85835320D01*
X78173860Y-85838755D01*
X78208737Y-85835320D01*
X92138983Y-85835320D01*
X92173860Y-85838755D01*
X92208737Y-85835320D01*
X92313044Y-85825047D01*
X92446880Y-85784448D01*
X92570223Y-85718520D01*
X92678335Y-85629795D01*
X92767060Y-85521683D01*
X92832988Y-85398340D01*
X92873587Y-85264504D01*
X92887295Y-85125320D01*
X92883860Y-85090443D01*
X92883860Y-71160197D01*
X92887295Y-71125320D01*
X106035425Y-71125320D01*
X106038860Y-71160197D01*
X106038861Y-85090433D01*
X106035425Y-85125320D01*
X106049133Y-85264504D01*
X106089732Y-85398340D01*
X106155660Y-85521683D01*
X106244385Y-85629795D01*
X106352497Y-85718520D01*
X106475840Y-85784448D01*
X106609676Y-85825047D01*
X106713983Y-85835320D01*
X106748860Y-85838755D01*
X106783737Y-85835320D01*
X120713983Y-85835320D01*
X120748860Y-85838755D01*
X120783737Y-85835320D01*
X120888044Y-85825047D01*
X121021880Y-85784448D01*
X121145223Y-85718520D01*
X121253335Y-85629795D01*
X121342060Y-85521683D01*
X121407988Y-85398340D01*
X121448587Y-85264504D01*
X121462295Y-85125320D01*
X121458860Y-85090443D01*
X121458860Y-71160197D01*
X121462295Y-71125320D01*
X134610425Y-71125320D01*
X134613860Y-71160197D01*
X134613861Y-85090433D01*
X134610425Y-85125320D01*
X134624133Y-85264504D01*
X134664732Y-85398340D01*
X134730660Y-85521683D01*
X134819385Y-85629795D01*
X134927497Y-85718520D01*
X135050840Y-85784448D01*
X135184676Y-85825047D01*
X135288983Y-85835320D01*
X135323860Y-85838755D01*
X135358737Y-85835320D01*
X149288983Y-85835320D01*
X149323860Y-85838755D01*
X149358737Y-85835320D01*
X149463044Y-85825047D01*
X149596880Y-85784448D01*
X149720223Y-85718520D01*
X149828335Y-85629795D01*
X149917060Y-85521683D01*
X149982988Y-85398340D01*
X150023587Y-85264504D01*
X150037295Y-85125320D01*
X150033860Y-85090443D01*
X150033860Y-71160197D01*
X150037295Y-71125320D01*
X163185385Y-71125320D01*
X163188820Y-71160197D01*
X163188821Y-85090433D01*
X163185385Y-85125320D01*
X163199093Y-85264504D01*
X163239692Y-85398340D01*
X163305620Y-85521683D01*
X163394345Y-85629795D01*
X163502457Y-85718520D01*
X163625800Y-85784448D01*
X163759636Y-85825047D01*
X163863943Y-85835320D01*
X163898820Y-85838755D01*
X163933697Y-85835320D01*
X177863943Y-85835320D01*
X177898820Y-85838755D01*
X177933697Y-85835320D01*
X178038004Y-85825047D01*
X178171840Y-85784448D01*
X178295183Y-85718520D01*
X178403295Y-85629795D01*
X178492020Y-85521683D01*
X178557948Y-85398340D01*
X178598547Y-85264504D01*
X178612255Y-85125320D01*
X178608820Y-85090443D01*
X178608820Y-71160197D01*
X178612255Y-71125320D01*
X186997885Y-71125320D01*
X187001320Y-71160197D01*
X187001321Y-85090433D01*
X186997885Y-85125320D01*
X187011593Y-85264504D01*
X187052192Y-85398340D01*
X187118120Y-85521683D01*
X187206845Y-85629795D01*
X187314957Y-85718520D01*
X187438300Y-85784448D01*
X187572136Y-85825047D01*
X187676443Y-85835320D01*
X187711320Y-85838755D01*
X187746197Y-85835320D01*
X201676443Y-85835320D01*
X201711320Y-85838755D01*
X201746197Y-85835320D01*
X201850504Y-85825047D01*
X201984340Y-85784448D01*
X202107683Y-85718520D01*
X202215795Y-85629795D01*
X202304520Y-85521683D01*
X202370448Y-85398340D01*
X202411047Y-85264504D01*
X202424755Y-85125320D01*
X202421320Y-85090443D01*
X202421320Y-71160197D01*
X202424755Y-71125320D01*
X225097885Y-71125320D01*
X225101320Y-71160197D01*
X225101321Y-85090433D01*
X225097885Y-85125320D01*
X225111593Y-85264504D01*
X225152192Y-85398340D01*
X225218120Y-85521683D01*
X225306845Y-85629795D01*
X225414957Y-85718520D01*
X225538300Y-85784448D01*
X225672136Y-85825047D01*
X225776443Y-85835320D01*
X225811320Y-85838755D01*
X225846197Y-85835320D01*
X239776443Y-85835320D01*
X239811320Y-85838755D01*
X239846197Y-85835320D01*
X239950504Y-85825047D01*
X240084340Y-85784448D01*
X240207683Y-85718520D01*
X240315795Y-85629795D01*
X240404520Y-85521683D01*
X240470448Y-85398340D01*
X240511047Y-85264504D01*
X240524755Y-85125320D01*
X240521320Y-85090443D01*
X240521320Y-71160197D01*
X240524755Y-71125320D01*
X240511047Y-70986136D01*
X240470448Y-70852300D01*
X240404520Y-70728957D01*
X240315795Y-70620845D01*
X240207683Y-70532120D01*
X240084340Y-70466192D01*
X239950504Y-70425593D01*
X239846197Y-70415320D01*
X239811320Y-70411885D01*
X239776443Y-70415320D01*
X225846197Y-70415320D01*
X225811320Y-70411885D01*
X225776443Y-70415320D01*
X225672136Y-70425593D01*
X225538300Y-70466192D01*
X225414957Y-70532120D01*
X225306845Y-70620845D01*
X225218120Y-70728957D01*
X225152192Y-70852300D01*
X225111593Y-70986136D01*
X225097885Y-71125320D01*
X202424755Y-71125320D01*
X202411047Y-70986136D01*
X202370448Y-70852300D01*
X202304520Y-70728957D01*
X202215795Y-70620845D01*
X202107683Y-70532120D01*
X201984340Y-70466192D01*
X201850504Y-70425593D01*
X201746197Y-70415320D01*
X201711320Y-70411885D01*
X201676443Y-70415320D01*
X187746197Y-70415320D01*
X187711320Y-70411885D01*
X187676443Y-70415320D01*
X187572136Y-70425593D01*
X187438300Y-70466192D01*
X187314957Y-70532120D01*
X187206845Y-70620845D01*
X187118120Y-70728957D01*
X187052192Y-70852300D01*
X187011593Y-70986136D01*
X186997885Y-71125320D01*
X178612255Y-71125320D01*
X178598547Y-70986136D01*
X178557948Y-70852300D01*
X178492020Y-70728957D01*
X178403295Y-70620845D01*
X178295183Y-70532120D01*
X178171840Y-70466192D01*
X178038004Y-70425593D01*
X177933697Y-70415320D01*
X177898820Y-70411885D01*
X177863943Y-70415320D01*
X163933697Y-70415320D01*
X163898820Y-70411885D01*
X163863943Y-70415320D01*
X163759636Y-70425593D01*
X163625800Y-70466192D01*
X163502457Y-70532120D01*
X163394345Y-70620845D01*
X163305620Y-70728957D01*
X163239692Y-70852300D01*
X163199093Y-70986136D01*
X163185385Y-71125320D01*
X150037295Y-71125320D01*
X150023587Y-70986136D01*
X149982988Y-70852300D01*
X149917060Y-70728957D01*
X149828335Y-70620845D01*
X149720223Y-70532120D01*
X149596880Y-70466192D01*
X149463044Y-70425593D01*
X149358737Y-70415320D01*
X149323860Y-70411885D01*
X149288983Y-70415320D01*
X135358737Y-70415320D01*
X135323860Y-70411885D01*
X135288983Y-70415320D01*
X135184676Y-70425593D01*
X135050840Y-70466192D01*
X134927497Y-70532120D01*
X134819385Y-70620845D01*
X134730660Y-70728957D01*
X134664732Y-70852300D01*
X134624133Y-70986136D01*
X134610425Y-71125320D01*
X121462295Y-71125320D01*
X121448587Y-70986136D01*
X121407988Y-70852300D01*
X121342060Y-70728957D01*
X121253335Y-70620845D01*
X121145223Y-70532120D01*
X121021880Y-70466192D01*
X120888044Y-70425593D01*
X120783737Y-70415320D01*
X120748860Y-70411885D01*
X120713983Y-70415320D01*
X106783737Y-70415320D01*
X106748860Y-70411885D01*
X106713983Y-70415320D01*
X106609676Y-70425593D01*
X106475840Y-70466192D01*
X106352497Y-70532120D01*
X106244385Y-70620845D01*
X106155660Y-70728957D01*
X106089732Y-70852300D01*
X106049133Y-70986136D01*
X106035425Y-71125320D01*
X92887295Y-71125320D01*
X92873587Y-70986136D01*
X92832988Y-70852300D01*
X92767060Y-70728957D01*
X92678335Y-70620845D01*
X92570223Y-70532120D01*
X92446880Y-70466192D01*
X92313044Y-70425593D01*
X92208737Y-70415320D01*
X92173860Y-70411885D01*
X92138983Y-70415320D01*
X78208737Y-70415320D01*
X78173860Y-70411885D01*
X78138983Y-70415320D01*
X78034676Y-70425593D01*
X77900840Y-70466192D01*
X77777497Y-70532120D01*
X77669385Y-70620845D01*
X77580660Y-70728957D01*
X77514732Y-70852300D01*
X77474133Y-70986136D01*
X77460425Y-71125320D01*
X69074795Y-71125320D01*
X69061087Y-70986136D01*
X69020488Y-70852300D01*
X68954560Y-70728957D01*
X68865835Y-70620845D01*
X68757723Y-70532120D01*
X68634380Y-70466192D01*
X68500544Y-70425593D01*
X68396237Y-70415320D01*
X68361360Y-70411885D01*
X68326483Y-70415320D01*
X54396237Y-70415320D01*
X54361360Y-70411885D01*
X54326483Y-70415320D01*
X54222176Y-70425593D01*
X54088340Y-70466192D01*
X53964997Y-70532120D01*
X53856885Y-70620845D01*
X53768160Y-70728957D01*
X53702232Y-70852300D01*
X53661633Y-70986136D01*
X53647925Y-71125320D01*
X30974755Y-71125320D01*
X30961047Y-70986136D01*
X30920448Y-70852300D01*
X30854520Y-70728957D01*
X30765795Y-70620845D01*
X30657683Y-70532120D01*
X30534340Y-70466192D01*
X30400504Y-70425593D01*
X30296197Y-70415320D01*
X30261320Y-70411885D01*
X30226443Y-70415320D01*
X16296197Y-70415320D01*
X16261320Y-70411885D01*
X16226443Y-70415320D01*
X16122136Y-70425593D01*
X15988300Y-70466192D01*
X15864957Y-70532120D01*
X15756845Y-70620845D01*
X15668120Y-70728957D01*
X15602192Y-70852300D01*
X15561593Y-70986136D01*
X15547885Y-71125320D01*
X12969180Y-71125320D01*
X12969180Y-53075320D01*
X20310385Y-53075320D01*
X20313820Y-53110197D01*
X20313821Y-67040433D01*
X20310385Y-67075320D01*
X20324093Y-67214504D01*
X20364692Y-67348340D01*
X20430620Y-67471683D01*
X20519345Y-67579795D01*
X20627457Y-67668520D01*
X20750800Y-67734448D01*
X20884636Y-67775047D01*
X20988943Y-67785320D01*
X21023820Y-67788755D01*
X21058697Y-67785320D01*
X34988943Y-67785320D01*
X35023820Y-67788755D01*
X35058697Y-67785320D01*
X35163004Y-67775047D01*
X35296840Y-67734448D01*
X35420183Y-67668520D01*
X35528295Y-67579795D01*
X35617020Y-67471683D01*
X35682948Y-67348340D01*
X35723547Y-67214504D01*
X35737255Y-67075320D01*
X35733820Y-67040443D01*
X35733820Y-53110197D01*
X35737255Y-53075320D01*
X39360385Y-53075320D01*
X39363820Y-53110197D01*
X39363821Y-67040433D01*
X39360385Y-67075320D01*
X39374093Y-67214504D01*
X39414692Y-67348340D01*
X39480620Y-67471683D01*
X39569345Y-67579795D01*
X39677457Y-67668520D01*
X39800800Y-67734448D01*
X39934636Y-67775047D01*
X40038943Y-67785320D01*
X40073820Y-67788755D01*
X40108697Y-67785320D01*
X50199382Y-67785320D01*
X50164750Y-67868930D01*
X50097631Y-68206360D01*
X50097631Y-68550400D01*
X50164750Y-68887830D01*
X50296408Y-69205681D01*
X50487547Y-69491740D01*
X50730820Y-69735013D01*
X51016879Y-69926152D01*
X51334730Y-70057810D01*
X51672160Y-70124929D01*
X52016200Y-70124929D01*
X52353630Y-70057810D01*
X52671481Y-69926152D01*
X52957540Y-69735013D01*
X53200813Y-69491740D01*
X53391952Y-69205681D01*
X53523610Y-68887830D01*
X53590729Y-68550400D01*
X53590729Y-68206360D01*
X53523610Y-67868930D01*
X53488978Y-67785320D01*
X54038943Y-67785320D01*
X54073820Y-67788755D01*
X54108697Y-67785320D01*
X54213004Y-67775047D01*
X54346840Y-67734448D01*
X54470183Y-67668520D01*
X54578295Y-67579795D01*
X54667020Y-67471683D01*
X54732948Y-67348340D01*
X54773547Y-67214504D01*
X54787255Y-67075320D01*
X54783820Y-67040443D01*
X54783820Y-53110197D01*
X54787255Y-53075320D01*
X58410385Y-53075320D01*
X58413820Y-53110197D01*
X58413821Y-67040433D01*
X58410385Y-67075320D01*
X58424093Y-67214504D01*
X58464692Y-67348340D01*
X58530620Y-67471683D01*
X58619345Y-67579795D01*
X58727457Y-67668520D01*
X58850800Y-67734448D01*
X58984636Y-67775047D01*
X59088943Y-67785320D01*
X59123820Y-67788755D01*
X59158697Y-67785320D01*
X73088943Y-67785320D01*
X73123820Y-67788755D01*
X73158697Y-67785320D01*
X73263004Y-67775047D01*
X73396840Y-67734448D01*
X73520183Y-67668520D01*
X73628295Y-67579795D01*
X73717020Y-67471683D01*
X73782948Y-67348340D01*
X73823547Y-67214504D01*
X73837255Y-67075320D01*
X73833820Y-67040443D01*
X73833820Y-53110197D01*
X73837255Y-53075320D01*
X77460385Y-53075320D01*
X77463820Y-53110197D01*
X77463821Y-67040433D01*
X77460385Y-67075320D01*
X77474093Y-67214504D01*
X77514692Y-67348340D01*
X77580620Y-67471683D01*
X77669345Y-67579795D01*
X77777457Y-67668520D01*
X77900800Y-67734448D01*
X78034636Y-67775047D01*
X78138943Y-67785320D01*
X78173820Y-67788755D01*
X78208697Y-67785320D01*
X92138943Y-67785320D01*
X92173820Y-67788755D01*
X92208697Y-67785320D01*
X92313004Y-67775047D01*
X92446840Y-67734448D01*
X92570183Y-67668520D01*
X92678295Y-67579795D01*
X92767020Y-67471683D01*
X92832948Y-67348340D01*
X92873547Y-67214504D01*
X92887255Y-67075320D01*
X92883820Y-67040443D01*
X92883820Y-53110197D01*
X92887255Y-53075320D01*
X96510385Y-53075320D01*
X96513820Y-53110197D01*
X96513821Y-67040433D01*
X96510385Y-67075320D01*
X96524093Y-67214504D01*
X96564692Y-67348340D01*
X96630620Y-67471683D01*
X96719345Y-67579795D01*
X96827457Y-67668520D01*
X96950800Y-67734448D01*
X97084636Y-67775047D01*
X97188943Y-67785320D01*
X97223820Y-67788755D01*
X97258697Y-67785320D01*
X111188943Y-67785320D01*
X111223820Y-67788755D01*
X111258697Y-67785320D01*
X111363004Y-67775047D01*
X111496840Y-67734448D01*
X111620183Y-67668520D01*
X111728295Y-67579795D01*
X111817020Y-67471683D01*
X111882948Y-67348340D01*
X111923547Y-67214504D01*
X111930652Y-67142360D01*
X122288326Y-67142360D01*
X122291640Y-67176007D01*
X122291641Y-69623303D01*
X122288326Y-69656960D01*
X122301552Y-69791243D01*
X122340721Y-69920366D01*
X122404328Y-70039367D01*
X122489929Y-70143671D01*
X122594233Y-70229272D01*
X122713234Y-70292879D01*
X122842357Y-70332048D01*
X122942993Y-70341960D01*
X122976640Y-70345274D01*
X123010287Y-70341960D01*
X133077593Y-70341960D01*
X133111240Y-70345274D01*
X133144887Y-70341960D01*
X133245523Y-70332048D01*
X133374646Y-70292879D01*
X133493647Y-70229272D01*
X133597951Y-70143671D01*
X133683552Y-70039367D01*
X133747159Y-69920366D01*
X133786328Y-69791243D01*
X133799554Y-69656960D01*
X133796240Y-69623313D01*
X133796240Y-67176007D01*
X133799554Y-67142360D01*
X133786328Y-67008077D01*
X133747159Y-66878954D01*
X133683552Y-66759953D01*
X133597951Y-66655649D01*
X133493647Y-66570048D01*
X133374646Y-66506441D01*
X133245523Y-66467272D01*
X133144887Y-66457360D01*
X133111240Y-66454046D01*
X133077593Y-66457360D01*
X123010287Y-66457360D01*
X122976640Y-66454046D01*
X122942993Y-66457360D01*
X122842357Y-66467272D01*
X122713234Y-66506441D01*
X122594233Y-66570048D01*
X122489929Y-66655649D01*
X122404328Y-66759953D01*
X122340721Y-66878954D01*
X122301552Y-67008077D01*
X122288326Y-67142360D01*
X111930652Y-67142360D01*
X111937255Y-67075320D01*
X111933820Y-67040443D01*
X111933820Y-53110197D01*
X111937255Y-53075320D01*
X144135385Y-53075320D01*
X144138820Y-53110197D01*
X144138821Y-67040433D01*
X144135385Y-67075320D01*
X144149093Y-67214504D01*
X144189692Y-67348340D01*
X144255620Y-67471683D01*
X144344345Y-67579795D01*
X144452457Y-67668520D01*
X144575800Y-67734448D01*
X144709636Y-67775047D01*
X144813943Y-67785320D01*
X144848820Y-67788755D01*
X144883697Y-67785320D01*
X158813943Y-67785320D01*
X158848820Y-67788755D01*
X158883697Y-67785320D01*
X158988004Y-67775047D01*
X159121840Y-67734448D01*
X159245183Y-67668520D01*
X159353295Y-67579795D01*
X159442020Y-67471683D01*
X159507948Y-67348340D01*
X159548547Y-67214504D01*
X159562255Y-67075320D01*
X159558820Y-67040443D01*
X159558820Y-53110197D01*
X159562255Y-53075320D01*
X163185385Y-53075320D01*
X163188820Y-53110197D01*
X163188821Y-67040433D01*
X163185385Y-67075320D01*
X163199093Y-67214504D01*
X163239692Y-67348340D01*
X163305620Y-67471683D01*
X163394345Y-67579795D01*
X163502457Y-67668520D01*
X163625800Y-67734448D01*
X163759636Y-67775047D01*
X163863943Y-67785320D01*
X163898820Y-67788755D01*
X163933697Y-67785320D01*
X177863943Y-67785320D01*
X177898820Y-67788755D01*
X177933697Y-67785320D01*
X178038004Y-67775047D01*
X178171840Y-67734448D01*
X178295183Y-67668520D01*
X178403295Y-67579795D01*
X178492020Y-67471683D01*
X178557948Y-67348340D01*
X178598547Y-67214504D01*
X178612255Y-67075320D01*
X178608820Y-67040443D01*
X178608820Y-53110197D01*
X178612255Y-53075320D01*
X182235385Y-53075320D01*
X182238820Y-53110197D01*
X182238821Y-67040433D01*
X182235385Y-67075320D01*
X182249093Y-67214504D01*
X182289692Y-67348340D01*
X182355620Y-67471683D01*
X182444345Y-67579795D01*
X182552457Y-67668520D01*
X182675800Y-67734448D01*
X182809636Y-67775047D01*
X182913943Y-67785320D01*
X182948820Y-67788755D01*
X182983697Y-67785320D01*
X196913943Y-67785320D01*
X196948820Y-67788755D01*
X196983697Y-67785320D01*
X197088004Y-67775047D01*
X197221840Y-67734448D01*
X197345183Y-67668520D01*
X197453295Y-67579795D01*
X197542020Y-67471683D01*
X197607948Y-67348340D01*
X197648547Y-67214504D01*
X197662255Y-67075320D01*
X197658820Y-67040443D01*
X197658820Y-53110197D01*
X197662255Y-53075320D01*
X201285385Y-53075320D01*
X201288820Y-53110197D01*
X201288821Y-67040433D01*
X201285385Y-67075320D01*
X201299093Y-67214504D01*
X201339692Y-67348340D01*
X201405620Y-67471683D01*
X201494345Y-67579795D01*
X201602457Y-67668520D01*
X201725800Y-67734448D01*
X201859636Y-67775047D01*
X201963943Y-67785320D01*
X201998820Y-67788755D01*
X202033697Y-67785320D01*
X215963943Y-67785320D01*
X215998820Y-67788755D01*
X216033697Y-67785320D01*
X216138004Y-67775047D01*
X216271840Y-67734448D01*
X216395183Y-67668520D01*
X216503295Y-67579795D01*
X216592020Y-67471683D01*
X216657948Y-67348340D01*
X216698547Y-67214504D01*
X216712255Y-67075320D01*
X216708820Y-67040443D01*
X216708820Y-53110197D01*
X216712255Y-53075320D01*
X220335385Y-53075320D01*
X220338820Y-53110197D01*
X220338821Y-67040433D01*
X220335385Y-67075320D01*
X220349093Y-67214504D01*
X220389692Y-67348340D01*
X220455620Y-67471683D01*
X220544345Y-67579795D01*
X220652457Y-67668520D01*
X220775800Y-67734448D01*
X220909636Y-67775047D01*
X221013943Y-67785320D01*
X221048820Y-67788755D01*
X221083697Y-67785320D01*
X221649382Y-67785320D01*
X221614750Y-67868930D01*
X221547631Y-68206360D01*
X221547631Y-68550400D01*
X221614750Y-68887830D01*
X221746408Y-69205681D01*
X221937547Y-69491740D01*
X222180820Y-69735013D01*
X222466879Y-69926152D01*
X222784730Y-70057810D01*
X223122160Y-70124929D01*
X223466200Y-70124929D01*
X223803630Y-70057810D01*
X224121481Y-69926152D01*
X224407540Y-69735013D01*
X224650813Y-69491740D01*
X224841952Y-69205681D01*
X224973610Y-68887830D01*
X225040729Y-68550400D01*
X225040729Y-68206360D01*
X224973610Y-67868930D01*
X224938978Y-67785320D01*
X235013943Y-67785320D01*
X235048820Y-67788755D01*
X235083697Y-67785320D01*
X235188004Y-67775047D01*
X235321840Y-67734448D01*
X235445183Y-67668520D01*
X235553295Y-67579795D01*
X235642020Y-67471683D01*
X235707948Y-67348340D01*
X235748547Y-67214504D01*
X235762255Y-67075320D01*
X235758820Y-67040443D01*
X235758820Y-53110197D01*
X235762255Y-53075320D01*
X235748547Y-52936136D01*
X235707948Y-52802300D01*
X235642020Y-52678957D01*
X235553295Y-52570845D01*
X235445183Y-52482120D01*
X235321840Y-52416192D01*
X235188004Y-52375593D01*
X235083697Y-52365320D01*
X235048820Y-52361885D01*
X235013943Y-52365320D01*
X221083697Y-52365320D01*
X221048820Y-52361885D01*
X221013943Y-52365320D01*
X220909636Y-52375593D01*
X220775800Y-52416192D01*
X220652457Y-52482120D01*
X220544345Y-52570845D01*
X220455620Y-52678957D01*
X220389692Y-52802300D01*
X220349093Y-52936136D01*
X220335385Y-53075320D01*
X216712255Y-53075320D01*
X216698547Y-52936136D01*
X216657948Y-52802300D01*
X216592020Y-52678957D01*
X216503295Y-52570845D01*
X216395183Y-52482120D01*
X216271840Y-52416192D01*
X216138004Y-52375593D01*
X216033697Y-52365320D01*
X215998820Y-52361885D01*
X215963943Y-52365320D01*
X202033697Y-52365320D01*
X201998820Y-52361885D01*
X201963943Y-52365320D01*
X201859636Y-52375593D01*
X201725800Y-52416192D01*
X201602457Y-52482120D01*
X201494345Y-52570845D01*
X201405620Y-52678957D01*
X201339692Y-52802300D01*
X201299093Y-52936136D01*
X201285385Y-53075320D01*
X197662255Y-53075320D01*
X197648547Y-52936136D01*
X197607948Y-52802300D01*
X197542020Y-52678957D01*
X197453295Y-52570845D01*
X197345183Y-52482120D01*
X197221840Y-52416192D01*
X197088004Y-52375593D01*
X196983697Y-52365320D01*
X196948820Y-52361885D01*
X196913943Y-52365320D01*
X182983697Y-52365320D01*
X182948820Y-52361885D01*
X182913943Y-52365320D01*
X182809636Y-52375593D01*
X182675800Y-52416192D01*
X182552457Y-52482120D01*
X182444345Y-52570845D01*
X182355620Y-52678957D01*
X182289692Y-52802300D01*
X182249093Y-52936136D01*
X182235385Y-53075320D01*
X178612255Y-53075320D01*
X178598547Y-52936136D01*
X178557948Y-52802300D01*
X178492020Y-52678957D01*
X178403295Y-52570845D01*
X178295183Y-52482120D01*
X178171840Y-52416192D01*
X178038004Y-52375593D01*
X177933697Y-52365320D01*
X177898820Y-52361885D01*
X177863943Y-52365320D01*
X167887761Y-52365320D01*
X167890729Y-52350400D01*
X167890729Y-52006360D01*
X167823610Y-51668930D01*
X167691952Y-51351079D01*
X167500813Y-51065020D01*
X167257540Y-50821747D01*
X166971481Y-50630608D01*
X166653630Y-50498950D01*
X166316200Y-50431831D01*
X165972160Y-50431831D01*
X165634730Y-50498950D01*
X165316879Y-50630608D01*
X165030820Y-50821747D01*
X164787547Y-51065020D01*
X164596408Y-51351079D01*
X164464750Y-51668930D01*
X164397631Y-52006360D01*
X164397631Y-52350400D01*
X164400599Y-52365320D01*
X163933697Y-52365320D01*
X163898820Y-52361885D01*
X163863943Y-52365320D01*
X163759636Y-52375593D01*
X163625800Y-52416192D01*
X163502457Y-52482120D01*
X163394345Y-52570845D01*
X163305620Y-52678957D01*
X163239692Y-52802300D01*
X163199093Y-52936136D01*
X163185385Y-53075320D01*
X159562255Y-53075320D01*
X159548547Y-52936136D01*
X159507948Y-52802300D01*
X159442020Y-52678957D01*
X159353295Y-52570845D01*
X159245183Y-52482120D01*
X159121840Y-52416192D01*
X158988004Y-52375593D01*
X158883697Y-52365320D01*
X158848820Y-52361885D01*
X158813943Y-52365320D01*
X144883697Y-52365320D01*
X144848820Y-52361885D01*
X144813943Y-52365320D01*
X144709636Y-52375593D01*
X144575800Y-52416192D01*
X144452457Y-52482120D01*
X144344345Y-52570845D01*
X144255620Y-52678957D01*
X144189692Y-52802300D01*
X144149093Y-52936136D01*
X144135385Y-53075320D01*
X111937255Y-53075320D01*
X111923547Y-52936136D01*
X111882948Y-52802300D01*
X111817020Y-52678957D01*
X111728295Y-52570845D01*
X111620183Y-52482120D01*
X111496840Y-52416192D01*
X111363004Y-52375593D01*
X111258697Y-52365320D01*
X111223820Y-52361885D01*
X111188943Y-52365320D01*
X97258697Y-52365320D01*
X97223820Y-52361885D01*
X97188943Y-52365320D01*
X97084636Y-52375593D01*
X96950800Y-52416192D01*
X96827457Y-52482120D01*
X96719345Y-52570845D01*
X96630620Y-52678957D01*
X96564692Y-52802300D01*
X96524093Y-52936136D01*
X96510385Y-53075320D01*
X92887255Y-53075320D01*
X92873547Y-52936136D01*
X92832948Y-52802300D01*
X92767020Y-52678957D01*
X92678295Y-52570845D01*
X92570183Y-52482120D01*
X92446840Y-52416192D01*
X92313004Y-52375593D01*
X92208697Y-52365320D01*
X92173820Y-52361885D01*
X92138943Y-52365320D01*
X91687761Y-52365320D01*
X91690729Y-52350400D01*
X91690729Y-52006360D01*
X91623610Y-51668930D01*
X91491952Y-51351079D01*
X91300813Y-51065020D01*
X91057540Y-50821747D01*
X90771481Y-50630608D01*
X90453630Y-50498950D01*
X90116200Y-50431831D01*
X89772160Y-50431831D01*
X89434730Y-50498950D01*
X89116879Y-50630608D01*
X88830820Y-50821747D01*
X88587547Y-51065020D01*
X88396408Y-51351079D01*
X88264750Y-51668930D01*
X88197631Y-52006360D01*
X88197631Y-52350400D01*
X88200599Y-52365320D01*
X78208697Y-52365320D01*
X78173820Y-52361885D01*
X78138943Y-52365320D01*
X78034636Y-52375593D01*
X77900800Y-52416192D01*
X77777457Y-52482120D01*
X77669345Y-52570845D01*
X77580620Y-52678957D01*
X77514692Y-52802300D01*
X77474093Y-52936136D01*
X77460385Y-53075320D01*
X73837255Y-53075320D01*
X73823547Y-52936136D01*
X73782948Y-52802300D01*
X73717020Y-52678957D01*
X73628295Y-52570845D01*
X73520183Y-52482120D01*
X73396840Y-52416192D01*
X73263004Y-52375593D01*
X73158697Y-52365320D01*
X73123820Y-52361885D01*
X73088943Y-52365320D01*
X59158697Y-52365320D01*
X59123820Y-52361885D01*
X59088943Y-52365320D01*
X58984636Y-52375593D01*
X58850800Y-52416192D01*
X58727457Y-52482120D01*
X58619345Y-52570845D01*
X58530620Y-52678957D01*
X58464692Y-52802300D01*
X58424093Y-52936136D01*
X58410385Y-53075320D01*
X54787255Y-53075320D01*
X54773547Y-52936136D01*
X54732948Y-52802300D01*
X54667020Y-52678957D01*
X54578295Y-52570845D01*
X54470183Y-52482120D01*
X54346840Y-52416192D01*
X54213004Y-52375593D01*
X54108697Y-52365320D01*
X54073820Y-52361885D01*
X54038943Y-52365320D01*
X40108697Y-52365320D01*
X40073820Y-52361885D01*
X40038943Y-52365320D01*
X39934636Y-52375593D01*
X39800800Y-52416192D01*
X39677457Y-52482120D01*
X39569345Y-52570845D01*
X39480620Y-52678957D01*
X39414692Y-52802300D01*
X39374093Y-52936136D01*
X39360385Y-53075320D01*
X35737255Y-53075320D01*
X35723547Y-52936136D01*
X35682948Y-52802300D01*
X35617020Y-52678957D01*
X35528295Y-52570845D01*
X35420183Y-52482120D01*
X35296840Y-52416192D01*
X35163004Y-52375593D01*
X35058697Y-52365320D01*
X35023820Y-52361885D01*
X34988943Y-52365320D01*
X21058697Y-52365320D01*
X21023820Y-52361885D01*
X20988943Y-52365320D01*
X20884636Y-52375593D01*
X20750800Y-52416192D01*
X20627457Y-52482120D01*
X20519345Y-52570845D01*
X20430620Y-52678957D01*
X20364692Y-52802300D01*
X20324093Y-52936136D01*
X20310385Y-53075320D01*
X12969180Y-53075320D01*
X12969180Y-35025320D01*
X25072885Y-35025320D01*
X25076320Y-35060197D01*
X25076321Y-48990433D01*
X25072885Y-49025320D01*
X25086593Y-49164504D01*
X25127192Y-49298340D01*
X25193120Y-49421683D01*
X25281845Y-49529795D01*
X25389957Y-49618520D01*
X25513300Y-49684448D01*
X25647136Y-49725047D01*
X25751443Y-49735320D01*
X25786320Y-49738755D01*
X25821197Y-49735320D01*
X39751443Y-49735320D01*
X39786320Y-49738755D01*
X39821197Y-49735320D01*
X39925504Y-49725047D01*
X40059340Y-49684448D01*
X40182683Y-49618520D01*
X40290795Y-49529795D01*
X40379520Y-49421683D01*
X40445448Y-49298340D01*
X40486047Y-49164504D01*
X40499755Y-49025320D01*
X40496320Y-48990443D01*
X40496320Y-35060197D01*
X40499755Y-35025320D01*
X44122885Y-35025320D01*
X44126320Y-35060197D01*
X44126321Y-48990433D01*
X44122885Y-49025320D01*
X44136593Y-49164504D01*
X44177192Y-49298340D01*
X44243120Y-49421683D01*
X44331845Y-49529795D01*
X44439957Y-49618520D01*
X44563300Y-49684448D01*
X44697136Y-49725047D01*
X44801443Y-49735320D01*
X44836320Y-49738755D01*
X44871197Y-49735320D01*
X58801443Y-49735320D01*
X58836320Y-49738755D01*
X58871197Y-49735320D01*
X58975504Y-49725047D01*
X59109340Y-49684448D01*
X59232683Y-49618520D01*
X59340795Y-49529795D01*
X59429520Y-49421683D01*
X59495448Y-49298340D01*
X59536047Y-49164504D01*
X59549755Y-49025320D01*
X59546320Y-48990443D01*
X59546320Y-35060197D01*
X59549755Y-35025320D01*
X63172885Y-35025320D01*
X63176320Y-35060197D01*
X63176321Y-48990433D01*
X63172885Y-49025320D01*
X63186593Y-49164504D01*
X63227192Y-49298340D01*
X63293120Y-49421683D01*
X63381845Y-49529795D01*
X63489957Y-49618520D01*
X63613300Y-49684448D01*
X63747136Y-49725047D01*
X63851443Y-49735320D01*
X63886320Y-49738755D01*
X63921197Y-49735320D01*
X77851443Y-49735320D01*
X77886320Y-49738755D01*
X77921197Y-49735320D01*
X78025504Y-49725047D01*
X78159340Y-49684448D01*
X78282683Y-49618520D01*
X78390795Y-49529795D01*
X78479520Y-49421683D01*
X78545448Y-49298340D01*
X78586047Y-49164504D01*
X78599755Y-49025320D01*
X78596320Y-48990443D01*
X78596320Y-35060197D01*
X78599755Y-35025320D01*
X82222885Y-35025320D01*
X82226320Y-35060197D01*
X82226321Y-48990433D01*
X82222885Y-49025320D01*
X82236593Y-49164504D01*
X82277192Y-49298340D01*
X82343120Y-49421683D01*
X82431845Y-49529795D01*
X82539957Y-49618520D01*
X82663300Y-49684448D01*
X82797136Y-49725047D01*
X82901443Y-49735320D01*
X82936320Y-49738755D01*
X82971197Y-49735320D01*
X96901443Y-49735320D01*
X96936320Y-49738755D01*
X96971197Y-49735320D01*
X97075504Y-49725047D01*
X97209340Y-49684448D01*
X97332683Y-49618520D01*
X97440795Y-49529795D01*
X97529520Y-49421683D01*
X97595448Y-49298340D01*
X97636047Y-49164504D01*
X97649755Y-49025320D01*
X97646320Y-48990443D01*
X97646320Y-35060197D01*
X97649755Y-35025320D01*
X101272885Y-35025320D01*
X101276320Y-35060197D01*
X101276321Y-48990433D01*
X101272885Y-49025320D01*
X101286593Y-49164504D01*
X101327192Y-49298340D01*
X101393120Y-49421683D01*
X101481845Y-49529795D01*
X101589957Y-49618520D01*
X101713300Y-49684448D01*
X101847136Y-49725047D01*
X101951443Y-49735320D01*
X101986320Y-49738755D01*
X102021197Y-49735320D01*
X115951443Y-49735320D01*
X115986320Y-49738755D01*
X116021197Y-49735320D01*
X116125504Y-49725047D01*
X116259340Y-49684448D01*
X116382683Y-49618520D01*
X116490795Y-49529795D01*
X116579520Y-49421683D01*
X116645448Y-49298340D01*
X116686047Y-49164504D01*
X116699755Y-49025320D01*
X116696320Y-48990443D01*
X116696320Y-35060197D01*
X116699755Y-35025320D01*
X139372885Y-35025320D01*
X139376320Y-35060197D01*
X139376321Y-48990433D01*
X139372885Y-49025320D01*
X139386593Y-49164504D01*
X139427192Y-49298340D01*
X139493120Y-49421683D01*
X139581845Y-49529795D01*
X139689957Y-49618520D01*
X139813300Y-49684448D01*
X139947136Y-49725047D01*
X140051443Y-49735320D01*
X140086320Y-49738755D01*
X140121197Y-49735320D01*
X154051443Y-49735320D01*
X154086320Y-49738755D01*
X154121197Y-49735320D01*
X154225504Y-49725047D01*
X154359340Y-49684448D01*
X154482683Y-49618520D01*
X154590795Y-49529795D01*
X154679520Y-49421683D01*
X154745448Y-49298340D01*
X154786047Y-49164504D01*
X154799755Y-49025320D01*
X154796320Y-48990443D01*
X154796320Y-35060197D01*
X154799755Y-35025320D01*
X158422885Y-35025320D01*
X158426320Y-35060197D01*
X158426321Y-48990433D01*
X158422885Y-49025320D01*
X158436593Y-49164504D01*
X158477192Y-49298340D01*
X158543120Y-49421683D01*
X158631845Y-49529795D01*
X158739957Y-49618520D01*
X158863300Y-49684448D01*
X158997136Y-49725047D01*
X159101443Y-49735320D01*
X159136320Y-49738755D01*
X159171197Y-49735320D01*
X173101443Y-49735320D01*
X173136320Y-49738755D01*
X173171197Y-49735320D01*
X173275504Y-49725047D01*
X173409340Y-49684448D01*
X173532683Y-49618520D01*
X173640795Y-49529795D01*
X173729520Y-49421683D01*
X173795448Y-49298340D01*
X173836047Y-49164504D01*
X173849755Y-49025320D01*
X173846320Y-48990443D01*
X173846320Y-35060197D01*
X173849755Y-35025320D01*
X177472885Y-35025320D01*
X177476320Y-35060197D01*
X177476321Y-48990433D01*
X177472885Y-49025320D01*
X177486593Y-49164504D01*
X177527192Y-49298340D01*
X177593120Y-49421683D01*
X177681845Y-49529795D01*
X177789957Y-49618520D01*
X177913300Y-49684448D01*
X178047136Y-49725047D01*
X178151443Y-49735320D01*
X178186320Y-49738755D01*
X178221197Y-49735320D01*
X192151443Y-49735320D01*
X192186320Y-49738755D01*
X192221197Y-49735320D01*
X192325504Y-49725047D01*
X192459340Y-49684448D01*
X192582683Y-49618520D01*
X192690795Y-49529795D01*
X192779520Y-49421683D01*
X192845448Y-49298340D01*
X192886047Y-49164504D01*
X192899755Y-49025320D01*
X192896320Y-48990443D01*
X192896320Y-35060197D01*
X192899755Y-35025320D01*
X196522885Y-35025320D01*
X196526320Y-35060197D01*
X196526321Y-48990433D01*
X196522885Y-49025320D01*
X196536593Y-49164504D01*
X196577192Y-49298340D01*
X196643120Y-49421683D01*
X196731845Y-49529795D01*
X196839957Y-49618520D01*
X196963300Y-49684448D01*
X197097136Y-49725047D01*
X197201443Y-49735320D01*
X197236320Y-49738755D01*
X197271197Y-49735320D01*
X211201443Y-49735320D01*
X211236320Y-49738755D01*
X211271197Y-49735320D01*
X211375504Y-49725047D01*
X211509340Y-49684448D01*
X211632683Y-49618520D01*
X211740795Y-49529795D01*
X211829520Y-49421683D01*
X211895448Y-49298340D01*
X211936047Y-49164504D01*
X211949755Y-49025320D01*
X211946320Y-48990443D01*
X211946320Y-35060197D01*
X211949755Y-35025320D01*
X215572885Y-35025320D01*
X215576320Y-35060197D01*
X215576321Y-48990433D01*
X215572885Y-49025320D01*
X215586593Y-49164504D01*
X215627192Y-49298340D01*
X215693120Y-49421683D01*
X215781845Y-49529795D01*
X215889957Y-49618520D01*
X216013300Y-49684448D01*
X216147136Y-49725047D01*
X216251443Y-49735320D01*
X216286320Y-49738755D01*
X216321197Y-49735320D01*
X230251443Y-49735320D01*
X230286320Y-49738755D01*
X230321197Y-49735320D01*
X230425504Y-49725047D01*
X230559340Y-49684448D01*
X230682683Y-49618520D01*
X230790795Y-49529795D01*
X230879520Y-49421683D01*
X230945448Y-49298340D01*
X230986047Y-49164504D01*
X230999755Y-49025320D01*
X230996320Y-48990443D01*
X230996320Y-35060197D01*
X230999755Y-35025320D01*
X230986047Y-34886136D01*
X230945448Y-34752300D01*
X230879520Y-34628957D01*
X230790795Y-34520845D01*
X230682683Y-34432120D01*
X230559340Y-34366192D01*
X230425504Y-34325593D01*
X230321197Y-34315320D01*
X230286320Y-34311885D01*
X230251443Y-34315320D01*
X216321197Y-34315320D01*
X216286320Y-34311885D01*
X216251443Y-34315320D01*
X216147136Y-34325593D01*
X216013300Y-34366192D01*
X215889957Y-34432120D01*
X215781845Y-34520845D01*
X215693120Y-34628957D01*
X215627192Y-34752300D01*
X215586593Y-34886136D01*
X215572885Y-35025320D01*
X211949755Y-35025320D01*
X211936047Y-34886136D01*
X211895448Y-34752300D01*
X211829520Y-34628957D01*
X211740795Y-34520845D01*
X211632683Y-34432120D01*
X211509340Y-34366192D01*
X211375504Y-34325593D01*
X211271197Y-34315320D01*
X211236320Y-34311885D01*
X211201443Y-34315320D01*
X197271197Y-34315320D01*
X197236320Y-34311885D01*
X197201443Y-34315320D01*
X197097136Y-34325593D01*
X196963300Y-34366192D01*
X196839957Y-34432120D01*
X196731845Y-34520845D01*
X196643120Y-34628957D01*
X196577192Y-34752300D01*
X196536593Y-34886136D01*
X196522885Y-35025320D01*
X192899755Y-35025320D01*
X192886047Y-34886136D01*
X192845448Y-34752300D01*
X192779520Y-34628957D01*
X192690795Y-34520845D01*
X192582683Y-34432120D01*
X192459340Y-34366192D01*
X192325504Y-34325593D01*
X192221197Y-34315320D01*
X192186320Y-34311885D01*
X192151443Y-34315320D01*
X178221197Y-34315320D01*
X178186320Y-34311885D01*
X178151443Y-34315320D01*
X178047136Y-34325593D01*
X177913300Y-34366192D01*
X177789957Y-34432120D01*
X177681845Y-34520845D01*
X177593120Y-34628957D01*
X177527192Y-34752300D01*
X177486593Y-34886136D01*
X177472885Y-35025320D01*
X173849755Y-35025320D01*
X173836047Y-34886136D01*
X173795448Y-34752300D01*
X173729520Y-34628957D01*
X173640795Y-34520845D01*
X173532683Y-34432120D01*
X173409340Y-34366192D01*
X173275504Y-34325593D01*
X173171197Y-34315320D01*
X173136320Y-34311885D01*
X173101443Y-34315320D01*
X159171197Y-34315320D01*
X159136320Y-34311885D01*
X159101443Y-34315320D01*
X158997136Y-34325593D01*
X158863300Y-34366192D01*
X158739957Y-34432120D01*
X158631845Y-34520845D01*
X158543120Y-34628957D01*
X158477192Y-34752300D01*
X158436593Y-34886136D01*
X158422885Y-35025320D01*
X154799755Y-35025320D01*
X154786047Y-34886136D01*
X154745448Y-34752300D01*
X154679520Y-34628957D01*
X154590795Y-34520845D01*
X154482683Y-34432120D01*
X154359340Y-34366192D01*
X154225504Y-34325593D01*
X154121197Y-34315320D01*
X154086320Y-34311885D01*
X154051443Y-34315320D01*
X140121197Y-34315320D01*
X140086320Y-34311885D01*
X140051443Y-34315320D01*
X139947136Y-34325593D01*
X139813300Y-34366192D01*
X139689957Y-34432120D01*
X139581845Y-34520845D01*
X139493120Y-34628957D01*
X139427192Y-34752300D01*
X139386593Y-34886136D01*
X139372885Y-35025320D01*
X116699755Y-35025320D01*
X116686047Y-34886136D01*
X116645448Y-34752300D01*
X116579520Y-34628957D01*
X116490795Y-34520845D01*
X116382683Y-34432120D01*
X116259340Y-34366192D01*
X116125504Y-34325593D01*
X116021197Y-34315320D01*
X115986320Y-34311885D01*
X115951443Y-34315320D01*
X102021197Y-34315320D01*
X101986320Y-34311885D01*
X101951443Y-34315320D01*
X101847136Y-34325593D01*
X101713300Y-34366192D01*
X101589957Y-34432120D01*
X101481845Y-34520845D01*
X101393120Y-34628957D01*
X101327192Y-34752300D01*
X101286593Y-34886136D01*
X101272885Y-35025320D01*
X97649755Y-35025320D01*
X97636047Y-34886136D01*
X97595448Y-34752300D01*
X97529520Y-34628957D01*
X97440795Y-34520845D01*
X97332683Y-34432120D01*
X97209340Y-34366192D01*
X97075504Y-34325593D01*
X96971197Y-34315320D01*
X96936320Y-34311885D01*
X96901443Y-34315320D01*
X82971197Y-34315320D01*
X82936320Y-34311885D01*
X82901443Y-34315320D01*
X82797136Y-34325593D01*
X82663300Y-34366192D01*
X82539957Y-34432120D01*
X82431845Y-34520845D01*
X82343120Y-34628957D01*
X82277192Y-34752300D01*
X82236593Y-34886136D01*
X82222885Y-35025320D01*
X78599755Y-35025320D01*
X78586047Y-34886136D01*
X78545448Y-34752300D01*
X78479520Y-34628957D01*
X78390795Y-34520845D01*
X78282683Y-34432120D01*
X78159340Y-34366192D01*
X78025504Y-34325593D01*
X77921197Y-34315320D01*
X77886320Y-34311885D01*
X77851443Y-34315320D01*
X63921197Y-34315320D01*
X63886320Y-34311885D01*
X63851443Y-34315320D01*
X63747136Y-34325593D01*
X63613300Y-34366192D01*
X63489957Y-34432120D01*
X63381845Y-34520845D01*
X63293120Y-34628957D01*
X63227192Y-34752300D01*
X63186593Y-34886136D01*
X63172885Y-35025320D01*
X59549755Y-35025320D01*
X59536047Y-34886136D01*
X59495448Y-34752300D01*
X59429520Y-34628957D01*
X59340795Y-34520845D01*
X59232683Y-34432120D01*
X59109340Y-34366192D01*
X58975504Y-34325593D01*
X58871197Y-34315320D01*
X58836320Y-34311885D01*
X58801443Y-34315320D01*
X44871197Y-34315320D01*
X44836320Y-34311885D01*
X44801443Y-34315320D01*
X44697136Y-34325593D01*
X44563300Y-34366192D01*
X44439957Y-34432120D01*
X44331845Y-34520845D01*
X44243120Y-34628957D01*
X44177192Y-34752300D01*
X44136593Y-34886136D01*
X44122885Y-35025320D01*
X40499755Y-35025320D01*
X40486047Y-34886136D01*
X40445448Y-34752300D01*
X40379520Y-34628957D01*
X40290795Y-34520845D01*
X40182683Y-34432120D01*
X40059340Y-34366192D01*
X39925504Y-34325593D01*
X39821197Y-34315320D01*
X39786320Y-34311885D01*
X39751443Y-34315320D01*
X25821197Y-34315320D01*
X25786320Y-34311885D01*
X25751443Y-34315320D01*
X25647136Y-34325593D01*
X25513300Y-34366192D01*
X25389957Y-34432120D01*
X25281845Y-34520845D01*
X25193120Y-34628957D01*
X25127192Y-34752300D01*
X25086593Y-34886136D01*
X25072885Y-35025320D01*
X12969180Y-35025320D01*
X12969180Y-16975320D01*
X29835385Y-16975320D01*
X29838820Y-17010197D01*
X29838821Y-30940433D01*
X29835385Y-30975320D01*
X29849093Y-31114504D01*
X29889692Y-31248340D01*
X29955620Y-31371683D01*
X30044345Y-31479795D01*
X30152457Y-31568520D01*
X30275800Y-31634448D01*
X30409636Y-31675047D01*
X30513943Y-31685320D01*
X30548820Y-31688755D01*
X30583697Y-31685320D01*
X31149382Y-31685320D01*
X31114750Y-31768930D01*
X31047631Y-32106360D01*
X31047631Y-32450400D01*
X31114750Y-32787830D01*
X31246408Y-33105681D01*
X31437547Y-33391740D01*
X31680820Y-33635013D01*
X31966879Y-33826152D01*
X32284730Y-33957810D01*
X32622160Y-34024929D01*
X32966200Y-34024929D01*
X33303630Y-33957810D01*
X33621481Y-33826152D01*
X33907540Y-33635013D01*
X34150813Y-33391740D01*
X34341952Y-33105681D01*
X34473610Y-32787830D01*
X34540729Y-32450400D01*
X34540729Y-32106360D01*
X34473610Y-31768930D01*
X34438978Y-31685320D01*
X44513943Y-31685320D01*
X44548820Y-31688755D01*
X44583697Y-31685320D01*
X44688004Y-31675047D01*
X44821840Y-31634448D01*
X44945183Y-31568520D01*
X45053295Y-31479795D01*
X45142020Y-31371683D01*
X45207948Y-31248340D01*
X45248547Y-31114504D01*
X45262255Y-30975320D01*
X45258820Y-30940443D01*
X45258820Y-17010197D01*
X45262255Y-16975320D01*
X48885385Y-16975320D01*
X48888820Y-17010197D01*
X48888821Y-30940433D01*
X48885385Y-30975320D01*
X48899093Y-31114504D01*
X48939692Y-31248340D01*
X49005620Y-31371683D01*
X49094345Y-31479795D01*
X49202457Y-31568520D01*
X49325800Y-31634448D01*
X49459636Y-31675047D01*
X49563943Y-31685320D01*
X49598820Y-31688755D01*
X49633697Y-31685320D01*
X63563943Y-31685320D01*
X63598820Y-31688755D01*
X63633697Y-31685320D01*
X63738004Y-31675047D01*
X63871840Y-31634448D01*
X63995183Y-31568520D01*
X64103295Y-31479795D01*
X64192020Y-31371683D01*
X64257948Y-31248340D01*
X64298547Y-31114504D01*
X64312255Y-30975320D01*
X64308820Y-30940443D01*
X64308820Y-17010197D01*
X64312255Y-16975320D01*
X67935385Y-16975320D01*
X67938820Y-17010197D01*
X67938821Y-30940433D01*
X67935385Y-30975320D01*
X67949093Y-31114504D01*
X67989692Y-31248340D01*
X68055620Y-31371683D01*
X68144345Y-31479795D01*
X68252457Y-31568520D01*
X68375800Y-31634448D01*
X68509636Y-31675047D01*
X68613943Y-31685320D01*
X68648820Y-31688755D01*
X68683697Y-31685320D01*
X82613943Y-31685320D01*
X82648820Y-31688755D01*
X82683697Y-31685320D01*
X82788004Y-31675047D01*
X82921840Y-31634448D01*
X83045183Y-31568520D01*
X83153295Y-31479795D01*
X83242020Y-31371683D01*
X83307948Y-31248340D01*
X83348547Y-31114504D01*
X83362255Y-30975320D01*
X83358820Y-30940443D01*
X83358820Y-17010197D01*
X83362255Y-16975320D01*
X86985385Y-16975320D01*
X86988820Y-17010197D01*
X86988821Y-30940433D01*
X86985385Y-30975320D01*
X86999093Y-31114504D01*
X87039692Y-31248340D01*
X87105620Y-31371683D01*
X87194345Y-31479795D01*
X87302457Y-31568520D01*
X87425800Y-31634448D01*
X87559636Y-31675047D01*
X87663943Y-31685320D01*
X87698820Y-31688755D01*
X87733697Y-31685320D01*
X101663943Y-31685320D01*
X101698820Y-31688755D01*
X101733697Y-31685320D01*
X101838004Y-31675047D01*
X101971840Y-31634448D01*
X102095183Y-31568520D01*
X102203295Y-31479795D01*
X102292020Y-31371683D01*
X102357948Y-31248340D01*
X102398547Y-31114504D01*
X102412255Y-30975320D01*
X102408820Y-30940443D01*
X102408820Y-17010197D01*
X102412255Y-16975320D01*
X106035385Y-16975320D01*
X106038820Y-17010197D01*
X106038821Y-30940433D01*
X106035385Y-30975320D01*
X106049093Y-31114504D01*
X106089692Y-31248340D01*
X106155620Y-31371683D01*
X106244345Y-31479795D01*
X106352457Y-31568520D01*
X106475800Y-31634448D01*
X106609636Y-31675047D01*
X106713943Y-31685320D01*
X106748820Y-31688755D01*
X106783697Y-31685320D01*
X120713943Y-31685320D01*
X120748820Y-31688755D01*
X120783697Y-31685320D01*
X120888004Y-31675047D01*
X121021840Y-31634448D01*
X121145183Y-31568520D01*
X121253295Y-31479795D01*
X121342020Y-31371683D01*
X121407948Y-31248340D01*
X121448547Y-31114504D01*
X121462255Y-30975320D01*
X121458820Y-30940443D01*
X121458820Y-17010197D01*
X121462255Y-16975320D01*
X134610385Y-16975320D01*
X134613820Y-17010197D01*
X134613821Y-30940433D01*
X134610385Y-30975320D01*
X134624093Y-31114504D01*
X134664692Y-31248340D01*
X134730620Y-31371683D01*
X134819345Y-31479795D01*
X134927457Y-31568520D01*
X135050800Y-31634448D01*
X135184636Y-31675047D01*
X135288943Y-31685320D01*
X135323820Y-31688755D01*
X135358697Y-31685320D01*
X149288943Y-31685320D01*
X149323820Y-31688755D01*
X149358697Y-31685320D01*
X149463004Y-31675047D01*
X149596840Y-31634448D01*
X149720183Y-31568520D01*
X149828295Y-31479795D01*
X149917020Y-31371683D01*
X149982948Y-31248340D01*
X150023547Y-31114504D01*
X150037255Y-30975320D01*
X150033820Y-30940443D01*
X150033820Y-17010197D01*
X150037255Y-16975320D01*
X153660385Y-16975320D01*
X153663820Y-17010197D01*
X153663821Y-30940433D01*
X153660385Y-30975320D01*
X153674093Y-31114504D01*
X153714692Y-31248340D01*
X153780620Y-31371683D01*
X153869345Y-31479795D01*
X153977457Y-31568520D01*
X154100800Y-31634448D01*
X154234636Y-31675047D01*
X154338943Y-31685320D01*
X154373820Y-31688755D01*
X154408697Y-31685320D01*
X168338943Y-31685320D01*
X168373820Y-31688755D01*
X168408697Y-31685320D01*
X168513004Y-31675047D01*
X168646840Y-31634448D01*
X168770183Y-31568520D01*
X168878295Y-31479795D01*
X168967020Y-31371683D01*
X169032948Y-31248340D01*
X169073547Y-31114504D01*
X169087255Y-30975320D01*
X169083820Y-30940443D01*
X169083820Y-17010197D01*
X169087255Y-16975320D01*
X172710385Y-16975320D01*
X172713820Y-17010197D01*
X172713821Y-30940433D01*
X172710385Y-30975320D01*
X172724093Y-31114504D01*
X172764692Y-31248340D01*
X172830620Y-31371683D01*
X172919345Y-31479795D01*
X173027457Y-31568520D01*
X173150800Y-31634448D01*
X173284636Y-31675047D01*
X173388943Y-31685320D01*
X173423820Y-31688755D01*
X173458697Y-31685320D01*
X187388943Y-31685320D01*
X187423820Y-31688755D01*
X187458697Y-31685320D01*
X187563004Y-31675047D01*
X187696840Y-31634448D01*
X187820183Y-31568520D01*
X187928295Y-31479795D01*
X188017020Y-31371683D01*
X188082948Y-31248340D01*
X188123547Y-31114504D01*
X188137255Y-30975320D01*
X188133820Y-30940443D01*
X188133820Y-17010197D01*
X188137255Y-16975320D01*
X191760385Y-16975320D01*
X191763820Y-17010197D01*
X191763821Y-30940433D01*
X191760385Y-30975320D01*
X191774093Y-31114504D01*
X191814692Y-31248340D01*
X191880620Y-31371683D01*
X191969345Y-31479795D01*
X192077457Y-31568520D01*
X192200800Y-31634448D01*
X192334636Y-31675047D01*
X192438943Y-31685320D01*
X192473820Y-31688755D01*
X192508697Y-31685320D01*
X206438943Y-31685320D01*
X206473820Y-31688755D01*
X206508697Y-31685320D01*
X206613004Y-31675047D01*
X206746840Y-31634448D01*
X206870183Y-31568520D01*
X206978295Y-31479795D01*
X207067020Y-31371683D01*
X207132948Y-31248340D01*
X207173547Y-31114504D01*
X207187255Y-30975320D01*
X207183820Y-30940443D01*
X207183820Y-17010197D01*
X207187255Y-16975320D01*
X210810385Y-16975320D01*
X210813820Y-17010197D01*
X210813821Y-30940433D01*
X210810385Y-30975320D01*
X210824093Y-31114504D01*
X210864692Y-31248340D01*
X210930620Y-31371683D01*
X211019345Y-31479795D01*
X211127457Y-31568520D01*
X211250800Y-31634448D01*
X211384636Y-31675047D01*
X211488943Y-31685320D01*
X211523820Y-31688755D01*
X211558697Y-31685320D01*
X221649382Y-31685320D01*
X221614750Y-31768930D01*
X221547631Y-32106360D01*
X221547631Y-32450400D01*
X221614750Y-32787830D01*
X221746408Y-33105681D01*
X221937547Y-33391740D01*
X222180820Y-33635013D01*
X222466879Y-33826152D01*
X222784730Y-33957810D01*
X223122160Y-34024929D01*
X223466200Y-34024929D01*
X223803630Y-33957810D01*
X224121481Y-33826152D01*
X224407540Y-33635013D01*
X224650813Y-33391740D01*
X224841952Y-33105681D01*
X224973610Y-32787830D01*
X225040729Y-32450400D01*
X225040729Y-32106360D01*
X224973610Y-31768930D01*
X224938978Y-31685320D01*
X225488943Y-31685320D01*
X225523820Y-31688755D01*
X225558697Y-31685320D01*
X225663004Y-31675047D01*
X225796840Y-31634448D01*
X225920183Y-31568520D01*
X226028295Y-31479795D01*
X226117020Y-31371683D01*
X226182948Y-31248340D01*
X226223547Y-31114504D01*
X226237255Y-30975320D01*
X226233820Y-30940443D01*
X226233820Y-27703780D01*
X236819466Y-27703780D01*
X236826112Y-27771252D01*
X236832644Y-27837820D01*
X236832680Y-27837938D01*
X236832692Y-27838063D01*
X236852665Y-27903904D01*
X236871767Y-27966957D01*
X236871824Y-27967063D01*
X236871861Y-27967186D01*
X236904418Y-28028095D01*
X236935331Y-28085981D01*
X236935408Y-28086075D01*
X236935468Y-28086187D01*
X236979851Y-28140267D01*
X237020895Y-28190315D01*
X237020986Y-28190389D01*
X237021069Y-28190491D01*
X237075464Y-28235132D01*
X237125168Y-28275954D01*
X237125274Y-28276011D01*
X237125373Y-28276092D01*
X237186333Y-28308676D01*
X237244146Y-28339604D01*
X237244262Y-28339639D01*
X237244374Y-28339699D01*
X237310534Y-28359768D01*
X237373255Y-28378819D01*
X237373374Y-28378831D01*
X237373497Y-28378868D01*
X237442956Y-28385709D01*
X237507533Y-28392093D01*
X237541296Y-28388780D01*
X241936913Y-28388780D01*
X241970560Y-28392094D01*
X242104843Y-28378868D01*
X242233966Y-28339699D01*
X242352967Y-28276092D01*
X242457271Y-28190491D01*
X242542872Y-28086187D01*
X242606479Y-27967186D01*
X242645648Y-27838063D01*
X242655560Y-27737427D01*
X242658874Y-27703780D01*
X242655560Y-27670133D01*
X242655560Y-20673687D01*
X242658874Y-20640040D01*
X242645648Y-20505757D01*
X242606479Y-20376634D01*
X242542872Y-20257633D01*
X242457271Y-20153329D01*
X242352967Y-20067728D01*
X242233966Y-20004121D01*
X242104843Y-19964952D01*
X242004207Y-19955040D01*
X241970560Y-19951726D01*
X241936913Y-19955040D01*
X237544081Y-19955040D01*
X237510567Y-19951727D01*
X237476807Y-19955040D01*
X237476673Y-19955040D01*
X237440267Y-19958626D01*
X237376280Y-19964905D01*
X237376167Y-19964939D01*
X237376037Y-19964952D01*
X237308965Y-19985298D01*
X237247143Y-20004027D01*
X237247037Y-20004084D01*
X237246914Y-20004121D01*
X237186005Y-20036678D01*
X237128119Y-20067591D01*
X237128025Y-20067668D01*
X237127913Y-20067728D01*
X237073833Y-20112111D01*
X237023785Y-20153155D01*
X237023711Y-20153246D01*
X237023609Y-20153329D01*
X236978968Y-20207724D01*
X236938146Y-20257428D01*
X236938089Y-20257534D01*
X236938008Y-20257633D01*
X236905424Y-20318593D01*
X236874496Y-20376406D01*
X236874461Y-20376522D01*
X236874401Y-20376634D01*
X236854332Y-20442794D01*
X236835281Y-20505515D01*
X236835269Y-20505634D01*
X236835232Y-20505757D01*
X236828386Y-20575267D01*
X236825333Y-20606148D01*
X236825333Y-20606262D01*
X236822006Y-20640040D01*
X236825309Y-20673573D01*
X236822792Y-27670010D01*
X236819466Y-27703780D01*
X226233820Y-27703780D01*
X226233820Y-17010197D01*
X226237255Y-16975320D01*
X226223547Y-16836136D01*
X226182948Y-16702300D01*
X226117020Y-16578957D01*
X226028295Y-16470845D01*
X225920183Y-16382120D01*
X225796840Y-16316192D01*
X225663004Y-16275593D01*
X225558697Y-16265320D01*
X225523820Y-16261885D01*
X225488943Y-16265320D01*
X211558697Y-16265320D01*
X211523820Y-16261885D01*
X211488943Y-16265320D01*
X211384636Y-16275593D01*
X211250800Y-16316192D01*
X211127457Y-16382120D01*
X211019345Y-16470845D01*
X210930620Y-16578957D01*
X210864692Y-16702300D01*
X210824093Y-16836136D01*
X210810385Y-16975320D01*
X207187255Y-16975320D01*
X207173547Y-16836136D01*
X207132948Y-16702300D01*
X207067020Y-16578957D01*
X206978295Y-16470845D01*
X206870183Y-16382120D01*
X206746840Y-16316192D01*
X206613004Y-16275593D01*
X206508697Y-16265320D01*
X206473820Y-16261885D01*
X206438943Y-16265320D01*
X192508697Y-16265320D01*
X192473820Y-16261885D01*
X192438943Y-16265320D01*
X192334636Y-16275593D01*
X192200800Y-16316192D01*
X192077457Y-16382120D01*
X191969345Y-16470845D01*
X191880620Y-16578957D01*
X191814692Y-16702300D01*
X191774093Y-16836136D01*
X191760385Y-16975320D01*
X188137255Y-16975320D01*
X188123547Y-16836136D01*
X188082948Y-16702300D01*
X188017020Y-16578957D01*
X187928295Y-16470845D01*
X187820183Y-16382120D01*
X187696840Y-16316192D01*
X187563004Y-16275593D01*
X187458697Y-16265320D01*
X187423820Y-16261885D01*
X187388943Y-16265320D01*
X173458697Y-16265320D01*
X173423820Y-16261885D01*
X173388943Y-16265320D01*
X173284636Y-16275593D01*
X173150800Y-16316192D01*
X173027457Y-16382120D01*
X172919345Y-16470845D01*
X172830620Y-16578957D01*
X172764692Y-16702300D01*
X172724093Y-16836136D01*
X172710385Y-16975320D01*
X169087255Y-16975320D01*
X169073547Y-16836136D01*
X169032948Y-16702300D01*
X168967020Y-16578957D01*
X168878295Y-16470845D01*
X168770183Y-16382120D01*
X168646840Y-16316192D01*
X168513004Y-16275593D01*
X168408697Y-16265320D01*
X168373820Y-16261885D01*
X168338943Y-16265320D01*
X154408697Y-16265320D01*
X154373820Y-16261885D01*
X154338943Y-16265320D01*
X154234636Y-16275593D01*
X154100800Y-16316192D01*
X153977457Y-16382120D01*
X153869345Y-16470845D01*
X153780620Y-16578957D01*
X153714692Y-16702300D01*
X153674093Y-16836136D01*
X153660385Y-16975320D01*
X150037255Y-16975320D01*
X150023547Y-16836136D01*
X149982948Y-16702300D01*
X149917020Y-16578957D01*
X149828295Y-16470845D01*
X149720183Y-16382120D01*
X149596840Y-16316192D01*
X149463004Y-16275593D01*
X149358697Y-16265320D01*
X149323820Y-16261885D01*
X149288943Y-16265320D01*
X135358697Y-16265320D01*
X135323820Y-16261885D01*
X135288943Y-16265320D01*
X135184636Y-16275593D01*
X135050800Y-16316192D01*
X134927457Y-16382120D01*
X134819345Y-16470845D01*
X134730620Y-16578957D01*
X134664692Y-16702300D01*
X134624093Y-16836136D01*
X134610385Y-16975320D01*
X121462255Y-16975320D01*
X121448547Y-16836136D01*
X121407948Y-16702300D01*
X121342020Y-16578957D01*
X121253295Y-16470845D01*
X121145183Y-16382120D01*
X121021840Y-16316192D01*
X120888004Y-16275593D01*
X120783697Y-16265320D01*
X120748820Y-16261885D01*
X120713943Y-16265320D01*
X106783697Y-16265320D01*
X106748820Y-16261885D01*
X106713943Y-16265320D01*
X106609636Y-16275593D01*
X106475800Y-16316192D01*
X106352457Y-16382120D01*
X106244345Y-16470845D01*
X106155620Y-16578957D01*
X106089692Y-16702300D01*
X106049093Y-16836136D01*
X106035385Y-16975320D01*
X102412255Y-16975320D01*
X102398547Y-16836136D01*
X102357948Y-16702300D01*
X102292020Y-16578957D01*
X102203295Y-16470845D01*
X102095183Y-16382120D01*
X101971840Y-16316192D01*
X101838004Y-16275593D01*
X101733697Y-16265320D01*
X101698820Y-16261885D01*
X101663943Y-16265320D01*
X87733697Y-16265320D01*
X87698820Y-16261885D01*
X87663943Y-16265320D01*
X87559636Y-16275593D01*
X87425800Y-16316192D01*
X87302457Y-16382120D01*
X87194345Y-16470845D01*
X87105620Y-16578957D01*
X87039692Y-16702300D01*
X86999093Y-16836136D01*
X86985385Y-16975320D01*
X83362255Y-16975320D01*
X83348547Y-16836136D01*
X83307948Y-16702300D01*
X83242020Y-16578957D01*
X83153295Y-16470845D01*
X83045183Y-16382120D01*
X82921840Y-16316192D01*
X82788004Y-16275593D01*
X82683697Y-16265320D01*
X82648820Y-16261885D01*
X82613943Y-16265320D01*
X68683697Y-16265320D01*
X68648820Y-16261885D01*
X68613943Y-16265320D01*
X68509636Y-16275593D01*
X68375800Y-16316192D01*
X68252457Y-16382120D01*
X68144345Y-16470845D01*
X68055620Y-16578957D01*
X67989692Y-16702300D01*
X67949093Y-16836136D01*
X67935385Y-16975320D01*
X64312255Y-16975320D01*
X64298547Y-16836136D01*
X64257948Y-16702300D01*
X64192020Y-16578957D01*
X64103295Y-16470845D01*
X63995183Y-16382120D01*
X63871840Y-16316192D01*
X63738004Y-16275593D01*
X63633697Y-16265320D01*
X63598820Y-16261885D01*
X63563943Y-16265320D01*
X49633697Y-16265320D01*
X49598820Y-16261885D01*
X49563943Y-16265320D01*
X49459636Y-16275593D01*
X49325800Y-16316192D01*
X49202457Y-16382120D01*
X49094345Y-16470845D01*
X49005620Y-16578957D01*
X48939692Y-16702300D01*
X48899093Y-16836136D01*
X48885385Y-16975320D01*
X45262255Y-16975320D01*
X45248547Y-16836136D01*
X45207948Y-16702300D01*
X45142020Y-16578957D01*
X45053295Y-16470845D01*
X44945183Y-16382120D01*
X44821840Y-16316192D01*
X44688004Y-16275593D01*
X44583697Y-16265320D01*
X44548820Y-16261885D01*
X44513943Y-16265320D01*
X30583697Y-16265320D01*
X30548820Y-16261885D01*
X30513943Y-16265320D01*
X30409636Y-16275593D01*
X30275800Y-16316192D01*
X30152457Y-16382120D01*
X30044345Y-16470845D01*
X29955620Y-16578957D01*
X29889692Y-16702300D01*
X29849093Y-16836136D01*
X29835385Y-16975320D01*
X12969180Y-16975320D01*
X12969180Y-15989327D01*
X13015774Y-15514125D01*
X13143342Y-15091599D01*
X13350549Y-14701898D01*
X13629504Y-14359867D01*
X13969579Y-14078531D01*
X14357824Y-13868609D01*
X14779445Y-13738095D01*
X15252454Y-13688380D01*
X240818233Y-13688380D01*
X241293435Y-13734974D01*
G37*
X241293435Y-13734974D02*
X241715961Y-13862542D01*
X242105662Y-14069749D01*
X242447693Y-14348704D01*
X242729029Y-14688779D01*
X242938951Y-15077024D01*
X243069465Y-15498645D01*
X243119181Y-15971663D01*
X243119180Y-86117433D01*
X243072586Y-86592635D01*
X242945018Y-87015161D01*
X242737811Y-87404862D01*
X242458856Y-87746893D01*
X242118781Y-88028229D01*
X241730536Y-88238151D01*
X241308917Y-88368665D01*
X240835906Y-88418380D01*
X15270127Y-88418380D01*
X14794925Y-88371786D01*
X14372399Y-88244218D01*
X13982698Y-88037011D01*
X13640667Y-87758056D01*
X13359331Y-87417981D01*
X13149409Y-87029736D01*
X13018895Y-86608117D01*
X12969180Y-86135106D01*
X12969180Y-71125320D01*
X15547885Y-71125320D01*
X15551320Y-71160197D01*
X15551321Y-85090433D01*
X15547885Y-85125320D01*
X15561593Y-85264504D01*
X15602192Y-85398340D01*
X15668120Y-85521683D01*
X15756845Y-85629795D01*
X15864957Y-85718520D01*
X15988300Y-85784448D01*
X16122136Y-85825047D01*
X16226443Y-85835320D01*
X16261320Y-85838755D01*
X16296197Y-85835320D01*
X30226443Y-85835320D01*
X30261320Y-85838755D01*
X30296197Y-85835320D01*
X30400504Y-85825047D01*
X30534340Y-85784448D01*
X30657683Y-85718520D01*
X30765795Y-85629795D01*
X30854520Y-85521683D01*
X30920448Y-85398340D01*
X30961047Y-85264504D01*
X30974755Y-85125320D01*
X30971320Y-85090443D01*
X30971320Y-71160197D01*
X30974755Y-71125320D01*
X53647925Y-71125320D01*
X53651360Y-71160197D01*
X53651361Y-85090433D01*
X53647925Y-85125320D01*
X53661633Y-85264504D01*
X53702232Y-85398340D01*
X53768160Y-85521683D01*
X53856885Y-85629795D01*
X53964997Y-85718520D01*
X54088340Y-85784448D01*
X54222176Y-85825047D01*
X54326483Y-85835320D01*
X54361360Y-85838755D01*
X54396237Y-85835320D01*
X68326483Y-85835320D01*
X68361360Y-85838755D01*
X68396237Y-85835320D01*
X68500544Y-85825047D01*
X68634380Y-85784448D01*
X68757723Y-85718520D01*
X68865835Y-85629795D01*
X68954560Y-85521683D01*
X69020488Y-85398340D01*
X69061087Y-85264504D01*
X69074795Y-85125320D01*
X69071360Y-85090443D01*
X69071360Y-71160197D01*
X69074795Y-71125320D01*
X77460425Y-71125320D01*
X77463860Y-71160197D01*
X77463861Y-85090433D01*
X77460425Y-85125320D01*
X77474133Y-85264504D01*
X77514732Y-85398340D01*
X77580660Y-85521683D01*
X77669385Y-85629795D01*
X77777497Y-85718520D01*
X77900840Y-85784448D01*
X78034676Y-85825047D01*
X78138983Y-85835320D01*
X78173860Y-85838755D01*
X78208737Y-85835320D01*
X92138983Y-85835320D01*
X92173860Y-85838755D01*
X92208737Y-85835320D01*
X92313044Y-85825047D01*
X92446880Y-85784448D01*
X92570223Y-85718520D01*
X92678335Y-85629795D01*
X92767060Y-85521683D01*
X92832988Y-85398340D01*
X92873587Y-85264504D01*
X92887295Y-85125320D01*
X92883860Y-85090443D01*
X92883860Y-71160197D01*
X92887295Y-71125320D01*
X106035425Y-71125320D01*
X106038860Y-71160197D01*
X106038861Y-85090433D01*
X106035425Y-85125320D01*
X106049133Y-85264504D01*
X106089732Y-85398340D01*
X106155660Y-85521683D01*
X106244385Y-85629795D01*
X106352497Y-85718520D01*
X106475840Y-85784448D01*
X106609676Y-85825047D01*
X106713983Y-85835320D01*
X106748860Y-85838755D01*
X106783737Y-85835320D01*
X120713983Y-85835320D01*
X120748860Y-85838755D01*
X120783737Y-85835320D01*
X120888044Y-85825047D01*
X121021880Y-85784448D01*
X121145223Y-85718520D01*
X121253335Y-85629795D01*
X121342060Y-85521683D01*
X121407988Y-85398340D01*
X121448587Y-85264504D01*
X121462295Y-85125320D01*
X121458860Y-85090443D01*
X121458860Y-71160197D01*
X121462295Y-71125320D01*
X134610425Y-71125320D01*
X134613860Y-71160197D01*
X134613861Y-85090433D01*
X134610425Y-85125320D01*
X134624133Y-85264504D01*
X134664732Y-85398340D01*
X134730660Y-85521683D01*
X134819385Y-85629795D01*
X134927497Y-85718520D01*
X135050840Y-85784448D01*
X135184676Y-85825047D01*
X135288983Y-85835320D01*
X135323860Y-85838755D01*
X135358737Y-85835320D01*
X149288983Y-85835320D01*
X149323860Y-85838755D01*
X149358737Y-85835320D01*
X149463044Y-85825047D01*
X149596880Y-85784448D01*
X149720223Y-85718520D01*
X149828335Y-85629795D01*
X149917060Y-85521683D01*
X149982988Y-85398340D01*
X150023587Y-85264504D01*
X150037295Y-85125320D01*
X150033860Y-85090443D01*
X150033860Y-71160197D01*
X150037295Y-71125320D01*
X163185385Y-71125320D01*
X163188820Y-71160197D01*
X163188821Y-85090433D01*
X163185385Y-85125320D01*
X163199093Y-85264504D01*
X163239692Y-85398340D01*
X163305620Y-85521683D01*
X163394345Y-85629795D01*
X163502457Y-85718520D01*
X163625800Y-85784448D01*
X163759636Y-85825047D01*
X163863943Y-85835320D01*
X163898820Y-85838755D01*
X163933697Y-85835320D01*
X177863943Y-85835320D01*
X177898820Y-85838755D01*
X177933697Y-85835320D01*
X178038004Y-85825047D01*
X178171840Y-85784448D01*
X178295183Y-85718520D01*
X178403295Y-85629795D01*
X178492020Y-85521683D01*
X178557948Y-85398340D01*
X178598547Y-85264504D01*
X178612255Y-85125320D01*
X178608820Y-85090443D01*
X178608820Y-71160197D01*
X178612255Y-71125320D01*
X186997885Y-71125320D01*
X187001320Y-71160197D01*
X187001321Y-85090433D01*
X186997885Y-85125320D01*
X187011593Y-85264504D01*
X187052192Y-85398340D01*
X187118120Y-85521683D01*
X187206845Y-85629795D01*
X187314957Y-85718520D01*
X187438300Y-85784448D01*
X187572136Y-85825047D01*
X187676443Y-85835320D01*
X187711320Y-85838755D01*
X187746197Y-85835320D01*
X201676443Y-85835320D01*
X201711320Y-85838755D01*
X201746197Y-85835320D01*
X201850504Y-85825047D01*
X201984340Y-85784448D01*
X202107683Y-85718520D01*
X202215795Y-85629795D01*
X202304520Y-85521683D01*
X202370448Y-85398340D01*
X202411047Y-85264504D01*
X202424755Y-85125320D01*
X202421320Y-85090443D01*
X202421320Y-71160197D01*
X202424755Y-71125320D01*
X225097885Y-71125320D01*
X225101320Y-71160197D01*
X225101321Y-85090433D01*
X225097885Y-85125320D01*
X225111593Y-85264504D01*
X225152192Y-85398340D01*
X225218120Y-85521683D01*
X225306845Y-85629795D01*
X225414957Y-85718520D01*
X225538300Y-85784448D01*
X225672136Y-85825047D01*
X225776443Y-85835320D01*
X225811320Y-85838755D01*
X225846197Y-85835320D01*
X239776443Y-85835320D01*
X239811320Y-85838755D01*
X239846197Y-85835320D01*
X239950504Y-85825047D01*
X240084340Y-85784448D01*
X240207683Y-85718520D01*
X240315795Y-85629795D01*
X240404520Y-85521683D01*
X240470448Y-85398340D01*
X240511047Y-85264504D01*
X240524755Y-85125320D01*
X240521320Y-85090443D01*
X240521320Y-71160197D01*
X240524755Y-71125320D01*
X240511047Y-70986136D01*
X240470448Y-70852300D01*
X240404520Y-70728957D01*
X240315795Y-70620845D01*
X240207683Y-70532120D01*
X240084340Y-70466192D01*
X239950504Y-70425593D01*
X239846197Y-70415320D01*
X239811320Y-70411885D01*
X239776443Y-70415320D01*
X225846197Y-70415320D01*
X225811320Y-70411885D01*
X225776443Y-70415320D01*
X225672136Y-70425593D01*
X225538300Y-70466192D01*
X225414957Y-70532120D01*
X225306845Y-70620845D01*
X225218120Y-70728957D01*
X225152192Y-70852300D01*
X225111593Y-70986136D01*
X225097885Y-71125320D01*
X202424755Y-71125320D01*
X202411047Y-70986136D01*
X202370448Y-70852300D01*
X202304520Y-70728957D01*
X202215795Y-70620845D01*
X202107683Y-70532120D01*
X201984340Y-70466192D01*
X201850504Y-70425593D01*
X201746197Y-70415320D01*
X201711320Y-70411885D01*
X201676443Y-70415320D01*
X187746197Y-70415320D01*
X187711320Y-70411885D01*
X187676443Y-70415320D01*
X187572136Y-70425593D01*
X187438300Y-70466192D01*
X187314957Y-70532120D01*
X187206845Y-70620845D01*
X187118120Y-70728957D01*
X187052192Y-70852300D01*
X187011593Y-70986136D01*
X186997885Y-71125320D01*
X178612255Y-71125320D01*
X178598547Y-70986136D01*
X178557948Y-70852300D01*
X178492020Y-70728957D01*
X178403295Y-70620845D01*
X178295183Y-70532120D01*
X178171840Y-70466192D01*
X178038004Y-70425593D01*
X177933697Y-70415320D01*
X177898820Y-70411885D01*
X177863943Y-70415320D01*
X163933697Y-70415320D01*
X163898820Y-70411885D01*
X163863943Y-70415320D01*
X163759636Y-70425593D01*
X163625800Y-70466192D01*
X163502457Y-70532120D01*
X163394345Y-70620845D01*
X163305620Y-70728957D01*
X163239692Y-70852300D01*
X163199093Y-70986136D01*
X163185385Y-71125320D01*
X150037295Y-71125320D01*
X150023587Y-70986136D01*
X149982988Y-70852300D01*
X149917060Y-70728957D01*
X149828335Y-70620845D01*
X149720223Y-70532120D01*
X149596880Y-70466192D01*
X149463044Y-70425593D01*
X149358737Y-70415320D01*
X149323860Y-70411885D01*
X149288983Y-70415320D01*
X135358737Y-70415320D01*
X135323860Y-70411885D01*
X135288983Y-70415320D01*
X135184676Y-70425593D01*
X135050840Y-70466192D01*
X134927497Y-70532120D01*
X134819385Y-70620845D01*
X134730660Y-70728957D01*
X134664732Y-70852300D01*
X134624133Y-70986136D01*
X134610425Y-71125320D01*
X121462295Y-71125320D01*
X121448587Y-70986136D01*
X121407988Y-70852300D01*
X121342060Y-70728957D01*
X121253335Y-70620845D01*
X121145223Y-70532120D01*
X121021880Y-70466192D01*
X120888044Y-70425593D01*
X120783737Y-70415320D01*
X120748860Y-70411885D01*
X120713983Y-70415320D01*
X106783737Y-70415320D01*
X106748860Y-70411885D01*
X106713983Y-70415320D01*
X106609676Y-70425593D01*
X106475840Y-70466192D01*
X106352497Y-70532120D01*
X106244385Y-70620845D01*
X106155660Y-70728957D01*
X106089732Y-70852300D01*
X106049133Y-70986136D01*
X106035425Y-71125320D01*
X92887295Y-71125320D01*
X92873587Y-70986136D01*
X92832988Y-70852300D01*
X92767060Y-70728957D01*
X92678335Y-70620845D01*
X92570223Y-70532120D01*
X92446880Y-70466192D01*
X92313044Y-70425593D01*
X92208737Y-70415320D01*
X92173860Y-70411885D01*
X92138983Y-70415320D01*
X78208737Y-70415320D01*
X78173860Y-70411885D01*
X78138983Y-70415320D01*
X78034676Y-70425593D01*
X77900840Y-70466192D01*
X77777497Y-70532120D01*
X77669385Y-70620845D01*
X77580660Y-70728957D01*
X77514732Y-70852300D01*
X77474133Y-70986136D01*
X77460425Y-71125320D01*
X69074795Y-71125320D01*
X69061087Y-70986136D01*
X69020488Y-70852300D01*
X68954560Y-70728957D01*
X68865835Y-70620845D01*
X68757723Y-70532120D01*
X68634380Y-70466192D01*
X68500544Y-70425593D01*
X68396237Y-70415320D01*
X68361360Y-70411885D01*
X68326483Y-70415320D01*
X54396237Y-70415320D01*
X54361360Y-70411885D01*
X54326483Y-70415320D01*
X54222176Y-70425593D01*
X54088340Y-70466192D01*
X53964997Y-70532120D01*
X53856885Y-70620845D01*
X53768160Y-70728957D01*
X53702232Y-70852300D01*
X53661633Y-70986136D01*
X53647925Y-71125320D01*
X30974755Y-71125320D01*
X30961047Y-70986136D01*
X30920448Y-70852300D01*
X30854520Y-70728957D01*
X30765795Y-70620845D01*
X30657683Y-70532120D01*
X30534340Y-70466192D01*
X30400504Y-70425593D01*
X30296197Y-70415320D01*
X30261320Y-70411885D01*
X30226443Y-70415320D01*
X16296197Y-70415320D01*
X16261320Y-70411885D01*
X16226443Y-70415320D01*
X16122136Y-70425593D01*
X15988300Y-70466192D01*
X15864957Y-70532120D01*
X15756845Y-70620845D01*
X15668120Y-70728957D01*
X15602192Y-70852300D01*
X15561593Y-70986136D01*
X15547885Y-71125320D01*
X12969180Y-71125320D01*
X12969180Y-53075320D01*
X20310385Y-53075320D01*
X20313820Y-53110197D01*
X20313821Y-67040433D01*
X20310385Y-67075320D01*
X20324093Y-67214504D01*
X20364692Y-67348340D01*
X20430620Y-67471683D01*
X20519345Y-67579795D01*
X20627457Y-67668520D01*
X20750800Y-67734448D01*
X20884636Y-67775047D01*
X20988943Y-67785320D01*
X21023820Y-67788755D01*
X21058697Y-67785320D01*
X34988943Y-67785320D01*
X35023820Y-67788755D01*
X35058697Y-67785320D01*
X35163004Y-67775047D01*
X35296840Y-67734448D01*
X35420183Y-67668520D01*
X35528295Y-67579795D01*
X35617020Y-67471683D01*
X35682948Y-67348340D01*
X35723547Y-67214504D01*
X35737255Y-67075320D01*
X35733820Y-67040443D01*
X35733820Y-53110197D01*
X35737255Y-53075320D01*
X39360385Y-53075320D01*
X39363820Y-53110197D01*
X39363821Y-67040433D01*
X39360385Y-67075320D01*
X39374093Y-67214504D01*
X39414692Y-67348340D01*
X39480620Y-67471683D01*
X39569345Y-67579795D01*
X39677457Y-67668520D01*
X39800800Y-67734448D01*
X39934636Y-67775047D01*
X40038943Y-67785320D01*
X40073820Y-67788755D01*
X40108697Y-67785320D01*
X50199382Y-67785320D01*
X50164750Y-67868930D01*
X50097631Y-68206360D01*
X50097631Y-68550400D01*
X50164750Y-68887830D01*
X50296408Y-69205681D01*
X50487547Y-69491740D01*
X50730820Y-69735013D01*
X51016879Y-69926152D01*
X51334730Y-70057810D01*
X51672160Y-70124929D01*
X52016200Y-70124929D01*
X52353630Y-70057810D01*
X52671481Y-69926152D01*
X52957540Y-69735013D01*
X53200813Y-69491740D01*
X53391952Y-69205681D01*
X53523610Y-68887830D01*
X53590729Y-68550400D01*
X53590729Y-68206360D01*
X53523610Y-67868930D01*
X53488978Y-67785320D01*
X54038943Y-67785320D01*
X54073820Y-67788755D01*
X54108697Y-67785320D01*
X54213004Y-67775047D01*
X54346840Y-67734448D01*
X54470183Y-67668520D01*
X54578295Y-67579795D01*
X54667020Y-67471683D01*
X54732948Y-67348340D01*
X54773547Y-67214504D01*
X54787255Y-67075320D01*
X54783820Y-67040443D01*
X54783820Y-53110197D01*
X54787255Y-53075320D01*
X58410385Y-53075320D01*
X58413820Y-53110197D01*
X58413821Y-67040433D01*
X58410385Y-67075320D01*
X58424093Y-67214504D01*
X58464692Y-67348340D01*
X58530620Y-67471683D01*
X58619345Y-67579795D01*
X58727457Y-67668520D01*
X58850800Y-67734448D01*
X58984636Y-67775047D01*
X59088943Y-67785320D01*
X59123820Y-67788755D01*
X59158697Y-67785320D01*
X73088943Y-67785320D01*
X73123820Y-67788755D01*
X73158697Y-67785320D01*
X73263004Y-67775047D01*
X73396840Y-67734448D01*
X73520183Y-67668520D01*
X73628295Y-67579795D01*
X73717020Y-67471683D01*
X73782948Y-67348340D01*
X73823547Y-67214504D01*
X73837255Y-67075320D01*
X73833820Y-67040443D01*
X73833820Y-53110197D01*
X73837255Y-53075320D01*
X77460385Y-53075320D01*
X77463820Y-53110197D01*
X77463821Y-67040433D01*
X77460385Y-67075320D01*
X77474093Y-67214504D01*
X77514692Y-67348340D01*
X77580620Y-67471683D01*
X77669345Y-67579795D01*
X77777457Y-67668520D01*
X77900800Y-67734448D01*
X78034636Y-67775047D01*
X78138943Y-67785320D01*
X78173820Y-67788755D01*
X78208697Y-67785320D01*
X92138943Y-67785320D01*
X92173820Y-67788755D01*
X92208697Y-67785320D01*
X92313004Y-67775047D01*
X92446840Y-67734448D01*
X92570183Y-67668520D01*
X92678295Y-67579795D01*
X92767020Y-67471683D01*
X92832948Y-67348340D01*
X92873547Y-67214504D01*
X92887255Y-67075320D01*
X92883820Y-67040443D01*
X92883820Y-53110197D01*
X92887255Y-53075320D01*
X96510385Y-53075320D01*
X96513820Y-53110197D01*
X96513821Y-67040433D01*
X96510385Y-67075320D01*
X96524093Y-67214504D01*
X96564692Y-67348340D01*
X96630620Y-67471683D01*
X96719345Y-67579795D01*
X96827457Y-67668520D01*
X96950800Y-67734448D01*
X97084636Y-67775047D01*
X97188943Y-67785320D01*
X97223820Y-67788755D01*
X97258697Y-67785320D01*
X111188943Y-67785320D01*
X111223820Y-67788755D01*
X111258697Y-67785320D01*
X111363004Y-67775047D01*
X111496840Y-67734448D01*
X111620183Y-67668520D01*
X111728295Y-67579795D01*
X111817020Y-67471683D01*
X111882948Y-67348340D01*
X111923547Y-67214504D01*
X111930652Y-67142360D01*
X122288326Y-67142360D01*
X122291640Y-67176007D01*
X122291641Y-69623303D01*
X122288326Y-69656960D01*
X122301552Y-69791243D01*
X122340721Y-69920366D01*
X122404328Y-70039367D01*
X122489929Y-70143671D01*
X122594233Y-70229272D01*
X122713234Y-70292879D01*
X122842357Y-70332048D01*
X122942993Y-70341960D01*
X122976640Y-70345274D01*
X123010287Y-70341960D01*
X133077593Y-70341960D01*
X133111240Y-70345274D01*
X133144887Y-70341960D01*
X133245523Y-70332048D01*
X133374646Y-70292879D01*
X133493647Y-70229272D01*
X133597951Y-70143671D01*
X133683552Y-70039367D01*
X133747159Y-69920366D01*
X133786328Y-69791243D01*
X133799554Y-69656960D01*
X133796240Y-69623313D01*
X133796240Y-67176007D01*
X133799554Y-67142360D01*
X133786328Y-67008077D01*
X133747159Y-66878954D01*
X133683552Y-66759953D01*
X133597951Y-66655649D01*
X133493647Y-66570048D01*
X133374646Y-66506441D01*
X133245523Y-66467272D01*
X133144887Y-66457360D01*
X133111240Y-66454046D01*
X133077593Y-66457360D01*
X123010287Y-66457360D01*
X122976640Y-66454046D01*
X122942993Y-66457360D01*
X122842357Y-66467272D01*
X122713234Y-66506441D01*
X122594233Y-66570048D01*
X122489929Y-66655649D01*
X122404328Y-66759953D01*
X122340721Y-66878954D01*
X122301552Y-67008077D01*
X122288326Y-67142360D01*
X111930652Y-67142360D01*
X111937255Y-67075320D01*
X111933820Y-67040443D01*
X111933820Y-53110197D01*
X111937255Y-53075320D01*
X144135385Y-53075320D01*
X144138820Y-53110197D01*
X144138821Y-67040433D01*
X144135385Y-67075320D01*
X144149093Y-67214504D01*
X144189692Y-67348340D01*
X144255620Y-67471683D01*
X144344345Y-67579795D01*
X144452457Y-67668520D01*
X144575800Y-67734448D01*
X144709636Y-67775047D01*
X144813943Y-67785320D01*
X144848820Y-67788755D01*
X144883697Y-67785320D01*
X158813943Y-67785320D01*
X158848820Y-67788755D01*
X158883697Y-67785320D01*
X158988004Y-67775047D01*
X159121840Y-67734448D01*
X159245183Y-67668520D01*
X159353295Y-67579795D01*
X159442020Y-67471683D01*
X159507948Y-67348340D01*
X159548547Y-67214504D01*
X159562255Y-67075320D01*
X159558820Y-67040443D01*
X159558820Y-53110197D01*
X159562255Y-53075320D01*
X163185385Y-53075320D01*
X163188820Y-53110197D01*
X163188821Y-67040433D01*
X163185385Y-67075320D01*
X163199093Y-67214504D01*
X163239692Y-67348340D01*
X163305620Y-67471683D01*
X163394345Y-67579795D01*
X163502457Y-67668520D01*
X163625800Y-67734448D01*
X163759636Y-67775047D01*
X163863943Y-67785320D01*
X163898820Y-67788755D01*
X163933697Y-67785320D01*
X177863943Y-67785320D01*
X177898820Y-67788755D01*
X177933697Y-67785320D01*
X178038004Y-67775047D01*
X178171840Y-67734448D01*
X178295183Y-67668520D01*
X178403295Y-67579795D01*
X178492020Y-67471683D01*
X178557948Y-67348340D01*
X178598547Y-67214504D01*
X178612255Y-67075320D01*
X178608820Y-67040443D01*
X178608820Y-53110197D01*
X178612255Y-53075320D01*
X182235385Y-53075320D01*
X182238820Y-53110197D01*
X182238821Y-67040433D01*
X182235385Y-67075320D01*
X182249093Y-67214504D01*
X182289692Y-67348340D01*
X182355620Y-67471683D01*
X182444345Y-67579795D01*
X182552457Y-67668520D01*
X182675800Y-67734448D01*
X182809636Y-67775047D01*
X182913943Y-67785320D01*
X182948820Y-67788755D01*
X182983697Y-67785320D01*
X196913943Y-67785320D01*
X196948820Y-67788755D01*
X196983697Y-67785320D01*
X197088004Y-67775047D01*
X197221840Y-67734448D01*
X197345183Y-67668520D01*
X197453295Y-67579795D01*
X197542020Y-67471683D01*
X197607948Y-67348340D01*
X197648547Y-67214504D01*
X197662255Y-67075320D01*
X197658820Y-67040443D01*
X197658820Y-53110197D01*
X197662255Y-53075320D01*
X201285385Y-53075320D01*
X201288820Y-53110197D01*
X201288821Y-67040433D01*
X201285385Y-67075320D01*
X201299093Y-67214504D01*
X201339692Y-67348340D01*
X201405620Y-67471683D01*
X201494345Y-67579795D01*
X201602457Y-67668520D01*
X201725800Y-67734448D01*
X201859636Y-67775047D01*
X201963943Y-67785320D01*
X201998820Y-67788755D01*
X202033697Y-67785320D01*
X215963943Y-67785320D01*
X215998820Y-67788755D01*
X216033697Y-67785320D01*
X216138004Y-67775047D01*
X216271840Y-67734448D01*
X216395183Y-67668520D01*
X216503295Y-67579795D01*
X216592020Y-67471683D01*
X216657948Y-67348340D01*
X216698547Y-67214504D01*
X216712255Y-67075320D01*
X216708820Y-67040443D01*
X216708820Y-53110197D01*
X216712255Y-53075320D01*
X220335385Y-53075320D01*
X220338820Y-53110197D01*
X220338821Y-67040433D01*
X220335385Y-67075320D01*
X220349093Y-67214504D01*
X220389692Y-67348340D01*
X220455620Y-67471683D01*
X220544345Y-67579795D01*
X220652457Y-67668520D01*
X220775800Y-67734448D01*
X220909636Y-67775047D01*
X221013943Y-67785320D01*
X221048820Y-67788755D01*
X221083697Y-67785320D01*
X221649382Y-67785320D01*
X221614750Y-67868930D01*
X221547631Y-68206360D01*
X221547631Y-68550400D01*
X221614750Y-68887830D01*
X221746408Y-69205681D01*
X221937547Y-69491740D01*
X222180820Y-69735013D01*
X222466879Y-69926152D01*
X222784730Y-70057810D01*
X223122160Y-70124929D01*
X223466200Y-70124929D01*
X223803630Y-70057810D01*
X224121481Y-69926152D01*
X224407540Y-69735013D01*
X224650813Y-69491740D01*
X224841952Y-69205681D01*
X224973610Y-68887830D01*
X225040729Y-68550400D01*
X225040729Y-68206360D01*
X224973610Y-67868930D01*
X224938978Y-67785320D01*
X235013943Y-67785320D01*
X235048820Y-67788755D01*
X235083697Y-67785320D01*
X235188004Y-67775047D01*
X235321840Y-67734448D01*
X235445183Y-67668520D01*
X235553295Y-67579795D01*
X235642020Y-67471683D01*
X235707948Y-67348340D01*
X235748547Y-67214504D01*
X235762255Y-67075320D01*
X235758820Y-67040443D01*
X235758820Y-53110197D01*
X235762255Y-53075320D01*
X235748547Y-52936136D01*
X235707948Y-52802300D01*
X235642020Y-52678957D01*
X235553295Y-52570845D01*
X235445183Y-52482120D01*
X235321840Y-52416192D01*
X235188004Y-52375593D01*
X235083697Y-52365320D01*
X235048820Y-52361885D01*
X235013943Y-52365320D01*
X221083697Y-52365320D01*
X221048820Y-52361885D01*
X221013943Y-52365320D01*
X220909636Y-52375593D01*
X220775800Y-52416192D01*
X220652457Y-52482120D01*
X220544345Y-52570845D01*
X220455620Y-52678957D01*
X220389692Y-52802300D01*
X220349093Y-52936136D01*
X220335385Y-53075320D01*
X216712255Y-53075320D01*
X216698547Y-52936136D01*
X216657948Y-52802300D01*
X216592020Y-52678957D01*
X216503295Y-52570845D01*
X216395183Y-52482120D01*
X216271840Y-52416192D01*
X216138004Y-52375593D01*
X216033697Y-52365320D01*
X215998820Y-52361885D01*
X215963943Y-52365320D01*
X202033697Y-52365320D01*
X201998820Y-52361885D01*
X201963943Y-52365320D01*
X201859636Y-52375593D01*
X201725800Y-52416192D01*
X201602457Y-52482120D01*
X201494345Y-52570845D01*
X201405620Y-52678957D01*
X201339692Y-52802300D01*
X201299093Y-52936136D01*
X201285385Y-53075320D01*
X197662255Y-53075320D01*
X197648547Y-52936136D01*
X197607948Y-52802300D01*
X197542020Y-52678957D01*
X197453295Y-52570845D01*
X197345183Y-52482120D01*
X197221840Y-52416192D01*
X197088004Y-52375593D01*
X196983697Y-52365320D01*
X196948820Y-52361885D01*
X196913943Y-52365320D01*
X182983697Y-52365320D01*
X182948820Y-52361885D01*
X182913943Y-52365320D01*
X182809636Y-52375593D01*
X182675800Y-52416192D01*
X182552457Y-52482120D01*
X182444345Y-52570845D01*
X182355620Y-52678957D01*
X182289692Y-52802300D01*
X182249093Y-52936136D01*
X182235385Y-53075320D01*
X178612255Y-53075320D01*
X178598547Y-52936136D01*
X178557948Y-52802300D01*
X178492020Y-52678957D01*
X178403295Y-52570845D01*
X178295183Y-52482120D01*
X178171840Y-52416192D01*
X178038004Y-52375593D01*
X177933697Y-52365320D01*
X177898820Y-52361885D01*
X177863943Y-52365320D01*
X167887761Y-52365320D01*
X167890729Y-52350400D01*
X167890729Y-52006360D01*
X167823610Y-51668930D01*
X167691952Y-51351079D01*
X167500813Y-51065020D01*
X167257540Y-50821747D01*
X166971481Y-50630608D01*
X166653630Y-50498950D01*
X166316200Y-50431831D01*
X165972160Y-50431831D01*
X165634730Y-50498950D01*
X165316879Y-50630608D01*
X165030820Y-50821747D01*
X164787547Y-51065020D01*
X164596408Y-51351079D01*
X164464750Y-51668930D01*
X164397631Y-52006360D01*
X164397631Y-52350400D01*
X164400599Y-52365320D01*
X163933697Y-52365320D01*
X163898820Y-52361885D01*
X163863943Y-52365320D01*
X163759636Y-52375593D01*
X163625800Y-52416192D01*
X163502457Y-52482120D01*
X163394345Y-52570845D01*
X163305620Y-52678957D01*
X163239692Y-52802300D01*
X163199093Y-52936136D01*
X163185385Y-53075320D01*
X159562255Y-53075320D01*
X159548547Y-52936136D01*
X159507948Y-52802300D01*
X159442020Y-52678957D01*
X159353295Y-52570845D01*
X159245183Y-52482120D01*
X159121840Y-52416192D01*
X158988004Y-52375593D01*
X158883697Y-52365320D01*
X158848820Y-52361885D01*
X158813943Y-52365320D01*
X144883697Y-52365320D01*
X144848820Y-52361885D01*
X144813943Y-52365320D01*
X144709636Y-52375593D01*
X144575800Y-52416192D01*
X144452457Y-52482120D01*
X144344345Y-52570845D01*
X144255620Y-52678957D01*
X144189692Y-52802300D01*
X144149093Y-52936136D01*
X144135385Y-53075320D01*
X111937255Y-53075320D01*
X111923547Y-52936136D01*
X111882948Y-52802300D01*
X111817020Y-52678957D01*
X111728295Y-52570845D01*
X111620183Y-52482120D01*
X111496840Y-52416192D01*
X111363004Y-52375593D01*
X111258697Y-52365320D01*
X111223820Y-52361885D01*
X111188943Y-52365320D01*
X97258697Y-52365320D01*
X97223820Y-52361885D01*
X97188943Y-52365320D01*
X97084636Y-52375593D01*
X96950800Y-52416192D01*
X96827457Y-52482120D01*
X96719345Y-52570845D01*
X96630620Y-52678957D01*
X96564692Y-52802300D01*
X96524093Y-52936136D01*
X96510385Y-53075320D01*
X92887255Y-53075320D01*
X92873547Y-52936136D01*
X92832948Y-52802300D01*
X92767020Y-52678957D01*
X92678295Y-52570845D01*
X92570183Y-52482120D01*
X92446840Y-52416192D01*
X92313004Y-52375593D01*
X92208697Y-52365320D01*
X92173820Y-52361885D01*
X92138943Y-52365320D01*
X91687761Y-52365320D01*
X91690729Y-52350400D01*
X91690729Y-52006360D01*
X91623610Y-51668930D01*
X91491952Y-51351079D01*
X91300813Y-51065020D01*
X91057540Y-50821747D01*
X90771481Y-50630608D01*
X90453630Y-50498950D01*
X90116200Y-50431831D01*
X89772160Y-50431831D01*
X89434730Y-50498950D01*
X89116879Y-50630608D01*
X88830820Y-50821747D01*
X88587547Y-51065020D01*
X88396408Y-51351079D01*
X88264750Y-51668930D01*
X88197631Y-52006360D01*
X88197631Y-52350400D01*
X88200599Y-52365320D01*
X78208697Y-52365320D01*
X78173820Y-52361885D01*
X78138943Y-52365320D01*
X78034636Y-52375593D01*
X77900800Y-52416192D01*
X77777457Y-52482120D01*
X77669345Y-52570845D01*
X77580620Y-52678957D01*
X77514692Y-52802300D01*
X77474093Y-52936136D01*
X77460385Y-53075320D01*
X73837255Y-53075320D01*
X73823547Y-52936136D01*
X73782948Y-52802300D01*
X73717020Y-52678957D01*
X73628295Y-52570845D01*
X73520183Y-52482120D01*
X73396840Y-52416192D01*
X73263004Y-52375593D01*
X73158697Y-52365320D01*
X73123820Y-52361885D01*
X73088943Y-52365320D01*
X59158697Y-52365320D01*
X59123820Y-52361885D01*
X59088943Y-52365320D01*
X58984636Y-52375593D01*
X58850800Y-52416192D01*
X58727457Y-52482120D01*
X58619345Y-52570845D01*
X58530620Y-52678957D01*
X58464692Y-52802300D01*
X58424093Y-52936136D01*
X58410385Y-53075320D01*
X54787255Y-53075320D01*
X54773547Y-52936136D01*
X54732948Y-52802300D01*
X54667020Y-52678957D01*
X54578295Y-52570845D01*
X54470183Y-52482120D01*
X54346840Y-52416192D01*
X54213004Y-52375593D01*
X54108697Y-52365320D01*
X54073820Y-52361885D01*
X54038943Y-52365320D01*
X40108697Y-52365320D01*
X40073820Y-52361885D01*
X40038943Y-52365320D01*
X39934636Y-52375593D01*
X39800800Y-52416192D01*
X39677457Y-52482120D01*
X39569345Y-52570845D01*
X39480620Y-52678957D01*
X39414692Y-52802300D01*
X39374093Y-52936136D01*
X39360385Y-53075320D01*
X35737255Y-53075320D01*
X35723547Y-52936136D01*
X35682948Y-52802300D01*
X35617020Y-52678957D01*
X35528295Y-52570845D01*
X35420183Y-52482120D01*
X35296840Y-52416192D01*
X35163004Y-52375593D01*
X35058697Y-52365320D01*
X35023820Y-52361885D01*
X34988943Y-52365320D01*
X21058697Y-52365320D01*
X21023820Y-52361885D01*
X20988943Y-52365320D01*
X20884636Y-52375593D01*
X20750800Y-52416192D01*
X20627457Y-52482120D01*
X20519345Y-52570845D01*
X20430620Y-52678957D01*
X20364692Y-52802300D01*
X20324093Y-52936136D01*
X20310385Y-53075320D01*
X12969180Y-53075320D01*
X12969180Y-35025320D01*
X25072885Y-35025320D01*
X25076320Y-35060197D01*
X25076321Y-48990433D01*
X25072885Y-49025320D01*
X25086593Y-49164504D01*
X25127192Y-49298340D01*
X25193120Y-49421683D01*
X25281845Y-49529795D01*
X25389957Y-49618520D01*
X25513300Y-49684448D01*
X25647136Y-49725047D01*
X25751443Y-49735320D01*
X25786320Y-49738755D01*
X25821197Y-49735320D01*
X39751443Y-49735320D01*
X39786320Y-49738755D01*
X39821197Y-49735320D01*
X39925504Y-49725047D01*
X40059340Y-49684448D01*
X40182683Y-49618520D01*
X40290795Y-49529795D01*
X40379520Y-49421683D01*
X40445448Y-49298340D01*
X40486047Y-49164504D01*
X40499755Y-49025320D01*
X40496320Y-48990443D01*
X40496320Y-35060197D01*
X40499755Y-35025320D01*
X44122885Y-35025320D01*
X44126320Y-35060197D01*
X44126321Y-48990433D01*
X44122885Y-49025320D01*
X44136593Y-49164504D01*
X44177192Y-49298340D01*
X44243120Y-49421683D01*
X44331845Y-49529795D01*
X44439957Y-49618520D01*
X44563300Y-49684448D01*
X44697136Y-49725047D01*
X44801443Y-49735320D01*
X44836320Y-49738755D01*
X44871197Y-49735320D01*
X58801443Y-49735320D01*
X58836320Y-49738755D01*
X58871197Y-49735320D01*
X58975504Y-49725047D01*
X59109340Y-49684448D01*
X59232683Y-49618520D01*
X59340795Y-49529795D01*
X59429520Y-49421683D01*
X59495448Y-49298340D01*
X59536047Y-49164504D01*
X59549755Y-49025320D01*
X59546320Y-48990443D01*
X59546320Y-35060197D01*
X59549755Y-35025320D01*
X63172885Y-35025320D01*
X63176320Y-35060197D01*
X63176321Y-48990433D01*
X63172885Y-49025320D01*
X63186593Y-49164504D01*
X63227192Y-49298340D01*
X63293120Y-49421683D01*
X63381845Y-49529795D01*
X63489957Y-49618520D01*
X63613300Y-49684448D01*
X63747136Y-49725047D01*
X63851443Y-49735320D01*
X63886320Y-49738755D01*
X63921197Y-49735320D01*
X77851443Y-49735320D01*
X77886320Y-49738755D01*
X77921197Y-49735320D01*
X78025504Y-49725047D01*
X78159340Y-49684448D01*
X78282683Y-49618520D01*
X78390795Y-49529795D01*
X78479520Y-49421683D01*
X78545448Y-49298340D01*
X78586047Y-49164504D01*
X78599755Y-49025320D01*
X78596320Y-48990443D01*
X78596320Y-35060197D01*
X78599755Y-35025320D01*
X82222885Y-35025320D01*
X82226320Y-35060197D01*
X82226321Y-48990433D01*
X82222885Y-49025320D01*
X82236593Y-49164504D01*
X82277192Y-49298340D01*
X82343120Y-49421683D01*
X82431845Y-49529795D01*
X82539957Y-49618520D01*
X82663300Y-49684448D01*
X82797136Y-49725047D01*
X82901443Y-49735320D01*
X82936320Y-49738755D01*
X82971197Y-49735320D01*
X96901443Y-49735320D01*
X96936320Y-49738755D01*
X96971197Y-49735320D01*
X97075504Y-49725047D01*
X97209340Y-49684448D01*
X97332683Y-49618520D01*
X97440795Y-49529795D01*
X97529520Y-49421683D01*
X97595448Y-49298340D01*
X97636047Y-49164504D01*
X97649755Y-49025320D01*
X97646320Y-48990443D01*
X97646320Y-35060197D01*
X97649755Y-35025320D01*
X101272885Y-35025320D01*
X101276320Y-35060197D01*
X101276321Y-48990433D01*
X101272885Y-49025320D01*
X101286593Y-49164504D01*
X101327192Y-49298340D01*
X101393120Y-49421683D01*
X101481845Y-49529795D01*
X101589957Y-49618520D01*
X101713300Y-49684448D01*
X101847136Y-49725047D01*
X101951443Y-49735320D01*
X101986320Y-49738755D01*
X102021197Y-49735320D01*
X115951443Y-49735320D01*
X115986320Y-49738755D01*
X116021197Y-49735320D01*
X116125504Y-49725047D01*
X116259340Y-49684448D01*
X116382683Y-49618520D01*
X116490795Y-49529795D01*
X116579520Y-49421683D01*
X116645448Y-49298340D01*
X116686047Y-49164504D01*
X116699755Y-49025320D01*
X116696320Y-48990443D01*
X116696320Y-35060197D01*
X116699755Y-35025320D01*
X139372885Y-35025320D01*
X139376320Y-35060197D01*
X139376321Y-48990433D01*
X139372885Y-49025320D01*
X139386593Y-49164504D01*
X139427192Y-49298340D01*
X139493120Y-49421683D01*
X139581845Y-49529795D01*
X139689957Y-49618520D01*
X139813300Y-49684448D01*
X139947136Y-49725047D01*
X140051443Y-49735320D01*
X140086320Y-49738755D01*
X140121197Y-49735320D01*
X154051443Y-49735320D01*
X154086320Y-49738755D01*
X154121197Y-49735320D01*
X154225504Y-49725047D01*
X154359340Y-49684448D01*
X154482683Y-49618520D01*
X154590795Y-49529795D01*
X154679520Y-49421683D01*
X154745448Y-49298340D01*
X154786047Y-49164504D01*
X154799755Y-49025320D01*
X154796320Y-48990443D01*
X154796320Y-35060197D01*
X154799755Y-35025320D01*
X158422885Y-35025320D01*
X158426320Y-35060197D01*
X158426321Y-48990433D01*
X158422885Y-49025320D01*
X158436593Y-49164504D01*
X158477192Y-49298340D01*
X158543120Y-49421683D01*
X158631845Y-49529795D01*
X158739957Y-49618520D01*
X158863300Y-49684448D01*
X158997136Y-49725047D01*
X159101443Y-49735320D01*
X159136320Y-49738755D01*
X159171197Y-49735320D01*
X173101443Y-49735320D01*
X173136320Y-49738755D01*
X173171197Y-49735320D01*
X173275504Y-49725047D01*
X173409340Y-49684448D01*
X173532683Y-49618520D01*
X173640795Y-49529795D01*
X173729520Y-49421683D01*
X173795448Y-49298340D01*
X173836047Y-49164504D01*
X173849755Y-49025320D01*
X173846320Y-48990443D01*
X173846320Y-35060197D01*
X173849755Y-35025320D01*
X177472885Y-35025320D01*
X177476320Y-35060197D01*
X177476321Y-48990433D01*
X177472885Y-49025320D01*
X177486593Y-49164504D01*
X177527192Y-49298340D01*
X177593120Y-49421683D01*
X177681845Y-49529795D01*
X177789957Y-49618520D01*
X177913300Y-49684448D01*
X178047136Y-49725047D01*
X178151443Y-49735320D01*
X178186320Y-49738755D01*
X178221197Y-49735320D01*
X192151443Y-49735320D01*
X192186320Y-49738755D01*
X192221197Y-49735320D01*
X192325504Y-49725047D01*
X192459340Y-49684448D01*
X192582683Y-49618520D01*
X192690795Y-49529795D01*
X192779520Y-49421683D01*
X192845448Y-49298340D01*
X192886047Y-49164504D01*
X192899755Y-49025320D01*
X192896320Y-48990443D01*
X192896320Y-35060197D01*
X192899755Y-35025320D01*
X196522885Y-35025320D01*
X196526320Y-35060197D01*
X196526321Y-48990433D01*
X196522885Y-49025320D01*
X196536593Y-49164504D01*
X196577192Y-49298340D01*
X196643120Y-49421683D01*
X196731845Y-49529795D01*
X196839957Y-49618520D01*
X196963300Y-49684448D01*
X197097136Y-49725047D01*
X197201443Y-49735320D01*
X197236320Y-49738755D01*
X197271197Y-49735320D01*
X211201443Y-49735320D01*
X211236320Y-49738755D01*
X211271197Y-49735320D01*
X211375504Y-49725047D01*
X211509340Y-49684448D01*
X211632683Y-49618520D01*
X211740795Y-49529795D01*
X211829520Y-49421683D01*
X211895448Y-49298340D01*
X211936047Y-49164504D01*
X211949755Y-49025320D01*
X211946320Y-48990443D01*
X211946320Y-35060197D01*
X211949755Y-35025320D01*
X215572885Y-35025320D01*
X215576320Y-35060197D01*
X215576321Y-48990433D01*
X215572885Y-49025320D01*
X215586593Y-49164504D01*
X215627192Y-49298340D01*
X215693120Y-49421683D01*
X215781845Y-49529795D01*
X215889957Y-49618520D01*
X216013300Y-49684448D01*
X216147136Y-49725047D01*
X216251443Y-49735320D01*
X216286320Y-49738755D01*
X216321197Y-49735320D01*
X230251443Y-49735320D01*
X230286320Y-49738755D01*
X230321197Y-49735320D01*
X230425504Y-49725047D01*
X230559340Y-49684448D01*
X230682683Y-49618520D01*
X230790795Y-49529795D01*
X230879520Y-49421683D01*
X230945448Y-49298340D01*
X230986047Y-49164504D01*
X230999755Y-49025320D01*
X230996320Y-48990443D01*
X230996320Y-35060197D01*
X230999755Y-35025320D01*
X230986047Y-34886136D01*
X230945448Y-34752300D01*
X230879520Y-34628957D01*
X230790795Y-34520845D01*
X230682683Y-34432120D01*
X230559340Y-34366192D01*
X230425504Y-34325593D01*
X230321197Y-34315320D01*
X230286320Y-34311885D01*
X230251443Y-34315320D01*
X216321197Y-34315320D01*
X216286320Y-34311885D01*
X216251443Y-34315320D01*
X216147136Y-34325593D01*
X216013300Y-34366192D01*
X215889957Y-34432120D01*
X215781845Y-34520845D01*
X215693120Y-34628957D01*
X215627192Y-34752300D01*
X215586593Y-34886136D01*
X215572885Y-35025320D01*
X211949755Y-35025320D01*
X211936047Y-34886136D01*
X211895448Y-34752300D01*
X211829520Y-34628957D01*
X211740795Y-34520845D01*
X211632683Y-34432120D01*
X211509340Y-34366192D01*
X211375504Y-34325593D01*
X211271197Y-34315320D01*
X211236320Y-34311885D01*
X211201443Y-34315320D01*
X197271197Y-34315320D01*
X197236320Y-34311885D01*
X197201443Y-34315320D01*
X197097136Y-34325593D01*
X196963300Y-34366192D01*
X196839957Y-34432120D01*
X196731845Y-34520845D01*
X196643120Y-34628957D01*
X196577192Y-34752300D01*
X196536593Y-34886136D01*
X196522885Y-35025320D01*
X192899755Y-35025320D01*
X192886047Y-34886136D01*
X192845448Y-34752300D01*
X192779520Y-34628957D01*
X192690795Y-34520845D01*
X192582683Y-34432120D01*
X192459340Y-34366192D01*
X192325504Y-34325593D01*
X192221197Y-34315320D01*
X192186320Y-34311885D01*
X192151443Y-34315320D01*
X178221197Y-34315320D01*
X178186320Y-34311885D01*
X178151443Y-34315320D01*
X178047136Y-34325593D01*
X177913300Y-34366192D01*
X177789957Y-34432120D01*
X177681845Y-34520845D01*
X177593120Y-34628957D01*
X177527192Y-34752300D01*
X177486593Y-34886136D01*
X177472885Y-35025320D01*
X173849755Y-35025320D01*
X173836047Y-34886136D01*
X173795448Y-34752300D01*
X173729520Y-34628957D01*
X173640795Y-34520845D01*
X173532683Y-34432120D01*
X173409340Y-34366192D01*
X173275504Y-34325593D01*
X173171197Y-34315320D01*
X173136320Y-34311885D01*
X173101443Y-34315320D01*
X159171197Y-34315320D01*
X159136320Y-34311885D01*
X159101443Y-34315320D01*
X158997136Y-34325593D01*
X158863300Y-34366192D01*
X158739957Y-34432120D01*
X158631845Y-34520845D01*
X158543120Y-34628957D01*
X158477192Y-34752300D01*
X158436593Y-34886136D01*
X158422885Y-35025320D01*
X154799755Y-35025320D01*
X154786047Y-34886136D01*
X154745448Y-34752300D01*
X154679520Y-34628957D01*
X154590795Y-34520845D01*
X154482683Y-34432120D01*
X154359340Y-34366192D01*
X154225504Y-34325593D01*
X154121197Y-34315320D01*
X154086320Y-34311885D01*
X154051443Y-34315320D01*
X140121197Y-34315320D01*
X140086320Y-34311885D01*
X140051443Y-34315320D01*
X139947136Y-34325593D01*
X139813300Y-34366192D01*
X139689957Y-34432120D01*
X139581845Y-34520845D01*
X139493120Y-34628957D01*
X139427192Y-34752300D01*
X139386593Y-34886136D01*
X139372885Y-35025320D01*
X116699755Y-35025320D01*
X116686047Y-34886136D01*
X116645448Y-34752300D01*
X116579520Y-34628957D01*
X116490795Y-34520845D01*
X116382683Y-34432120D01*
X116259340Y-34366192D01*
X116125504Y-34325593D01*
X116021197Y-34315320D01*
X115986320Y-34311885D01*
X115951443Y-34315320D01*
X102021197Y-34315320D01*
X101986320Y-34311885D01*
X101951443Y-34315320D01*
X101847136Y-34325593D01*
X101713300Y-34366192D01*
X101589957Y-34432120D01*
X101481845Y-34520845D01*
X101393120Y-34628957D01*
X101327192Y-34752300D01*
X101286593Y-34886136D01*
X101272885Y-35025320D01*
X97649755Y-35025320D01*
X97636047Y-34886136D01*
X97595448Y-34752300D01*
X97529520Y-34628957D01*
X97440795Y-34520845D01*
X97332683Y-34432120D01*
X97209340Y-34366192D01*
X97075504Y-34325593D01*
X96971197Y-34315320D01*
X96936320Y-34311885D01*
X96901443Y-34315320D01*
X82971197Y-34315320D01*
X82936320Y-34311885D01*
X82901443Y-34315320D01*
X82797136Y-34325593D01*
X82663300Y-34366192D01*
X82539957Y-34432120D01*
X82431845Y-34520845D01*
X82343120Y-34628957D01*
X82277192Y-34752300D01*
X82236593Y-34886136D01*
X82222885Y-35025320D01*
X78599755Y-35025320D01*
X78586047Y-34886136D01*
X78545448Y-34752300D01*
X78479520Y-34628957D01*
X78390795Y-34520845D01*
X78282683Y-34432120D01*
X78159340Y-34366192D01*
X78025504Y-34325593D01*
X77921197Y-34315320D01*
X77886320Y-34311885D01*
X77851443Y-34315320D01*
X63921197Y-34315320D01*
X63886320Y-34311885D01*
X63851443Y-34315320D01*
X63747136Y-34325593D01*
X63613300Y-34366192D01*
X63489957Y-34432120D01*
X63381845Y-34520845D01*
X63293120Y-34628957D01*
X63227192Y-34752300D01*
X63186593Y-34886136D01*
X63172885Y-35025320D01*
X59549755Y-35025320D01*
X59536047Y-34886136D01*
X59495448Y-34752300D01*
X59429520Y-34628957D01*
X59340795Y-34520845D01*
X59232683Y-34432120D01*
X59109340Y-34366192D01*
X58975504Y-34325593D01*
X58871197Y-34315320D01*
X58836320Y-34311885D01*
X58801443Y-34315320D01*
X44871197Y-34315320D01*
X44836320Y-34311885D01*
X44801443Y-34315320D01*
X44697136Y-34325593D01*
X44563300Y-34366192D01*
X44439957Y-34432120D01*
X44331845Y-34520845D01*
X44243120Y-34628957D01*
X44177192Y-34752300D01*
X44136593Y-34886136D01*
X44122885Y-35025320D01*
X40499755Y-35025320D01*
X40486047Y-34886136D01*
X40445448Y-34752300D01*
X40379520Y-34628957D01*
X40290795Y-34520845D01*
X40182683Y-34432120D01*
X40059340Y-34366192D01*
X39925504Y-34325593D01*
X39821197Y-34315320D01*
X39786320Y-34311885D01*
X39751443Y-34315320D01*
X25821197Y-34315320D01*
X25786320Y-34311885D01*
X25751443Y-34315320D01*
X25647136Y-34325593D01*
X25513300Y-34366192D01*
X25389957Y-34432120D01*
X25281845Y-34520845D01*
X25193120Y-34628957D01*
X25127192Y-34752300D01*
X25086593Y-34886136D01*
X25072885Y-35025320D01*
X12969180Y-35025320D01*
X12969180Y-16975320D01*
X29835385Y-16975320D01*
X29838820Y-17010197D01*
X29838821Y-30940433D01*
X29835385Y-30975320D01*
X29849093Y-31114504D01*
X29889692Y-31248340D01*
X29955620Y-31371683D01*
X30044345Y-31479795D01*
X30152457Y-31568520D01*
X30275800Y-31634448D01*
X30409636Y-31675047D01*
X30513943Y-31685320D01*
X30548820Y-31688755D01*
X30583697Y-31685320D01*
X31149382Y-31685320D01*
X31114750Y-31768930D01*
X31047631Y-32106360D01*
X31047631Y-32450400D01*
X31114750Y-32787830D01*
X31246408Y-33105681D01*
X31437547Y-33391740D01*
X31680820Y-33635013D01*
X31966879Y-33826152D01*
X32284730Y-33957810D01*
X32622160Y-34024929D01*
X32966200Y-34024929D01*
X33303630Y-33957810D01*
X33621481Y-33826152D01*
X33907540Y-33635013D01*
X34150813Y-33391740D01*
X34341952Y-33105681D01*
X34473610Y-32787830D01*
X34540729Y-32450400D01*
X34540729Y-32106360D01*
X34473610Y-31768930D01*
X34438978Y-31685320D01*
X44513943Y-31685320D01*
X44548820Y-31688755D01*
X44583697Y-31685320D01*
X44688004Y-31675047D01*
X44821840Y-31634448D01*
X44945183Y-31568520D01*
X45053295Y-31479795D01*
X45142020Y-31371683D01*
X45207948Y-31248340D01*
X45248547Y-31114504D01*
X45262255Y-30975320D01*
X45258820Y-30940443D01*
X45258820Y-17010197D01*
X45262255Y-16975320D01*
X48885385Y-16975320D01*
X48888820Y-17010197D01*
X48888821Y-30940433D01*
X48885385Y-30975320D01*
X48899093Y-31114504D01*
X48939692Y-31248340D01*
X49005620Y-31371683D01*
X49094345Y-31479795D01*
X49202457Y-31568520D01*
X49325800Y-31634448D01*
X49459636Y-31675047D01*
X49563943Y-31685320D01*
X49598820Y-31688755D01*
X49633697Y-31685320D01*
X63563943Y-31685320D01*
X63598820Y-31688755D01*
X63633697Y-31685320D01*
X63738004Y-31675047D01*
X63871840Y-31634448D01*
X63995183Y-31568520D01*
X64103295Y-31479795D01*
X64192020Y-31371683D01*
X64257948Y-31248340D01*
X64298547Y-31114504D01*
X64312255Y-30975320D01*
X64308820Y-30940443D01*
X64308820Y-17010197D01*
X64312255Y-16975320D01*
X67935385Y-16975320D01*
X67938820Y-17010197D01*
X67938821Y-30940433D01*
X67935385Y-30975320D01*
X67949093Y-31114504D01*
X67989692Y-31248340D01*
X68055620Y-31371683D01*
X68144345Y-31479795D01*
X68252457Y-31568520D01*
X68375800Y-31634448D01*
X68509636Y-31675047D01*
X68613943Y-31685320D01*
X68648820Y-31688755D01*
X68683697Y-31685320D01*
X82613943Y-31685320D01*
X82648820Y-31688755D01*
X82683697Y-31685320D01*
X82788004Y-31675047D01*
X82921840Y-31634448D01*
X83045183Y-31568520D01*
X83153295Y-31479795D01*
X83242020Y-31371683D01*
X83307948Y-31248340D01*
X83348547Y-31114504D01*
X83362255Y-30975320D01*
X83358820Y-30940443D01*
X83358820Y-17010197D01*
X83362255Y-16975320D01*
X86985385Y-16975320D01*
X86988820Y-17010197D01*
X86988821Y-30940433D01*
X86985385Y-30975320D01*
X86999093Y-31114504D01*
X87039692Y-31248340D01*
X87105620Y-31371683D01*
X87194345Y-31479795D01*
X87302457Y-31568520D01*
X87425800Y-31634448D01*
X87559636Y-31675047D01*
X87663943Y-31685320D01*
X87698820Y-31688755D01*
X87733697Y-31685320D01*
X101663943Y-31685320D01*
X101698820Y-31688755D01*
X101733697Y-31685320D01*
X101838004Y-31675047D01*
X101971840Y-31634448D01*
X102095183Y-31568520D01*
X102203295Y-31479795D01*
X102292020Y-31371683D01*
X102357948Y-31248340D01*
X102398547Y-31114504D01*
X102412255Y-30975320D01*
X102408820Y-30940443D01*
X102408820Y-17010197D01*
X102412255Y-16975320D01*
X106035385Y-16975320D01*
X106038820Y-17010197D01*
X106038821Y-30940433D01*
X106035385Y-30975320D01*
X106049093Y-31114504D01*
X106089692Y-31248340D01*
X106155620Y-31371683D01*
X106244345Y-31479795D01*
X106352457Y-31568520D01*
X106475800Y-31634448D01*
X106609636Y-31675047D01*
X106713943Y-31685320D01*
X106748820Y-31688755D01*
X106783697Y-31685320D01*
X120713943Y-31685320D01*
X120748820Y-31688755D01*
X120783697Y-31685320D01*
X120888004Y-31675047D01*
X121021840Y-31634448D01*
X121145183Y-31568520D01*
X121253295Y-31479795D01*
X121342020Y-31371683D01*
X121407948Y-31248340D01*
X121448547Y-31114504D01*
X121462255Y-30975320D01*
X121458820Y-30940443D01*
X121458820Y-17010197D01*
X121462255Y-16975320D01*
X134610385Y-16975320D01*
X134613820Y-17010197D01*
X134613821Y-30940433D01*
X134610385Y-30975320D01*
X134624093Y-31114504D01*
X134664692Y-31248340D01*
X134730620Y-31371683D01*
X134819345Y-31479795D01*
X134927457Y-31568520D01*
X135050800Y-31634448D01*
X135184636Y-31675047D01*
X135288943Y-31685320D01*
X135323820Y-31688755D01*
X135358697Y-31685320D01*
X149288943Y-31685320D01*
X149323820Y-31688755D01*
X149358697Y-31685320D01*
X149463004Y-31675047D01*
X149596840Y-31634448D01*
X149720183Y-31568520D01*
X149828295Y-31479795D01*
X149917020Y-31371683D01*
X149982948Y-31248340D01*
X150023547Y-31114504D01*
X150037255Y-30975320D01*
X150033820Y-30940443D01*
X150033820Y-17010197D01*
X150037255Y-16975320D01*
X153660385Y-16975320D01*
X153663820Y-17010197D01*
X153663821Y-30940433D01*
X153660385Y-30975320D01*
X153674093Y-31114504D01*
X153714692Y-31248340D01*
X153780620Y-31371683D01*
X153869345Y-31479795D01*
X153977457Y-31568520D01*
X154100800Y-31634448D01*
X154234636Y-31675047D01*
X154338943Y-31685320D01*
X154373820Y-31688755D01*
X154408697Y-31685320D01*
X168338943Y-31685320D01*
X168373820Y-31688755D01*
X168408697Y-31685320D01*
X168513004Y-31675047D01*
X168646840Y-31634448D01*
X168770183Y-31568520D01*
X168878295Y-31479795D01*
X168967020Y-31371683D01*
X169032948Y-31248340D01*
X169073547Y-31114504D01*
X169087255Y-30975320D01*
X169083820Y-30940443D01*
X169083820Y-17010197D01*
X169087255Y-16975320D01*
X172710385Y-16975320D01*
X172713820Y-17010197D01*
X172713821Y-30940433D01*
X172710385Y-30975320D01*
X172724093Y-31114504D01*
X172764692Y-31248340D01*
X172830620Y-31371683D01*
X172919345Y-31479795D01*
X173027457Y-31568520D01*
X173150800Y-31634448D01*
X173284636Y-31675047D01*
X173388943Y-31685320D01*
X173423820Y-31688755D01*
X173458697Y-31685320D01*
X187388943Y-31685320D01*
X187423820Y-31688755D01*
X187458697Y-31685320D01*
X187563004Y-31675047D01*
X187696840Y-31634448D01*
X187820183Y-31568520D01*
X187928295Y-31479795D01*
X188017020Y-31371683D01*
X188082948Y-31248340D01*
X188123547Y-31114504D01*
X188137255Y-30975320D01*
X188133820Y-30940443D01*
X188133820Y-17010197D01*
X188137255Y-16975320D01*
X191760385Y-16975320D01*
X191763820Y-17010197D01*
X191763821Y-30940433D01*
X191760385Y-30975320D01*
X191774093Y-31114504D01*
X191814692Y-31248340D01*
X191880620Y-31371683D01*
X191969345Y-31479795D01*
X192077457Y-31568520D01*
X192200800Y-31634448D01*
X192334636Y-31675047D01*
X192438943Y-31685320D01*
X192473820Y-31688755D01*
X192508697Y-31685320D01*
X206438943Y-31685320D01*
X206473820Y-31688755D01*
X206508697Y-31685320D01*
X206613004Y-31675047D01*
X206746840Y-31634448D01*
X206870183Y-31568520D01*
X206978295Y-31479795D01*
X207067020Y-31371683D01*
X207132948Y-31248340D01*
X207173547Y-31114504D01*
X207187255Y-30975320D01*
X207183820Y-30940443D01*
X207183820Y-17010197D01*
X207187255Y-16975320D01*
X210810385Y-16975320D01*
X210813820Y-17010197D01*
X210813821Y-30940433D01*
X210810385Y-30975320D01*
X210824093Y-31114504D01*
X210864692Y-31248340D01*
X210930620Y-31371683D01*
X211019345Y-31479795D01*
X211127457Y-31568520D01*
X211250800Y-31634448D01*
X211384636Y-31675047D01*
X211488943Y-31685320D01*
X211523820Y-31688755D01*
X211558697Y-31685320D01*
X221649382Y-31685320D01*
X221614750Y-31768930D01*
X221547631Y-32106360D01*
X221547631Y-32450400D01*
X221614750Y-32787830D01*
X221746408Y-33105681D01*
X221937547Y-33391740D01*
X222180820Y-33635013D01*
X222466879Y-33826152D01*
X222784730Y-33957810D01*
X223122160Y-34024929D01*
X223466200Y-34024929D01*
X223803630Y-33957810D01*
X224121481Y-33826152D01*
X224407540Y-33635013D01*
X224650813Y-33391740D01*
X224841952Y-33105681D01*
X224973610Y-32787830D01*
X225040729Y-32450400D01*
X225040729Y-32106360D01*
X224973610Y-31768930D01*
X224938978Y-31685320D01*
X225488943Y-31685320D01*
X225523820Y-31688755D01*
X225558697Y-31685320D01*
X225663004Y-31675047D01*
X225796840Y-31634448D01*
X225920183Y-31568520D01*
X226028295Y-31479795D01*
X226117020Y-31371683D01*
X226182948Y-31248340D01*
X226223547Y-31114504D01*
X226237255Y-30975320D01*
X226233820Y-30940443D01*
X226233820Y-27703780D01*
X236819466Y-27703780D01*
X236826112Y-27771252D01*
X236832644Y-27837820D01*
X236832680Y-27837938D01*
X236832692Y-27838063D01*
X236852665Y-27903904D01*
X236871767Y-27966957D01*
X236871824Y-27967063D01*
X236871861Y-27967186D01*
X236904418Y-28028095D01*
X236935331Y-28085981D01*
X236935408Y-28086075D01*
X236935468Y-28086187D01*
X236979851Y-28140267D01*
X237020895Y-28190315D01*
X237020986Y-28190389D01*
X237021069Y-28190491D01*
X237075464Y-28235132D01*
X237125168Y-28275954D01*
X237125274Y-28276011D01*
X237125373Y-28276092D01*
X237186333Y-28308676D01*
X237244146Y-28339604D01*
X237244262Y-28339639D01*
X237244374Y-28339699D01*
X237310534Y-28359768D01*
X237373255Y-28378819D01*
X237373374Y-28378831D01*
X237373497Y-28378868D01*
X237442956Y-28385709D01*
X237507533Y-28392093D01*
X237541296Y-28388780D01*
X241936913Y-28388780D01*
X241970560Y-28392094D01*
X242104843Y-28378868D01*
X242233966Y-28339699D01*
X242352967Y-28276092D01*
X242457271Y-28190491D01*
X242542872Y-28086187D01*
X242606479Y-27967186D01*
X242645648Y-27838063D01*
X242655560Y-27737427D01*
X242658874Y-27703780D01*
X242655560Y-27670133D01*
X242655560Y-20673687D01*
X242658874Y-20640040D01*
X242645648Y-20505757D01*
X242606479Y-20376634D01*
X242542872Y-20257633D01*
X242457271Y-20153329D01*
X242352967Y-20067728D01*
X242233966Y-20004121D01*
X242104843Y-19964952D01*
X242004207Y-19955040D01*
X241970560Y-19951726D01*
X241936913Y-19955040D01*
X237544081Y-19955040D01*
X237510567Y-19951727D01*
X237476807Y-19955040D01*
X237476673Y-19955040D01*
X237440267Y-19958626D01*
X237376280Y-19964905D01*
X237376167Y-19964939D01*
X237376037Y-19964952D01*
X237308965Y-19985298D01*
X237247143Y-20004027D01*
X237247037Y-20004084D01*
X237246914Y-20004121D01*
X237186005Y-20036678D01*
X237128119Y-20067591D01*
X237128025Y-20067668D01*
X237127913Y-20067728D01*
X237073833Y-20112111D01*
X237023785Y-20153155D01*
X237023711Y-20153246D01*
X237023609Y-20153329D01*
X236978968Y-20207724D01*
X236938146Y-20257428D01*
X236938089Y-20257534D01*
X236938008Y-20257633D01*
X236905424Y-20318593D01*
X236874496Y-20376406D01*
X236874461Y-20376522D01*
X236874401Y-20376634D01*
X236854332Y-20442794D01*
X236835281Y-20505515D01*
X236835269Y-20505634D01*
X236835232Y-20505757D01*
X236828386Y-20575267D01*
X236825333Y-20606148D01*
X236825333Y-20606262D01*
X236822006Y-20640040D01*
X236825309Y-20673573D01*
X236822792Y-27670010D01*
X236819466Y-27703780D01*
X226233820Y-27703780D01*
X226233820Y-17010197D01*
X226237255Y-16975320D01*
X226223547Y-16836136D01*
X226182948Y-16702300D01*
X226117020Y-16578957D01*
X226028295Y-16470845D01*
X225920183Y-16382120D01*
X225796840Y-16316192D01*
X225663004Y-16275593D01*
X225558697Y-16265320D01*
X225523820Y-16261885D01*
X225488943Y-16265320D01*
X211558697Y-16265320D01*
X211523820Y-16261885D01*
X211488943Y-16265320D01*
X211384636Y-16275593D01*
X211250800Y-16316192D01*
X211127457Y-16382120D01*
X211019345Y-16470845D01*
X210930620Y-16578957D01*
X210864692Y-16702300D01*
X210824093Y-16836136D01*
X210810385Y-16975320D01*
X207187255Y-16975320D01*
X207173547Y-16836136D01*
X207132948Y-16702300D01*
X207067020Y-16578957D01*
X206978295Y-16470845D01*
X206870183Y-16382120D01*
X206746840Y-16316192D01*
X206613004Y-16275593D01*
X206508697Y-16265320D01*
X206473820Y-16261885D01*
X206438943Y-16265320D01*
X192508697Y-16265320D01*
X192473820Y-16261885D01*
X192438943Y-16265320D01*
X192334636Y-16275593D01*
X192200800Y-16316192D01*
X192077457Y-16382120D01*
X191969345Y-16470845D01*
X191880620Y-16578957D01*
X191814692Y-16702300D01*
X191774093Y-16836136D01*
X191760385Y-16975320D01*
X188137255Y-16975320D01*
X188123547Y-16836136D01*
X188082948Y-16702300D01*
X188017020Y-16578957D01*
X187928295Y-16470845D01*
X187820183Y-16382120D01*
X187696840Y-16316192D01*
X187563004Y-16275593D01*
X187458697Y-16265320D01*
X187423820Y-16261885D01*
X187388943Y-16265320D01*
X173458697Y-16265320D01*
X173423820Y-16261885D01*
X173388943Y-16265320D01*
X173284636Y-16275593D01*
X173150800Y-16316192D01*
X173027457Y-16382120D01*
X172919345Y-16470845D01*
X172830620Y-16578957D01*
X172764692Y-16702300D01*
X172724093Y-16836136D01*
X172710385Y-16975320D01*
X169087255Y-16975320D01*
X169073547Y-16836136D01*
X169032948Y-16702300D01*
X168967020Y-16578957D01*
X168878295Y-16470845D01*
X168770183Y-16382120D01*
X168646840Y-16316192D01*
X168513004Y-16275593D01*
X168408697Y-16265320D01*
X168373820Y-16261885D01*
X168338943Y-16265320D01*
X154408697Y-16265320D01*
X154373820Y-16261885D01*
X154338943Y-16265320D01*
X154234636Y-16275593D01*
X154100800Y-16316192D01*
X153977457Y-16382120D01*
X153869345Y-16470845D01*
X153780620Y-16578957D01*
X153714692Y-16702300D01*
X153674093Y-16836136D01*
X153660385Y-16975320D01*
X150037255Y-16975320D01*
X150023547Y-16836136D01*
X149982948Y-16702300D01*
X149917020Y-16578957D01*
X149828295Y-16470845D01*
X149720183Y-16382120D01*
X149596840Y-16316192D01*
X149463004Y-16275593D01*
X149358697Y-16265320D01*
X149323820Y-16261885D01*
X149288943Y-16265320D01*
X135358697Y-16265320D01*
X135323820Y-16261885D01*
X135288943Y-16265320D01*
X135184636Y-16275593D01*
X135050800Y-16316192D01*
X134927457Y-16382120D01*
X134819345Y-16470845D01*
X134730620Y-16578957D01*
X134664692Y-16702300D01*
X134624093Y-16836136D01*
X134610385Y-16975320D01*
X121462255Y-16975320D01*
X121448547Y-16836136D01*
X121407948Y-16702300D01*
X121342020Y-16578957D01*
X121253295Y-16470845D01*
X121145183Y-16382120D01*
X121021840Y-16316192D01*
X120888004Y-16275593D01*
X120783697Y-16265320D01*
X120748820Y-16261885D01*
X120713943Y-16265320D01*
X106783697Y-16265320D01*
X106748820Y-16261885D01*
X106713943Y-16265320D01*
X106609636Y-16275593D01*
X106475800Y-16316192D01*
X106352457Y-16382120D01*
X106244345Y-16470845D01*
X106155620Y-16578957D01*
X106089692Y-16702300D01*
X106049093Y-16836136D01*
X106035385Y-16975320D01*
X102412255Y-16975320D01*
X102398547Y-16836136D01*
X102357948Y-16702300D01*
X102292020Y-16578957D01*
X102203295Y-16470845D01*
X102095183Y-16382120D01*
X101971840Y-16316192D01*
X101838004Y-16275593D01*
X101733697Y-16265320D01*
X101698820Y-16261885D01*
X101663943Y-16265320D01*
X87733697Y-16265320D01*
X87698820Y-16261885D01*
X87663943Y-16265320D01*
X87559636Y-16275593D01*
X87425800Y-16316192D01*
X87302457Y-16382120D01*
X87194345Y-16470845D01*
X87105620Y-16578957D01*
X87039692Y-16702300D01*
X86999093Y-16836136D01*
X86985385Y-16975320D01*
X83362255Y-16975320D01*
X83348547Y-16836136D01*
X83307948Y-16702300D01*
X83242020Y-16578957D01*
X83153295Y-16470845D01*
X83045183Y-16382120D01*
X82921840Y-16316192D01*
X82788004Y-16275593D01*
X82683697Y-16265320D01*
X82648820Y-16261885D01*
X82613943Y-16265320D01*
X68683697Y-16265320D01*
X68648820Y-16261885D01*
X68613943Y-16265320D01*
X68509636Y-16275593D01*
X68375800Y-16316192D01*
X68252457Y-16382120D01*
X68144345Y-16470845D01*
X68055620Y-16578957D01*
X67989692Y-16702300D01*
X67949093Y-16836136D01*
X67935385Y-16975320D01*
X64312255Y-16975320D01*
X64298547Y-16836136D01*
X64257948Y-16702300D01*
X64192020Y-16578957D01*
X64103295Y-16470845D01*
X63995183Y-16382120D01*
X63871840Y-16316192D01*
X63738004Y-16275593D01*
X63633697Y-16265320D01*
X63598820Y-16261885D01*
X63563943Y-16265320D01*
X49633697Y-16265320D01*
X49598820Y-16261885D01*
X49563943Y-16265320D01*
X49459636Y-16275593D01*
X49325800Y-16316192D01*
X49202457Y-16382120D01*
X49094345Y-16470845D01*
X49005620Y-16578957D01*
X48939692Y-16702300D01*
X48899093Y-16836136D01*
X48885385Y-16975320D01*
X45262255Y-16975320D01*
X45248547Y-16836136D01*
X45207948Y-16702300D01*
X45142020Y-16578957D01*
X45053295Y-16470845D01*
X44945183Y-16382120D01*
X44821840Y-16316192D01*
X44688004Y-16275593D01*
X44583697Y-16265320D01*
X44548820Y-16261885D01*
X44513943Y-16265320D01*
X30583697Y-16265320D01*
X30548820Y-16261885D01*
X30513943Y-16265320D01*
X30409636Y-16275593D01*
X30275800Y-16316192D01*
X30152457Y-16382120D01*
X30044345Y-16470845D01*
X29955620Y-16578957D01*
X29889692Y-16702300D01*
X29849093Y-16836136D01*
X29835385Y-16975320D01*
X12969180Y-16975320D01*
X12969180Y-15989327D01*
X13015774Y-15514125D01*
X13143342Y-15091599D01*
X13350549Y-14701898D01*
X13629504Y-14359867D01*
X13969579Y-14078531D01*
X14357824Y-13868609D01*
X14779445Y-13738095D01*
X15252454Y-13688380D01*
X240818233Y-13688380D01*
X241293435Y-13734974D01*
G36*
X67651360Y-84415320D02*
G01*
X55071360Y-84415320D01*
X55071360Y-71835320D01*
X67651361Y-71835320D01*
X67651360Y-84415320D01*
G37*
X67651360Y-84415320D02*
X55071360Y-84415320D01*
X55071360Y-71835320D01*
X67651361Y-71835320D01*
X67651360Y-84415320D01*
G36*
X177188820Y-84415320D02*
G01*
X164608820Y-84415320D01*
X164608820Y-71835320D01*
X177188821Y-71835320D01*
X177188820Y-84415320D01*
G37*
X177188820Y-84415320D02*
X164608820Y-84415320D01*
X164608820Y-71835320D01*
X177188821Y-71835320D01*
X177188820Y-84415320D01*
G36*
X91463860Y-84415320D02*
G01*
X78883860Y-84415320D01*
X78883860Y-71835320D01*
X91463861Y-71835320D01*
X91463860Y-84415320D01*
G37*
X91463860Y-84415320D02*
X78883860Y-84415320D01*
X78883860Y-71835320D01*
X91463861Y-71835320D01*
X91463860Y-84415320D01*
G36*
X120038860Y-84415320D02*
G01*
X107458860Y-84415320D01*
X107458860Y-71835320D01*
X120038861Y-71835320D01*
X120038860Y-84415320D01*
G37*
X120038860Y-84415320D02*
X107458860Y-84415320D01*
X107458860Y-71835320D01*
X120038861Y-71835320D01*
X120038860Y-84415320D01*
G36*
X148613860Y-84415320D02*
G01*
X136033860Y-84415320D01*
X136033860Y-71835320D01*
X148613861Y-71835320D01*
X148613860Y-84415320D01*
G37*
X148613860Y-84415320D02*
X136033860Y-84415320D01*
X136033860Y-71835320D01*
X148613861Y-71835320D01*
X148613860Y-84415320D01*
G36*
X239101320Y-84415320D02*
G01*
X226521320Y-84415320D01*
X226521320Y-71835320D01*
X239101321Y-71835320D01*
X239101320Y-84415320D01*
G37*
X239101320Y-84415320D02*
X226521320Y-84415320D01*
X226521320Y-71835320D01*
X239101321Y-71835320D01*
X239101320Y-84415320D01*
G36*
X29551320Y-84415320D02*
G01*
X16971320Y-84415320D01*
X16971320Y-71835320D01*
X29551321Y-71835320D01*
X29551320Y-84415320D01*
G37*
X29551320Y-84415320D02*
X16971320Y-84415320D01*
X16971320Y-71835320D01*
X29551321Y-71835320D01*
X29551320Y-84415320D01*
G36*
X201001320Y-84415320D02*
G01*
X188421320Y-84415320D01*
X188421320Y-71835320D01*
X201001321Y-71835320D01*
X201001320Y-84415320D01*
G37*
X201001320Y-84415320D02*
X188421320Y-84415320D01*
X188421320Y-71835320D01*
X201001321Y-71835320D01*
X201001320Y-84415320D01*
G36*
X132426240Y-68971960D02*
G01*
X123661640Y-68971960D01*
X123661640Y-67827360D01*
X132426241Y-67827360D01*
X132426240Y-68971960D01*
G37*
X132426240Y-68971960D02*
X123661640Y-68971960D01*
X123661640Y-67827360D01*
X132426241Y-67827360D01*
X132426240Y-68971960D01*
G36*
X51921105Y-68124791D02*
G01*
X51969100Y-68144671D01*
X52012294Y-68173532D01*
X52049028Y-68210266D01*
X52077889Y-68253460D01*
X52097769Y-68301455D01*
X52107904Y-68352405D01*
X52107904Y-68404355D01*
X52097769Y-68455305D01*
X52077889Y-68503300D01*
X52049028Y-68546494D01*
X52012294Y-68583228D01*
X51969100Y-68612089D01*
X51921105Y-68631969D01*
X51870155Y-68642104D01*
X51818205Y-68642104D01*
X51767255Y-68631969D01*
X51719260Y-68612089D01*
X51676066Y-68583228D01*
X51639332Y-68546494D01*
X51610471Y-68503300D01*
X51590591Y-68455305D01*
X51580456Y-68404355D01*
X51580456Y-68352405D01*
X51590591Y-68301455D01*
X51610471Y-68253460D01*
X51639332Y-68210266D01*
X51676066Y-68173532D01*
X51719260Y-68144671D01*
X51767255Y-68124791D01*
X51818205Y-68114656D01*
X51870155Y-68114656D01*
X51921105Y-68124791D01*
G37*
X51921105Y-68124791D02*
X51969100Y-68144671D01*
X52012294Y-68173532D01*
X52049028Y-68210266D01*
X52077889Y-68253460D01*
X52097769Y-68301455D01*
X52107904Y-68352405D01*
X52107904Y-68404355D01*
X52097769Y-68455305D01*
X52077889Y-68503300D01*
X52049028Y-68546494D01*
X52012294Y-68583228D01*
X51969100Y-68612089D01*
X51921105Y-68631969D01*
X51870155Y-68642104D01*
X51818205Y-68642104D01*
X51767255Y-68631969D01*
X51719260Y-68612089D01*
X51676066Y-68583228D01*
X51639332Y-68546494D01*
X51610471Y-68503300D01*
X51590591Y-68455305D01*
X51580456Y-68404355D01*
X51580456Y-68352405D01*
X51590591Y-68301455D01*
X51610471Y-68253460D01*
X51639332Y-68210266D01*
X51676066Y-68173532D01*
X51719260Y-68144671D01*
X51767255Y-68124791D01*
X51818205Y-68114656D01*
X51870155Y-68114656D01*
X51921105Y-68124791D01*
G36*
X53363820Y-66365320D02*
G01*
X40783820Y-66365320D01*
X40783820Y-53785320D01*
X53363821Y-53785320D01*
X53363820Y-66365320D01*
G37*
X53363820Y-66365320D02*
X40783820Y-66365320D01*
X40783820Y-53785320D01*
X53363821Y-53785320D01*
X53363820Y-66365320D01*
G36*
X223371105Y-68124791D02*
G01*
X223419100Y-68144671D01*
X223462294Y-68173532D01*
X223499028Y-68210266D01*
X223527889Y-68253460D01*
X223547769Y-68301455D01*
X223557904Y-68352405D01*
X223557904Y-68404355D01*
X223547769Y-68455305D01*
X223527889Y-68503300D01*
X223499028Y-68546494D01*
X223462294Y-68583228D01*
X223419100Y-68612089D01*
X223371105Y-68631969D01*
X223320155Y-68642104D01*
X223268205Y-68642104D01*
X223217255Y-68631969D01*
X223169260Y-68612089D01*
X223126066Y-68583228D01*
X223089332Y-68546494D01*
X223060471Y-68503300D01*
X223040591Y-68455305D01*
X223030456Y-68404355D01*
X223030456Y-68352405D01*
X223040591Y-68301455D01*
X223060471Y-68253460D01*
X223089332Y-68210266D01*
X223126066Y-68173532D01*
X223169260Y-68144671D01*
X223217255Y-68124791D01*
X223268205Y-68114656D01*
X223320155Y-68114656D01*
X223371105Y-68124791D01*
G37*
X223371105Y-68124791D02*
X223419100Y-68144671D01*
X223462294Y-68173532D01*
X223499028Y-68210266D01*
X223527889Y-68253460D01*
X223547769Y-68301455D01*
X223557904Y-68352405D01*
X223557904Y-68404355D01*
X223547769Y-68455305D01*
X223527889Y-68503300D01*
X223499028Y-68546494D01*
X223462294Y-68583228D01*
X223419100Y-68612089D01*
X223371105Y-68631969D01*
X223320155Y-68642104D01*
X223268205Y-68642104D01*
X223217255Y-68631969D01*
X223169260Y-68612089D01*
X223126066Y-68583228D01*
X223089332Y-68546494D01*
X223060471Y-68503300D01*
X223040591Y-68455305D01*
X223030456Y-68404355D01*
X223030456Y-68352405D01*
X223040591Y-68301455D01*
X223060471Y-68253460D01*
X223089332Y-68210266D01*
X223126066Y-68173532D01*
X223169260Y-68144671D01*
X223217255Y-68124791D01*
X223268205Y-68114656D01*
X223320155Y-68114656D01*
X223371105Y-68124791D01*
G36*
X234338820Y-66365320D02*
G01*
X221758820Y-66365320D01*
X221758820Y-53785320D01*
X234338821Y-53785320D01*
X234338820Y-66365320D01*
G37*
X234338820Y-66365320D02*
X221758820Y-66365320D01*
X221758820Y-53785320D01*
X234338821Y-53785320D01*
X234338820Y-66365320D01*
G36*
X158138820Y-66365320D02*
G01*
X145558820Y-66365320D01*
X145558820Y-53785320D01*
X158138821Y-53785320D01*
X158138820Y-66365320D01*
G37*
X158138820Y-66365320D02*
X145558820Y-66365320D01*
X145558820Y-53785320D01*
X158138821Y-53785320D01*
X158138820Y-66365320D01*
G36*
X34313820Y-66365320D02*
G01*
X21733820Y-66365320D01*
X21733820Y-53785320D01*
X34313821Y-53785320D01*
X34313820Y-66365320D01*
G37*
X34313820Y-66365320D02*
X21733820Y-66365320D01*
X21733820Y-53785320D01*
X34313821Y-53785320D01*
X34313820Y-66365320D01*
G36*
X196238820Y-66365320D02*
G01*
X183658820Y-66365320D01*
X183658820Y-53785320D01*
X196238821Y-53785320D01*
X196238820Y-66365320D01*
G37*
X196238820Y-66365320D02*
X183658820Y-66365320D01*
X183658820Y-53785320D01*
X196238821Y-53785320D01*
X196238820Y-66365320D01*
G36*
X72413820Y-66365320D02*
G01*
X59833820Y-66365320D01*
X59833820Y-53785320D01*
X72413821Y-53785320D01*
X72413820Y-66365320D01*
G37*
X72413820Y-66365320D02*
X59833820Y-66365320D01*
X59833820Y-53785320D01*
X72413821Y-53785320D01*
X72413820Y-66365320D01*
G36*
X110513820Y-66365320D02*
G01*
X97933820Y-66365320D01*
X97933820Y-53785320D01*
X110513821Y-53785320D01*
X110513820Y-66365320D01*
G37*
X110513820Y-66365320D02*
X97933820Y-66365320D01*
X97933820Y-53785320D01*
X110513821Y-53785320D01*
X110513820Y-66365320D01*
G36*
X165634730Y-53857810D02*
G01*
X165972160Y-53924929D01*
X166316200Y-53924929D01*
X166653630Y-53857810D01*
X166828637Y-53785320D01*
X177188821Y-53785320D01*
X177188820Y-66365320D01*
X164608820Y-66365320D01*
X164608820Y-53785320D01*
X165459723Y-53785320D01*
X165634730Y-53857810D01*
G37*
X165634730Y-53857810D02*
X165972160Y-53924929D01*
X166316200Y-53924929D01*
X166653630Y-53857810D01*
X166828637Y-53785320D01*
X177188821Y-53785320D01*
X177188820Y-66365320D01*
X164608820Y-66365320D01*
X164608820Y-53785320D01*
X165459723Y-53785320D01*
X165634730Y-53857810D01*
G36*
X166221105Y-51924791D02*
G01*
X166269100Y-51944671D01*
X166312294Y-51973532D01*
X166349028Y-52010266D01*
X166377889Y-52053460D01*
X166397769Y-52101455D01*
X166407904Y-52152405D01*
X166407904Y-52204355D01*
X166397769Y-52255305D01*
X166377889Y-52303300D01*
X166349028Y-52346494D01*
X166330202Y-52365320D01*
X165958158Y-52365320D01*
X165939332Y-52346494D01*
X165910471Y-52303300D01*
X165890591Y-52255305D01*
X165880456Y-52204355D01*
X165880456Y-52152405D01*
X165890591Y-52101455D01*
X165910471Y-52053460D01*
X165939332Y-52010266D01*
X165976066Y-51973532D01*
X166019260Y-51944671D01*
X166067255Y-51924791D01*
X166118205Y-51914656D01*
X166170155Y-51914656D01*
X166221105Y-51924791D01*
G37*
X166221105Y-51924791D02*
X166269100Y-51944671D01*
X166312294Y-51973532D01*
X166349028Y-52010266D01*
X166377889Y-52053460D01*
X166397769Y-52101455D01*
X166407904Y-52152405D01*
X166407904Y-52204355D01*
X166397769Y-52255305D01*
X166377889Y-52303300D01*
X166349028Y-52346494D01*
X166330202Y-52365320D01*
X165958158Y-52365320D01*
X165939332Y-52346494D01*
X165910471Y-52303300D01*
X165890591Y-52255305D01*
X165880456Y-52204355D01*
X165880456Y-52152405D01*
X165890591Y-52101455D01*
X165910471Y-52053460D01*
X165939332Y-52010266D01*
X165976066Y-51973532D01*
X166019260Y-51944671D01*
X166067255Y-51924791D01*
X166118205Y-51914656D01*
X166170155Y-51914656D01*
X166221105Y-51924791D01*
G36*
X89434730Y-53857810D02*
G01*
X89772160Y-53924929D01*
X90116200Y-53924929D01*
X90453630Y-53857810D01*
X90628637Y-53785320D01*
X91463821Y-53785320D01*
X91463820Y-66365320D01*
X78883820Y-66365320D01*
X78883820Y-53785320D01*
X89259723Y-53785320D01*
X89434730Y-53857810D01*
G37*
X89434730Y-53857810D02*
X89772160Y-53924929D01*
X90116200Y-53924929D01*
X90453630Y-53857810D01*
X90628637Y-53785320D01*
X91463821Y-53785320D01*
X91463820Y-66365320D01*
X78883820Y-66365320D01*
X78883820Y-53785320D01*
X89259723Y-53785320D01*
X89434730Y-53857810D01*
G36*
X90021105Y-51924791D02*
G01*
X90069100Y-51944671D01*
X90112294Y-51973532D01*
X90149028Y-52010266D01*
X90177889Y-52053460D01*
X90197769Y-52101455D01*
X90207904Y-52152405D01*
X90207904Y-52204355D01*
X90197769Y-52255305D01*
X90177889Y-52303300D01*
X90149028Y-52346494D01*
X90130202Y-52365320D01*
X89758158Y-52365320D01*
X89739332Y-52346494D01*
X89710471Y-52303300D01*
X89690591Y-52255305D01*
X89680456Y-52204355D01*
X89680456Y-52152405D01*
X89690591Y-52101455D01*
X89710471Y-52053460D01*
X89739332Y-52010266D01*
X89776066Y-51973532D01*
X89819260Y-51944671D01*
X89867255Y-51924791D01*
X89918205Y-51914656D01*
X89970155Y-51914656D01*
X90021105Y-51924791D01*
G37*
X90021105Y-51924791D02*
X90069100Y-51944671D01*
X90112294Y-51973532D01*
X90149028Y-52010266D01*
X90177889Y-52053460D01*
X90197769Y-52101455D01*
X90207904Y-52152405D01*
X90207904Y-52204355D01*
X90197769Y-52255305D01*
X90177889Y-52303300D01*
X90149028Y-52346494D01*
X90130202Y-52365320D01*
X89758158Y-52365320D01*
X89739332Y-52346494D01*
X89710471Y-52303300D01*
X89690591Y-52255305D01*
X89680456Y-52204355D01*
X89680456Y-52152405D01*
X89690591Y-52101455D01*
X89710471Y-52053460D01*
X89739332Y-52010266D01*
X89776066Y-51973532D01*
X89819260Y-51944671D01*
X89867255Y-51924791D01*
X89918205Y-51914656D01*
X89970155Y-51914656D01*
X90021105Y-51924791D01*
G36*
X215288820Y-66365320D02*
G01*
X202708820Y-66365320D01*
X202708820Y-53785320D01*
X215288821Y-53785320D01*
X215288820Y-66365320D01*
G37*
X215288820Y-66365320D02*
X202708820Y-66365320D01*
X202708820Y-53785320D01*
X215288821Y-53785320D01*
X215288820Y-66365320D01*
G36*
X39076320Y-48315320D02*
G01*
X26496320Y-48315320D01*
X26496320Y-35735320D01*
X39076321Y-35735320D01*
X39076320Y-48315320D01*
G37*
X39076320Y-48315320D02*
X26496320Y-48315320D01*
X26496320Y-35735320D01*
X39076321Y-35735320D01*
X39076320Y-48315320D01*
G36*
X191476320Y-48315320D02*
G01*
X178896320Y-48315320D01*
X178896320Y-35735320D01*
X191476321Y-35735320D01*
X191476320Y-48315320D01*
G37*
X191476320Y-48315320D02*
X178896320Y-48315320D01*
X178896320Y-35735320D01*
X191476321Y-35735320D01*
X191476320Y-48315320D01*
G36*
X77176320Y-48315320D02*
G01*
X64596320Y-48315320D01*
X64596320Y-35735320D01*
X77176321Y-35735320D01*
X77176320Y-48315320D01*
G37*
X77176320Y-48315320D02*
X64596320Y-48315320D01*
X64596320Y-35735320D01*
X77176321Y-35735320D01*
X77176320Y-48315320D01*
G36*
X115276320Y-48315320D02*
G01*
X102696320Y-48315320D01*
X102696320Y-35735320D01*
X115276321Y-35735320D01*
X115276320Y-48315320D01*
G37*
X115276320Y-48315320D02*
X102696320Y-48315320D01*
X102696320Y-35735320D01*
X115276321Y-35735320D01*
X115276320Y-48315320D01*
G36*
X58126320Y-48315320D02*
G01*
X45546320Y-48315320D01*
X45546320Y-35735320D01*
X58126321Y-35735320D01*
X58126320Y-48315320D01*
G37*
X58126320Y-48315320D02*
X45546320Y-48315320D01*
X45546320Y-35735320D01*
X58126321Y-35735320D01*
X58126320Y-48315320D01*
G36*
X153376320Y-48315320D02*
G01*
X140796320Y-48315320D01*
X140796320Y-35735320D01*
X153376321Y-35735320D01*
X153376320Y-48315320D01*
G37*
X153376320Y-48315320D02*
X140796320Y-48315320D01*
X140796320Y-35735320D01*
X153376321Y-35735320D01*
X153376320Y-48315320D01*
G36*
X96226320Y-48315320D02*
G01*
X83646320Y-48315320D01*
X83646320Y-35735320D01*
X96226321Y-35735320D01*
X96226320Y-48315320D01*
G37*
X96226320Y-48315320D02*
X83646320Y-48315320D01*
X83646320Y-35735320D01*
X96226321Y-35735320D01*
X96226320Y-48315320D01*
G36*
X210526320Y-48315320D02*
G01*
X197946320Y-48315320D01*
X197946320Y-35735320D01*
X210526321Y-35735320D01*
X210526320Y-48315320D01*
G37*
X210526320Y-48315320D02*
X197946320Y-48315320D01*
X197946320Y-35735320D01*
X210526321Y-35735320D01*
X210526320Y-48315320D01*
G36*
X172426320Y-48315320D02*
G01*
X159846320Y-48315320D01*
X159846320Y-35735320D01*
X172426321Y-35735320D01*
X172426320Y-48315320D01*
G37*
X172426320Y-48315320D02*
X159846320Y-48315320D01*
X159846320Y-35735320D01*
X172426321Y-35735320D01*
X172426320Y-48315320D01*
G36*
X229576320Y-48315320D02*
G01*
X216996320Y-48315320D01*
X216996320Y-35735320D01*
X229576321Y-35735320D01*
X229576320Y-48315320D01*
G37*
X229576320Y-48315320D02*
X216996320Y-48315320D01*
X216996320Y-35735320D01*
X229576321Y-35735320D01*
X229576320Y-48315320D01*
G36*
X223371105Y-32024791D02*
G01*
X223419100Y-32044671D01*
X223462294Y-32073532D01*
X223499028Y-32110266D01*
X223527889Y-32153460D01*
X223547769Y-32201455D01*
X223557904Y-32252405D01*
X223557904Y-32304355D01*
X223547769Y-32355305D01*
X223527889Y-32403300D01*
X223499028Y-32446494D01*
X223462294Y-32483228D01*
X223419100Y-32512089D01*
X223371105Y-32531969D01*
X223320155Y-32542104D01*
X223268205Y-32542104D01*
X223217255Y-32531969D01*
X223169260Y-32512089D01*
X223126066Y-32483228D01*
X223089332Y-32446494D01*
X223060471Y-32403300D01*
X223040591Y-32355305D01*
X223030456Y-32304355D01*
X223030456Y-32252405D01*
X223040591Y-32201455D01*
X223060471Y-32153460D01*
X223089332Y-32110266D01*
X223126066Y-32073532D01*
X223169260Y-32044671D01*
X223217255Y-32024791D01*
X223268205Y-32014656D01*
X223320155Y-32014656D01*
X223371105Y-32024791D01*
G37*
X223371105Y-32024791D02*
X223419100Y-32044671D01*
X223462294Y-32073532D01*
X223499028Y-32110266D01*
X223527889Y-32153460D01*
X223547769Y-32201455D01*
X223557904Y-32252405D01*
X223557904Y-32304355D01*
X223547769Y-32355305D01*
X223527889Y-32403300D01*
X223499028Y-32446494D01*
X223462294Y-32483228D01*
X223419100Y-32512089D01*
X223371105Y-32531969D01*
X223320155Y-32542104D01*
X223268205Y-32542104D01*
X223217255Y-32531969D01*
X223169260Y-32512089D01*
X223126066Y-32483228D01*
X223089332Y-32446494D01*
X223060471Y-32403300D01*
X223040591Y-32355305D01*
X223030456Y-32304355D01*
X223030456Y-32252405D01*
X223040591Y-32201455D01*
X223060471Y-32153460D01*
X223089332Y-32110266D01*
X223126066Y-32073532D01*
X223169260Y-32044671D01*
X223217255Y-32024791D01*
X223268205Y-32014656D01*
X223320155Y-32014656D01*
X223371105Y-32024791D01*
G36*
X224813820Y-30265320D02*
G01*
X212233820Y-30265320D01*
X212233820Y-17685320D01*
X224813821Y-17685320D01*
X224813820Y-30265320D01*
G37*
X224813820Y-30265320D02*
X212233820Y-30265320D01*
X212233820Y-17685320D01*
X224813821Y-17685320D01*
X224813820Y-30265320D01*
G36*
X32871105Y-32024791D02*
G01*
X32919100Y-32044671D01*
X32962294Y-32073532D01*
X32999028Y-32110266D01*
X33027889Y-32153460D01*
X33047769Y-32201455D01*
X33057904Y-32252405D01*
X33057904Y-32304355D01*
X33047769Y-32355305D01*
X33027889Y-32403300D01*
X32999028Y-32446494D01*
X32962294Y-32483228D01*
X32919100Y-32512089D01*
X32871105Y-32531969D01*
X32820155Y-32542104D01*
X32768205Y-32542104D01*
X32717255Y-32531969D01*
X32669260Y-32512089D01*
X32626066Y-32483228D01*
X32589332Y-32446494D01*
X32560471Y-32403300D01*
X32540591Y-32355305D01*
X32530456Y-32304355D01*
X32530456Y-32252405D01*
X32540591Y-32201455D01*
X32560471Y-32153460D01*
X32589332Y-32110266D01*
X32626066Y-32073532D01*
X32669260Y-32044671D01*
X32717255Y-32024791D01*
X32768205Y-32014656D01*
X32820155Y-32014656D01*
X32871105Y-32024791D01*
G37*
X32871105Y-32024791D02*
X32919100Y-32044671D01*
X32962294Y-32073532D01*
X32999028Y-32110266D01*
X33027889Y-32153460D01*
X33047769Y-32201455D01*
X33057904Y-32252405D01*
X33057904Y-32304355D01*
X33047769Y-32355305D01*
X33027889Y-32403300D01*
X32999028Y-32446494D01*
X32962294Y-32483228D01*
X32919100Y-32512089D01*
X32871105Y-32531969D01*
X32820155Y-32542104D01*
X32768205Y-32542104D01*
X32717255Y-32531969D01*
X32669260Y-32512089D01*
X32626066Y-32483228D01*
X32589332Y-32446494D01*
X32560471Y-32403300D01*
X32540591Y-32355305D01*
X32530456Y-32304355D01*
X32530456Y-32252405D01*
X32540591Y-32201455D01*
X32560471Y-32153460D01*
X32589332Y-32110266D01*
X32626066Y-32073532D01*
X32669260Y-32044671D01*
X32717255Y-32024791D01*
X32768205Y-32014656D01*
X32820155Y-32014656D01*
X32871105Y-32024791D01*
G36*
X43838820Y-30265320D02*
G01*
X31258820Y-30265320D01*
X31258820Y-17685320D01*
X43838821Y-17685320D01*
X43838820Y-30265320D01*
G37*
X43838820Y-30265320D02*
X31258820Y-30265320D01*
X31258820Y-17685320D01*
X43838821Y-17685320D01*
X43838820Y-30265320D01*
G36*
X100988820Y-30265320D02*
G01*
X88408820Y-30265320D01*
X88408820Y-17685320D01*
X100988821Y-17685320D01*
X100988820Y-30265320D01*
G37*
X100988820Y-30265320D02*
X88408820Y-30265320D01*
X88408820Y-17685320D01*
X100988821Y-17685320D01*
X100988820Y-30265320D01*
G36*
X62888820Y-30265320D02*
G01*
X50308820Y-30265320D01*
X50308820Y-17685320D01*
X62888821Y-17685320D01*
X62888820Y-30265320D01*
G37*
X62888820Y-30265320D02*
X50308820Y-30265320D01*
X50308820Y-17685320D01*
X62888821Y-17685320D01*
X62888820Y-30265320D01*
G36*
X167663820Y-30265320D02*
G01*
X155083820Y-30265320D01*
X155083820Y-17685320D01*
X167663821Y-17685320D01*
X167663820Y-30265320D01*
G37*
X167663820Y-30265320D02*
X155083820Y-30265320D01*
X155083820Y-17685320D01*
X167663821Y-17685320D01*
X167663820Y-30265320D01*
G36*
X120038820Y-30265320D02*
G01*
X107458820Y-30265320D01*
X107458820Y-17685320D01*
X120038821Y-17685320D01*
X120038820Y-30265320D01*
G37*
X120038820Y-30265320D02*
X107458820Y-30265320D01*
X107458820Y-17685320D01*
X120038821Y-17685320D01*
X120038820Y-30265320D01*
G36*
X205763820Y-30265320D02*
G01*
X193183820Y-30265320D01*
X193183820Y-17685320D01*
X205763821Y-17685320D01*
X205763820Y-30265320D01*
G37*
X205763820Y-30265320D02*
X193183820Y-30265320D01*
X193183820Y-17685320D01*
X205763821Y-17685320D01*
X205763820Y-30265320D01*
G36*
X186713820Y-30265320D02*
G01*
X174133820Y-30265320D01*
X174133820Y-17685320D01*
X186713821Y-17685320D01*
X186713820Y-30265320D01*
G37*
X186713820Y-30265320D02*
X174133820Y-30265320D01*
X174133820Y-17685320D01*
X186713821Y-17685320D01*
X186713820Y-30265320D01*
G36*
X148613820Y-30265320D02*
G01*
X136033820Y-30265320D01*
X136033820Y-17685320D01*
X148613821Y-17685320D01*
X148613820Y-30265320D01*
G37*
X148613820Y-30265320D02*
X136033820Y-30265320D01*
X136033820Y-17685320D01*
X148613821Y-17685320D01*
X148613820Y-30265320D01*
G36*
X81938820Y-30265320D02*
G01*
X69358820Y-30265320D01*
X69358820Y-17685320D01*
X81938821Y-17685320D01*
X81938820Y-30265320D01*
G37*
X81938820Y-30265320D02*
X69358820Y-30265320D01*
X69358820Y-17685320D01*
X81938821Y-17685320D01*
X81938820Y-30265320D01*
G36*
X241285561Y-27018780D02*
G01*
X238193026Y-27018780D01*
X238195074Y-21325040D01*
X241285560Y-21325040D01*
X241285561Y-27018780D01*
G37*
X241285561Y-27018780D02*
X238193026Y-27018780D01*
X238195074Y-21325040D01*
X241285560Y-21325040D01*
X241285561Y-27018780D01*
M02*
