G04 #@! TF.GenerationSoftware,KiCad,Pcbnew,5.1.6-c6e7f7d~87~ubuntu20.04.1*
G04 #@! TF.CreationDate,2021-06-15T12:00:34-07:00*
G04 #@! TF.ProjectId,ergo-Plate,6572676f-2d50-46c6-9174-652e6b696361,rev?*
G04 #@! TF.SameCoordinates,Original*
G04 #@! TF.FileFunction,Legend,Bot*
G04 #@! TF.FilePolarity,Positive*
%FSLAX46Y46*%
G04 Gerber Fmt 4.6, Leading zero omitted, Abs format (unit mm)*
G04 Created by KiCad (PCBNEW 5.1.6-c6e7f7d~87~ubuntu20.04.1) date 2021-06-15 12:00:34*
%MOMM*%
%LPD*%
G01*
G04 APERTURE LIST*
%ADD10C,0.150000*%
G04 APERTURE END LIST*
D10*
X216514798Y-30378660D02*
X216514798Y-29378660D01*
X215943369Y-30378660D02*
X216371940Y-29807232D01*
X215943369Y-29378660D02*
X216514798Y-29950089D01*
X215752893Y-30473899D02*
X214990988Y-30473899D01*
X214229083Y-30378660D02*
X214800512Y-30378660D01*
X214514798Y-30378660D02*
X214514798Y-29378660D01*
X214610036Y-29521518D01*
X214705274Y-29616756D01*
X214800512Y-29664375D01*
X213610036Y-29378660D02*
X213514798Y-29378660D01*
X213419560Y-29426280D01*
X213371940Y-29473899D01*
X213324321Y-29569137D01*
X213276702Y-29759613D01*
X213276702Y-29997708D01*
X213324321Y-30188184D01*
X213371940Y-30283422D01*
X213419560Y-30331041D01*
X213514798Y-30378660D01*
X213610036Y-30378660D01*
X213705274Y-30331041D01*
X213752893Y-30283422D01*
X213800512Y-30188184D01*
X213848131Y-29997708D01*
X213848131Y-29759613D01*
X213800512Y-29569137D01*
X213752893Y-29473899D01*
X213705274Y-29426280D01*
X213610036Y-29378660D01*
X234406558Y-86877700D02*
X234406558Y-85877700D01*
X233835129Y-86877700D02*
X234263700Y-86306272D01*
X233835129Y-85877700D02*
X234406558Y-86449129D01*
X233644653Y-86972939D02*
X232882748Y-86972939D01*
X232739891Y-85877700D02*
X232120843Y-85877700D01*
X232454177Y-86258653D01*
X232311320Y-86258653D01*
X232216081Y-86306272D01*
X232168462Y-86353891D01*
X232120843Y-86449129D01*
X232120843Y-86687224D01*
X232168462Y-86782462D01*
X232216081Y-86830081D01*
X232311320Y-86877700D01*
X232597034Y-86877700D01*
X232692272Y-86830081D01*
X232739891Y-86782462D01*
X231549415Y-86306272D02*
X231644653Y-86258653D01*
X231692272Y-86211034D01*
X231739891Y-86115796D01*
X231739891Y-86068177D01*
X231692272Y-85972939D01*
X231644653Y-85925320D01*
X231549415Y-85877700D01*
X231358939Y-85877700D01*
X231263700Y-85925320D01*
X231216081Y-85972939D01*
X231168462Y-86068177D01*
X231168462Y-86115796D01*
X231216081Y-86211034D01*
X231263700Y-86258653D01*
X231358939Y-86306272D01*
X231549415Y-86306272D01*
X231644653Y-86353891D01*
X231692272Y-86401510D01*
X231739891Y-86496748D01*
X231739891Y-86687224D01*
X231692272Y-86782462D01*
X231644653Y-86830081D01*
X231549415Y-86877700D01*
X231358939Y-86877700D01*
X231263700Y-86830081D01*
X231216081Y-86782462D01*
X231168462Y-86687224D01*
X231168462Y-86496748D01*
X231216081Y-86401510D01*
X231263700Y-86353891D01*
X231358939Y-86306272D01*
X86769098Y-86877700D02*
X86769098Y-85877700D01*
X86197669Y-86877700D02*
X86626240Y-86306272D01*
X86197669Y-85877700D02*
X86769098Y-86449129D01*
X86007193Y-86972939D02*
X85245288Y-86972939D01*
X85102431Y-85877700D02*
X84483383Y-85877700D01*
X84816717Y-86258653D01*
X84673860Y-86258653D01*
X84578621Y-86306272D01*
X84531002Y-86353891D01*
X84483383Y-86449129D01*
X84483383Y-86687224D01*
X84531002Y-86782462D01*
X84578621Y-86830081D01*
X84673860Y-86877700D01*
X84959574Y-86877700D01*
X85054812Y-86830081D01*
X85102431Y-86782462D01*
X84150050Y-85877700D02*
X83531002Y-85877700D01*
X83864336Y-86258653D01*
X83721479Y-86258653D01*
X83626240Y-86306272D01*
X83578621Y-86353891D01*
X83531002Y-86449129D01*
X83531002Y-86687224D01*
X83578621Y-86782462D01*
X83626240Y-86830081D01*
X83721479Y-86877700D01*
X84007193Y-86877700D01*
X84102431Y-86830081D01*
X84150050Y-86782462D01*
X24856558Y-86877700D02*
X24856558Y-85877700D01*
X24285129Y-86877700D02*
X24713700Y-86306272D01*
X24285129Y-85877700D02*
X24856558Y-86449129D01*
X24094653Y-86972939D02*
X23332748Y-86972939D01*
X23189891Y-85877700D02*
X22570843Y-85877700D01*
X22904177Y-86258653D01*
X22761320Y-86258653D01*
X22666081Y-86306272D01*
X22618462Y-86353891D01*
X22570843Y-86449129D01*
X22570843Y-86687224D01*
X22618462Y-86782462D01*
X22666081Y-86830081D01*
X22761320Y-86877700D01*
X23047034Y-86877700D01*
X23142272Y-86830081D01*
X23189891Y-86782462D01*
X21618462Y-86877700D02*
X22189891Y-86877700D01*
X21904177Y-86877700D02*
X21904177Y-85877700D01*
X21999415Y-86020558D01*
X22094653Y-86115796D01*
X22189891Y-86163415D01*
X72481558Y-50777700D02*
X72481558Y-49777700D01*
X71910129Y-50777700D02*
X72338700Y-50206272D01*
X71910129Y-49777700D02*
X72481558Y-50349129D01*
X71719653Y-50872939D02*
X70957748Y-50872939D01*
X70195843Y-50777700D02*
X70767272Y-50777700D01*
X70481558Y-50777700D02*
X70481558Y-49777700D01*
X70576796Y-49920558D01*
X70672034Y-50015796D01*
X70767272Y-50063415D01*
X69862510Y-49777700D02*
X69243462Y-49777700D01*
X69576796Y-50158653D01*
X69433939Y-50158653D01*
X69338700Y-50206272D01*
X69291081Y-50253891D01*
X69243462Y-50349129D01*
X69243462Y-50587224D01*
X69291081Y-50682462D01*
X69338700Y-50730081D01*
X69433939Y-50777700D01*
X69719653Y-50777700D01*
X69814891Y-50730081D01*
X69862510Y-50682462D01*
X162492867Y-32727700D02*
X162492867Y-31727700D01*
X161921439Y-32727700D02*
X162350010Y-32156272D01*
X161921439Y-31727700D02*
X162492867Y-32299129D01*
X161730962Y-32822939D02*
X160969058Y-32822939D01*
X160826200Y-31727700D02*
X160159534Y-31727700D01*
X160588105Y-32727700D01*
X224881558Y-50777700D02*
X224881558Y-49777700D01*
X224310129Y-50777700D02*
X224738700Y-50206272D01*
X224310129Y-49777700D02*
X224881558Y-50349129D01*
X224119653Y-50872939D02*
X223357748Y-50872939D01*
X223167272Y-49872939D02*
X223119653Y-49825320D01*
X223024415Y-49777700D01*
X222786320Y-49777700D01*
X222691081Y-49825320D01*
X222643462Y-49872939D01*
X222595843Y-49968177D01*
X222595843Y-50063415D01*
X222643462Y-50206272D01*
X223214891Y-50777700D01*
X222595843Y-50777700D01*
X221976796Y-49777700D02*
X221881558Y-49777700D01*
X221786320Y-49825320D01*
X221738700Y-49872939D01*
X221691081Y-49968177D01*
X221643462Y-50158653D01*
X221643462Y-50396748D01*
X221691081Y-50587224D01*
X221738700Y-50682462D01*
X221786320Y-50730081D01*
X221881558Y-50777700D01*
X221976796Y-50777700D01*
X222072034Y-50730081D01*
X222119653Y-50682462D01*
X222167272Y-50587224D01*
X222214891Y-50396748D01*
X222214891Y-50158653D01*
X222167272Y-49968177D01*
X222119653Y-49872939D01*
X222072034Y-49825320D01*
X221976796Y-49777700D01*
X196306558Y-86877700D02*
X196306558Y-85877700D01*
X195735129Y-86877700D02*
X196163700Y-86306272D01*
X195735129Y-85877700D02*
X196306558Y-86449129D01*
X195544653Y-86972939D02*
X194782748Y-86972939D01*
X194639891Y-85877700D02*
X194020843Y-85877700D01*
X194354177Y-86258653D01*
X194211320Y-86258653D01*
X194116081Y-86306272D01*
X194068462Y-86353891D01*
X194020843Y-86449129D01*
X194020843Y-86687224D01*
X194068462Y-86782462D01*
X194116081Y-86830081D01*
X194211320Y-86877700D01*
X194497034Y-86877700D01*
X194592272Y-86830081D01*
X194639891Y-86782462D01*
X193687510Y-85877700D02*
X193020843Y-85877700D01*
X193449415Y-86877700D01*
X172494058Y-86877700D02*
X172494058Y-85877700D01*
X171922629Y-86877700D02*
X172351200Y-86306272D01*
X171922629Y-85877700D02*
X172494058Y-86449129D01*
X171732153Y-86972939D02*
X170970248Y-86972939D01*
X170827391Y-85877700D02*
X170208343Y-85877700D01*
X170541677Y-86258653D01*
X170398820Y-86258653D01*
X170303581Y-86306272D01*
X170255962Y-86353891D01*
X170208343Y-86449129D01*
X170208343Y-86687224D01*
X170255962Y-86782462D01*
X170303581Y-86830081D01*
X170398820Y-86877700D01*
X170684534Y-86877700D01*
X170779772Y-86830081D01*
X170827391Y-86782462D01*
X169351200Y-85877700D02*
X169541677Y-85877700D01*
X169636915Y-85925320D01*
X169684534Y-85972939D01*
X169779772Y-86115796D01*
X169827391Y-86306272D01*
X169827391Y-86687224D01*
X169779772Y-86782462D01*
X169732153Y-86830081D01*
X169636915Y-86877700D01*
X169446439Y-86877700D01*
X169351200Y-86830081D01*
X169303581Y-86782462D01*
X169255962Y-86687224D01*
X169255962Y-86449129D01*
X169303581Y-86353891D01*
X169351200Y-86306272D01*
X169446439Y-86258653D01*
X169636915Y-86258653D01*
X169732153Y-86306272D01*
X169779772Y-86353891D01*
X169827391Y-86449129D01*
X143919098Y-86877700D02*
X143919098Y-85877700D01*
X143347669Y-86877700D02*
X143776240Y-86306272D01*
X143347669Y-85877700D02*
X143919098Y-86449129D01*
X143157193Y-86972939D02*
X142395288Y-86972939D01*
X142252431Y-85877700D02*
X141633383Y-85877700D01*
X141966717Y-86258653D01*
X141823860Y-86258653D01*
X141728621Y-86306272D01*
X141681002Y-86353891D01*
X141633383Y-86449129D01*
X141633383Y-86687224D01*
X141681002Y-86782462D01*
X141728621Y-86830081D01*
X141823860Y-86877700D01*
X142109574Y-86877700D01*
X142204812Y-86830081D01*
X142252431Y-86782462D01*
X140728621Y-85877700D02*
X141204812Y-85877700D01*
X141252431Y-86353891D01*
X141204812Y-86306272D01*
X141109574Y-86258653D01*
X140871479Y-86258653D01*
X140776240Y-86306272D01*
X140728621Y-86353891D01*
X140681002Y-86449129D01*
X140681002Y-86687224D01*
X140728621Y-86782462D01*
X140776240Y-86830081D01*
X140871479Y-86877700D01*
X141109574Y-86877700D01*
X141204812Y-86830081D01*
X141252431Y-86782462D01*
X115344098Y-86877700D02*
X115344098Y-85877700D01*
X114772669Y-86877700D02*
X115201240Y-86306272D01*
X114772669Y-85877700D02*
X115344098Y-86449129D01*
X114582193Y-86972939D02*
X113820288Y-86972939D01*
X113677431Y-85877700D02*
X113058383Y-85877700D01*
X113391717Y-86258653D01*
X113248860Y-86258653D01*
X113153621Y-86306272D01*
X113106002Y-86353891D01*
X113058383Y-86449129D01*
X113058383Y-86687224D01*
X113106002Y-86782462D01*
X113153621Y-86830081D01*
X113248860Y-86877700D01*
X113534574Y-86877700D01*
X113629812Y-86830081D01*
X113677431Y-86782462D01*
X112201240Y-86211034D02*
X112201240Y-86877700D01*
X112439336Y-85830081D02*
X112677431Y-86544367D01*
X112058383Y-86544367D01*
X62956598Y-86877700D02*
X62956598Y-85877700D01*
X62385169Y-86877700D02*
X62813740Y-86306272D01*
X62385169Y-85877700D02*
X62956598Y-86449129D01*
X62194693Y-86972939D02*
X61432788Y-86972939D01*
X61289931Y-85877700D02*
X60670883Y-85877700D01*
X61004217Y-86258653D01*
X60861360Y-86258653D01*
X60766121Y-86306272D01*
X60718502Y-86353891D01*
X60670883Y-86449129D01*
X60670883Y-86687224D01*
X60718502Y-86782462D01*
X60766121Y-86830081D01*
X60861360Y-86877700D01*
X61147074Y-86877700D01*
X61242312Y-86830081D01*
X61289931Y-86782462D01*
X60289931Y-85972939D02*
X60242312Y-85925320D01*
X60147074Y-85877700D01*
X59908979Y-85877700D01*
X59813740Y-85925320D01*
X59766121Y-85972939D01*
X59718502Y-86068177D01*
X59718502Y-86163415D01*
X59766121Y-86306272D01*
X60337550Y-86877700D01*
X59718502Y-86877700D01*
X229644058Y-68827700D02*
X229644058Y-67827700D01*
X229072629Y-68827700D02*
X229501200Y-68256272D01*
X229072629Y-67827700D02*
X229644058Y-68399129D01*
X228882153Y-68922939D02*
X228120248Y-68922939D01*
X227977391Y-67827700D02*
X227358343Y-67827700D01*
X227691677Y-68208653D01*
X227548820Y-68208653D01*
X227453581Y-68256272D01*
X227405962Y-68303891D01*
X227358343Y-68399129D01*
X227358343Y-68637224D01*
X227405962Y-68732462D01*
X227453581Y-68780081D01*
X227548820Y-68827700D01*
X227834534Y-68827700D01*
X227929772Y-68780081D01*
X227977391Y-68732462D01*
X226739296Y-67827700D02*
X226644058Y-67827700D01*
X226548820Y-67875320D01*
X226501200Y-67922939D01*
X226453581Y-68018177D01*
X226405962Y-68208653D01*
X226405962Y-68446748D01*
X226453581Y-68637224D01*
X226501200Y-68732462D01*
X226548820Y-68780081D01*
X226644058Y-68827700D01*
X226739296Y-68827700D01*
X226834534Y-68780081D01*
X226882153Y-68732462D01*
X226929772Y-68637224D01*
X226977391Y-68446748D01*
X226977391Y-68208653D01*
X226929772Y-68018177D01*
X226882153Y-67922939D01*
X226834534Y-67875320D01*
X226739296Y-67827700D01*
X210594058Y-68827700D02*
X210594058Y-67827700D01*
X210022629Y-68827700D02*
X210451200Y-68256272D01*
X210022629Y-67827700D02*
X210594058Y-68399129D01*
X209832153Y-68922939D02*
X209070248Y-68922939D01*
X208879772Y-67922939D02*
X208832153Y-67875320D01*
X208736915Y-67827700D01*
X208498820Y-67827700D01*
X208403581Y-67875320D01*
X208355962Y-67922939D01*
X208308343Y-68018177D01*
X208308343Y-68113415D01*
X208355962Y-68256272D01*
X208927391Y-68827700D01*
X208308343Y-68827700D01*
X207832153Y-68827700D02*
X207641677Y-68827700D01*
X207546439Y-68780081D01*
X207498820Y-68732462D01*
X207403581Y-68589605D01*
X207355962Y-68399129D01*
X207355962Y-68018177D01*
X207403581Y-67922939D01*
X207451200Y-67875320D01*
X207546439Y-67827700D01*
X207736915Y-67827700D01*
X207832153Y-67875320D01*
X207879772Y-67922939D01*
X207927391Y-68018177D01*
X207927391Y-68256272D01*
X207879772Y-68351510D01*
X207832153Y-68399129D01*
X207736915Y-68446748D01*
X207546439Y-68446748D01*
X207451200Y-68399129D01*
X207403581Y-68351510D01*
X207355962Y-68256272D01*
X191544058Y-68827700D02*
X191544058Y-67827700D01*
X190972629Y-68827700D02*
X191401200Y-68256272D01*
X190972629Y-67827700D02*
X191544058Y-68399129D01*
X190782153Y-68922939D02*
X190020248Y-68922939D01*
X189829772Y-67922939D02*
X189782153Y-67875320D01*
X189686915Y-67827700D01*
X189448820Y-67827700D01*
X189353581Y-67875320D01*
X189305962Y-67922939D01*
X189258343Y-68018177D01*
X189258343Y-68113415D01*
X189305962Y-68256272D01*
X189877391Y-68827700D01*
X189258343Y-68827700D01*
X188686915Y-68256272D02*
X188782153Y-68208653D01*
X188829772Y-68161034D01*
X188877391Y-68065796D01*
X188877391Y-68018177D01*
X188829772Y-67922939D01*
X188782153Y-67875320D01*
X188686915Y-67827700D01*
X188496439Y-67827700D01*
X188401200Y-67875320D01*
X188353581Y-67922939D01*
X188305962Y-68018177D01*
X188305962Y-68065796D01*
X188353581Y-68161034D01*
X188401200Y-68208653D01*
X188496439Y-68256272D01*
X188686915Y-68256272D01*
X188782153Y-68303891D01*
X188829772Y-68351510D01*
X188877391Y-68446748D01*
X188877391Y-68637224D01*
X188829772Y-68732462D01*
X188782153Y-68780081D01*
X188686915Y-68827700D01*
X188496439Y-68827700D01*
X188401200Y-68780081D01*
X188353581Y-68732462D01*
X188305962Y-68637224D01*
X188305962Y-68446748D01*
X188353581Y-68351510D01*
X188401200Y-68303891D01*
X188496439Y-68256272D01*
X168849158Y-66609220D02*
X168849158Y-65609220D01*
X168277729Y-66609220D02*
X168706300Y-66037792D01*
X168277729Y-65609220D02*
X168849158Y-66180649D01*
X168087253Y-66704459D02*
X167325348Y-66704459D01*
X167134872Y-65704459D02*
X167087253Y-65656840D01*
X166992015Y-65609220D01*
X166753920Y-65609220D01*
X166658681Y-65656840D01*
X166611062Y-65704459D01*
X166563443Y-65799697D01*
X166563443Y-65894935D01*
X166611062Y-66037792D01*
X167182491Y-66609220D01*
X166563443Y-66609220D01*
X166230110Y-65609220D02*
X165563443Y-65609220D01*
X165992015Y-66609220D01*
X153444058Y-68827700D02*
X153444058Y-67827700D01*
X152872629Y-68827700D02*
X153301200Y-68256272D01*
X152872629Y-67827700D02*
X153444058Y-68399129D01*
X152682153Y-68922939D02*
X151920248Y-68922939D01*
X151729772Y-67922939D02*
X151682153Y-67875320D01*
X151586915Y-67827700D01*
X151348820Y-67827700D01*
X151253581Y-67875320D01*
X151205962Y-67922939D01*
X151158343Y-68018177D01*
X151158343Y-68113415D01*
X151205962Y-68256272D01*
X151777391Y-68827700D01*
X151158343Y-68827700D01*
X150301200Y-67827700D02*
X150491677Y-67827700D01*
X150586915Y-67875320D01*
X150634534Y-67922939D01*
X150729772Y-68065796D01*
X150777391Y-68256272D01*
X150777391Y-68637224D01*
X150729772Y-68732462D01*
X150682153Y-68780081D01*
X150586915Y-68827700D01*
X150396439Y-68827700D01*
X150301200Y-68780081D01*
X150253581Y-68732462D01*
X150205962Y-68637224D01*
X150205962Y-68399129D01*
X150253581Y-68303891D01*
X150301200Y-68256272D01*
X150396439Y-68208653D01*
X150586915Y-68208653D01*
X150682153Y-68256272D01*
X150729772Y-68303891D01*
X150777391Y-68399129D01*
X105819058Y-68827700D02*
X105819058Y-67827700D01*
X105247629Y-68827700D02*
X105676200Y-68256272D01*
X105247629Y-67827700D02*
X105819058Y-68399129D01*
X105057153Y-68922939D02*
X104295248Y-68922939D01*
X104104772Y-67922939D02*
X104057153Y-67875320D01*
X103961915Y-67827700D01*
X103723820Y-67827700D01*
X103628581Y-67875320D01*
X103580962Y-67922939D01*
X103533343Y-68018177D01*
X103533343Y-68113415D01*
X103580962Y-68256272D01*
X104152391Y-68827700D01*
X103533343Y-68827700D01*
X102628581Y-67827700D02*
X103104772Y-67827700D01*
X103152391Y-68303891D01*
X103104772Y-68256272D01*
X103009534Y-68208653D01*
X102771439Y-68208653D01*
X102676200Y-68256272D01*
X102628581Y-68303891D01*
X102580962Y-68399129D01*
X102580962Y-68637224D01*
X102628581Y-68732462D01*
X102676200Y-68780081D01*
X102771439Y-68827700D01*
X103009534Y-68827700D01*
X103104772Y-68780081D01*
X103152391Y-68732462D01*
X84373838Y-68752980D02*
X84373838Y-67752980D01*
X83802409Y-68752980D02*
X84230980Y-68181552D01*
X83802409Y-67752980D02*
X84373838Y-68324409D01*
X83611933Y-68848219D02*
X82850028Y-68848219D01*
X82659552Y-67848219D02*
X82611933Y-67800600D01*
X82516695Y-67752980D01*
X82278600Y-67752980D01*
X82183361Y-67800600D01*
X82135742Y-67848219D01*
X82088123Y-67943457D01*
X82088123Y-68038695D01*
X82135742Y-68181552D01*
X82707171Y-68752980D01*
X82088123Y-68752980D01*
X81230980Y-68086314D02*
X81230980Y-68752980D01*
X81469076Y-67705361D02*
X81707171Y-68419647D01*
X81088123Y-68419647D01*
X67719058Y-68827700D02*
X67719058Y-67827700D01*
X67147629Y-68827700D02*
X67576200Y-68256272D01*
X67147629Y-67827700D02*
X67719058Y-68399129D01*
X66957153Y-68922939D02*
X66195248Y-68922939D01*
X66004772Y-67922939D02*
X65957153Y-67875320D01*
X65861915Y-67827700D01*
X65623820Y-67827700D01*
X65528581Y-67875320D01*
X65480962Y-67922939D01*
X65433343Y-68018177D01*
X65433343Y-68113415D01*
X65480962Y-68256272D01*
X66052391Y-68827700D01*
X65433343Y-68827700D01*
X65100010Y-67827700D02*
X64480962Y-67827700D01*
X64814296Y-68208653D01*
X64671439Y-68208653D01*
X64576200Y-68256272D01*
X64528581Y-68303891D01*
X64480962Y-68399129D01*
X64480962Y-68637224D01*
X64528581Y-68732462D01*
X64576200Y-68780081D01*
X64671439Y-68827700D01*
X64957153Y-68827700D01*
X65052391Y-68780081D01*
X65100010Y-68732462D01*
X48669058Y-68827700D02*
X48669058Y-67827700D01*
X48097629Y-68827700D02*
X48526200Y-68256272D01*
X48097629Y-67827700D02*
X48669058Y-68399129D01*
X47907153Y-68922939D02*
X47145248Y-68922939D01*
X46954772Y-67922939D02*
X46907153Y-67875320D01*
X46811915Y-67827700D01*
X46573820Y-67827700D01*
X46478581Y-67875320D01*
X46430962Y-67922939D01*
X46383343Y-68018177D01*
X46383343Y-68113415D01*
X46430962Y-68256272D01*
X47002391Y-68827700D01*
X46383343Y-68827700D01*
X46002391Y-67922939D02*
X45954772Y-67875320D01*
X45859534Y-67827700D01*
X45621439Y-67827700D01*
X45526200Y-67875320D01*
X45478581Y-67922939D01*
X45430962Y-68018177D01*
X45430962Y-68113415D01*
X45478581Y-68256272D01*
X46050010Y-68827700D01*
X45430962Y-68827700D01*
X29619058Y-68827700D02*
X29619058Y-67827700D01*
X29047629Y-68827700D02*
X29476200Y-68256272D01*
X29047629Y-67827700D02*
X29619058Y-68399129D01*
X28857153Y-68922939D02*
X28095248Y-68922939D01*
X27904772Y-67922939D02*
X27857153Y-67875320D01*
X27761915Y-67827700D01*
X27523820Y-67827700D01*
X27428581Y-67875320D01*
X27380962Y-67922939D01*
X27333343Y-68018177D01*
X27333343Y-68113415D01*
X27380962Y-68256272D01*
X27952391Y-68827700D01*
X27333343Y-68827700D01*
X26380962Y-68827700D02*
X26952391Y-68827700D01*
X26666677Y-68827700D02*
X26666677Y-67827700D01*
X26761915Y-67970558D01*
X26857153Y-68065796D01*
X26952391Y-68113415D01*
X205831558Y-50777700D02*
X205831558Y-49777700D01*
X205260129Y-50777700D02*
X205688700Y-50206272D01*
X205260129Y-49777700D02*
X205831558Y-50349129D01*
X205069653Y-50872939D02*
X204307748Y-50872939D01*
X203545843Y-50777700D02*
X204117272Y-50777700D01*
X203831558Y-50777700D02*
X203831558Y-49777700D01*
X203926796Y-49920558D01*
X204022034Y-50015796D01*
X204117272Y-50063415D01*
X203069653Y-50777700D02*
X202879177Y-50777700D01*
X202783939Y-50730081D01*
X202736320Y-50682462D01*
X202641081Y-50539605D01*
X202593462Y-50349129D01*
X202593462Y-49968177D01*
X202641081Y-49872939D01*
X202688700Y-49825320D01*
X202783939Y-49777700D01*
X202974415Y-49777700D01*
X203069653Y-49825320D01*
X203117272Y-49872939D01*
X203164891Y-49968177D01*
X203164891Y-50206272D01*
X203117272Y-50301510D01*
X203069653Y-50349129D01*
X202974415Y-50396748D01*
X202783939Y-50396748D01*
X202688700Y-50349129D01*
X202641081Y-50301510D01*
X202593462Y-50206272D01*
X186781558Y-50777700D02*
X186781558Y-49777700D01*
X186210129Y-50777700D02*
X186638700Y-50206272D01*
X186210129Y-49777700D02*
X186781558Y-50349129D01*
X186019653Y-50872939D02*
X185257748Y-50872939D01*
X184495843Y-50777700D02*
X185067272Y-50777700D01*
X184781558Y-50777700D02*
X184781558Y-49777700D01*
X184876796Y-49920558D01*
X184972034Y-50015796D01*
X185067272Y-50063415D01*
X183924415Y-50206272D02*
X184019653Y-50158653D01*
X184067272Y-50111034D01*
X184114891Y-50015796D01*
X184114891Y-49968177D01*
X184067272Y-49872939D01*
X184019653Y-49825320D01*
X183924415Y-49777700D01*
X183733939Y-49777700D01*
X183638700Y-49825320D01*
X183591081Y-49872939D01*
X183543462Y-49968177D01*
X183543462Y-50015796D01*
X183591081Y-50111034D01*
X183638700Y-50158653D01*
X183733939Y-50206272D01*
X183924415Y-50206272D01*
X184019653Y-50253891D01*
X184067272Y-50301510D01*
X184114891Y-50396748D01*
X184114891Y-50587224D01*
X184067272Y-50682462D01*
X184019653Y-50730081D01*
X183924415Y-50777700D01*
X183733939Y-50777700D01*
X183638700Y-50730081D01*
X183591081Y-50682462D01*
X183543462Y-50587224D01*
X183543462Y-50396748D01*
X183591081Y-50301510D01*
X183638700Y-50253891D01*
X183733939Y-50206272D01*
X163692958Y-48671740D02*
X163692958Y-47671740D01*
X163121529Y-48671740D02*
X163550100Y-48100312D01*
X163121529Y-47671740D02*
X163692958Y-48243169D01*
X162931053Y-48766979D02*
X162169148Y-48766979D01*
X161407243Y-48671740D02*
X161978672Y-48671740D01*
X161692958Y-48671740D02*
X161692958Y-47671740D01*
X161788196Y-47814598D01*
X161883434Y-47909836D01*
X161978672Y-47957455D01*
X161073910Y-47671740D02*
X160407243Y-47671740D01*
X160835815Y-48671740D01*
X148681558Y-50777700D02*
X148681558Y-49777700D01*
X148110129Y-50777700D02*
X148538700Y-50206272D01*
X148110129Y-49777700D02*
X148681558Y-50349129D01*
X147919653Y-50872939D02*
X147157748Y-50872939D01*
X146395843Y-50777700D02*
X146967272Y-50777700D01*
X146681558Y-50777700D02*
X146681558Y-49777700D01*
X146776796Y-49920558D01*
X146872034Y-50015796D01*
X146967272Y-50063415D01*
X145538700Y-49777700D02*
X145729177Y-49777700D01*
X145824415Y-49825320D01*
X145872034Y-49872939D01*
X145967272Y-50015796D01*
X146014891Y-50206272D01*
X146014891Y-50587224D01*
X145967272Y-50682462D01*
X145919653Y-50730081D01*
X145824415Y-50777700D01*
X145633939Y-50777700D01*
X145538700Y-50730081D01*
X145491081Y-50682462D01*
X145443462Y-50587224D01*
X145443462Y-50349129D01*
X145491081Y-50253891D01*
X145538700Y-50206272D01*
X145633939Y-50158653D01*
X145824415Y-50158653D01*
X145919653Y-50206272D01*
X145967272Y-50253891D01*
X146014891Y-50349129D01*
X110581558Y-50777700D02*
X110581558Y-49777700D01*
X110010129Y-50777700D02*
X110438700Y-50206272D01*
X110010129Y-49777700D02*
X110581558Y-50349129D01*
X109819653Y-50872939D02*
X109057748Y-50872939D01*
X108295843Y-50777700D02*
X108867272Y-50777700D01*
X108581558Y-50777700D02*
X108581558Y-49777700D01*
X108676796Y-49920558D01*
X108772034Y-50015796D01*
X108867272Y-50063415D01*
X107391081Y-49777700D02*
X107867272Y-49777700D01*
X107914891Y-50253891D01*
X107867272Y-50206272D01*
X107772034Y-50158653D01*
X107533939Y-50158653D01*
X107438700Y-50206272D01*
X107391081Y-50253891D01*
X107343462Y-50349129D01*
X107343462Y-50587224D01*
X107391081Y-50682462D01*
X107438700Y-50730081D01*
X107533939Y-50777700D01*
X107772034Y-50777700D01*
X107867272Y-50730081D01*
X107914891Y-50682462D01*
X87081478Y-48885100D02*
X87081478Y-47885100D01*
X86510049Y-48885100D02*
X86938620Y-48313672D01*
X86510049Y-47885100D02*
X87081478Y-48456529D01*
X86319573Y-48980339D02*
X85557668Y-48980339D01*
X84795763Y-48885100D02*
X85367192Y-48885100D01*
X85081478Y-48885100D02*
X85081478Y-47885100D01*
X85176716Y-48027958D01*
X85271954Y-48123196D01*
X85367192Y-48170815D01*
X83938620Y-48218434D02*
X83938620Y-48885100D01*
X84176716Y-47837481D02*
X84414811Y-48551767D01*
X83795763Y-48551767D01*
X53431558Y-50777700D02*
X53431558Y-49777700D01*
X52860129Y-50777700D02*
X53288700Y-50206272D01*
X52860129Y-49777700D02*
X53431558Y-50349129D01*
X52669653Y-50872939D02*
X51907748Y-50872939D01*
X51145843Y-50777700D02*
X51717272Y-50777700D01*
X51431558Y-50777700D02*
X51431558Y-49777700D01*
X51526796Y-49920558D01*
X51622034Y-50015796D01*
X51717272Y-50063415D01*
X50764891Y-49872939D02*
X50717272Y-49825320D01*
X50622034Y-49777700D01*
X50383939Y-49777700D01*
X50288700Y-49825320D01*
X50241081Y-49872939D01*
X50193462Y-49968177D01*
X50193462Y-50063415D01*
X50241081Y-50206272D01*
X50812510Y-50777700D01*
X50193462Y-50777700D01*
X34381558Y-50777700D02*
X34381558Y-49777700D01*
X33810129Y-50777700D02*
X34238700Y-50206272D01*
X33810129Y-49777700D02*
X34381558Y-50349129D01*
X33619653Y-50872939D02*
X32857748Y-50872939D01*
X32095843Y-50777700D02*
X32667272Y-50777700D01*
X32381558Y-50777700D02*
X32381558Y-49777700D01*
X32476796Y-49920558D01*
X32572034Y-50015796D01*
X32667272Y-50063415D01*
X31143462Y-50777700D02*
X31714891Y-50777700D01*
X31429177Y-50777700D02*
X31429177Y-49777700D01*
X31524415Y-49920558D01*
X31619653Y-50015796D01*
X31714891Y-50063415D01*
X200592867Y-32727700D02*
X200592867Y-31727700D01*
X200021439Y-32727700D02*
X200450010Y-32156272D01*
X200021439Y-31727700D02*
X200592867Y-32299129D01*
X199830962Y-32822939D02*
X199069058Y-32822939D01*
X198783343Y-32727700D02*
X198592867Y-32727700D01*
X198497629Y-32680081D01*
X198450010Y-32632462D01*
X198354772Y-32489605D01*
X198307153Y-32299129D01*
X198307153Y-31918177D01*
X198354772Y-31822939D01*
X198402391Y-31775320D01*
X198497629Y-31727700D01*
X198688105Y-31727700D01*
X198783343Y-31775320D01*
X198830962Y-31822939D01*
X198878581Y-31918177D01*
X198878581Y-32156272D01*
X198830962Y-32251510D01*
X198783343Y-32299129D01*
X198688105Y-32346748D01*
X198497629Y-32346748D01*
X198402391Y-32299129D01*
X198354772Y-32251510D01*
X198307153Y-32156272D01*
X181542867Y-32727700D02*
X181542867Y-31727700D01*
X180971439Y-32727700D02*
X181400010Y-32156272D01*
X180971439Y-31727700D02*
X181542867Y-32299129D01*
X180780962Y-32822939D02*
X180019058Y-32822939D01*
X179638105Y-32156272D02*
X179733343Y-32108653D01*
X179780962Y-32061034D01*
X179828581Y-31965796D01*
X179828581Y-31918177D01*
X179780962Y-31822939D01*
X179733343Y-31775320D01*
X179638105Y-31727700D01*
X179447629Y-31727700D01*
X179352391Y-31775320D01*
X179304772Y-31822939D01*
X179257153Y-31918177D01*
X179257153Y-31965796D01*
X179304772Y-32061034D01*
X179352391Y-32108653D01*
X179447629Y-32156272D01*
X179638105Y-32156272D01*
X179733343Y-32203891D01*
X179780962Y-32251510D01*
X179828581Y-32346748D01*
X179828581Y-32537224D01*
X179780962Y-32632462D01*
X179733343Y-32680081D01*
X179638105Y-32727700D01*
X179447629Y-32727700D01*
X179352391Y-32680081D01*
X179304772Y-32632462D01*
X179257153Y-32537224D01*
X179257153Y-32346748D01*
X179304772Y-32251510D01*
X179352391Y-32203891D01*
X179447629Y-32156272D01*
X143442867Y-32727700D02*
X143442867Y-31727700D01*
X142871439Y-32727700D02*
X143300010Y-32156272D01*
X142871439Y-31727700D02*
X143442867Y-32299129D01*
X142680962Y-32822939D02*
X141919058Y-32822939D01*
X141252391Y-31727700D02*
X141442867Y-31727700D01*
X141538105Y-31775320D01*
X141585724Y-31822939D01*
X141680962Y-31965796D01*
X141728581Y-32156272D01*
X141728581Y-32537224D01*
X141680962Y-32632462D01*
X141633343Y-32680081D01*
X141538105Y-32727700D01*
X141347629Y-32727700D01*
X141252391Y-32680081D01*
X141204772Y-32632462D01*
X141157153Y-32537224D01*
X141157153Y-32299129D01*
X141204772Y-32203891D01*
X141252391Y-32156272D01*
X141347629Y-32108653D01*
X141538105Y-32108653D01*
X141633343Y-32156272D01*
X141680962Y-32203891D01*
X141728581Y-32299129D01*
X114867867Y-32727700D02*
X114867867Y-31727700D01*
X114296439Y-32727700D02*
X114725010Y-32156272D01*
X114296439Y-31727700D02*
X114867867Y-32299129D01*
X114105962Y-32822939D02*
X113344058Y-32822939D01*
X112629772Y-31727700D02*
X113105962Y-31727700D01*
X113153581Y-32203891D01*
X113105962Y-32156272D01*
X113010724Y-32108653D01*
X112772629Y-32108653D01*
X112677391Y-32156272D01*
X112629772Y-32203891D01*
X112582153Y-32299129D01*
X112582153Y-32537224D01*
X112629772Y-32632462D01*
X112677391Y-32680081D01*
X112772629Y-32727700D01*
X113010724Y-32727700D01*
X113105962Y-32680081D01*
X113153581Y-32632462D01*
X95817867Y-32727700D02*
X95817867Y-31727700D01*
X95246439Y-32727700D02*
X95675010Y-32156272D01*
X95246439Y-31727700D02*
X95817867Y-32299129D01*
X95055962Y-32822939D02*
X94294058Y-32822939D01*
X93627391Y-32061034D02*
X93627391Y-32727700D01*
X93865486Y-31680081D02*
X94103581Y-32394367D01*
X93484534Y-32394367D01*
X71268767Y-30617420D02*
X71268767Y-29617420D01*
X70697339Y-30617420D02*
X71125910Y-30045992D01*
X70697339Y-29617420D02*
X71268767Y-30188849D01*
X70506862Y-30712659D02*
X69744958Y-30712659D01*
X69602100Y-29617420D02*
X68983053Y-29617420D01*
X69316386Y-29998373D01*
X69173529Y-29998373D01*
X69078291Y-30045992D01*
X69030672Y-30093611D01*
X68983053Y-30188849D01*
X68983053Y-30426944D01*
X69030672Y-30522182D01*
X69078291Y-30569801D01*
X69173529Y-30617420D01*
X69459243Y-30617420D01*
X69554481Y-30569801D01*
X69602100Y-30522182D01*
X57717867Y-32727700D02*
X57717867Y-31727700D01*
X57146439Y-32727700D02*
X57575010Y-32156272D01*
X57146439Y-31727700D02*
X57717867Y-32299129D01*
X56955962Y-32822939D02*
X56194058Y-32822939D01*
X56003581Y-31822939D02*
X55955962Y-31775320D01*
X55860724Y-31727700D01*
X55622629Y-31727700D01*
X55527391Y-31775320D01*
X55479772Y-31822939D01*
X55432153Y-31918177D01*
X55432153Y-32013415D01*
X55479772Y-32156272D01*
X56051200Y-32727700D01*
X55432153Y-32727700D01*
X38667867Y-32727700D02*
X38667867Y-31727700D01*
X38096439Y-32727700D02*
X38525010Y-32156272D01*
X38096439Y-31727700D02*
X38667867Y-32299129D01*
X37905962Y-32822939D02*
X37144058Y-32822939D01*
X36382153Y-32727700D02*
X36953581Y-32727700D01*
X36667867Y-32727700D02*
X36667867Y-31727700D01*
X36763105Y-31870558D01*
X36858343Y-31965796D01*
X36953581Y-32013415D01*
M02*
