0
SECTION
2
HEADER
9
$INSUNITS
70
4
9
$ACADVER
1
AC1014
9
$HANDSEED
5
FFFF
0
ENDSEC
0
SECTION
2
TABLES
0
TABLE
2
VPORT
5
8
100
AcDbSymbolTable
0
ENDTAB
0
TABLE
2
LTYPE
5
5
100
AcDbSymbolTable
0
LTYPE
5
14
100
AcDbSymbolTableRecord
100
AcDbLinetypeTableRecord
2
BYBLOCK
70
0
0
LTYPE
5
15
100
AcDbSymbolTableRecord
100
AcDbLinetypeTableRecord
2
BYLAYER
70
0
0
LTYPE
5
16
100
AcDbSymbolTableRecord
100
AcDbLinetypeTableRecord
2
DASHED
70
0
3
Dashed __ __ __ __ __ __ __ __ __ __ __ __ __ _
72
65
73
2
40
0.75
49
0.5
74
0
49
-0.25
74
0
0
ENDTAB
0
TABLE
2
LAYER
5
2
100
AcDbSymbolTable
70
3
0
LAYER
5
50
100
AcDbSymbolTableRecord
100
AcDbLayerTableRecord
2
1
70
0
62
7
6
DASHED
0
LAYER
5
51
100
AcDbSymbolTableRecord
100
AcDbLayerTableRecord
2
0
70
0
62
7
6
CONTINUOUS
0
ENDTAB
0
TABLE
2
STYLE
5
3
100
AcDbSymbolTable
70
1
0
STYLE
5
11
100
AcDbSymbolTableRecord
100
AcDbTextStyleTableRecord
2
STANDARD
70
0
0
ENDTAB
0
TABLE
2
VIEW
5
6
100
AcDbSymbolTable
70
0
0
ENDTAB
0
TABLE
2
UCS
5
7
100
AcDbSymbolTable
70
0
0
ENDTAB
0
TABLE
2
APPID
5
9
100
AcDbSymbolTable
70
2
0
APPID
5
12
100
AcDbSymbolTableRecord
100
AcDbRegAppTableRecord
2
ACAD
70
0
0
ENDTAB
0
TABLE
2
DIMSTYLE
5
A
100
AcDbSymbolTable
70
1
0
ENDTAB
0
TABLE
2
BLOCK_RECORD
5
1
100
AcDbSymbolTable
70
1
0
BLOCK_RECORD
5
1F
100
AcDbSymbolTableRecord
100
AcDbBlockTableRecord
2
*MODEL_SPACE
0
BLOCK_RECORD
5
1B
100
AcDbSymbolTableRecord
100
AcDbBlockTableRecord
2
*PAPER_SPACE
0
ENDTAB
0
ENDSEC
0
SECTION
2
BLOCKS
0
BLOCK
5
20
100
AcDbEntity
100
AcDbBlockBegin
2
*MODEL_SPACE
0
ENDBLK
5
21
100
AcDbEntity
100
AcDbBlockEnd
0
BLOCK
5
1C
100
AcDbEntity
100
AcDbBlockBegin
2
*PAPER_SPACE
0
ENDBLK
5
1D
100
AcDbEntity
100
AcDbBlockEnd
0
ENDSEC
0
SECTION
2
ENTITIES
0
LINE
5
100
100
AcDbEntity
8
0
100
AcDbLine
10
120.02118460353783
20
3.7495478380232727
30
0
11
58.188531793282849
21
3.7495478380232776
31
0
0
SPLINE
5
101
100
AcDbEntity
8
0
100
AcDbSpline
70
0
71
3
72
26
73
22
74
0
42
0.000000001
43
0.0000000001
44
0.0000000001
40
0
40
0
40
0
40
0
40
0.33003406270477026
40
0.33003406270477026
40
0.61130002537453076
40
0.61130002537453076
40
0.98532934279412743
40
0.98532934279412743
40
1.5290728068796171
40
1.5290728068796171
40
2.0890775373945671
40
2.0890775373945671
40
2.6598456159449553
40
2.6598456159449553
40
3.1710384582236761
40
3.1710384582236761
40
4.0086592224836899
40
4.0086592224836899
40
4.7502807145053794
40
4.7502807145053794
40
5.7685397159373366
40
5.7685397159373366
40
5.7685397159373366
40
5.7685397159373366
10
0.81244503234326082
20
-1.0560942549201613
30
0
10
1.834783967924323
20
-0.64980260246448895
30
0
10
2.9090560026265733
20
-0.39163403918448325
30
0
10
4.9101218362131158
20
0.030141178389788657
30
0
10
5.8332523787825208
20
0.19757396333837646
30
0
10
7.984627594680207
20
0.57537001179526892
30
0
10
9.215133653976963
20
0.77637156321235135
30
0
10
12.238200663499315
20
1.2504333115628148
30
0
10
14.032331339951796
20
1.517226721434024
30
0
10
17.682809133156681
20
2.0145366211759086
30
0
10
19.540526486449242
20
2.2358079487476656
30
0
10
23.304327974101589
20
2.5468798060597675
30
0
10
25.208548192684773
20
2.6490049059803535
30
0
10
28.815588718762978
20
2.8485728394073142
30
0
10
30.519652428637215
20
2.9362567150552406
30
0
10
35.014244966861824
20
3.1499688119501879
30
0
10
37.80290358009966
20
3.2674764046937534
30
0
10
43.064062990286793
20
3.4509296704989953
30
0
10
45.535338607716518
20
3.5214984660692465
30
0
10
51.400439825457113
20
3.6581933398470272
30
0
10
54.794539473974865
20
3.7122814333263419
30
0
10
58.188531793297791
20
3.7495478366609181
30
0
0
SPLINE
5
102
100
AcDbEntity
8
0
100
AcDbSpline
70
0
71
3
72
14
73
10
74
0
42
0.000000001
43
0.0000000001
44
0.0000000001
40
0
40
0
40
0
40
0
40
0.14115991639708173
40
0.14115991639708173
40
0.36701578263241252
40
0.36701578263241252
40
0.6606284087383425
40
0.6606284087383425
40
0.86454992421479893
40
0.86454992421479893
40
0.86454992421479893
40
0.86454992421479893
10
-3.7600000000000211
20
-7.7935417979572819
30
0
10
-3.7600000000000215
20
-7.3230087433003437
30
0
10
-3.7140476755217695
20
-6.8524589834078995
30
0
10
-3.4773206232279561
20
-5.6520868819665537
30
0
10
-3.215706251807291
20
-4.9364701799843749
30
0
10
-2.3760205456150021
20
-3.4220103529661507
30
0
10
-1.7259528874696606
20
-2.6638028455505252
30
0
10
-0.4153215783388175
20
-1.6475662790028678
30
0
10
0.18076203766774088
20
-1.3071338258516891
30
0
10
0.81244503234326082
20
-1.0560942549201613
30
0
0
LINE
5
103
100
AcDbEntity
8
0
100
AcDbLine
10
-3.7600000000000211
20
-7.7935417979572819
30
0
11
-3.7600000000000118
21
-80.202313286991881
31
0
0
ARC
5
104
100
AcDbEntity
8
0
100
AcDbCircle
10
3.4899999999999975
20
-80.202313286991853
30
0
40
7.2500000000000098
210
0
220
0
230
1
100
AcDbArc
50
180
51
270.01819875030731
0
LINE
5
105
100
AcDbEntity
8
0
100
AcDbLine
10
3.4923028037777026
20
-87.452312921274256
30
0
11
38.640563842179738
21
-87.441148845083617
31
0
0
ARC
5
106
100
AcDbEntity
8
0
100
AcDbCircle
10
38.642072575689276
20
-92.191148605475519
30
0
40
4.7500000000000027
210
0
220
-0
230
1
100
AcDbArc
50
0.018198750294206534
51
90.018198750307391
0
LINE
5
107
100
AcDbEntity
8
0
100
AcDbLine
10
43.392072336081185
20
-92.189639871965994
30
0
11
43.392942005406461
21
-94.927650965734102
31
0
0
ARC
5
108
100
AcDbEntity
8
0
100
AcDbCircle
10
50.642941639688878
20
-94.92534816195635
30
0
40
7.2500000000000275
210
0
220
0
230
1
100
AcDbArc
50
180.01819875029418
51
269.99999999999983
0
LINE
5
109
100
AcDbEntity
8
0
100
AcDbLine
10
50.64294163968885
20
-102.17534816195636
30
0
11
105.31417263436381
21
-102.17534816195639
31
0
0
ARC
5
110
100
AcDbEntity
8
0
100
AcDbCircle
10
105.31417263436381
20
-106.92534816195639
30
0
40
4.7499999999999991
210
0
220
-0
230
1
100
AcDbArc
50
59.936033551331853
51
90
0
LINE
5
111
100
AcDbEntity
8
0
100
AcDbLine
10
107.69376370283432
20
-102.81438156675577
30
0
11
116.74562692221019
21
-108.05396023299701
31
0
0
ARC
5
112
100
AcDbEntity
8
0
100
AcDbCircle
10
120.37763434250728
20
-101.77932700874342
30
0
40
7.2500000000000107
210
0
220
0
230
1
100
AcDbArc
50
239.93603355133192
51
329.69032033112137
0
LINE
5
113
100
AcDbEntity
8
0
100
AcDbLine
10
126.63663403442479
20
-105.43820974211667
30
0
11
137.06278167494696
21
-87.60291420922249
31
0
0
SPLINE
5
114
100
AcDbEntity
8
0
100
AcDbSpline
70
0
71
3
72
24
73
20
74
0
42
0.000000001
43
0.0000000001
44
0.0000000001
40
0.00067977019699954711
40
0.00067977019699954711
40
0.00067977019699954711
40
0.00067977019699954711
40
0.23702976817459759
40
0.23702976817459759
40
0.47405953634919518
40
0.47405953634919518
40
0.94811907269839035
40
0.94811907269839035
40
1.8962381453967807
40
1.8962381453967807
40
1.8962381453967807
40
2.7288121912521239
40
2.7288121912521239
40
3.2414929452364092
40
3.2414929452364092
40
3.5613812371074673
40
3.5613812371074673
40
3.5613812371074673
40
3.7528286903461243
40
3.7528286903461243
40
3.7528286903461243
40
3.7528286903461243
10
146.27222311056931
20
-51.539986940883594
30
0
10
146.25794407265036
20
-52.327696372658707
30
0
10
146.23546417982749
20
-53.116214958394508
30
0
10
146.1711439799227
20
-54.695965030049152
30
0
10
146.12949341373263
20
-55.487202107646574
30
0
10
145.97415945776024
20
-57.859842065322709
30
0
10
145.83005957354879
20
-59.440173750363279
30
0
10
145.26072068113965
20
-64.162735031202928
30
0
10
144.6982988519201
20
-67.286302412420056
30
0
10
143.91792644795009
20
-70.348838540126138
30
0
10
143.23265618142329
20
-73.03815064009855
30
0
10
142.375801737964
20
-75.690050223874991
30
0
10
140.75356666625109
20
-79.887866674241863
30
0
10
140.07978054754315
20
-81.467219787304657
30
0
10
138.90756897616737
20
-83.993295842875114
30
0
10
138.43850522828674
20
-84.954589614723218
30
0
10
137.95276576838882
20
-85.90591417104163
30
0
10
137.6620593408698
20
-86.475264997998309
30
0
10
137.36489287476837
20
-87.040787555787929
30
0
10
137.06278153854467
20
-87.602914135913807
30
0
0
LINE
5
115
100
AcDbEntity
8
0
100
AcDbLine
10
146.27222311056931
20
-51.539986940883594
30
0
11
146.2720811177528
21
-3.5004307343325358
31
0
0
ARC
5
116
100
AcDbEntity
8
0
100
AcDbCircle
10
139.02208111778455
20
-3.500452161976674
30
0
40
7.2499999999999174
210
0
220
-0
230
1
100
AcDbArc
50
0.00016934014329629074
51
55.006448648462978
0
ARC
5
117
100
AcDbEntity
8
0
100
AcDbCircle
10
143.77118460353773
20
1.977550766245004
30
0
40
0.74999999999988953
210
0
220
0
230
1
100
AcDbArc
50
142.04155080128712
51
180
0
LINE
5
118
100
AcDbEntity
8
0
100
AcDbLine
10
143.02118460353785
20
1.977550766244951
30
0
11
143.02118460353785
21
0.46919112482906034
31
0
0
ARC
5
119
100
AcDbEntity
8
0
100
AcDbCircle
10
143.52118460353793
20
0.46919112482910152
30
0
40
0.50000000000009592
210
0
220
0
230
1
100
AcDbArc
50
180
51
221.42256358914688
0
ARC
5
120
100
AcDbEntity
8
0
100
AcDbCircle
10
139.02208111778455
20
-3.500452161976674
30
0
40
5.4999999999999414
210
0
220
-0
230
1
100
AcDbArc
50
0.00016934014329629074
51
41.422563589152439
0
LINE
5
121
100
AcDbEntity
8
0
100
AcDbLine
10
144.52208111776048
20
-3.5004359065225121
30
0
11
144.52222305357208
21
-51.52413000852205
31
0
0
SPLINE
5
122
100
AcDbEntity
8
0
100
AcDbSpline
70
0
71
3
72
23
73
19
74
0
42
0.000000001
43
0.0000000001
44
0.0000000001
40
-0.00048775612142089612
40
-0.00048775612142089612
40
-0.00048775612142089612
40
-0.00048775612142089612
40
-0.00012193903014829972
40
-0.00012193903014829972
40
-0.00012193903014829972
40
0.082863696193069311
40
0.082863696193069311
40
0.082863696193069311
40
0.48042351770163921
40
0.48042351770163921
40
0.48042351770163921
40
0.95018161445639637
40
0.95018161445639637
40
0.95018161445639637
40
1.0002519183367082
40
1.0002519183367082
40
1.0002519183367082
40
1.0010076733470314
40
1.0010076733470314
40
1.0010076733470314
40
1.0010076733470314
10
144.52222305357208
20
-51.52413000852205
30
0
10
144.52214091075146
20
-51.528661453492617
30
0
10
144.52205876793084
20
-51.533192898463369
30
0
10
144.5219766251102
20
-51.537724343434057
30
0
10
144.5033425196076
20
-52.565683001601187
30
0
10
144.46836889003106
20
-53.632762143610158
30
0
10
144.41699533341813
20
-54.672036762791194
30
0
10
144.17087970217221
20
-59.650896429149483
30
0
10
143.5402503075679
20
-64.502369353133005
30
0
10
142.39943398222056
20
-69.203831187295719
30
0
10
141.05322698932613
20
-74.751736364800209
30
0
10
138.98222195551983
20
-80.041405607451068
30
0
10
136.39417782838331
20
-85.110110405488086
30
0
10
136.11842797015083
20
-85.650168673747686
30
0
10
135.83002789472621
20
-86.20002321089963
30
0
10
135.54888366640807
20
-86.723137125004513
30
0
10
135.54464010998893
20
-86.731032942113842
30
0
10
135.54039655356979
20
-86.738928759223171
30
0
10
135.53615299715074
20
-86.746824576332301
30
0
0
LINE
5
123
100
AcDbEntity
8
0
100
AcDbLine
10
135.53615299715074
20
-86.746824576332315
30
0
11
125.12584100534136
21
-104.5550311513023
31
0
0
ARC
5
124
100
AcDbEntity
8
0
100
AcDbCircle
10
120.37763434250728
20
-101.77932700874342
30
0
40
5.5000000000000213
210
0
220
0
230
1
100
AcDbArc
50
239.93603355133683
51
329.69032033112319
0
LINE
5
125
100
AcDbEntity
8
0
100
AcDbLine
10
117.6223183684892
20
-106.53939359266019
30
0
11
108.57045514911295
21
-101.29981492641872
31
0
0
ARC
5
126
100
AcDbEntity
8
0
100
AcDbCircle
10
105.31417263436381
20
-106.92534816195639
30
0
40
6.5000000000000018
210
0
220
-0
230
1
100
AcDbArc
50
59.936033551331612
51
90
0
LINE
5
127
100
AcDbEntity
8
0
100
AcDbLine
10
105.31417263436381
20
-100.42534816195639
30
0
11
50.642941639688843
21
-100.42534816195639
31
0
0
ARC
5
128
100
AcDbEntity
8
0
100
AcDbCircle
10
50.642941639688878
20
-94.92534816195635
30
0
40
5.5000000000000391
210
0
220
0
230
1
100
AcDbArc
50
180.01819875029418
51
269.9999999999996
0
LINE
5
129
100
AcDbEntity
8
0
100
AcDbLine
10
45.142941917129782
20
-94.927095116546383
30
0
11
45.142072247804506
21
-92.189084022778218
31
0
0
ARC
5
130
100
AcDbEntity
8
0
100
AcDbCircle
10
38.642072575689276
20
-92.191148605475519
30
0
40
6.4999999999999911
210
0
220
-0
230
1
100
AcDbArc
50
0.018198750314233444
51
90.018198750307405
0
LINE
5
131
100
AcDbEntity
8
0
100
AcDbLine
10
38.640007992992011
20
-85.691148933360282
30
0
11
3.4917469545899937
21
-85.702313009550934
31
0
0
ARC
5
132
100
AcDbEntity
8
0
100
AcDbCircle
10
3.4899999999999975
20
-80.202313286991853
30
0
40
5.5000000000000142
210
0
220
0
230
1
100
AcDbArc
50
180
51
270.01819875030742
0
LINE
5
133
100
AcDbEntity
8
0
100
AcDbLine
10
-2.0100000000000162
20
-80.202313286991853
30
0
11
-2.0100000000000131
21
-7.7941368965390012
31
0
0
SPLINE
5
134
100
AcDbEntity
8
0
100
AcDbSpline
70
0
71
3
72
17
73
13
74
0
42
0.000000001
43
0.0000000001
44
0.0000000001
40
-0.47764516783413802
40
-0.47764516783413802
40
-0.47764516783413802
40
-0.47764516783413802
40
-0.39508037327184009
40
-0.39508037327184009
40
-0.39508037327184009
40
-0.31251557870954216
40
-0.31251557870954216
40
-0.31251557870954216
40
-0.15625778935477103
40
-0.15625778935477103
40
-0.15625778935477103
40
0
40
0
40
0
40
0
10
-2.0100000000000136
20
-7.7941368965390003
30
0
10
-2.0100000000000131
20
-7.4157149214618023
30
0
10
-1.9709445842123778
20
-7.0383013063588562
30
0
10
-1.8934548553573038
20
-6.6678981028855393
30
0
10
-1.8159651265022303
20
-6.2974948994122233
30
0
10
-1.700454049714617
20
-5.9360760931682952
30
0
10
-1.5487586107891007
20
-5.5893893685442837
30
0
10
-1.2616677984475579
20
-4.9332683005324345
30
0
10
-0.84916669620280349
20
-4.3394953271450838
30
0
10
-0.3344737541858529
20
-3.841492148583066
30
0
10
0.18021918783109719
20
-3.3434889700210491
30
0
10
0.78726247951022676
20
-2.9507779499238769
30
0
10
1.4524874742260641
20
-2.6854636140404686
30
0
0
SPLINE
5
135
100
AcDbEntity
8
0
100
AcDbSpline
70
0
71
3
72
32
73
28
74
0
42
0.000000001
43
0.0000000001
44
0.0000000001
40
0.14566187695547733
40
0.14566187695547733
40
0.14566187695547733
40
0.14566187695547733
40
0.17401045265009224
40
0.17401045265009224
40
0.17401045265009224
40
0.26294478701103002
40
0.26294478701103002
40
0.26294478701103002
40
0.40492752309262803
40
0.40492752309262803
40
0.40492752309262803
40
0.50605084536895872
40
0.50605084536895872
40
0.50605084536895872
40
0.63144851123558776
40
0.63144851123558776
40
0.63144851123558776
40
0.81496591859692291
40
0.81496591859692291
40
0.81496591859692291
40
0.98029704250077332
40
0.98029704250077332
40
0.98029704250077332
40
1.0000192972561455
40
1.0000192972561455
40
1.0000192972561455
40
1.0000771890245843
40
1.0000771890245843
40
1.0000771890245843
40
1.0000771890245843
10
1.4524874742260629
20
-2.6854636140404686
30
0
10
1.736141627557239
20
-2.57233269756945
30
0
10
2.0357629181966459
20
-2.4688697540879527
30
0
10
2.3530373814706125
20
-2.3731477036185544
30
0
10
3.373634676970354
20
-2.0652323901052849
30
0
10
4.578186815073467
20
-1.8148071007152224
30
0
10
6.1287344918859832
20
-1.5307060171886184
30
0
10
8.5891424420112568
20
-1.0798946200279607
30
0
10
11.726784977302165
20
-0.59078983412728037
30
0
10
14.45362011679846
20
-0.19817549311573396
30
0
10
16.392450265401258
20
0.080980554898088919
30
0
10
18.075736126411421
20
0.30077579418203038
30
0
10
19.575180527416329
20
0.4599538672197373
30
0
10
21.433599852034916
20
0.65724001320192094
30
0
10
23.109121840383359
20
0.77198869153561822
30
0
10
25.225143714188366
20
0.89456099023628999
30
0
10
28.333668157766596
20
1.0746248125121274
30
0
10
32.179763569420871
20
1.2813013484404041
30
0
10
37.4022483746432
20
1.493234847910778
30
0
10
42.100683959945016
20
1.6839019216825242
30
0
10
47.968902930866633
20
1.8626164610130713
30
0
10
55.446360799669698
20
1.9655926727263859
30
0
10
56.338518659892358
20
1.9778790725039472
30
0
10
57.254828448248666
20
1.9891901835329624
30
0
10
58.189904885910551
20
1.9994574241144183
30
0
10
58.19264966480668
20
1.9994875620840371
30
0
10
58.19539444370281
20
1.9995177000536564
30
0
10
58.198139222598925
20
1.9995478380232747
30
0
0
LINE
5
136
100
AcDbEntity
8
0
100
AcDbLine
10
58.198139222598911
20
1.9995478380232745
30
0
11
120.02118460353783
21
1.9995478380233089
31
0
0
LINE
5
137
100
AcDbEntity
8
0
100
AcDbLine
10
120.02118460353783
20
1.9995478380233089
30
0
11
120.02118460353783
21
3.7495478380232727
31
0
0
LINE
5
138
100
AcDbEntity
8
0
100
AcDbLine
10
120.22118460353782
20
1.7995478380233088
30
0
11
120.22118460353782
21
3.9495478380232729
31
0
0
LINE
5
139
100
AcDbEntity
8
0
100
AcDbLine
10
120.22118460353782
20
3.9495478380232729
30
0
11
58.187433939632989
21
3.9495478380232796
31
0
0
SPLINE
5
140
100
AcDbEntity
8
0
100
AcDbSpline
70
0
71
3
72
38
73
34
74
0
42
0.000000001
43
0.0000000001
44
0.0000000001
40
0
40
0
40
0
40
0
40
0.33003406270477026
40
0.33003406270477026
40
0.33003406270477026
40
0.61130002537453076
40
0.61130002537453076
40
0.61130002537453076
40
0.98532934279412743
40
0.98532934279412743
40
0.98532934279412743
40
1.5290728068796171
40
1.5290728068796171
40
1.5290728068796171
40
2.0890775373945671
40
2.0890775373945671
40
2.0890775373945671
40
2.6598456159449553
40
2.6598456159449553
40
2.6598456159449553
40
3.1710384582236761
40
3.1710384582236761
40
3.1710384582236761
40
4.0086592224836899
40
4.0086592224836899
40
4.0086592224836899
40
4.7502807145053794
40
4.7502807145053794
40
4.7502807145053794
40
5.7685397159373366
40
5.7685397159373366
40
5.7685397159373366
40
5.7686495261119779
40
5.7686495261119779
40
5.7686495261119779
40
5.7686495261119779
10
0.73858144702859252
20
-0.87023363304327539
30
0
10
1.7785844505553428
20
-0.45692203533758302
30
0
10
2.8641374412122116
20
-0.19670741538491801
30
0
10
3.9481603677726658
20
0.031777823846848054
30
0
10
4.8725553325136168
20
0.22661743423556563
30
0
10
5.7979257276842677
20
0.39443072351538389
30
0
10
6.7220740179232603
20
0.55671741793321572
30
0
10
7.9516004184177413
20
0.77263057531632662
30
0
10
9.1833103664765847
20
0.97382535415479266
30
0
10
10.416170721024935
20
1.1671561448081917
30
0
10
12.208260962740134
20
1.4481824768455831
30
0
10
14.003720519673383
20
1.715176396761966
30
0
10
15.803682490257261
20
1.9603878342336611
30
0
10
17.658039757665552
20
2.2130096221149751
30
0
10
19.519257108919778
20
2.434731982413326
30
0
10
21.388040717195345
20
2.5891838018963171
30
0
10
23.291693039464722
20
2.7465174618960626
30
0
10
25.197724941096553
20
2.8487119618107726
30
0
10
27.100325826147994
20
2.9539777951222863
30
0
10
28.805053954151049
20
3.0482958564528246
30
0
10
30.509634046906431
20
3.1360063142624561
30
0
10
32.213578949176188
20
3.2170267037550637
30
0
10
35.005464341755449
20
3.3497772648936208
30
0
10
37.794967233983073
20
3.4673212196736349
30
0
10
40.586421817610912
20
3.5646574567627374
30
0
10
43.057933859122109
20
3.6508375019091144
30
0
10
45.529979348332368
20
3.7214278724230199
30
0
10
48.002258398414746
20
3.7790479986831169
30
0
10
51.396761903569427
20
3.8581619322622722
30
0
10
54.791682908648653
20
3.9122621238441404
30
0
10
58.186335903999229
20
3.9495357814730703
30
0
10
58.186701915877137
20
3.949539800323139
30
0
10
58.187067927755052
20
3.9495438191732077
30
0
10
58.187433939632996
20
3.9495478380232778
30
0
0
SPLINE
5
141
100
AcDbEntity
8
0
100
AcDbSpline
70
0
71
3
72
17
73
13
74
0
42
0.000000001
43
0.0000000001
44
0.0000000001
40
0
40
0
40
0
40
0
40
0.14115991639708173
40
0.14115991639708173
40
0.14115991639708173
40
0.36701578263241252
40
0.36701578263241252
40
0.36701578263241252
40
0.6606284087383425
40
0.6606284087383425
40
0.6606284087383425
40
0.86454992421479893
40
0.86454992421479893
40
0.86454992421479893
40
0.86454992421479893
10
-3.9600000000000213
20
-7.7935417979572819
30
0
10
-3.9600000000000217
20
-7.3099873911626752
30
0
10
-3.912787979770727
20
-6.8265384134726501
30
0
10
-3.8192194660619498
20
-6.3520804571848917
30
0
10
-3.6694909429837326
20
-5.5928518850737587
30
0
10
-3.4007705285691392
20
-4.8577973949441748
30
0
10
-3.0255393171565443
20
-4.1810291811505937
30
0
10
-2.5376654443523372
20
-3.3010983027695713
30
0
10
-1.870128736665233
20
-2.5225157221712182
30
0
10
-1.0750544460550384
20
-1.9060314663694551
30
0
10
-0.52295767538341509
20
-1.4779469831737555
30
0
10
0.089358748089938544
20
-1.1282437253749318
30
0
10
0.73858144702859274
20
-0.87023363304327539
30
0
0
LINE
5
142
100
AcDbEntity
8
0
100
AcDbLine
10
-3.9600000000000213
20
-7.7935417979572819
30
0
11
-3.960000000000012
21
-80.202313286991881
31
0
0
ARC
5
143
100
AcDbEntity
8
0
100
AcDbCircle
10
3.4899999999999975
20
-80.202313286991853
30
0
40
7.4500000000000099
210
0
220
0
230
1
100
AcDbArc
50
180
51
270.01819875030725
0
LINE
5
144
100
AcDbEntity
8
0
100
AcDbLine
10
3.4923663293991556
20
-87.652312911185504
30
0
11
38.640627367801194
21
-87.641148834994851
31
0
0
ARC
5
145
100
AcDbEntity
8
0
100
AcDbCircle
10
38.642072575689276
20
-92.191148605475519
30
0
40
4.5500000000000016
210
0
220
-0
230
1
100
AcDbArc
50
0.018198750294206534
51
90.018198750307349
0
LINE
5
146
100
AcDbEntity
8
0
100
AcDbLine
10
43.192072346169951
20
-92.189703397587436
30
0
11
43.19294201549522
21
-94.927714491355573
31
0
0
ARC
5
147
100
AcDbEntity
8
0
100
AcDbCircle
10
50.642941639688878
20
-94.92534816195635
30
0
40
7.4500000000000286
210
0
220
0
230
1
100
AcDbArc
50
180.01819875029418
51
269.99999999999983
0
LINE
5
148
100
AcDbEntity
8
0
100
AcDbLine
10
50.64294163968885
20
-102.37534816195637
30
0
11
105.31417263436381
21
-102.3753481619564
31
0
0
ARC
5
149
100
AcDbEntity
8
0
100
AcDbCircle
10
105.31417263436381
20
-106.92534816195639
30
0
40
4.5499999999999963
210
0
220
-0
230
1
100
AcDbArc
50
59.936033551331924
51
90
0
LINE
5
150
100
AcDbEntity
8
0
100
AcDbLine
10
107.59357039468819
20
-102.98747489708001
30
0
11
116.64543361406407
21
-108.22705356332125
31
0
0
ARC
5
151
100
AcDbEntity
8
0
100
AcDbCircle
10
120.37763434250728
20
-101.77932700874342
30
0
40
7.4500000000000117
210
0
220
0
230
1
100
AcDbArc
50
239.93603355133192
51
329.69032033112137
0
LINE
5
152
100
AcDbEntity
8
0
100
AcDbLine
10
126.80929609489147
20
-105.53914443820972
30
0
11
137.23725109436876
21
-87.700757180336211
31
0
0
SPLINE
5
153
100
AcDbEntity
8
0
100
AcDbSpline
70
0
71
3
72
35
73
31
74
0
42
0.000000001
43
0.0000000001
44
0.0000000001
40
0.00049848388710093023
40
0.00049848388710093023
40
0.00049848388710093023
40
0.00049848388710093023
40
0.00067977019699954711
40
0.00067977019699954711
40
0.00067977019699954711
40
0.23702976817459759
40
0.23702976817459759
40
0.23702976817459759
40
0.47405953634919518
40
0.47405953634919518
40
0.47405953634919518
40
0.94811907269839035
40
0.94811907269839035
40
0.94811907269839035
40
1.8962381453967807
40
1.8962381453967807
40
1.8962381453967807
40
2.7288121912521239
40
2.7288121912521239
40
2.7288121912521239
40
3.2414929452364092
40
3.2414929452364092
40
3.2414929452364092
40
3.5613812371074673
40
3.5613812371074673
40
3.5613812371074673
40
3.7528286903461243
40
3.7528286903461243
40
3.7528286903461243
40
3.7531876733724863
40
3.7531876733724863
40
3.7531876733724863
40
3.7531876733724863
10
146.47222311592685
20
-51.541799225519753
30
0
10
146.47221216355069
20
-51.542403418187099
30
0
10
146.47220121117448
20
-51.543007610856186
30
0
10
146.47219025879829
20
-51.543611803525202
30
0
10
146.45788611512742
20
-52.332706205190533
30
0
10
146.43536469320023
20
-53.122728277827335
30
0
10
146.40318469278395
20
-53.913092083267927
30
0
10
146.37091381902863
20
-54.705687802852559
30
0
10
146.32917749082199
20
-55.498567537230016
30
0
10
146.27728818461117
20
-56.291147887876683
30
0
10
146.17350938448436
20
-57.876311456260993
30
0
10
146.02908568116996
20
-59.460264241887671
30
0
10
145.83884219165645
20
-61.038298958094302
30
0
10
145.45835435766125
20
-64.1943754823115
30
0
10
144.89446306240072
20
-67.326436328073356
30
0
10
144.1117335054744
20
-70.398222995714548
30
0
10
143.42438116067672
20
-73.095706117487524
30
0
10
142.56505965380563
20
-75.755147787447385
30
0
10
141.55835983204855
20
-78.360159321251231
30
0
10
140.93846253920324
20
-79.964251785296099
30
0
10
140.26295372881478
20
-81.547624777681222
30
0
10
139.53937266140119
20
-83.106917360429179
30
0
10
139.08789405154914
20
-84.079838404546592
30
0
10
138.61772994141961
20
-85.043383519224307
30
0
10
138.13089010438944
20
-85.996863172819189
30
0
10
137.83947286743151
20
-86.567606125658031
30
0
10
137.54165172574255
20
-87.134370999529011
30
0
10
137.23895056082713
20
-87.697595050506138
30
0
10
137.23838407200765
20
-87.698649093782819
30
0
10
137.23781758318819
20
-87.699703137059487
30
0
10
137.23725109436938
20
-87.700757180334989
30
0
0
LINE
5
154
100
AcDbEntity
8
0
100
AcDbLine
10
146.47222311592685
20
-51.541799225519753
30
0
11
146.47208111775194
21
-3.5004301431829621
31
0
0
ARC
5
155
100
AcDbEntity
8
0
100
AcDbCircle
10
139.02208111778455
20
-3.500452161976674
30
0
40
7.4499999999999167
210
0
220
-0
230
1
100
AcDbArc
50
0.00016934014329629074
51
56.321753696004023
0
ARC
5
156
100
AcDbEntity
8
0
100
AcDbCircle
10
143.77118460353773
20
1.977550766245004
30
0
40
0.94999999999989226
210
0
220
0
230
1
100
AcDbArc
50
130.57065840882572
51
180
0
LINE
5
157
100
AcDbEntity
8
0
100
AcDbLine
10
142.82118460353783
20
1.9775507662449365
30
0
11
142.82118460353783
21
0.46919112482906034
31
0
0
ARC
5
158
100
AcDbEntity
8
0
100
AcDbCircle
10
143.52118460353793
20
0.46919112482910152
30
0
40
0.70000000000009166
210
0
220
0
230
1
100
AcDbArc
50
180
51
221.42256358914739
0
ARC
5
159
100
AcDbEntity
8
0
100
AcDbCircle
10
139.02208111778455
20
-3.500452161976674
30
0
40
5.2999999999999421
210
0
220
-0
230
1
100
AcDbArc
50
0.00016934014329629074
51
41.422563589152574
0
LINE
5
160
100
AcDbEntity
8
0
100
AcDbLine
10
144.32208111776134
20
-3.500436497629936
30
0
11
144.32222304821491
21
-51.522317723893387
31
0
0
SPLINE
5
161
100
AcDbEntity
8
0
100
AcDbSpline
70
0
71
3
72
23
73
19
74
0
42
0.000000001
43
0.0000000001
44
0.0000000001
40
-0.0004389805086264637
40
-0.0004389805086264637
40
-0.0004389805086264637
40
-0.0004389805086264637
40
-0.00012193903014829972
40
-0.00012193903014829972
40
-0.00012193903014829972
40
0.082863696193069311
40
0.082863696193069311
40
0.082863696193069311
40
0.48042351770163921
40
0.48042351770163921
40
0.48042351770163921
40
0.95018161445639637
40
0.95018161445639637
40
0.95018161445639637
40
1.0002519183367082
40
1.0002519183367082
40
1.0002519183367082
40
1.0009069060124911
40
1.0009069060124911
40
1.0009069060124911
40
1.0009069060124911
10
144.3222230482144
20
-51.52231772389338
30
0
10
144.32215185777005
20
-51.526244976192778
30
0
10
144.32208066732562
20
-51.530172228491622
30
0
10
144.32200947688125
20
-51.534099480791788
30
0
10
144.303412103954
20
-52.560031770221045
30
0
10
144.26850048575844
20
-53.625159797074318
30
0
10
144.21723924004684
20
-54.662162393897553
30
0
10
143.97163906859706
20
-59.630594433308943
30
0
10
143.34243834078822
20
-64.46943406244776
30
0
10
142.20507407484064
20
-69.156669482457275
30
0
10
140.86308162727084
20
-74.687205935871901
30
0
10
138.79812119312538
20
-79.962161483816701
30
0
10
136.21605349238266
20
-85.019161403710527
30
0
10
135.94098474567997
20
-85.557885709676853
30
0
10
135.65319268957981
20
-86.106581836338194
30
0
10
135.37271464412538
20
-86.628456210412565
30
0
10
135.36903689522785
20
-86.635299251909117
30
0
10
135.36535914633018
20
-86.64214229340584
30
0
10
135.3616813974327
20
-86.648985334902235
30
0
0
LINE
5
162
100
AcDbEntity
8
0
100
AcDbLine
10
135.3616813974327
20
-86.64898533490225
30
0
11
124.95317894487468
21
-104.45409645520925
31
0
0
ARC
5
163
100
AcDbEntity
8
0
100
AcDbCircle
10
120.37763434250728
20
-101.77932700874342
30
0
40
5.3000000000000274
210
0
220
0
230
1
100
AcDbArc
50
239.93603355133695
51
329.69032033112325
0
LINE
5
164
100
AcDbEntity
8
0
100
AcDbLine
10
117.72251167663532
20
-106.36630026233595
30
0
11
108.67064845725908
21
-101.12672159609447
31
0
0
ARC
5
165
100
AcDbEntity
8
0
100
AcDbCircle
10
105.31417263436381
20
-106.92534816195639
30
0
40
6.7000000000000037
210
0
220
-0
230
1
100
AcDbArc
50
59.936033551331626
51
90
0
LINE
5
166
100
AcDbEntity
8
0
100
AcDbLine
10
105.31417263436381
20
-100.22534816195639
30
0
11
50.642941639688843
21
-100.22534816195639
31
0
0
ARC
5
167
100
AcDbEntity
8
0
100
AcDbCircle
10
50.642941639688878
20
-94.92534816195635
30
0
40
5.3000000000000389
210
0
220
0
230
1
100
AcDbArc
50
180.01819875029418
51
269.9999999999996
0
LINE
5
168
100
AcDbEntity
8
0
100
AcDbLine
10
45.342941907041023
20
-94.927031590924926
30
0
11
45.342072237715747
21
-92.189020497156775
31
0
0
ARC
5
169
100
AcDbEntity
8
0
100
AcDbCircle
10
38.642072575689276
20
-92.191148605475519
30
0
40
6.6999999999999913
210
0
220
-0
230
1
100
AcDbArc
50
0.018198750294206534
51
90.018198750307405
0
LINE
5
170
100
AcDbEntity
8
0
100
AcDbLine
10
38.639944467370555
20
-85.491148943449048
30
0
11
3.4916834289685417
21
-85.502313019639701
31
0
0
ARC
5
171
100
AcDbEntity
8
0
100
AcDbCircle
10
3.4899999999999975
20
-80.202313286991853
30
0
40
5.3000000000000131
210
0
220
0
230
1
100
AcDbArc
50
180
51
270.01819875030742
0
LINE
5
172
100
AcDbEntity
8
0
100
AcDbLine
10
-1.810000000000016
20
-80.202313286991853
30
0
11
-1.8100000000000129
21
-7.7941368965390012
31
0
0
SPLINE
5
173
100
AcDbEntity
8
0
100
AcDbSpline
70
0
71
3
72
17
73
13
74
0
42
0.000000001
43
0.0000000001
44
0.0000000001
40
-0.47764516783413802
40
-0.47764516783413802
40
-0.47764516783413802
40
-0.47764516783413802
40
-0.39508037327184009
40
-0.39508037327184009
40
-0.39508037327184009
40
-0.31251557870954216
40
-0.31251557870954216
40
-0.31251557870954216
40
-0.15625778935477103
40
-0.15625778935477103
40
-0.15625778935477103
40
0
40
0
40
0
40
0
10
-1.8100000000000134
20
-7.7941368965390003
30
0
10
-1.8100000000000129
20
-7.4294757205555184
30
0
10
-1.7723647811501104
20
-7.0657862369108617
30
0
10
-1.6976928606170389
20
-6.7088522408365741
30
0
10
-1.6230209400839679
20
-6.3519182447622882
30
0
10
-1.511710266088631
20
-6.0036419405635932
30
0
10
-1.3655310249422248
20
-5.6695620059259095
30
0
10
-1.0888798785040108
20
-5.0372998858417635
30
0
10
-0.69137881634088405
20
-4.4651186569412262
30
0
10
-0.19540198130636782
20
-3.9852246848723727
30
0
10
0.30057485372814768
20
-3.5053307128035205
30
0
10
0.88554384389167273
20
-3.1269000934371545
30
0
10
1.5265788387996613
20
-2.87123355158587
30
0
0
SPLINE
5
174
100
AcDbEntity
8
0
100
AcDbSpline
70
0
71
3
72
29
73
25
74
0
42
0.000000001
43
0.0000000001
44
0.0000000001
40
0.14566187695547733
40
0.14566187695547733
40
0.14566187695547733
40
0.14566187695547733
40
0.17401045265009224
40
0.17401045265009224
40
0.17401045265009224
40
0.26294478701103002
40
0.26294478701103002
40
0.26294478701103002
40
0.40492752309262803
40
0.40492752309262803
40
0.40492752309262803
40
0.50605084536895872
40
0.50605084536895872
40
0.50605084536895872
40
0.63144851123558776
40
0.63144851123558776
40
0.63144851123558776
40
0.81496591859692291
40
0.81496591859692291
40
0.81496591859692291
40
0.98029704250077332
40
0.98029704250077332
40
0.98029704250077332
40
1.0000694701221253
40
1.0000694701221253
40
1.0000694701221253
40
1.0000694701221253
10
1.5265788387996602
20
-2.87123355158587
30
0
10
1.8041922869165155
20
-2.7605118736505885
30
0
10
2.0983498839910002
20
-2.6588913435656543
30
0
10
2.4108057109471033
20
-2.5646230809115518
30
0
10
3.4184499922601388
20
-2.2606157058592484
30
0
10
4.6166641432608007
20
-2.0110865164900162
30
0
10
6.1647796903165215
20
-1.7274310630523901
30
0
10
8.6207630159046129
20
-1.2774303733881933
30
0
10
11.757057939337887
20
-0.78849352045940191
30
0
10
14.482122533051385
20
-0.39613410562790785
30
0
10
16.419447779983514
20
-0.11719473590503046
30
0
10
18.100442946697221
20
0.10227482613064838
30
0
10
19.596293501327917
20
0.26107138349477815
30
0
10
21.450259632326123
20
0.45788478718729708
30
0
10
23.121796868883745
20
0.57238764388753949
30
0
10
25.236709490204486
20
0.69489568823029568
30
0
10
28.344546321997576
20
0.87491968003076737
30
0
10
32.189161709588177
20
1.0815181203162723
30
0
10
37.410357893960629
20
1.2933993263025307
30
0
10
42.107111302567247
20
1.483998135712189
30
0
10
47.973402176101061
20
1.6626594579402401
30
0
10
55.449114849238313
20
1.7656116355979281
30
0
10
56.34334642674331
20
1.7779265936841615
30
0
10
57.261796769222642
20
1.7892546405374761
30
0
10
58.199237200338978
20
1.7995478380232743
30
0
0
LINE
5
175
100
AcDbEntity
8
0
100
AcDbLine
10
58.199237200338985
20
1.7995478380232743
30
0
11
120.22118460353782
21
1.7995478380233088
31
0
0
ENDSEC
0
SECTION
2
OBJECTS
0
DICTIONARY
5
C
100
AcDbDictionary
3
ACAD_GROUP
350
D
3
ACAD_MLINESTYLE
350
17
0
DICTIONARY
5
D
100
AcDbDictionary
0
DICTIONARY
5
1A
330
C
100
AcDbDictionary
0
DICTIONARY
5
17
100
AcDbDictionary
0
ENDSEC
0
EOF
