%TF.GenerationSoftware,KiCad,Pcbnew,7.0.2*%
%TF.CreationDate,2023-05-30T09:54:27-07:00*%
%TF.ProjectId,ortho Plate,6f727468-6f20-4506-9c61-74652e6b6963,rev?*%
%TF.SameCoordinates,Original*%
%TF.FileFunction,Copper,L2,Bot*%
%TF.FilePolarity,Positive*%
%FSLAX46Y46*%
G04 Gerber Fmt 4.6, Leading zero omitted, Abs format (unit mm)*
G04 Created by KiCad (PCBNEW 7.0.2) date 2023-05-30 09:54:27*
%MOMM*%
%LPD*%
G01*
G04 APERTURE LIST*
%ADD10C,0.300000*%
%TA.AperFunction,NonConductor*%
%ADD11C,0.300000*%
%TD*%
%TA.AperFunction,ComponentPad*%
%ADD12C,2.200000*%
%TD*%
%TA.AperFunction,ComponentPad*%
%ADD13C,2.400000*%
%TD*%
G04 APERTURE END LIST*
D10*
D11*
X29718966Y-31020241D02*
X28461823Y-31020241D01*
X29090394Y-33220241D02*
X29090394Y-31020241D01*
X26890395Y-33115480D02*
X27099919Y-33220241D01*
X27099919Y-33220241D02*
X27518966Y-33220241D01*
X27518966Y-33220241D02*
X27728490Y-33115480D01*
X27728490Y-33115480D02*
X27833252Y-32905956D01*
X27833252Y-32905956D02*
X27833252Y-32067860D01*
X27833252Y-32067860D02*
X27728490Y-31858337D01*
X27728490Y-31858337D02*
X27518966Y-31753575D01*
X27518966Y-31753575D02*
X27099919Y-31753575D01*
X27099919Y-31753575D02*
X26890395Y-31858337D01*
X26890395Y-31858337D02*
X26785633Y-32067860D01*
X26785633Y-32067860D02*
X26785633Y-32277384D01*
X26785633Y-32277384D02*
X27833252Y-32486908D01*
X24899919Y-33115480D02*
X25109443Y-33220241D01*
X25109443Y-33220241D02*
X25528490Y-33220241D01*
X25528490Y-33220241D02*
X25738014Y-33115480D01*
X25738014Y-33115480D02*
X25842776Y-33010718D01*
X25842776Y-33010718D02*
X25947538Y-32801194D01*
X25947538Y-32801194D02*
X25947538Y-32172622D01*
X25947538Y-32172622D02*
X25842776Y-31963099D01*
X25842776Y-31963099D02*
X25738014Y-31858337D01*
X25738014Y-31858337D02*
X25528490Y-31753575D01*
X25528490Y-31753575D02*
X25109443Y-31753575D01*
X25109443Y-31753575D02*
X24899919Y-31858337D01*
X23957062Y-33220241D02*
X23957062Y-31020241D01*
X23014205Y-33220241D02*
X23014205Y-32067860D01*
X23014205Y-32067860D02*
X23118967Y-31858337D01*
X23118967Y-31858337D02*
X23328491Y-31753575D01*
X23328491Y-31753575D02*
X23642776Y-31753575D01*
X23642776Y-31753575D02*
X23852300Y-31858337D01*
X23852300Y-31858337D02*
X23957062Y-31963099D01*
X21966586Y-31753575D02*
X21966586Y-33220241D01*
X21966586Y-31963099D02*
X21861824Y-31858337D01*
X21861824Y-31858337D02*
X21652300Y-31753575D01*
X21652300Y-31753575D02*
X21338015Y-31753575D01*
X21338015Y-31753575D02*
X21128491Y-31858337D01*
X21128491Y-31858337D02*
X21023729Y-32067860D01*
X21023729Y-32067860D02*
X21023729Y-33220241D01*
X19976110Y-33220241D02*
X19976110Y-31753575D01*
X19976110Y-31020241D02*
X20080872Y-31125003D01*
X20080872Y-31125003D02*
X19976110Y-31229765D01*
X19976110Y-31229765D02*
X19871348Y-31125003D01*
X19871348Y-31125003D02*
X19976110Y-31020241D01*
X19976110Y-31020241D02*
X19976110Y-31229765D01*
X18928491Y-33220241D02*
X18928491Y-31020241D01*
X18718967Y-32382146D02*
X18090396Y-33220241D01*
X18090396Y-31753575D02*
X18928491Y-32591670D01*
D12*
%TO.P,REF\u002A\u002A,*%
%TO.N,*%
X33501320Y-32297080D03*
%TD*%
%TO.P,REF\u002A\u002A,*%
%TO.N,*%
X166851320Y-52210680D03*
%TD*%
D13*
%TO.P,REF\u002A\u002A,*%
%TO.N,*%
X224102920Y-68492080D03*
%TD*%
D12*
%TO.P,REF\u002A\u002A,*%
%TO.N,*%
X224001320Y-32297080D03*
%TD*%
%TO.P,REF\u002A\u002A,*%
%TO.N,*%
X90651320Y-52210680D03*
%TD*%
D13*
%TO.P,REF\u002A\u002A,*%
%TO.N,*%
X52742920Y-68523880D03*
%TD*%
%TA.AperFunction,NonConductor*%
G36*
X241468907Y-13124398D02*
G01*
X241782963Y-13142032D01*
X241796994Y-13143613D01*
X242103620Y-13195709D01*
X242117370Y-13198848D01*
X242416240Y-13284949D01*
X242429556Y-13289608D01*
X242702876Y-13402820D01*
X242716900Y-13408629D01*
X242729616Y-13414752D01*
X243001841Y-13565204D01*
X243013776Y-13572704D01*
X243267439Y-13752685D01*
X243278471Y-13761483D01*
X243510374Y-13968723D01*
X243520355Y-13978703D01*
X243727603Y-14210612D01*
X243736412Y-14221659D01*
X243916376Y-14475293D01*
X243923894Y-14487257D01*
X244074333Y-14759455D01*
X244080464Y-14772186D01*
X244199481Y-15059518D01*
X244204147Y-15072854D01*
X244290242Y-15371692D01*
X244293387Y-15385469D01*
X244345482Y-15692083D01*
X244347064Y-15706123D01*
X244364681Y-16019817D01*
X244364879Y-16026882D01*
X244364880Y-86096771D01*
X244364880Y-86120160D01*
X244364682Y-86127225D01*
X244347045Y-86441274D01*
X244345463Y-86455315D01*
X244293368Y-86761919D01*
X244290224Y-86775694D01*
X244204126Y-87074545D01*
X244199459Y-87087882D01*
X244080446Y-87375204D01*
X244074315Y-87387935D01*
X243923880Y-87660125D01*
X243916363Y-87672089D01*
X243736393Y-87925733D01*
X243727583Y-87936780D01*
X243520346Y-88168677D01*
X243510354Y-88178668D01*
X243278466Y-88385895D01*
X243267419Y-88394705D01*
X243013774Y-88574673D01*
X243001810Y-88582190D01*
X242729622Y-88732621D01*
X242716892Y-88738752D01*
X242429562Y-88857767D01*
X242416225Y-88862434D01*
X242117376Y-88948529D01*
X242103600Y-88951673D01*
X241796997Y-89003765D01*
X241782956Y-89005347D01*
X241569755Y-89017319D01*
X241468545Y-89023002D01*
X241461493Y-89023200D01*
X16048919Y-89023200D01*
X16041854Y-89023002D01*
X15727804Y-89005365D01*
X15713763Y-89003783D01*
X15407157Y-88951688D01*
X15393382Y-88948544D01*
X15094534Y-88862448D01*
X15081197Y-88857781D01*
X14793867Y-88738765D01*
X14781143Y-88732637D01*
X14508952Y-88582203D01*
X14496988Y-88574686D01*
X14243340Y-88394713D01*
X14232293Y-88385903D01*
X14000400Y-88178670D01*
X13990409Y-88168679D01*
X13783176Y-87936786D01*
X13774366Y-87925739D01*
X13594393Y-87672091D01*
X13586876Y-87660127D01*
X13586875Y-87660125D01*
X13436438Y-87387929D01*
X13430317Y-87375219D01*
X13311297Y-87087879D01*
X13306631Y-87074545D01*
X13264202Y-86927268D01*
X13231897Y-86815135D01*
X16804420Y-86815135D01*
X16805413Y-86818193D01*
X16817538Y-86841988D01*
X16821324Y-86847199D01*
X16840204Y-86866078D01*
X16845418Y-86869866D01*
X16869197Y-86881983D01*
X16872266Y-86882980D01*
X31087576Y-86882980D01*
X31090645Y-86881982D01*
X31114417Y-86869869D01*
X31117029Y-86867970D01*
X31117032Y-86867970D01*
X31117033Y-86867968D01*
X31119642Y-86866073D01*
X31138513Y-86847202D01*
X31140408Y-86844593D01*
X31140410Y-86844592D01*
X31140410Y-86844589D01*
X31142309Y-86841977D01*
X31154422Y-86818205D01*
X31155420Y-86815135D01*
X35854420Y-86815135D01*
X35855413Y-86818193D01*
X35867538Y-86841988D01*
X35871324Y-86847199D01*
X35890204Y-86866078D01*
X35895418Y-86869866D01*
X35919197Y-86881983D01*
X35922266Y-86882980D01*
X50137576Y-86882980D01*
X50140645Y-86881982D01*
X50164417Y-86869869D01*
X50167029Y-86867970D01*
X50167032Y-86867970D01*
X50167033Y-86867968D01*
X50169642Y-86866073D01*
X50188513Y-86847202D01*
X50190408Y-86844593D01*
X50190410Y-86844592D01*
X50190410Y-86844589D01*
X50192309Y-86841977D01*
X50204422Y-86818205D01*
X50205420Y-86815135D01*
X54904420Y-86815135D01*
X54905413Y-86818193D01*
X54917538Y-86841988D01*
X54921324Y-86847199D01*
X54940204Y-86866078D01*
X54945418Y-86869866D01*
X54969197Y-86881983D01*
X54972266Y-86882980D01*
X69187576Y-86882980D01*
X69190645Y-86881982D01*
X69214417Y-86869869D01*
X69217029Y-86867970D01*
X69217032Y-86867970D01*
X69217033Y-86867968D01*
X69219642Y-86866073D01*
X69238513Y-86847202D01*
X69240408Y-86844593D01*
X69240410Y-86844592D01*
X69240410Y-86844589D01*
X69242309Y-86841977D01*
X69254422Y-86818205D01*
X69255420Y-86815135D01*
X73954420Y-86815135D01*
X73955413Y-86818193D01*
X73967538Y-86841988D01*
X73971324Y-86847199D01*
X73990204Y-86866078D01*
X73995418Y-86869866D01*
X74019197Y-86881983D01*
X74022266Y-86882980D01*
X88237576Y-86882980D01*
X88240645Y-86881982D01*
X88264417Y-86869869D01*
X88267029Y-86867970D01*
X88267032Y-86867970D01*
X88267033Y-86867968D01*
X88269642Y-86866073D01*
X88288513Y-86847202D01*
X88290408Y-86844593D01*
X88290410Y-86844592D01*
X88290410Y-86844589D01*
X88292309Y-86841977D01*
X88304422Y-86818205D01*
X88305420Y-86815135D01*
X93004420Y-86815135D01*
X93005413Y-86818193D01*
X93017538Y-86841988D01*
X93021324Y-86847199D01*
X93040204Y-86866078D01*
X93045418Y-86869866D01*
X93069197Y-86881983D01*
X93072266Y-86882980D01*
X107287576Y-86882980D01*
X107290645Y-86881982D01*
X107314417Y-86869869D01*
X107317029Y-86867970D01*
X107317032Y-86867970D01*
X107317033Y-86867968D01*
X107319642Y-86866073D01*
X107338513Y-86847202D01*
X107340408Y-86844593D01*
X107340410Y-86844592D01*
X107340410Y-86844589D01*
X107342309Y-86841977D01*
X107354422Y-86818205D01*
X107355420Y-86815135D01*
X107355420Y-72599827D01*
X112054419Y-72599827D01*
X112054420Y-86815135D01*
X112055413Y-86818193D01*
X112067538Y-86841988D01*
X112071324Y-86847199D01*
X112090204Y-86866078D01*
X112095418Y-86869866D01*
X112119197Y-86881983D01*
X112122266Y-86882980D01*
X145387576Y-86882980D01*
X145390645Y-86881982D01*
X145414417Y-86869869D01*
X145417029Y-86867970D01*
X145417032Y-86867970D01*
X145417033Y-86867968D01*
X145419642Y-86866073D01*
X145438513Y-86847202D01*
X145440408Y-86844593D01*
X145440410Y-86844592D01*
X145440410Y-86844589D01*
X145442309Y-86841977D01*
X145454422Y-86818205D01*
X145455420Y-86815135D01*
X150154420Y-86815135D01*
X150155413Y-86818193D01*
X150167538Y-86841988D01*
X150171324Y-86847199D01*
X150190204Y-86866078D01*
X150195418Y-86869866D01*
X150219197Y-86881983D01*
X150222266Y-86882980D01*
X164437576Y-86882980D01*
X164440645Y-86881982D01*
X164464417Y-86869869D01*
X164467029Y-86867970D01*
X164467032Y-86867970D01*
X164467033Y-86867968D01*
X164469642Y-86866073D01*
X164488513Y-86847202D01*
X164490408Y-86844593D01*
X164490410Y-86844592D01*
X164490410Y-86844589D01*
X164492309Y-86841977D01*
X164504422Y-86818205D01*
X164505420Y-86815135D01*
X169204420Y-86815135D01*
X169205413Y-86818193D01*
X169217538Y-86841988D01*
X169221324Y-86847199D01*
X169240204Y-86866078D01*
X169245418Y-86869866D01*
X169269197Y-86881983D01*
X169272266Y-86882980D01*
X183487576Y-86882980D01*
X183490645Y-86881982D01*
X183514417Y-86869869D01*
X183517029Y-86867970D01*
X183517032Y-86867970D01*
X183517033Y-86867968D01*
X183519642Y-86866073D01*
X183538513Y-86847202D01*
X183540408Y-86844593D01*
X183540410Y-86844592D01*
X183540410Y-86844589D01*
X183542309Y-86841977D01*
X183554422Y-86818205D01*
X183555420Y-86815135D01*
X188254420Y-86815135D01*
X188255413Y-86818193D01*
X188267538Y-86841988D01*
X188271324Y-86847199D01*
X188290204Y-86866078D01*
X188295418Y-86869866D01*
X188319197Y-86881983D01*
X188322266Y-86882980D01*
X202537576Y-86882980D01*
X202540645Y-86881982D01*
X202564417Y-86869869D01*
X202567029Y-86867970D01*
X202567032Y-86867970D01*
X202567033Y-86867968D01*
X202569642Y-86866073D01*
X202588513Y-86847202D01*
X202590408Y-86844593D01*
X202590410Y-86844592D01*
X202590410Y-86844589D01*
X202592309Y-86841977D01*
X202604422Y-86818205D01*
X202605420Y-86815135D01*
X207304420Y-86815135D01*
X207305413Y-86818193D01*
X207317538Y-86841988D01*
X207321324Y-86847199D01*
X207340204Y-86866078D01*
X207345418Y-86869866D01*
X207369197Y-86881983D01*
X207372266Y-86882980D01*
X221587576Y-86882980D01*
X221590645Y-86881982D01*
X221614417Y-86869869D01*
X221617029Y-86867970D01*
X221617032Y-86867970D01*
X221617033Y-86867968D01*
X221619642Y-86866073D01*
X221638513Y-86847202D01*
X221640408Y-86844593D01*
X221640410Y-86844592D01*
X221640410Y-86844589D01*
X221642309Y-86841977D01*
X221654422Y-86818205D01*
X221655420Y-86815135D01*
X226354420Y-86815135D01*
X226355413Y-86818193D01*
X226367538Y-86841988D01*
X226371324Y-86847199D01*
X226390204Y-86866078D01*
X226395418Y-86869866D01*
X226419197Y-86881983D01*
X226422266Y-86882980D01*
X240637576Y-86882980D01*
X240640645Y-86881982D01*
X240664417Y-86869869D01*
X240667029Y-86867970D01*
X240667032Y-86867970D01*
X240667033Y-86867968D01*
X240669642Y-86866073D01*
X240688513Y-86847202D01*
X240690408Y-86844593D01*
X240690410Y-86844592D01*
X240690410Y-86844589D01*
X240692309Y-86841977D01*
X240704422Y-86818205D01*
X240705420Y-86815135D01*
X240705420Y-72599825D01*
X240704423Y-72596757D01*
X240692306Y-72572978D01*
X240688518Y-72567764D01*
X240669639Y-72548884D01*
X240664428Y-72545098D01*
X240640633Y-72532973D01*
X240637575Y-72531980D01*
X240637574Y-72531980D01*
X240620837Y-72531980D01*
X226487574Y-72531980D01*
X226422266Y-72531980D01*
X226422264Y-72531981D01*
X226419204Y-72532975D01*
X226395412Y-72545097D01*
X226390208Y-72548878D01*
X226371318Y-72567768D01*
X226367537Y-72572972D01*
X226355415Y-72596764D01*
X226354420Y-72599827D01*
X226354420Y-86815135D01*
X221655420Y-86815135D01*
X221655420Y-72599825D01*
X221654423Y-72596757D01*
X221642306Y-72572978D01*
X221638518Y-72567764D01*
X221619639Y-72548884D01*
X221614428Y-72545098D01*
X221590633Y-72532973D01*
X221587575Y-72531980D01*
X221587574Y-72531980D01*
X221570837Y-72531980D01*
X207437574Y-72531980D01*
X207372266Y-72531980D01*
X207372264Y-72531981D01*
X207369204Y-72532975D01*
X207345412Y-72545097D01*
X207340208Y-72548878D01*
X207321318Y-72567768D01*
X207317537Y-72572972D01*
X207305415Y-72596764D01*
X207304420Y-72599827D01*
X207304420Y-86815135D01*
X202605420Y-86815135D01*
X202605420Y-72599825D01*
X202604423Y-72596757D01*
X202592306Y-72572978D01*
X202588518Y-72567764D01*
X202569639Y-72548884D01*
X202564428Y-72545098D01*
X202540633Y-72532973D01*
X202537575Y-72531980D01*
X202537574Y-72531980D01*
X202520837Y-72531980D01*
X188387574Y-72531980D01*
X188322266Y-72531980D01*
X188322264Y-72531981D01*
X188319204Y-72532975D01*
X188295412Y-72545097D01*
X188290208Y-72548878D01*
X188271318Y-72567768D01*
X188267537Y-72572972D01*
X188255415Y-72596764D01*
X188254420Y-72599827D01*
X188254420Y-86815135D01*
X183555420Y-86815135D01*
X183555420Y-72599825D01*
X183554423Y-72596757D01*
X183542306Y-72572978D01*
X183538518Y-72567764D01*
X183519639Y-72548884D01*
X183514428Y-72545098D01*
X183490633Y-72532973D01*
X183487575Y-72531980D01*
X183487574Y-72531980D01*
X183470837Y-72531980D01*
X169337574Y-72531980D01*
X169272266Y-72531980D01*
X169272264Y-72531981D01*
X169269204Y-72532975D01*
X169245412Y-72545097D01*
X169240208Y-72548878D01*
X169221318Y-72567768D01*
X169217537Y-72572972D01*
X169205415Y-72596764D01*
X169204420Y-72599827D01*
X169204420Y-86815135D01*
X164505420Y-86815135D01*
X164505420Y-72599825D01*
X164504423Y-72596757D01*
X164492306Y-72572978D01*
X164488518Y-72567764D01*
X164469639Y-72548884D01*
X164464428Y-72545098D01*
X164440633Y-72532973D01*
X164437575Y-72531980D01*
X164437574Y-72531980D01*
X164420837Y-72531980D01*
X150287574Y-72531980D01*
X150222266Y-72531980D01*
X150222264Y-72531981D01*
X150219204Y-72532975D01*
X150195412Y-72545097D01*
X150190208Y-72548878D01*
X150171318Y-72567768D01*
X150167537Y-72572972D01*
X150155415Y-72596764D01*
X150154420Y-72599827D01*
X150154420Y-86815135D01*
X145455420Y-86815135D01*
X145455420Y-72599825D01*
X145454423Y-72596757D01*
X145442306Y-72572978D01*
X145438518Y-72567764D01*
X145419639Y-72548884D01*
X145414428Y-72545098D01*
X145390633Y-72532973D01*
X145387575Y-72531980D01*
X145387574Y-72531980D01*
X145370837Y-72531980D01*
X112187574Y-72531980D01*
X112122266Y-72531980D01*
X112122264Y-72531981D01*
X112119204Y-72532975D01*
X112095412Y-72545097D01*
X112090208Y-72548878D01*
X112071318Y-72567768D01*
X112067537Y-72572972D01*
X112055415Y-72596764D01*
X112054419Y-72599827D01*
X107355420Y-72599827D01*
X107355420Y-72599825D01*
X107354423Y-72596757D01*
X107342306Y-72572978D01*
X107338518Y-72567764D01*
X107319639Y-72548884D01*
X107314428Y-72545098D01*
X107290633Y-72532973D01*
X107287575Y-72531980D01*
X107287574Y-72531980D01*
X107270837Y-72531980D01*
X93137574Y-72531980D01*
X93072266Y-72531980D01*
X93072264Y-72531981D01*
X93069204Y-72532975D01*
X93045412Y-72545097D01*
X93040208Y-72548878D01*
X93021318Y-72567768D01*
X93017537Y-72572972D01*
X93005415Y-72596764D01*
X93004420Y-72599827D01*
X93004420Y-86815135D01*
X88305420Y-86815135D01*
X88305420Y-72599825D01*
X88304423Y-72596757D01*
X88292306Y-72572978D01*
X88288518Y-72567764D01*
X88269639Y-72548884D01*
X88264428Y-72545098D01*
X88240633Y-72532973D01*
X88237575Y-72531980D01*
X88237574Y-72531980D01*
X88220837Y-72531980D01*
X74087574Y-72531980D01*
X74022266Y-72531980D01*
X74022264Y-72531981D01*
X74019204Y-72532975D01*
X73995412Y-72545097D01*
X73990208Y-72548878D01*
X73971318Y-72567768D01*
X73967537Y-72572972D01*
X73955415Y-72596764D01*
X73954420Y-72599827D01*
X73954420Y-86815135D01*
X69255420Y-86815135D01*
X69255420Y-72599825D01*
X69254423Y-72596757D01*
X69242306Y-72572978D01*
X69238518Y-72567764D01*
X69219639Y-72548884D01*
X69214428Y-72545098D01*
X69190633Y-72532973D01*
X69187575Y-72531980D01*
X69187574Y-72531980D01*
X69170837Y-72531980D01*
X55037574Y-72531980D01*
X54972266Y-72531980D01*
X54972264Y-72531981D01*
X54969204Y-72532975D01*
X54945412Y-72545097D01*
X54940208Y-72548878D01*
X54921318Y-72567768D01*
X54917537Y-72572972D01*
X54905415Y-72596764D01*
X54904420Y-72599827D01*
X54904420Y-86815135D01*
X50205420Y-86815135D01*
X50205420Y-72599825D01*
X50204423Y-72596757D01*
X50192306Y-72572978D01*
X50188518Y-72567764D01*
X50169639Y-72548884D01*
X50164428Y-72545098D01*
X50140633Y-72532973D01*
X50137575Y-72531980D01*
X50137574Y-72531980D01*
X50120837Y-72531980D01*
X35987574Y-72531980D01*
X35922266Y-72531980D01*
X35922264Y-72531981D01*
X35919204Y-72532975D01*
X35895412Y-72545097D01*
X35890208Y-72548878D01*
X35871318Y-72567768D01*
X35867537Y-72572972D01*
X35855415Y-72596764D01*
X35854420Y-72599827D01*
X35854420Y-86815135D01*
X31155420Y-86815135D01*
X31155420Y-72599825D01*
X31154423Y-72596757D01*
X31142306Y-72572978D01*
X31138518Y-72567764D01*
X31119639Y-72548884D01*
X31114428Y-72545098D01*
X31090633Y-72532973D01*
X31087575Y-72531980D01*
X31087574Y-72531980D01*
X31070837Y-72531980D01*
X16937574Y-72531980D01*
X16872266Y-72531980D01*
X16872264Y-72531981D01*
X16869204Y-72532975D01*
X16845412Y-72545097D01*
X16840208Y-72548878D01*
X16821318Y-72567768D01*
X16817537Y-72572972D01*
X16805415Y-72596764D01*
X16804420Y-72599827D01*
X16804420Y-86815135D01*
X13231897Y-86815135D01*
X13220533Y-86775689D01*
X13217393Y-86761931D01*
X13165295Y-86455313D01*
X13163714Y-86441275D01*
X13146078Y-86127225D01*
X13145880Y-86120160D01*
X13145880Y-68523878D01*
X51337619Y-68523878D01*
X51344667Y-68608940D01*
X51344983Y-68613994D01*
X51348739Y-68702411D01*
X51352985Y-68722111D01*
X51355382Y-68738248D01*
X51356785Y-68755183D01*
X51369276Y-68804508D01*
X51371625Y-68813785D01*
X51378568Y-68841199D01*
X51379596Y-68845585D01*
X51398965Y-68935461D01*
X51405203Y-68950983D01*
X51410433Y-68967029D01*
X51413763Y-68980181D01*
X51450782Y-69064577D01*
X51452307Y-69068207D01*
X51487856Y-69156670D01*
X51494829Y-69167996D01*
X51502919Y-69183436D01*
X51506993Y-69192723D01*
X51506996Y-69192729D01*
X51559292Y-69272776D01*
X51561066Y-69275572D01*
X51606655Y-69349612D01*
X51612851Y-69359675D01*
X51619366Y-69367077D01*
X51630266Y-69381408D01*
X51633941Y-69387033D01*
X51701046Y-69459929D01*
X51702862Y-69461948D01*
X51715025Y-69475767D01*
X51770354Y-69538634D01*
X51775365Y-69542680D01*
X51788905Y-69555370D01*
X51791136Y-69557793D01*
X51872853Y-69621395D01*
X51931253Y-69668550D01*
X51955840Y-69688403D01*
X51958466Y-69689870D01*
X51974190Y-69700293D01*
X51974290Y-69700347D01*
X51974294Y-69700350D01*
X52068082Y-69751105D01*
X52163966Y-69804670D01*
X52163969Y-69804671D01*
X52164286Y-69804848D01*
X52175380Y-69809773D01*
X52178414Y-69810814D01*
X52178417Y-69810816D01*
X52282196Y-69846443D01*
X52388749Y-69884091D01*
X52388752Y-69884091D01*
X52391714Y-69885138D01*
X52397932Y-69886175D01*
X52397939Y-69886178D01*
X52509244Y-69904751D01*
X52535342Y-69909226D01*
X52623718Y-69924380D01*
X52623720Y-69924380D01*
X52858969Y-69924380D01*
X52912843Y-69915389D01*
X52922896Y-69914125D01*
X52928419Y-69913654D01*
X52980461Y-69909226D01*
X53029760Y-69896388D01*
X53040758Y-69894044D01*
X53087901Y-69886178D01*
X53142793Y-69867332D01*
X53151939Y-69864576D01*
X53211169Y-69849155D01*
X53254495Y-69829569D01*
X53265444Y-69825227D01*
X53307423Y-69810816D01*
X53361481Y-69781560D01*
X53369512Y-69777578D01*
X53428406Y-69750957D01*
X53464955Y-69726253D01*
X53475508Y-69719852D01*
X53511546Y-69700350D01*
X53562756Y-69660490D01*
X53569555Y-69655555D01*
X53625923Y-69617459D01*
X53655305Y-69589297D01*
X53665068Y-69580858D01*
X53694704Y-69557793D01*
X53740972Y-69507531D01*
X53746438Y-69501953D01*
X53798038Y-69452501D01*
X53820201Y-69422532D01*
X53828797Y-69412126D01*
X53851899Y-69387033D01*
X53891114Y-69327008D01*
X53895274Y-69321027D01*
X53939799Y-69260827D01*
X53955046Y-69230584D01*
X53962055Y-69218425D01*
X53978844Y-69192729D01*
X54009017Y-69123941D01*
X54011878Y-69117863D01*
X54047127Y-69047954D01*
X54056035Y-69018862D01*
X54061124Y-69005149D01*
X54069053Y-68987073D01*
X54072077Y-68980180D01*
X54085537Y-68927029D01*
X54091357Y-68904046D01*
X54093018Y-68898102D01*
X54116936Y-68820003D01*
X54120365Y-68793227D01*
X54123201Y-68778297D01*
X54129053Y-68755187D01*
X54129054Y-68755185D01*
X54135822Y-68673496D01*
X54136406Y-68667953D01*
X54147218Y-68583534D01*
X54146217Y-68559979D01*
X54146534Y-68544227D01*
X54148220Y-68523881D01*
X54141171Y-68438816D01*
X54140858Y-68433832D01*
X54137100Y-68345348D01*
X54132854Y-68325650D01*
X54130456Y-68309504D01*
X54129054Y-68292576D01*
X54125288Y-68277704D01*
X54107250Y-68206477D01*
X54106247Y-68202193D01*
X54086874Y-68112299D01*
X54080634Y-68096772D01*
X54075406Y-68080726D01*
X54072077Y-68067580D01*
X54035059Y-67983187D01*
X54033532Y-67979554D01*
X54028893Y-67968010D01*
X53997984Y-67891090D01*
X53991008Y-67879761D01*
X53982918Y-67864320D01*
X53978844Y-67855031D01*
X53952779Y-67815135D01*
X54904420Y-67815135D01*
X54905413Y-67818193D01*
X54917538Y-67841988D01*
X54921324Y-67847199D01*
X54940204Y-67866078D01*
X54945418Y-67869866D01*
X54969197Y-67881983D01*
X54972266Y-67882980D01*
X69187576Y-67882980D01*
X69190645Y-67881982D01*
X69214417Y-67869869D01*
X69217029Y-67867970D01*
X69217032Y-67867970D01*
X69217033Y-67867968D01*
X69219642Y-67866073D01*
X69238513Y-67847202D01*
X69240408Y-67844593D01*
X69240410Y-67844592D01*
X69240410Y-67844589D01*
X69242309Y-67841977D01*
X69254422Y-67818205D01*
X69255420Y-67815135D01*
X73954420Y-67815135D01*
X73955413Y-67818193D01*
X73967538Y-67841988D01*
X73971324Y-67847199D01*
X73990204Y-67866078D01*
X73995418Y-67869866D01*
X74019197Y-67881983D01*
X74022266Y-67882980D01*
X88237576Y-67882980D01*
X88240645Y-67881982D01*
X88264417Y-67869869D01*
X88267029Y-67867970D01*
X88267032Y-67867970D01*
X88267033Y-67867968D01*
X88269642Y-67866073D01*
X88288513Y-67847202D01*
X88290408Y-67844593D01*
X88290410Y-67844592D01*
X88290410Y-67844589D01*
X88292309Y-67841977D01*
X88304422Y-67818205D01*
X88305420Y-67815135D01*
X93004420Y-67815135D01*
X93005413Y-67818193D01*
X93017538Y-67841988D01*
X93021324Y-67847199D01*
X93040204Y-67866078D01*
X93045418Y-67869866D01*
X93069197Y-67881983D01*
X93072266Y-67882980D01*
X107287576Y-67882980D01*
X107290645Y-67881982D01*
X107314417Y-67869869D01*
X107317029Y-67867970D01*
X107317032Y-67867970D01*
X107317033Y-67867968D01*
X107319642Y-67866073D01*
X107338513Y-67847202D01*
X107340408Y-67844593D01*
X107340410Y-67844592D01*
X107340410Y-67844589D01*
X107342309Y-67841977D01*
X107354422Y-67818205D01*
X107355420Y-67815135D01*
X107355420Y-67730703D01*
X112054406Y-67730703D01*
X112054411Y-67749852D01*
X112054411Y-67749853D01*
X112054420Y-67780927D01*
X112054420Y-67782508D01*
X112054420Y-67815134D01*
X112055435Y-67818258D01*
X112067516Y-67841958D01*
X112071302Y-67847170D01*
X112090253Y-67866115D01*
X112095469Y-67869902D01*
X112119171Y-67881973D01*
X112122262Y-67882977D01*
X112122266Y-67882980D01*
X112122270Y-67882980D01*
X112122295Y-67882988D01*
X112139029Y-67882983D01*
X112139030Y-67882984D01*
X112153781Y-67882980D01*
X112187574Y-67882980D01*
X112209600Y-67882980D01*
X112209690Y-67882964D01*
X117826142Y-67881441D01*
X117894268Y-67901425D01*
X117940775Y-67955068D01*
X117952176Y-68007576D01*
X117949474Y-70530530D01*
X117949420Y-70530886D01*
X117949420Y-70582412D01*
X117949385Y-70615028D01*
X117950459Y-70618332D01*
X117962390Y-70641778D01*
X117966169Y-70646990D01*
X117985322Y-70666163D01*
X117987807Y-70667968D01*
X117987808Y-70667970D01*
X117987809Y-70667970D01*
X117990538Y-70669953D01*
X118013954Y-70681899D01*
X118017157Y-70682944D01*
X118017158Y-70682945D01*
X118017266Y-70682980D01*
X118049812Y-70682980D01*
X118082466Y-70683015D01*
X118082466Y-70683014D01*
X118102198Y-70683035D01*
X118102549Y-70682980D01*
X129034003Y-70682980D01*
X140049812Y-70682980D01*
X140082466Y-70683015D01*
X140082468Y-70683013D01*
X140085395Y-70682066D01*
X140109544Y-70669778D01*
X140114758Y-70665989D01*
X140133355Y-70647412D01*
X140135339Y-70644686D01*
X140135343Y-70644684D01*
X140135344Y-70644680D01*
X140137157Y-70642191D01*
X140149468Y-70618062D01*
X140150420Y-70615134D01*
X140150420Y-70582628D01*
X140151220Y-69835537D01*
X140152658Y-68492078D01*
X222697619Y-68492078D01*
X222704667Y-68577140D01*
X222704983Y-68582194D01*
X222708739Y-68670611D01*
X222712985Y-68690311D01*
X222715382Y-68706448D01*
X222716785Y-68723383D01*
X222729276Y-68772708D01*
X222734472Y-68793227D01*
X222738568Y-68809399D01*
X222739596Y-68813785D01*
X222758965Y-68903661D01*
X222765203Y-68919183D01*
X222770431Y-68935223D01*
X222772480Y-68943313D01*
X222773763Y-68948381D01*
X222810782Y-69032777D01*
X222812307Y-69036407D01*
X222847856Y-69124870D01*
X222854829Y-69136196D01*
X222862919Y-69151636D01*
X222866993Y-69160923D01*
X222866996Y-69160929D01*
X222919292Y-69240976D01*
X222921066Y-69243772D01*
X222940664Y-69275600D01*
X222972851Y-69327875D01*
X222979366Y-69335277D01*
X222990266Y-69349608D01*
X222993941Y-69355233D01*
X223061046Y-69428129D01*
X223062862Y-69430148D01*
X223082534Y-69452499D01*
X223130354Y-69506834D01*
X223135365Y-69510880D01*
X223148905Y-69523570D01*
X223151136Y-69525993D01*
X223232853Y-69589595D01*
X223281287Y-69628703D01*
X223315840Y-69656603D01*
X223318466Y-69658070D01*
X223334190Y-69668493D01*
X223334290Y-69668547D01*
X223334294Y-69668550D01*
X223428082Y-69719305D01*
X223523966Y-69772870D01*
X223523969Y-69772871D01*
X223524286Y-69773048D01*
X223535380Y-69777973D01*
X223538414Y-69779014D01*
X223538417Y-69779016D01*
X223642196Y-69814643D01*
X223748749Y-69852291D01*
X223748752Y-69852291D01*
X223751714Y-69853338D01*
X223757932Y-69854375D01*
X223757939Y-69854378D01*
X223869244Y-69872951D01*
X223895342Y-69877426D01*
X223983718Y-69892580D01*
X223983720Y-69892580D01*
X224218969Y-69892580D01*
X224272843Y-69883589D01*
X224282896Y-69882325D01*
X224288419Y-69881854D01*
X224340461Y-69877426D01*
X224389760Y-69864588D01*
X224400758Y-69862244D01*
X224447901Y-69854378D01*
X224502793Y-69835532D01*
X224511939Y-69832776D01*
X224571169Y-69817355D01*
X224614495Y-69797769D01*
X224625444Y-69793427D01*
X224667423Y-69779016D01*
X224721481Y-69749760D01*
X224729512Y-69745778D01*
X224788406Y-69719157D01*
X224824955Y-69694453D01*
X224835508Y-69688052D01*
X224871546Y-69668550D01*
X224922756Y-69628690D01*
X224929555Y-69623755D01*
X224985923Y-69585659D01*
X225015305Y-69557497D01*
X225025068Y-69549058D01*
X225054704Y-69525993D01*
X225100972Y-69475731D01*
X225106438Y-69470153D01*
X225158038Y-69420701D01*
X225180201Y-69390732D01*
X225188797Y-69380326D01*
X225211899Y-69355233D01*
X225251114Y-69295208D01*
X225255274Y-69289227D01*
X225299799Y-69229027D01*
X225315046Y-69198784D01*
X225322055Y-69186625D01*
X225338844Y-69160929D01*
X225369017Y-69092141D01*
X225371878Y-69086063D01*
X225407127Y-69016154D01*
X225416035Y-68987062D01*
X225421124Y-68973349D01*
X225432077Y-68948380D01*
X225451357Y-68872246D01*
X225453018Y-68866302D01*
X225476936Y-68788203D01*
X225480365Y-68761427D01*
X225483201Y-68746497D01*
X225489053Y-68723387D01*
X225489054Y-68723385D01*
X225495822Y-68641696D01*
X225496406Y-68636153D01*
X225507218Y-68551734D01*
X225506217Y-68528179D01*
X225506534Y-68512427D01*
X225508220Y-68492081D01*
X225501171Y-68407016D01*
X225500858Y-68402032D01*
X225497100Y-68313548D01*
X225492854Y-68293850D01*
X225490456Y-68277704D01*
X225489054Y-68260776D01*
X225489053Y-68260772D01*
X225467250Y-68174677D01*
X225466247Y-68170393D01*
X225446874Y-68080499D01*
X225440634Y-68064972D01*
X225435406Y-68048926D01*
X225432077Y-68035780D01*
X225395059Y-67951387D01*
X225393532Y-67947754D01*
X225386365Y-67929919D01*
X225357984Y-67859290D01*
X225351008Y-67847961D01*
X225342918Y-67832520D01*
X225338844Y-67823231D01*
X225333555Y-67815135D01*
X226354420Y-67815135D01*
X226355413Y-67818193D01*
X226367538Y-67841988D01*
X226371324Y-67847199D01*
X226390204Y-67866078D01*
X226395418Y-67869866D01*
X226419197Y-67881983D01*
X226422266Y-67882980D01*
X240637576Y-67882980D01*
X240640645Y-67881982D01*
X240664417Y-67869869D01*
X240667029Y-67867970D01*
X240667032Y-67867970D01*
X240667033Y-67867968D01*
X240669642Y-67866073D01*
X240688513Y-67847202D01*
X240690408Y-67844593D01*
X240690410Y-67844592D01*
X240690410Y-67844589D01*
X240692309Y-67841977D01*
X240704422Y-67818205D01*
X240705420Y-67815135D01*
X240705420Y-53599825D01*
X240704423Y-53596757D01*
X240692306Y-53572978D01*
X240688518Y-53567764D01*
X240669639Y-53548884D01*
X240664428Y-53545098D01*
X240640633Y-53532973D01*
X240637575Y-53531980D01*
X240637574Y-53531980D01*
X240620837Y-53531980D01*
X226487574Y-53531980D01*
X226422266Y-53531980D01*
X226422264Y-53531981D01*
X226419204Y-53532975D01*
X226395412Y-53545097D01*
X226390208Y-53548878D01*
X226371318Y-53567768D01*
X226367537Y-53572972D01*
X226355415Y-53596764D01*
X226354420Y-53599827D01*
X226354420Y-67815135D01*
X225333555Y-67815135D01*
X225290897Y-67749842D01*
X225286581Y-67743236D01*
X225284772Y-67740384D01*
X225232991Y-67656288D01*
X225232990Y-67656287D01*
X225232989Y-67656285D01*
X225226469Y-67648877D01*
X225215569Y-67634545D01*
X225211899Y-67628927D01*
X225144782Y-67556018D01*
X225143019Y-67554059D01*
X225075484Y-67477325D01*
X225070471Y-67473277D01*
X225056935Y-67460590D01*
X225054703Y-67458166D01*
X224972986Y-67394564D01*
X224890000Y-67327556D01*
X224887368Y-67326086D01*
X224871648Y-67315665D01*
X224777757Y-67264854D01*
X224681563Y-67211116D01*
X224670456Y-67206185D01*
X224599946Y-67181979D01*
X224563643Y-67169516D01*
X224457091Y-67131869D01*
X224457089Y-67131868D01*
X224454124Y-67130821D01*
X224447904Y-67129783D01*
X224447901Y-67129782D01*
X224336595Y-67111208D01*
X224251353Y-67096592D01*
X224222122Y-67091580D01*
X224222120Y-67091580D01*
X224218969Y-67091580D01*
X223986871Y-67091580D01*
X223969725Y-67094440D01*
X223932992Y-67100570D01*
X223922941Y-67101834D01*
X223865378Y-67106733D01*
X223816072Y-67119571D01*
X223805065Y-67121917D01*
X223757937Y-67129781D01*
X223703047Y-67148625D01*
X223693887Y-67151386D01*
X223656351Y-67161159D01*
X223634671Y-67166805D01*
X223634669Y-67166805D01*
X223634668Y-67166806D01*
X223591352Y-67186384D01*
X223580373Y-67190739D01*
X223538418Y-67205143D01*
X223484376Y-67234389D01*
X223476308Y-67238389D01*
X223417434Y-67265002D01*
X223380889Y-67289701D01*
X223370310Y-67296117D01*
X223334294Y-67315609D01*
X223283105Y-67355451D01*
X223276273Y-67360410D01*
X223219919Y-67398499D01*
X223190548Y-67426648D01*
X223180761Y-67435108D01*
X223151131Y-67458171D01*
X223104890Y-67508401D01*
X223099376Y-67514028D01*
X223047801Y-67563458D01*
X223025643Y-67593419D01*
X223017045Y-67603828D01*
X222993938Y-67628929D01*
X222954735Y-67688935D01*
X222950557Y-67694942D01*
X222906042Y-67755130D01*
X222890804Y-67785352D01*
X222883783Y-67797532D01*
X222866996Y-67823229D01*
X222836824Y-67892011D01*
X222833948Y-67898119D01*
X222798711Y-67968010D01*
X222789803Y-67997094D01*
X222784719Y-68010799D01*
X222773764Y-68035776D01*
X222754481Y-68111918D01*
X222752814Y-68117877D01*
X222728904Y-68195953D01*
X222725474Y-68222734D01*
X222722640Y-68237654D01*
X222716786Y-68260772D01*
X222710019Y-68342427D01*
X222709429Y-68348023D01*
X222698622Y-68432427D01*
X222699622Y-68455989D01*
X222699305Y-68471731D01*
X222697619Y-68492078D01*
X140152658Y-68492078D01*
X140153177Y-68007311D01*
X140173252Y-67939213D01*
X140226957Y-67892777D01*
X140279210Y-67881447D01*
X145302558Y-67882964D01*
X145302660Y-67882980D01*
X145354241Y-67882980D01*
X145370806Y-67882985D01*
X145370807Y-67882984D01*
X145387542Y-67882989D01*
X145387570Y-67882980D01*
X145387574Y-67882980D01*
X145387577Y-67882977D01*
X145390684Y-67881968D01*
X145414361Y-67869908D01*
X145417002Y-67867990D01*
X145417006Y-67867989D01*
X145417008Y-67867986D01*
X145419581Y-67866118D01*
X145438541Y-67847164D01*
X145440408Y-67844592D01*
X145440410Y-67844592D01*
X145440410Y-67844590D01*
X145442328Y-67841951D01*
X145454400Y-67818269D01*
X145455420Y-67815135D01*
X150154420Y-67815135D01*
X150155413Y-67818193D01*
X150167538Y-67841988D01*
X150171324Y-67847199D01*
X150190204Y-67866078D01*
X150195418Y-67869866D01*
X150219197Y-67881983D01*
X150222266Y-67882980D01*
X164437576Y-67882980D01*
X164440645Y-67881982D01*
X164464417Y-67869869D01*
X164467029Y-67867970D01*
X164467032Y-67867970D01*
X164467033Y-67867968D01*
X164469642Y-67866073D01*
X164488513Y-67847202D01*
X164490408Y-67844593D01*
X164490410Y-67844592D01*
X164490410Y-67844589D01*
X164492309Y-67841977D01*
X164504422Y-67818205D01*
X164505420Y-67815135D01*
X169204420Y-67815135D01*
X169205413Y-67818193D01*
X169217538Y-67841988D01*
X169221324Y-67847199D01*
X169240204Y-67866078D01*
X169245418Y-67869866D01*
X169269197Y-67881983D01*
X169272266Y-67882980D01*
X183487576Y-67882980D01*
X183490645Y-67881982D01*
X183514417Y-67869869D01*
X183517029Y-67867970D01*
X183517032Y-67867970D01*
X183517033Y-67867968D01*
X183519642Y-67866073D01*
X183538513Y-67847202D01*
X183540408Y-67844593D01*
X183540410Y-67844592D01*
X183540410Y-67844589D01*
X183542309Y-67841977D01*
X183554422Y-67818205D01*
X183555420Y-67815135D01*
X188254420Y-67815135D01*
X188255413Y-67818193D01*
X188267538Y-67841988D01*
X188271324Y-67847199D01*
X188290204Y-67866078D01*
X188295418Y-67869866D01*
X188319197Y-67881983D01*
X188322266Y-67882980D01*
X202537576Y-67882980D01*
X202540645Y-67881982D01*
X202564417Y-67869869D01*
X202567029Y-67867970D01*
X202567032Y-67867970D01*
X202567033Y-67867968D01*
X202569642Y-67866073D01*
X202588513Y-67847202D01*
X202590408Y-67844593D01*
X202590410Y-67844592D01*
X202590410Y-67844589D01*
X202592309Y-67841977D01*
X202604422Y-67818205D01*
X202605420Y-67815135D01*
X207304420Y-67815135D01*
X207305413Y-67818193D01*
X207317538Y-67841988D01*
X207321324Y-67847199D01*
X207340204Y-67866078D01*
X207345418Y-67869866D01*
X207369197Y-67881983D01*
X207372266Y-67882980D01*
X221587576Y-67882980D01*
X221590645Y-67881982D01*
X221614417Y-67869869D01*
X221617029Y-67867970D01*
X221617032Y-67867970D01*
X221617033Y-67867968D01*
X221619642Y-67866073D01*
X221638513Y-67847202D01*
X221640408Y-67844593D01*
X221640410Y-67844592D01*
X221640410Y-67844589D01*
X221642309Y-67841977D01*
X221654422Y-67818205D01*
X221655420Y-67815135D01*
X221655420Y-53599825D01*
X221654423Y-53596757D01*
X221642306Y-53572978D01*
X221638518Y-53567764D01*
X221619639Y-53548884D01*
X221614428Y-53545098D01*
X221590633Y-53532973D01*
X221587575Y-53531980D01*
X221587574Y-53531980D01*
X221570837Y-53531980D01*
X207437574Y-53531980D01*
X207372266Y-53531980D01*
X207372264Y-53531981D01*
X207369204Y-53532975D01*
X207345412Y-53545097D01*
X207340208Y-53548878D01*
X207321318Y-53567768D01*
X207317537Y-53572972D01*
X207305415Y-53596764D01*
X207304420Y-53599827D01*
X207304420Y-67815135D01*
X202605420Y-67815135D01*
X202605420Y-53599825D01*
X202604423Y-53596757D01*
X202592306Y-53572978D01*
X202588518Y-53567764D01*
X202569639Y-53548884D01*
X202564428Y-53545098D01*
X202540633Y-53532973D01*
X202537575Y-53531980D01*
X202537574Y-53531980D01*
X202520837Y-53531980D01*
X188387574Y-53531980D01*
X188322266Y-53531980D01*
X188322264Y-53531981D01*
X188319204Y-53532975D01*
X188295412Y-53545097D01*
X188290208Y-53548878D01*
X188271318Y-53567768D01*
X188267537Y-53572972D01*
X188255415Y-53596764D01*
X188254420Y-53599827D01*
X188254420Y-67815135D01*
X183555420Y-67815135D01*
X183555420Y-53599825D01*
X183554423Y-53596757D01*
X183542306Y-53572978D01*
X183538518Y-53567764D01*
X183519639Y-53548884D01*
X183514428Y-53545098D01*
X183490633Y-53532973D01*
X183487575Y-53531980D01*
X183487574Y-53531980D01*
X183470837Y-53531980D01*
X169337574Y-53531980D01*
X169272266Y-53531980D01*
X169272264Y-53531981D01*
X169269204Y-53532975D01*
X169245412Y-53545097D01*
X169240208Y-53548878D01*
X169221318Y-53567768D01*
X169217537Y-53572972D01*
X169205415Y-53596764D01*
X169204420Y-53599827D01*
X169204420Y-67815135D01*
X164505420Y-67815135D01*
X164505420Y-53599825D01*
X164504423Y-53596757D01*
X164492306Y-53572978D01*
X164488518Y-53567764D01*
X164469639Y-53548884D01*
X164464428Y-53545098D01*
X164440633Y-53532973D01*
X164437575Y-53531980D01*
X164437574Y-53531980D01*
X164420837Y-53531980D01*
X150287574Y-53531980D01*
X150222266Y-53531980D01*
X150222264Y-53531981D01*
X150219204Y-53532975D01*
X150195412Y-53545097D01*
X150190208Y-53548878D01*
X150171318Y-53567768D01*
X150167537Y-53572972D01*
X150155415Y-53596764D01*
X150154420Y-53599827D01*
X150154420Y-67815135D01*
X145455420Y-67815135D01*
X145455420Y-67815134D01*
X145455420Y-67782510D01*
X145455428Y-67755130D01*
X145455430Y-67749856D01*
X145455429Y-67749855D01*
X145455435Y-67730241D01*
X145455420Y-67730139D01*
X145455420Y-53599825D01*
X145454423Y-53596757D01*
X145442306Y-53572978D01*
X145438518Y-53567764D01*
X145419639Y-53548884D01*
X145414428Y-53545098D01*
X145390633Y-53532973D01*
X145387575Y-53531980D01*
X145387574Y-53531980D01*
X145370837Y-53531980D01*
X131237574Y-53531980D01*
X131172266Y-53531980D01*
X131172264Y-53531981D01*
X131169204Y-53532975D01*
X131145412Y-53545097D01*
X131140208Y-53548878D01*
X131121318Y-53567768D01*
X131117537Y-53572972D01*
X131105415Y-53596764D01*
X131104420Y-53599827D01*
X131104420Y-65829980D01*
X131084418Y-65898101D01*
X131030762Y-65944594D01*
X130978420Y-65955980D01*
X126531420Y-65955980D01*
X126463299Y-65935978D01*
X126416806Y-65882322D01*
X126405420Y-65829980D01*
X126405420Y-53599825D01*
X126404423Y-53596757D01*
X126392306Y-53572978D01*
X126388518Y-53567764D01*
X126369639Y-53548884D01*
X126364428Y-53545098D01*
X126340633Y-53532973D01*
X126337575Y-53531980D01*
X126337574Y-53531980D01*
X126320837Y-53531980D01*
X112187574Y-53531980D01*
X112122266Y-53531980D01*
X112122264Y-53531981D01*
X112119204Y-53532975D01*
X112095412Y-53545097D01*
X112090208Y-53548878D01*
X112071318Y-53567768D01*
X112067537Y-53572972D01*
X112055415Y-53596764D01*
X112054420Y-53599827D01*
X112054420Y-67730612D01*
X112054406Y-67730703D01*
X107355420Y-67730703D01*
X107355420Y-53599825D01*
X107354423Y-53596757D01*
X107342306Y-53572978D01*
X107338518Y-53567764D01*
X107319639Y-53548884D01*
X107314428Y-53545098D01*
X107290633Y-53532973D01*
X107287575Y-53531980D01*
X107287574Y-53531980D01*
X107270837Y-53531980D01*
X93137574Y-53531980D01*
X93072266Y-53531980D01*
X93072264Y-53531981D01*
X93069204Y-53532975D01*
X93045412Y-53545097D01*
X93040208Y-53548878D01*
X93021318Y-53567768D01*
X93017537Y-53572972D01*
X93005415Y-53596764D01*
X93004420Y-53599827D01*
X93004420Y-67815135D01*
X88305420Y-67815135D01*
X88305420Y-53599825D01*
X88304423Y-53596757D01*
X88292306Y-53572978D01*
X88288518Y-53567764D01*
X88269639Y-53548884D01*
X88264428Y-53545098D01*
X88240633Y-53532973D01*
X88237575Y-53531980D01*
X88237574Y-53531980D01*
X88220837Y-53531980D01*
X74087574Y-53531980D01*
X74022266Y-53531980D01*
X74022264Y-53531981D01*
X74019204Y-53532975D01*
X73995412Y-53545097D01*
X73990208Y-53548878D01*
X73971318Y-53567768D01*
X73967537Y-53572972D01*
X73955415Y-53596764D01*
X73954420Y-53599827D01*
X73954420Y-67815135D01*
X69255420Y-67815135D01*
X69255420Y-53599825D01*
X69254423Y-53596757D01*
X69242306Y-53572978D01*
X69238518Y-53567764D01*
X69219639Y-53548884D01*
X69214428Y-53545098D01*
X69190633Y-53532973D01*
X69187575Y-53531980D01*
X69187574Y-53531980D01*
X69170837Y-53531980D01*
X55037574Y-53531980D01*
X54972266Y-53531980D01*
X54972264Y-53531981D01*
X54969204Y-53532975D01*
X54945412Y-53545097D01*
X54940208Y-53548878D01*
X54921318Y-53567768D01*
X54917537Y-53572972D01*
X54905415Y-53596764D01*
X54904420Y-53599827D01*
X54904420Y-67815135D01*
X53952779Y-67815135D01*
X53926581Y-67775036D01*
X53924772Y-67772184D01*
X53872991Y-67688088D01*
X53872990Y-67688087D01*
X53872989Y-67688085D01*
X53866469Y-67680677D01*
X53855569Y-67666345D01*
X53851900Y-67660729D01*
X53851899Y-67660727D01*
X53784782Y-67587818D01*
X53783019Y-67585859D01*
X53715484Y-67509125D01*
X53710471Y-67505077D01*
X53696935Y-67492390D01*
X53694703Y-67489966D01*
X53612986Y-67426364D01*
X53530000Y-67359356D01*
X53527368Y-67357886D01*
X53511648Y-67347465D01*
X53417757Y-67296654D01*
X53321563Y-67242916D01*
X53310456Y-67237985D01*
X53223520Y-67208140D01*
X53203643Y-67201316D01*
X53097091Y-67163669D01*
X53097089Y-67163668D01*
X53094124Y-67162621D01*
X53087904Y-67161583D01*
X53087901Y-67161582D01*
X52976595Y-67143008D01*
X52891353Y-67128392D01*
X52862122Y-67123380D01*
X52862120Y-67123380D01*
X52858969Y-67123380D01*
X52626871Y-67123380D01*
X52609725Y-67126240D01*
X52572992Y-67132370D01*
X52562941Y-67133634D01*
X52505378Y-67138533D01*
X52456072Y-67151371D01*
X52445065Y-67153717D01*
X52397937Y-67161581D01*
X52343047Y-67180425D01*
X52333887Y-67183186D01*
X52296351Y-67192959D01*
X52274671Y-67198605D01*
X52274669Y-67198605D01*
X52274668Y-67198606D01*
X52231352Y-67218184D01*
X52220373Y-67222539D01*
X52178418Y-67236943D01*
X52142726Y-67256258D01*
X52126568Y-67265003D01*
X52124376Y-67266189D01*
X52116308Y-67270189D01*
X52057434Y-67296802D01*
X52020889Y-67321501D01*
X52010310Y-67327917D01*
X51974294Y-67347409D01*
X51923105Y-67387251D01*
X51916273Y-67392210D01*
X51859919Y-67430299D01*
X51830548Y-67458448D01*
X51820761Y-67466908D01*
X51791131Y-67489971D01*
X51744890Y-67540201D01*
X51739376Y-67545828D01*
X51687801Y-67595258D01*
X51665643Y-67625219D01*
X51657045Y-67635628D01*
X51633938Y-67660729D01*
X51594735Y-67720735D01*
X51590557Y-67726742D01*
X51546042Y-67786930D01*
X51530804Y-67817152D01*
X51523783Y-67829332D01*
X51506996Y-67855029D01*
X51476824Y-67923811D01*
X51473948Y-67929919D01*
X51438711Y-67999810D01*
X51429803Y-68028894D01*
X51424719Y-68042599D01*
X51413764Y-68067576D01*
X51394481Y-68143718D01*
X51392814Y-68149677D01*
X51368904Y-68227753D01*
X51365474Y-68254534D01*
X51362640Y-68269454D01*
X51356786Y-68292572D01*
X51350019Y-68374227D01*
X51349429Y-68379823D01*
X51338622Y-68464227D01*
X51339622Y-68487789D01*
X51339305Y-68503531D01*
X51337619Y-68523878D01*
X13145880Y-68523878D01*
X13145880Y-67815135D01*
X16804420Y-67815135D01*
X16805413Y-67818193D01*
X16817538Y-67841988D01*
X16821324Y-67847199D01*
X16840204Y-67866078D01*
X16845418Y-67869866D01*
X16869197Y-67881983D01*
X16872266Y-67882980D01*
X31087576Y-67882980D01*
X31090645Y-67881982D01*
X31114417Y-67869869D01*
X31117029Y-67867970D01*
X31117032Y-67867970D01*
X31117033Y-67867968D01*
X31119642Y-67866073D01*
X31138513Y-67847202D01*
X31140408Y-67844593D01*
X31140410Y-67844592D01*
X31140410Y-67844589D01*
X31142309Y-67841977D01*
X31154422Y-67818205D01*
X31155420Y-67815135D01*
X35854420Y-67815135D01*
X35855413Y-67818193D01*
X35867538Y-67841988D01*
X35871324Y-67847199D01*
X35890204Y-67866078D01*
X35895418Y-67869866D01*
X35919197Y-67881983D01*
X35922266Y-67882980D01*
X50137576Y-67882980D01*
X50140645Y-67881982D01*
X50164417Y-67869869D01*
X50167029Y-67867970D01*
X50167032Y-67867970D01*
X50167033Y-67867968D01*
X50169642Y-67866073D01*
X50188513Y-67847202D01*
X50190408Y-67844593D01*
X50190410Y-67844592D01*
X50190410Y-67844589D01*
X50192309Y-67841977D01*
X50204422Y-67818205D01*
X50205420Y-67815135D01*
X50205420Y-53599825D01*
X50204423Y-53596757D01*
X50192306Y-53572978D01*
X50188518Y-53567764D01*
X50169639Y-53548884D01*
X50164428Y-53545098D01*
X50140633Y-53532973D01*
X50137575Y-53531980D01*
X50137574Y-53531980D01*
X50120837Y-53531980D01*
X35987574Y-53531980D01*
X35922266Y-53531980D01*
X35922264Y-53531981D01*
X35919204Y-53532975D01*
X35895412Y-53545097D01*
X35890208Y-53548878D01*
X35871318Y-53567768D01*
X35867537Y-53572972D01*
X35855415Y-53596764D01*
X35854420Y-53599827D01*
X35854420Y-67815135D01*
X31155420Y-67815135D01*
X31155420Y-53599825D01*
X31154423Y-53596757D01*
X31142306Y-53572978D01*
X31138518Y-53567764D01*
X31119639Y-53548884D01*
X31114428Y-53545098D01*
X31090633Y-53532973D01*
X31087575Y-53531980D01*
X31087574Y-53531980D01*
X31070837Y-53531980D01*
X16937574Y-53531980D01*
X16872266Y-53531980D01*
X16872264Y-53531981D01*
X16869204Y-53532975D01*
X16845412Y-53545097D01*
X16840208Y-53548878D01*
X16821318Y-53567768D01*
X16817537Y-53572972D01*
X16805415Y-53596764D01*
X16804420Y-53599827D01*
X16804420Y-67815135D01*
X13145880Y-67815135D01*
X13145880Y-52210679D01*
X89345852Y-52210679D01*
X89365685Y-52437372D01*
X89424580Y-52657175D01*
X89520751Y-52863414D01*
X89520752Y-52863414D01*
X89651273Y-53049819D01*
X89812181Y-53210727D01*
X89998586Y-53341248D01*
X90204824Y-53437419D01*
X90424628Y-53496315D01*
X90651320Y-53516148D01*
X90878012Y-53496315D01*
X91097816Y-53437419D01*
X91304054Y-53341248D01*
X91490459Y-53210727D01*
X91651367Y-53049819D01*
X91781888Y-52863414D01*
X91878059Y-52657176D01*
X91936955Y-52437372D01*
X91956788Y-52210680D01*
X91956788Y-52210679D01*
X165545852Y-52210679D01*
X165565685Y-52437372D01*
X165624580Y-52657175D01*
X165720752Y-52863413D01*
X165720752Y-52863414D01*
X165851273Y-53049819D01*
X166012181Y-53210727D01*
X166198586Y-53341248D01*
X166404824Y-53437419D01*
X166624628Y-53496315D01*
X166851320Y-53516148D01*
X167078012Y-53496315D01*
X167297816Y-53437419D01*
X167504054Y-53341248D01*
X167690459Y-53210727D01*
X167851367Y-53049819D01*
X167981888Y-52863414D01*
X168078059Y-52657176D01*
X168136955Y-52437372D01*
X168156788Y-52210680D01*
X168136955Y-51983988D01*
X168078059Y-51764184D01*
X167981888Y-51557946D01*
X167851367Y-51371541D01*
X167690459Y-51210633D01*
X167504054Y-51080112D01*
X167504053Y-51080112D01*
X167297815Y-50983940D01*
X167078012Y-50925045D01*
X166851320Y-50905212D01*
X166624627Y-50925045D01*
X166404824Y-50983940D01*
X166198585Y-51080112D01*
X166012178Y-51210635D01*
X165851275Y-51371538D01*
X165720752Y-51557945D01*
X165624580Y-51764184D01*
X165565685Y-51983987D01*
X165545852Y-52210679D01*
X91956788Y-52210679D01*
X91936955Y-51983988D01*
X91878059Y-51764184D01*
X91781888Y-51557946D01*
X91651367Y-51371541D01*
X91490459Y-51210633D01*
X91304054Y-51080112D01*
X91304053Y-51080111D01*
X91097815Y-50983940D01*
X90878012Y-50925045D01*
X90651320Y-50905212D01*
X90424627Y-50925045D01*
X90204824Y-50983940D01*
X89998585Y-51080112D01*
X89812178Y-51210635D01*
X89651275Y-51371538D01*
X89520752Y-51557945D01*
X89424580Y-51764184D01*
X89365685Y-51983987D01*
X89345852Y-52210679D01*
X13145880Y-52210679D01*
X13145880Y-48815135D01*
X16804420Y-48815135D01*
X16805413Y-48818193D01*
X16817538Y-48841988D01*
X16821324Y-48847199D01*
X16840204Y-48866078D01*
X16845418Y-48869866D01*
X16869197Y-48881983D01*
X16872266Y-48882980D01*
X31087576Y-48882980D01*
X31090645Y-48881982D01*
X31114417Y-48869869D01*
X31117029Y-48867970D01*
X31117032Y-48867970D01*
X31117033Y-48867968D01*
X31119642Y-48866073D01*
X31138513Y-48847202D01*
X31140408Y-48844593D01*
X31140410Y-48844592D01*
X31140410Y-48844589D01*
X31142309Y-48841977D01*
X31154422Y-48818205D01*
X31155420Y-48815135D01*
X35854420Y-48815135D01*
X35855413Y-48818193D01*
X35867538Y-48841988D01*
X35871324Y-48847199D01*
X35890204Y-48866078D01*
X35895418Y-48869866D01*
X35919197Y-48881983D01*
X35922266Y-48882980D01*
X50137576Y-48882980D01*
X50140645Y-48881982D01*
X50164417Y-48869869D01*
X50167029Y-48867970D01*
X50167032Y-48867970D01*
X50167033Y-48867968D01*
X50169642Y-48866073D01*
X50188513Y-48847202D01*
X50190408Y-48844593D01*
X50190410Y-48844592D01*
X50190410Y-48844589D01*
X50192309Y-48841977D01*
X50204422Y-48818205D01*
X50205420Y-48815135D01*
X54904420Y-48815135D01*
X54905413Y-48818193D01*
X54917538Y-48841988D01*
X54921324Y-48847199D01*
X54940204Y-48866078D01*
X54945418Y-48869866D01*
X54969197Y-48881983D01*
X54972266Y-48882980D01*
X69187576Y-48882980D01*
X69190645Y-48881982D01*
X69214417Y-48869869D01*
X69217029Y-48867970D01*
X69217032Y-48867970D01*
X69217033Y-48867968D01*
X69219642Y-48866073D01*
X69238513Y-48847202D01*
X69240408Y-48844593D01*
X69240410Y-48844592D01*
X69240410Y-48844589D01*
X69242309Y-48841977D01*
X69254422Y-48818205D01*
X69255420Y-48815135D01*
X73954420Y-48815135D01*
X73955413Y-48818193D01*
X73967538Y-48841988D01*
X73971324Y-48847199D01*
X73990204Y-48866078D01*
X73995418Y-48869866D01*
X74019197Y-48881983D01*
X74022266Y-48882980D01*
X88237576Y-48882980D01*
X88240645Y-48881982D01*
X88264417Y-48869869D01*
X88267029Y-48867970D01*
X88267032Y-48867970D01*
X88267033Y-48867968D01*
X88269642Y-48866073D01*
X88288513Y-48847202D01*
X88290408Y-48844593D01*
X88290410Y-48844592D01*
X88290410Y-48844589D01*
X88292309Y-48841977D01*
X88304422Y-48818205D01*
X88305420Y-48815135D01*
X93004420Y-48815135D01*
X93005413Y-48818193D01*
X93017538Y-48841988D01*
X93021324Y-48847199D01*
X93040204Y-48866078D01*
X93045418Y-48869866D01*
X93069197Y-48881983D01*
X93072266Y-48882980D01*
X107287576Y-48882980D01*
X107290645Y-48881982D01*
X107314417Y-48869869D01*
X107317029Y-48867970D01*
X107317032Y-48867970D01*
X107317033Y-48867968D01*
X107319642Y-48866073D01*
X107338513Y-48847202D01*
X107340408Y-48844593D01*
X107340410Y-48844592D01*
X107340410Y-48844589D01*
X107342309Y-48841977D01*
X107354422Y-48818205D01*
X107355420Y-48815135D01*
X107355420Y-34599827D01*
X112054419Y-34599827D01*
X112054420Y-48815135D01*
X112055413Y-48818193D01*
X112067538Y-48841988D01*
X112071324Y-48847199D01*
X112090204Y-48866078D01*
X112095418Y-48869866D01*
X112119197Y-48881983D01*
X112122266Y-48882980D01*
X112139003Y-48882980D01*
X123026124Y-48882980D01*
X123094245Y-48902982D01*
X123140738Y-48956638D01*
X123152124Y-49009144D01*
X123149487Y-51031334D01*
X123149420Y-51031766D01*
X123149420Y-51083360D01*
X123149377Y-51116203D01*
X123150470Y-51119566D01*
X123162356Y-51142930D01*
X123166135Y-51148145D01*
X123185348Y-51167383D01*
X123190560Y-51171169D01*
X123213902Y-51183082D01*
X123217267Y-51184180D01*
X123250173Y-51184180D01*
X123282443Y-51184222D01*
X123282443Y-51184221D01*
X123302009Y-51184247D01*
X123302437Y-51184180D01*
X134250173Y-51184180D01*
X134282442Y-51184222D01*
X134282442Y-51184221D01*
X134282443Y-51184222D01*
X134282443Y-51184221D01*
X134285344Y-51183283D01*
X134309572Y-51170957D01*
X134314786Y-51167169D01*
X134333320Y-51148659D01*
X134335326Y-51145904D01*
X134335329Y-51145903D01*
X134335329Y-51145900D01*
X134337124Y-51143438D01*
X134349477Y-51119234D01*
X134350420Y-51116333D01*
X134350420Y-51083622D01*
X134353125Y-49008816D01*
X134373216Y-48940721D01*
X134426932Y-48894298D01*
X134479125Y-48882980D01*
X145387576Y-48882980D01*
X145390645Y-48881982D01*
X145414417Y-48869869D01*
X145417029Y-48867970D01*
X145417032Y-48867970D01*
X145417033Y-48867968D01*
X145419642Y-48866073D01*
X145438513Y-48847202D01*
X145440408Y-48844593D01*
X145440410Y-48844592D01*
X145440410Y-48844589D01*
X145442309Y-48841977D01*
X145454422Y-48818205D01*
X145455420Y-48815135D01*
X150154420Y-48815135D01*
X150155413Y-48818193D01*
X150167538Y-48841988D01*
X150171324Y-48847199D01*
X150190204Y-48866078D01*
X150195418Y-48869866D01*
X150219197Y-48881983D01*
X150222266Y-48882980D01*
X164437576Y-48882980D01*
X164440645Y-48881982D01*
X164464417Y-48869869D01*
X164467029Y-48867970D01*
X164467032Y-48867970D01*
X164467033Y-48867968D01*
X164469642Y-48866073D01*
X164488513Y-48847202D01*
X164490408Y-48844593D01*
X164490410Y-48844592D01*
X164490410Y-48844589D01*
X164492309Y-48841977D01*
X164504422Y-48818205D01*
X164505420Y-48815135D01*
X169204420Y-48815135D01*
X169205413Y-48818193D01*
X169217538Y-48841988D01*
X169221324Y-48847199D01*
X169240204Y-48866078D01*
X169245418Y-48869866D01*
X169269197Y-48881983D01*
X169272266Y-48882980D01*
X183487576Y-48882980D01*
X183490645Y-48881982D01*
X183514417Y-48869869D01*
X183517029Y-48867970D01*
X183517032Y-48867970D01*
X183517033Y-48867968D01*
X183519642Y-48866073D01*
X183538513Y-48847202D01*
X183540408Y-48844593D01*
X183540410Y-48844592D01*
X183540410Y-48844589D01*
X183542309Y-48841977D01*
X183554422Y-48818205D01*
X183555420Y-48815135D01*
X188254420Y-48815135D01*
X188255413Y-48818193D01*
X188267538Y-48841988D01*
X188271324Y-48847199D01*
X188290204Y-48866078D01*
X188295418Y-48869866D01*
X188319197Y-48881983D01*
X188322266Y-48882980D01*
X202537576Y-48882980D01*
X202540645Y-48881982D01*
X202564417Y-48869869D01*
X202567029Y-48867970D01*
X202567032Y-48867970D01*
X202567033Y-48867968D01*
X202569642Y-48866073D01*
X202588513Y-48847202D01*
X202590408Y-48844593D01*
X202590410Y-48844592D01*
X202590410Y-48844589D01*
X202592309Y-48841977D01*
X202604422Y-48818205D01*
X202605420Y-48815135D01*
X207304420Y-48815135D01*
X207305413Y-48818193D01*
X207317538Y-48841988D01*
X207321324Y-48847199D01*
X207340204Y-48866078D01*
X207345418Y-48869866D01*
X207369197Y-48881983D01*
X207372266Y-48882980D01*
X221587576Y-48882980D01*
X221590645Y-48881982D01*
X221614417Y-48869869D01*
X221617029Y-48867970D01*
X221617032Y-48867970D01*
X221617033Y-48867968D01*
X221619642Y-48866073D01*
X221638513Y-48847202D01*
X221640408Y-48844593D01*
X221640410Y-48844592D01*
X221640410Y-48844589D01*
X221642309Y-48841977D01*
X221654422Y-48818205D01*
X221655420Y-48815135D01*
X226354420Y-48815135D01*
X226355413Y-48818193D01*
X226367538Y-48841988D01*
X226371324Y-48847199D01*
X226390204Y-48866078D01*
X226395418Y-48869866D01*
X226419197Y-48881983D01*
X226422266Y-48882980D01*
X240637576Y-48882980D01*
X240640645Y-48881982D01*
X240664417Y-48869869D01*
X240667029Y-48867970D01*
X240667032Y-48867970D01*
X240667033Y-48867968D01*
X240669642Y-48866073D01*
X240688513Y-48847202D01*
X240690408Y-48844593D01*
X240690410Y-48844592D01*
X240690410Y-48844589D01*
X240692309Y-48841977D01*
X240704422Y-48818205D01*
X240705420Y-48815135D01*
X240705420Y-34599825D01*
X240704423Y-34596757D01*
X240692306Y-34572978D01*
X240688518Y-34567764D01*
X240669639Y-34548884D01*
X240664428Y-34545098D01*
X240640633Y-34532973D01*
X240637575Y-34531980D01*
X240637574Y-34531980D01*
X240620837Y-34531980D01*
X226487574Y-34531980D01*
X226422266Y-34531980D01*
X226422264Y-34531981D01*
X226419204Y-34532975D01*
X226395412Y-34545097D01*
X226390208Y-34548878D01*
X226371318Y-34567768D01*
X226367537Y-34572972D01*
X226355415Y-34596764D01*
X226354420Y-34599827D01*
X226354420Y-48815135D01*
X221655420Y-48815135D01*
X221655420Y-34599825D01*
X221654423Y-34596757D01*
X221642306Y-34572978D01*
X221638518Y-34567764D01*
X221619639Y-34548884D01*
X221614428Y-34545098D01*
X221590633Y-34532973D01*
X221587575Y-34531980D01*
X221587574Y-34531980D01*
X221570837Y-34531980D01*
X207437574Y-34531980D01*
X207372266Y-34531980D01*
X207372264Y-34531981D01*
X207369204Y-34532975D01*
X207345412Y-34545097D01*
X207340208Y-34548878D01*
X207321318Y-34567768D01*
X207317537Y-34572972D01*
X207305415Y-34596764D01*
X207304420Y-34599827D01*
X207304420Y-48815135D01*
X202605420Y-48815135D01*
X202605420Y-34599825D01*
X202604423Y-34596757D01*
X202592306Y-34572978D01*
X202588518Y-34567764D01*
X202569639Y-34548884D01*
X202564428Y-34545098D01*
X202540633Y-34532973D01*
X202537575Y-34531980D01*
X202537574Y-34531980D01*
X202520837Y-34531980D01*
X188387574Y-34531980D01*
X188322266Y-34531980D01*
X188322264Y-34531981D01*
X188319204Y-34532975D01*
X188295412Y-34545097D01*
X188290208Y-34548878D01*
X188271318Y-34567768D01*
X188267537Y-34572972D01*
X188255415Y-34596764D01*
X188254420Y-34599827D01*
X188254420Y-48815135D01*
X183555420Y-48815135D01*
X183555420Y-34599825D01*
X183554423Y-34596757D01*
X183542306Y-34572978D01*
X183538518Y-34567764D01*
X183519639Y-34548884D01*
X183514428Y-34545098D01*
X183490633Y-34532973D01*
X183487575Y-34531980D01*
X183487574Y-34531980D01*
X183470837Y-34531980D01*
X169337574Y-34531980D01*
X169272266Y-34531980D01*
X169272264Y-34531981D01*
X169269204Y-34532975D01*
X169245412Y-34545097D01*
X169240208Y-34548878D01*
X169221318Y-34567768D01*
X169217537Y-34572972D01*
X169205415Y-34596764D01*
X169204420Y-34599827D01*
X169204420Y-48815135D01*
X164505420Y-48815135D01*
X164505420Y-34599825D01*
X164504423Y-34596757D01*
X164492306Y-34572978D01*
X164488518Y-34567764D01*
X164469639Y-34548884D01*
X164464428Y-34545098D01*
X164440633Y-34532973D01*
X164437575Y-34531980D01*
X164437574Y-34531980D01*
X164420837Y-34531980D01*
X150287574Y-34531980D01*
X150222266Y-34531980D01*
X150222264Y-34531981D01*
X150219204Y-34532975D01*
X150195412Y-34545097D01*
X150190208Y-34548878D01*
X150171318Y-34567768D01*
X150167537Y-34572972D01*
X150155415Y-34596764D01*
X150154420Y-34599827D01*
X150154420Y-48815135D01*
X145455420Y-48815135D01*
X145455420Y-34599825D01*
X145454423Y-34596757D01*
X145442306Y-34572978D01*
X145438518Y-34567764D01*
X145419639Y-34548884D01*
X145414428Y-34545098D01*
X145390633Y-34532973D01*
X145387575Y-34531980D01*
X145387574Y-34531980D01*
X145370837Y-34531980D01*
X131237574Y-34531980D01*
X131172266Y-34531980D01*
X131172264Y-34531981D01*
X131169204Y-34532975D01*
X131145412Y-34545097D01*
X131140208Y-34548878D01*
X131121318Y-34567768D01*
X131117537Y-34572972D01*
X131105415Y-34596764D01*
X131104420Y-34599827D01*
X131104420Y-46829980D01*
X131084418Y-46898101D01*
X131030762Y-46944594D01*
X130978420Y-46955980D01*
X126531420Y-46955980D01*
X126463299Y-46935978D01*
X126416806Y-46882322D01*
X126405420Y-46829980D01*
X126405420Y-34599825D01*
X126404423Y-34596757D01*
X126392306Y-34572978D01*
X126388518Y-34567764D01*
X126369639Y-34548884D01*
X126364428Y-34545098D01*
X126340633Y-34532973D01*
X126337575Y-34531980D01*
X126337574Y-34531980D01*
X126320837Y-34531980D01*
X112187574Y-34531980D01*
X112122266Y-34531980D01*
X112122264Y-34531981D01*
X112119204Y-34532975D01*
X112095412Y-34545097D01*
X112090208Y-34548878D01*
X112071318Y-34567768D01*
X112067537Y-34572972D01*
X112055415Y-34596764D01*
X112054419Y-34599827D01*
X107355420Y-34599827D01*
X107355420Y-34599825D01*
X107354423Y-34596757D01*
X107342306Y-34572978D01*
X107338518Y-34567764D01*
X107319639Y-34548884D01*
X107314428Y-34545098D01*
X107290633Y-34532973D01*
X107287575Y-34531980D01*
X107287574Y-34531980D01*
X107270837Y-34531980D01*
X93137574Y-34531980D01*
X93072266Y-34531980D01*
X93072264Y-34531981D01*
X93069204Y-34532975D01*
X93045412Y-34545097D01*
X93040208Y-34548878D01*
X93021318Y-34567768D01*
X93017537Y-34572972D01*
X93005415Y-34596764D01*
X93004420Y-34599827D01*
X93004420Y-48815135D01*
X88305420Y-48815135D01*
X88305420Y-34599825D01*
X88304423Y-34596757D01*
X88292306Y-34572978D01*
X88288518Y-34567764D01*
X88269639Y-34548884D01*
X88264428Y-34545098D01*
X88240633Y-34532973D01*
X88237575Y-34531980D01*
X88237574Y-34531980D01*
X88220837Y-34531980D01*
X74087574Y-34531980D01*
X74022266Y-34531980D01*
X74022264Y-34531981D01*
X74019204Y-34532975D01*
X73995412Y-34545097D01*
X73990208Y-34548878D01*
X73971318Y-34567768D01*
X73967537Y-34572972D01*
X73955415Y-34596764D01*
X73954420Y-34599827D01*
X73954420Y-48815135D01*
X69255420Y-48815135D01*
X69255420Y-34599825D01*
X69254423Y-34596757D01*
X69242306Y-34572978D01*
X69238518Y-34567764D01*
X69219639Y-34548884D01*
X69214428Y-34545098D01*
X69190633Y-34532973D01*
X69187575Y-34531980D01*
X69187574Y-34531980D01*
X69170837Y-34531980D01*
X55037574Y-34531980D01*
X54972266Y-34531980D01*
X54972264Y-34531981D01*
X54969204Y-34532975D01*
X54945412Y-34545097D01*
X54940208Y-34548878D01*
X54921318Y-34567768D01*
X54917537Y-34572972D01*
X54905415Y-34596764D01*
X54904420Y-34599827D01*
X54904420Y-48815135D01*
X50205420Y-48815135D01*
X50205420Y-34599825D01*
X50204423Y-34596757D01*
X50192306Y-34572978D01*
X50188518Y-34567764D01*
X50169639Y-34548884D01*
X50164428Y-34545098D01*
X50140633Y-34532973D01*
X50137575Y-34531980D01*
X50137574Y-34531980D01*
X50120837Y-34531980D01*
X35987574Y-34531980D01*
X35922266Y-34531980D01*
X35922264Y-34531981D01*
X35919204Y-34532975D01*
X35895412Y-34545097D01*
X35890208Y-34548878D01*
X35871318Y-34567768D01*
X35867537Y-34572972D01*
X35855415Y-34596764D01*
X35854420Y-34599827D01*
X35854420Y-48815135D01*
X31155420Y-48815135D01*
X31155420Y-34599825D01*
X31154423Y-34596757D01*
X31142306Y-34572978D01*
X31138518Y-34567764D01*
X31119639Y-34548884D01*
X31114428Y-34545098D01*
X31090633Y-34532973D01*
X31087575Y-34531980D01*
X31087574Y-34531980D01*
X31070837Y-34531980D01*
X16937574Y-34531980D01*
X16872266Y-34531980D01*
X16872264Y-34531981D01*
X16869204Y-34532975D01*
X16845412Y-34545097D01*
X16840208Y-34548878D01*
X16821318Y-34567768D01*
X16817537Y-34572972D01*
X16805415Y-34596764D01*
X16804420Y-34599827D01*
X16804420Y-48815135D01*
X13145880Y-48815135D01*
X13145880Y-30212694D01*
X17001564Y-30212694D01*
X17001564Y-34192266D01*
X30598277Y-34192266D01*
X30598277Y-32297080D01*
X32195852Y-32297080D01*
X32215685Y-32523772D01*
X32274580Y-32743575D01*
X32370752Y-32949814D01*
X32501273Y-33136219D01*
X32662181Y-33297127D01*
X32848586Y-33427648D01*
X33054824Y-33523819D01*
X33274628Y-33582715D01*
X33501320Y-33602548D01*
X33728012Y-33582715D01*
X33947816Y-33523819D01*
X34154054Y-33427648D01*
X34340459Y-33297127D01*
X34501367Y-33136219D01*
X34631888Y-32949814D01*
X34728059Y-32743576D01*
X34786955Y-32523772D01*
X34806788Y-32297080D01*
X34806788Y-32297079D01*
X222695852Y-32297079D01*
X222715685Y-32523772D01*
X222774580Y-32743575D01*
X222870751Y-32949814D01*
X222870752Y-32949814D01*
X223001273Y-33136219D01*
X223162181Y-33297127D01*
X223348586Y-33427648D01*
X223554824Y-33523819D01*
X223774628Y-33582715D01*
X224001320Y-33602548D01*
X224228012Y-33582715D01*
X224447816Y-33523819D01*
X224654054Y-33427648D01*
X224840459Y-33297127D01*
X225001367Y-33136219D01*
X225131888Y-32949814D01*
X225228059Y-32743576D01*
X225286955Y-32523772D01*
X225306788Y-32297080D01*
X225286955Y-32070388D01*
X225228059Y-31850584D01*
X225131888Y-31644346D01*
X225001367Y-31457941D01*
X224840459Y-31297033D01*
X224654054Y-31166512D01*
X224654053Y-31166512D01*
X224447815Y-31070340D01*
X224228012Y-31011445D01*
X224001320Y-30991612D01*
X223774627Y-31011445D01*
X223554824Y-31070340D01*
X223348585Y-31166512D01*
X223162178Y-31297035D01*
X223001275Y-31457938D01*
X222870752Y-31644345D01*
X222774580Y-31850584D01*
X222715685Y-32070387D01*
X222695852Y-32297079D01*
X34806788Y-32297079D01*
X34786955Y-32070388D01*
X34728059Y-31850584D01*
X34631888Y-31644346D01*
X34501367Y-31457941D01*
X34340459Y-31297033D01*
X34154054Y-31166512D01*
X33947815Y-31070340D01*
X33728012Y-31011445D01*
X33501320Y-30991612D01*
X33501319Y-30991612D01*
X33274627Y-31011445D01*
X33054824Y-31070340D01*
X32848585Y-31166512D01*
X32662178Y-31297035D01*
X32501275Y-31457938D01*
X32370752Y-31644345D01*
X32274580Y-31850584D01*
X32215685Y-32070387D01*
X32195852Y-32297080D01*
X30598277Y-32297080D01*
X30598277Y-30212694D01*
X17001564Y-30212694D01*
X13145880Y-30212694D01*
X13145880Y-29815135D01*
X16804420Y-29815135D01*
X16805413Y-29818193D01*
X16817538Y-29841988D01*
X16821324Y-29847199D01*
X16840204Y-29866078D01*
X16845418Y-29869866D01*
X16869197Y-29881983D01*
X16872266Y-29882980D01*
X31087576Y-29882980D01*
X31090645Y-29881982D01*
X31114417Y-29869869D01*
X31117029Y-29867970D01*
X31117032Y-29867970D01*
X31117033Y-29867968D01*
X31119642Y-29866073D01*
X31138513Y-29847202D01*
X31140408Y-29844593D01*
X31140410Y-29844592D01*
X31140410Y-29844589D01*
X31142309Y-29841977D01*
X31154422Y-29818205D01*
X31155420Y-29815135D01*
X35854420Y-29815135D01*
X35855413Y-29818193D01*
X35867538Y-29841988D01*
X35871324Y-29847199D01*
X35890204Y-29866078D01*
X35895418Y-29869866D01*
X35919197Y-29881983D01*
X35922266Y-29882980D01*
X50137576Y-29882980D01*
X50140645Y-29881982D01*
X50164417Y-29869869D01*
X50167029Y-29867970D01*
X50167032Y-29867970D01*
X50167033Y-29867968D01*
X50169642Y-29866073D01*
X50188513Y-29847202D01*
X50190408Y-29844593D01*
X50190410Y-29844592D01*
X50190410Y-29844589D01*
X50192309Y-29841977D01*
X50204422Y-29818205D01*
X50205420Y-29815135D01*
X54904420Y-29815135D01*
X54905413Y-29818193D01*
X54917538Y-29841988D01*
X54921324Y-29847199D01*
X54940204Y-29866078D01*
X54945418Y-29869866D01*
X54969197Y-29881983D01*
X54972266Y-29882980D01*
X69187576Y-29882980D01*
X69190645Y-29881982D01*
X69214417Y-29869869D01*
X69217029Y-29867970D01*
X69217032Y-29867970D01*
X69217033Y-29867968D01*
X69219642Y-29866073D01*
X69238513Y-29847202D01*
X69240408Y-29844593D01*
X69240410Y-29844592D01*
X69240410Y-29844589D01*
X69242309Y-29841977D01*
X69254422Y-29818205D01*
X69255420Y-29815135D01*
X73954420Y-29815135D01*
X73955413Y-29818193D01*
X73967538Y-29841988D01*
X73971324Y-29847199D01*
X73990204Y-29866078D01*
X73995418Y-29869866D01*
X74019197Y-29881983D01*
X74022266Y-29882980D01*
X88237576Y-29882980D01*
X88240645Y-29881982D01*
X88264417Y-29869869D01*
X88267029Y-29867970D01*
X88267032Y-29867970D01*
X88267033Y-29867968D01*
X88269642Y-29866073D01*
X88288513Y-29847202D01*
X88290408Y-29844593D01*
X88290410Y-29844592D01*
X88290410Y-29844589D01*
X88292309Y-29841977D01*
X88304422Y-29818205D01*
X88305420Y-29815135D01*
X93004420Y-29815135D01*
X93005413Y-29818193D01*
X93017538Y-29841988D01*
X93021324Y-29847199D01*
X93040204Y-29866078D01*
X93045418Y-29869866D01*
X93069197Y-29881983D01*
X93072266Y-29882980D01*
X107287576Y-29882980D01*
X107290645Y-29881982D01*
X107314417Y-29869869D01*
X107317029Y-29867970D01*
X107317032Y-29867970D01*
X107317033Y-29867968D01*
X107319642Y-29866073D01*
X107338513Y-29847202D01*
X107340408Y-29844593D01*
X107340410Y-29844592D01*
X107340410Y-29844589D01*
X107342309Y-29841977D01*
X107354422Y-29818205D01*
X107355420Y-29815135D01*
X107355420Y-15599827D01*
X112054419Y-15599827D01*
X112054420Y-29815135D01*
X112055413Y-29818193D01*
X112067538Y-29841988D01*
X112071324Y-29847199D01*
X112090204Y-29866078D01*
X112095418Y-29869866D01*
X112119197Y-29881983D01*
X112122266Y-29882980D01*
X126337576Y-29882980D01*
X126340645Y-29881982D01*
X126364417Y-29869869D01*
X126367029Y-29867970D01*
X126367032Y-29867970D01*
X126367033Y-29867968D01*
X126369642Y-29866073D01*
X126388513Y-29847202D01*
X126390408Y-29844593D01*
X126390410Y-29844592D01*
X126390410Y-29844589D01*
X126392309Y-29841977D01*
X126404422Y-29818205D01*
X126405420Y-29815135D01*
X131104420Y-29815135D01*
X131105413Y-29818193D01*
X131117538Y-29841988D01*
X131121324Y-29847199D01*
X131140204Y-29866078D01*
X131145418Y-29869866D01*
X131169197Y-29881983D01*
X131172266Y-29882980D01*
X145387576Y-29882980D01*
X145390645Y-29881982D01*
X145414417Y-29869869D01*
X145417029Y-29867970D01*
X145417032Y-29867970D01*
X145417033Y-29867968D01*
X145419642Y-29866073D01*
X145438513Y-29847202D01*
X145440408Y-29844593D01*
X145440410Y-29844592D01*
X145440410Y-29844589D01*
X145442309Y-29841977D01*
X145454422Y-29818205D01*
X145455420Y-29815135D01*
X150154420Y-29815135D01*
X150155413Y-29818193D01*
X150167538Y-29841988D01*
X150171324Y-29847199D01*
X150190204Y-29866078D01*
X150195418Y-29869866D01*
X150219197Y-29881983D01*
X150222266Y-29882980D01*
X164437576Y-29882980D01*
X164440645Y-29881982D01*
X164464417Y-29869869D01*
X164467029Y-29867970D01*
X164467032Y-29867970D01*
X164467033Y-29867968D01*
X164469642Y-29866073D01*
X164488513Y-29847202D01*
X164490408Y-29844593D01*
X164490410Y-29844592D01*
X164490410Y-29844589D01*
X164492309Y-29841977D01*
X164504422Y-29818205D01*
X164505420Y-29815135D01*
X169204420Y-29815135D01*
X169205413Y-29818193D01*
X169217538Y-29841988D01*
X169221324Y-29847199D01*
X169240204Y-29866078D01*
X169245418Y-29869866D01*
X169269197Y-29881983D01*
X169272266Y-29882980D01*
X183487576Y-29882980D01*
X183490645Y-29881982D01*
X183514417Y-29869869D01*
X183517029Y-29867970D01*
X183517032Y-29867970D01*
X183517033Y-29867968D01*
X183519642Y-29866073D01*
X183538513Y-29847202D01*
X183540408Y-29844593D01*
X183540410Y-29844592D01*
X183540410Y-29844589D01*
X183542309Y-29841977D01*
X183554422Y-29818205D01*
X183555420Y-29815135D01*
X188254420Y-29815135D01*
X188255413Y-29818193D01*
X188267538Y-29841988D01*
X188271324Y-29847199D01*
X188290204Y-29866078D01*
X188295418Y-29869866D01*
X188319197Y-29881983D01*
X188322266Y-29882980D01*
X202537576Y-29882980D01*
X202540645Y-29881982D01*
X202564417Y-29869869D01*
X202567029Y-29867970D01*
X202567032Y-29867970D01*
X202567033Y-29867968D01*
X202569642Y-29866073D01*
X202588513Y-29847202D01*
X202590408Y-29844593D01*
X202590410Y-29844592D01*
X202590410Y-29844589D01*
X202592309Y-29841977D01*
X202604422Y-29818205D01*
X202605420Y-29815135D01*
X207304420Y-29815135D01*
X207305413Y-29818193D01*
X207317538Y-29841988D01*
X207321324Y-29847199D01*
X207340204Y-29866078D01*
X207345418Y-29869866D01*
X207369197Y-29881983D01*
X207372266Y-29882980D01*
X221587576Y-29882980D01*
X221590645Y-29881982D01*
X221614417Y-29869869D01*
X221617029Y-29867970D01*
X221617032Y-29867970D01*
X221617033Y-29867968D01*
X221619642Y-29866073D01*
X221638513Y-29847202D01*
X221640408Y-29844593D01*
X221640410Y-29844592D01*
X221640410Y-29844589D01*
X221642309Y-29841977D01*
X221654422Y-29818205D01*
X221655420Y-29815135D01*
X226354420Y-29815135D01*
X226355413Y-29818193D01*
X226367538Y-29841988D01*
X226371324Y-29847199D01*
X226390204Y-29866078D01*
X226395418Y-29869866D01*
X226419197Y-29881983D01*
X226422266Y-29882980D01*
X240637576Y-29882980D01*
X240640645Y-29881982D01*
X240664417Y-29869869D01*
X240667029Y-29867970D01*
X240667032Y-29867970D01*
X240667033Y-29867968D01*
X240669642Y-29866073D01*
X240688513Y-29847202D01*
X240690408Y-29844593D01*
X240690410Y-29844592D01*
X240690410Y-29844589D01*
X240692309Y-29841977D01*
X240704422Y-29818205D01*
X240705420Y-29815135D01*
X240705420Y-15599825D01*
X240704423Y-15596757D01*
X240692306Y-15572978D01*
X240688518Y-15567764D01*
X240669639Y-15548884D01*
X240664428Y-15545098D01*
X240640633Y-15532973D01*
X240637575Y-15531980D01*
X240637574Y-15531980D01*
X240620837Y-15531980D01*
X226487574Y-15531980D01*
X226422266Y-15531980D01*
X226422264Y-15531981D01*
X226419204Y-15532975D01*
X226395412Y-15545097D01*
X226390208Y-15548878D01*
X226371318Y-15567768D01*
X226367537Y-15572972D01*
X226355415Y-15596764D01*
X226354420Y-15599827D01*
X226354420Y-29815135D01*
X221655420Y-29815135D01*
X221655420Y-15599825D01*
X221654423Y-15596757D01*
X221642306Y-15572978D01*
X221638518Y-15567764D01*
X221619639Y-15548884D01*
X221614428Y-15545098D01*
X221590633Y-15532973D01*
X221587575Y-15531980D01*
X221587574Y-15531980D01*
X221570837Y-15531980D01*
X207437574Y-15531980D01*
X207372266Y-15531980D01*
X207372264Y-15531981D01*
X207369204Y-15532975D01*
X207345412Y-15545097D01*
X207340208Y-15548878D01*
X207321318Y-15567768D01*
X207317537Y-15572972D01*
X207305415Y-15596764D01*
X207304420Y-15599827D01*
X207304420Y-29815135D01*
X202605420Y-29815135D01*
X202605420Y-15599825D01*
X202604423Y-15596757D01*
X202592306Y-15572978D01*
X202588518Y-15567764D01*
X202569639Y-15548884D01*
X202564428Y-15545098D01*
X202540633Y-15532973D01*
X202537575Y-15531980D01*
X202537574Y-15531980D01*
X202520837Y-15531980D01*
X188387574Y-15531980D01*
X188322266Y-15531980D01*
X188322264Y-15531981D01*
X188319204Y-15532975D01*
X188295412Y-15545097D01*
X188290208Y-15548878D01*
X188271318Y-15567768D01*
X188267537Y-15572972D01*
X188255415Y-15596764D01*
X188254420Y-15599827D01*
X188254420Y-29815135D01*
X183555420Y-29815135D01*
X183555420Y-15599825D01*
X183554423Y-15596757D01*
X183542306Y-15572978D01*
X183538518Y-15567764D01*
X183519639Y-15548884D01*
X183514428Y-15545098D01*
X183490633Y-15532973D01*
X183487575Y-15531980D01*
X183487574Y-15531980D01*
X183470837Y-15531980D01*
X169337574Y-15531980D01*
X169272266Y-15531980D01*
X169272264Y-15531981D01*
X169269204Y-15532975D01*
X169245412Y-15545097D01*
X169240208Y-15548878D01*
X169221318Y-15567768D01*
X169217537Y-15572972D01*
X169205415Y-15596764D01*
X169204420Y-15599827D01*
X169204420Y-29815135D01*
X164505420Y-29815135D01*
X164505420Y-15599825D01*
X164504423Y-15596757D01*
X164492306Y-15572978D01*
X164488518Y-15567764D01*
X164469639Y-15548884D01*
X164464428Y-15545098D01*
X164440633Y-15532973D01*
X164437575Y-15531980D01*
X164437574Y-15531980D01*
X164420837Y-15531980D01*
X150287574Y-15531980D01*
X150222266Y-15531980D01*
X150222264Y-15531981D01*
X150219204Y-15532975D01*
X150195412Y-15545097D01*
X150190208Y-15548878D01*
X150171318Y-15567768D01*
X150167537Y-15572972D01*
X150155415Y-15596764D01*
X150154420Y-15599827D01*
X150154420Y-29815135D01*
X145455420Y-29815135D01*
X145455420Y-15599825D01*
X145454423Y-15596757D01*
X145442306Y-15572978D01*
X145438518Y-15567764D01*
X145419639Y-15548884D01*
X145414428Y-15545098D01*
X145390633Y-15532973D01*
X145387575Y-15531980D01*
X145387574Y-15531980D01*
X145370837Y-15531980D01*
X131237574Y-15531980D01*
X131172266Y-15531980D01*
X131172264Y-15531981D01*
X131169204Y-15532975D01*
X131145412Y-15545097D01*
X131140208Y-15548878D01*
X131121318Y-15567768D01*
X131117537Y-15572972D01*
X131105415Y-15596764D01*
X131104420Y-15599827D01*
X131104420Y-29815135D01*
X126405420Y-29815135D01*
X126405420Y-15599825D01*
X126404423Y-15596757D01*
X126392306Y-15572978D01*
X126388518Y-15567764D01*
X126369639Y-15548884D01*
X126364428Y-15545098D01*
X126340633Y-15532973D01*
X126337575Y-15531980D01*
X126337574Y-15531980D01*
X126320837Y-15531980D01*
X112187574Y-15531980D01*
X112122266Y-15531980D01*
X112122264Y-15531981D01*
X112119204Y-15532975D01*
X112095412Y-15545097D01*
X112090208Y-15548878D01*
X112071318Y-15567768D01*
X112067537Y-15572972D01*
X112055415Y-15596764D01*
X112054419Y-15599827D01*
X107355420Y-15599827D01*
X107355420Y-15599825D01*
X107354423Y-15596757D01*
X107342306Y-15572978D01*
X107338518Y-15567764D01*
X107319639Y-15548884D01*
X107314428Y-15545098D01*
X107290633Y-15532973D01*
X107287575Y-15531980D01*
X107287574Y-15531980D01*
X107270837Y-15531980D01*
X93137574Y-15531980D01*
X93072266Y-15531980D01*
X93072264Y-15531981D01*
X93069204Y-15532975D01*
X93045412Y-15545097D01*
X93040208Y-15548878D01*
X93021318Y-15567768D01*
X93017537Y-15572972D01*
X93005415Y-15596764D01*
X93004420Y-15599827D01*
X93004420Y-29815135D01*
X88305420Y-29815135D01*
X88305420Y-15599825D01*
X88304423Y-15596757D01*
X88292306Y-15572978D01*
X88288518Y-15567764D01*
X88269639Y-15548884D01*
X88264428Y-15545098D01*
X88240633Y-15532973D01*
X88237575Y-15531980D01*
X88237574Y-15531980D01*
X88220837Y-15531980D01*
X74087574Y-15531980D01*
X74022266Y-15531980D01*
X74022264Y-15531981D01*
X74019204Y-15532975D01*
X73995412Y-15545097D01*
X73990208Y-15548878D01*
X73971318Y-15567768D01*
X73967537Y-15572972D01*
X73955415Y-15596764D01*
X73954420Y-15599827D01*
X73954420Y-29815135D01*
X69255420Y-29815135D01*
X69255420Y-15599825D01*
X69254423Y-15596757D01*
X69242306Y-15572978D01*
X69238518Y-15567764D01*
X69219639Y-15548884D01*
X69214428Y-15545098D01*
X69190633Y-15532973D01*
X69187575Y-15531980D01*
X69187574Y-15531980D01*
X69170837Y-15531980D01*
X55037574Y-15531980D01*
X54972266Y-15531980D01*
X54972264Y-15531981D01*
X54969204Y-15532975D01*
X54945412Y-15545097D01*
X54940208Y-15548878D01*
X54921318Y-15567768D01*
X54917537Y-15572972D01*
X54905415Y-15596764D01*
X54904420Y-15599827D01*
X54904420Y-29815135D01*
X50205420Y-29815135D01*
X50205420Y-15599825D01*
X50204423Y-15596757D01*
X50192306Y-15572978D01*
X50188518Y-15567764D01*
X50169639Y-15548884D01*
X50164428Y-15545098D01*
X50140633Y-15532973D01*
X50137575Y-15531980D01*
X50137574Y-15531980D01*
X50120837Y-15531980D01*
X35987574Y-15531980D01*
X35922266Y-15531980D01*
X35922264Y-15531981D01*
X35919204Y-15532975D01*
X35895412Y-15545097D01*
X35890208Y-15548878D01*
X35871318Y-15567768D01*
X35867537Y-15572972D01*
X35855415Y-15596764D01*
X35854420Y-15599827D01*
X35854420Y-29815135D01*
X31155420Y-29815135D01*
X31155420Y-15599825D01*
X31154423Y-15596757D01*
X31142306Y-15572978D01*
X31138518Y-15567764D01*
X31119639Y-15548884D01*
X31114428Y-15545098D01*
X31090633Y-15532973D01*
X31087575Y-15531980D01*
X31087574Y-15531980D01*
X31070837Y-15531980D01*
X16937574Y-15531980D01*
X16872266Y-15531980D01*
X16872264Y-15531981D01*
X16869204Y-15532975D01*
X16845412Y-15545097D01*
X16840208Y-15548878D01*
X16821318Y-15567768D01*
X16817537Y-15572972D01*
X16805415Y-15596764D01*
X16804420Y-15599827D01*
X16804420Y-29815135D01*
X13145880Y-29815135D01*
X13145880Y-16027238D01*
X13146078Y-16020173D01*
X13163714Y-15706124D01*
X13165296Y-15692083D01*
X13217393Y-15385464D01*
X13220532Y-15371714D01*
X13306634Y-15072845D01*
X13311298Y-15059518D01*
X13430320Y-14772173D01*
X13436434Y-14759477D01*
X13586885Y-14487257D01*
X13594393Y-14475308D01*
X13594404Y-14475293D01*
X13774372Y-14221652D01*
X13783170Y-14210620D01*
X13990409Y-13978719D01*
X14000400Y-13968729D01*
X14232302Y-13761489D01*
X14243332Y-13752692D01*
X14496994Y-13572709D01*
X14508939Y-13565203D01*
X14781157Y-13414754D01*
X14793853Y-13408640D01*
X15081205Y-13289614D01*
X15094525Y-13284954D01*
X15393394Y-13198852D01*
X15407144Y-13195713D01*
X15713768Y-13143615D01*
X15727799Y-13142034D01*
X16041854Y-13124397D01*
X16048919Y-13124200D01*
X16072309Y-13124200D01*
X241438452Y-13124200D01*
X241461843Y-13124200D01*
X241468907Y-13124398D01*
G37*
%TD.AperFunction*%
M02*
