G04 #@! TF.GenerationSoftware,KiCad,Pcbnew,(6.0.0)*
G04 #@! TF.CreationDate,2023-04-13T16:43:50-07:00*
G04 #@! TF.ProjectId,uni_corne_plate_left,756e695f-636f-4726-9e65-5f706c617465,1.1*
G04 #@! TF.SameCoordinates,Original*
G04 #@! TF.FileFunction,Profile,NP*
%FSLAX46Y46*%
G04 Gerber Fmt 4.6, Leading zero omitted, Abs format (unit mm)*
G04 Created by KiCad (PCBNEW (6.0.0)) date 2023-04-13 16:43:50*
%MOMM*%
%LPD*%
G01*
G04 APERTURE LIST*
G04 #@! TA.AperFunction,Profile*
%ADD10C,0.100000*%
G04 #@! TD*
G04 #@! TA.AperFunction,Profile*
%ADD11C,0.050000*%
G04 #@! TD*
%ADD12C,0.200000*%
G04 APERTURE END LIST*
D10*
X180665986Y-46963736D02*
G75*
G03*
X180165734Y-47463736I-251J-500001D01*
G01*
X181190000Y-85990000D02*
G75*
G03*
X180690000Y-85490000I-500001J-1D01*
G01*
X169940000Y-88070000D02*
X169940000Y-85990000D01*
X179715390Y-89212411D02*
X184359508Y-89210391D01*
X143882192Y-44036564D02*
X143882192Y-58086564D01*
X162882192Y-79461564D02*
X148832192Y-79461564D01*
X129832192Y-58086564D02*
X129832192Y-44036564D01*
X86882192Y-62836564D02*
X72832192Y-62836564D01*
X72832192Y-67786564D02*
X86882192Y-67786564D01*
X92763046Y-38019142D02*
G75*
G03*
X87779302Y-41423687I0J-5350000D01*
G01*
X91832192Y-82036564D02*
X105882192Y-82036564D01*
X148832192Y-79461564D02*
X148832192Y-65411564D01*
X143882192Y-58086564D02*
X129832192Y-58086564D01*
X153324617Y-120040397D02*
X139753359Y-116403989D01*
X146970003Y-40329369D02*
G75*
G03*
X142567472Y-38019142I-4402529J-3039770D01*
G01*
X156961025Y-106469139D02*
X153324617Y-120040397D01*
X179665734Y-52826274D02*
X171415734Y-52826274D01*
X110832192Y-55711564D02*
X110832192Y-41661564D01*
X167532441Y-131627011D02*
G75*
G03*
X174839685Y-129665077I2672655J4634588D01*
G01*
X170915734Y-52326274D02*
X170915734Y-47458572D01*
X156235638Y-125112421D02*
X167532441Y-131627011D01*
X184843988Y-88830391D02*
X184843988Y-88790391D01*
X53832192Y-62836564D02*
X53832192Y-48786564D01*
X91832192Y-63036564D02*
X105882192Y-63036564D01*
X185151192Y-102806564D02*
G75*
G03*
X185151192Y-102806564I-2100000J0D01*
G01*
X110832192Y-74711564D02*
X110832192Y-60661564D01*
X182540733Y-42776196D02*
X182540437Y-45364057D01*
X124882192Y-41661564D02*
X124882192Y-55711564D01*
X67882192Y-81836564D02*
X53832192Y-81836564D01*
X170915734Y-52326274D02*
G75*
G03*
X171415734Y-52826274I500001J1D01*
G01*
X134382192Y-115711564D02*
X120332192Y-115711564D01*
X143882192Y-82036564D02*
X143882192Y-96086564D01*
X170915734Y-47458572D02*
G75*
G03*
X170415986Y-46958572I-499998J2D01*
G01*
X148832192Y-84411564D02*
X162882192Y-84411564D01*
X82516096Y-45019142D02*
X55516096Y-45019142D01*
X187616096Y-101197891D02*
X186401897Y-101197891D01*
X139753359Y-116403989D02*
X143389767Y-102832732D01*
X124882192Y-79661564D02*
X124882192Y-93711564D01*
X168540733Y-42769142D02*
X151619405Y-42769142D01*
X50166096Y-50369142D02*
X50166096Y-99619142D01*
X168035864Y-105590236D02*
X180203521Y-112615236D01*
X105882192Y-82036564D02*
X105882192Y-96086564D01*
X67882192Y-48786564D02*
X67882192Y-62836564D01*
D11*
X166740000Y-53690000D02*
X170610000Y-53690000D01*
X170610000Y-53690000D02*
X170610000Y-59970000D01*
X170610000Y-59970000D02*
X166740000Y-59970000D01*
X166740000Y-59970000D02*
X166740000Y-53690000D01*
D10*
X110832192Y-93711564D02*
X110832192Y-79661564D01*
X110832192Y-60661564D02*
X124882192Y-60661564D01*
X67882192Y-100836564D02*
X53832192Y-100836564D01*
X180689999Y-88570001D02*
X170440000Y-88570000D01*
X86882192Y-67786564D02*
X86882192Y-81836564D01*
X148832192Y-98461564D02*
X148832192Y-84411564D01*
X91832192Y-58086564D02*
X91832192Y-44036564D01*
X187616096Y-48119142D02*
G75*
G03*
X182540733Y-42776196I-5350000J0D01*
G01*
X179220000Y-98690000D02*
X179215390Y-89712411D01*
X168540733Y-45358433D02*
G75*
G03*
X170139926Y-46958433I1600000J0D01*
G01*
X67882192Y-67786564D02*
X67882192Y-81836564D01*
X129832192Y-96086564D02*
X129832192Y-82036564D01*
X143882192Y-77086564D02*
X129832192Y-77086564D01*
X105882192Y-44036564D02*
X105882192Y-58086564D01*
X148832192Y-60461564D02*
X148832192Y-46411564D01*
X179665734Y-52826274D02*
G75*
G03*
X180165734Y-52326274I-1J500001D01*
G01*
X91832192Y-44036564D02*
X105882192Y-44036564D01*
X86882192Y-86786564D02*
X86882192Y-100836564D01*
X91832192Y-96086564D02*
X91832192Y-82036564D01*
X72832192Y-81836564D02*
X72832192Y-67786564D01*
X86882192Y-81836564D02*
X72832192Y-81836564D01*
X129832192Y-82036564D02*
X143882192Y-82036564D01*
X170415986Y-46958572D02*
X170139926Y-46958433D01*
X180203521Y-112615236D02*
X173178521Y-124782893D01*
X143882192Y-63036564D02*
X143882192Y-77086564D01*
X142567472Y-38019142D02*
X92763046Y-38019142D01*
X129832192Y-77086564D02*
X129832192Y-63036564D01*
X55516096Y-45019142D02*
G75*
G03*
X50166096Y-50369142I-2J-5349998D01*
G01*
X169940000Y-88070000D02*
G75*
G03*
X170440000Y-88570000I500001J1D01*
G01*
X72832192Y-62836564D02*
X72832192Y-48786564D01*
X72832192Y-86786564D02*
X86882192Y-86786564D01*
X53832192Y-67786564D02*
X67882192Y-67786564D01*
X124882192Y-74711564D02*
X110832192Y-74711564D01*
X187616096Y-106077718D02*
X187616096Y-101197891D01*
X168540733Y-45358433D02*
X168540733Y-42769142D01*
X180939631Y-46963874D02*
G75*
G03*
X182540437Y-45364057I808J1599998D01*
G01*
X82516096Y-45019142D02*
G75*
G03*
X87779302Y-41423687I1J5649997D01*
G01*
X129832192Y-63036564D02*
X143882192Y-63036564D01*
X134382192Y-101661564D02*
X134382192Y-115711564D01*
X170719192Y-94285564D02*
G75*
G03*
X170719192Y-94285564I-2100000J0D01*
G01*
X53832192Y-48786564D02*
X67882192Y-48786564D01*
X170440000Y-85490000D02*
G75*
G03*
X169940000Y-85990000I1J-500001D01*
G01*
X120332192Y-101661564D02*
X134382192Y-101661564D01*
X91832192Y-77086564D02*
X91832192Y-63036564D01*
X184364118Y-99187980D02*
X179720000Y-99190000D01*
X67882192Y-62836564D02*
X53832192Y-62836564D01*
X53832192Y-100836564D02*
X53832192Y-86786564D01*
X146970003Y-40329369D02*
G75*
G03*
X151619405Y-42769142I4649403J3210228D01*
G01*
X53832192Y-86786564D02*
X67882192Y-86786564D01*
X105882192Y-77086564D02*
X91832192Y-77086564D01*
X124882192Y-60661564D02*
X124882192Y-74711564D01*
X116251121Y-117781623D02*
G75*
G03*
X119882875Y-119935772I4323684J3150923D01*
G01*
X162882192Y-98461564D02*
X148832192Y-98461564D01*
X105882192Y-96086564D02*
X91832192Y-96086564D01*
X53832192Y-81836564D02*
X53832192Y-67786564D01*
X187616096Y-87201768D02*
X187616096Y-48119142D01*
X55516096Y-104969142D02*
X104040255Y-104969142D01*
D12*
X424925367Y-111394368D02*
X424925367Y-111394368D01*
D10*
X162882192Y-84411564D02*
X162882192Y-98461564D01*
X186395885Y-87202500D02*
G75*
G03*
X184843988Y-88790391I-1J-1552304D01*
G01*
X180939631Y-46963874D02*
X180665986Y-46963736D01*
X120332192Y-115711564D02*
X120332192Y-101661564D01*
X187616096Y-87201768D02*
X186402901Y-87202500D01*
X86882192Y-48786564D02*
X86882192Y-62836564D01*
X161010864Y-117757893D02*
X168035864Y-105590236D01*
X143389767Y-102832732D02*
X156961025Y-106469139D01*
D11*
X180540000Y-53690000D02*
X184410000Y-53690000D01*
X184410000Y-53690000D02*
X184410000Y-59970000D01*
X184410000Y-59970000D02*
X180540000Y-59970000D01*
X180540000Y-59970000D02*
X180540000Y-53690000D01*
D10*
X180165734Y-47463736D02*
X180165734Y-52326274D01*
X67882192Y-86786564D02*
X67882192Y-100836564D01*
X186900685Y-108750373D02*
G75*
G03*
X187616096Y-106077718I-4634601J2672658D01*
G01*
X162882192Y-65411564D02*
X162882192Y-79461564D01*
X119882875Y-119935772D02*
X154143842Y-124404346D01*
X184850000Y-99610000D02*
X184850000Y-99570000D01*
X156235638Y-125112421D02*
G75*
G03*
X154143842Y-124404346I-2822520J-4894462D01*
G01*
X184850000Y-99570000D02*
G75*
G03*
X184364118Y-99187980I-485881J-117980D01*
G01*
X124882192Y-55711564D02*
X110832192Y-55711564D01*
X148832192Y-65411564D02*
X162882192Y-65411564D01*
X180689999Y-88570001D02*
G75*
G03*
X181189999Y-88070001I-1J500001D01*
G01*
X179220000Y-98690000D02*
G75*
G03*
X179720000Y-99190000I500001J1D01*
G01*
X72832192Y-48786564D02*
X86882192Y-48786564D01*
X174839685Y-129665077D02*
X186900685Y-108750373D01*
X108606386Y-107291537D02*
X116251121Y-117781623D01*
X110832192Y-41661564D02*
X124882192Y-41661564D01*
X50166096Y-99619142D02*
G75*
G03*
X55516096Y-104969142I5349998J-2D01*
G01*
X162882192Y-46411564D02*
X162882192Y-60461564D01*
X184850000Y-99610000D02*
G75*
G03*
X186401897Y-101197891I1551896J-35587D01*
G01*
X181190000Y-85990000D02*
X181189999Y-88070001D01*
X124882192Y-93711564D02*
X110832192Y-93711564D01*
D12*
X299411433Y-111386368D02*
X299411433Y-111386368D01*
D10*
X148832192Y-46411564D02*
X162882192Y-46411564D01*
X105882192Y-63036564D02*
X105882192Y-77086564D01*
X108606386Y-107291537D02*
G75*
G03*
X104040255Y-104969142I-4566134J-3327612D01*
G01*
X143882192Y-96086564D02*
X129832192Y-96086564D01*
X170440000Y-85490000D02*
X180690000Y-85490000D01*
X110832192Y-79661564D02*
X124882192Y-79661564D01*
X105882192Y-58086564D02*
X91832192Y-58086564D01*
X162882192Y-60461564D02*
X148832192Y-60461564D01*
X179715390Y-89212411D02*
G75*
G03*
X179215390Y-89712411I1J-500001D01*
G01*
X173178521Y-124782893D02*
X161010864Y-117757893D01*
X86882192Y-100836564D02*
X72832192Y-100836564D01*
X72832192Y-100836564D02*
X72832192Y-86786564D01*
X129832192Y-44036564D02*
X143882192Y-44036564D01*
X184358106Y-89212411D02*
G75*
G03*
X184843988Y-88830391I1J500000D01*
G01*
M02*
